<?xml version="1.0" standalone="no"?>
<!DOCTYPE svg PUBLIC "-//W3C//DTD SVG 20010904//EN"
 "http://www.w3.org/TR/2001/REC-SVG-20010904/DTD/svg10.dtd">
<svg version="1.0" xmlns="http://www.w3.org/2000/svg"
 width="1174.000000pt" height="1174.000000pt" viewBox="0 0 1174.000000 1174.000000"
 preserveAspectRatio="xMidYMid meet">
<metadata>
Created by potrace 1.14, written by Peter Selinger 2001-2017
</metadata>
<g transform="translate(0.000000,1174.000000) scale(0.100000,-0.100000)"
fill="#000000" stroke="none">
<path d="M3919 11397 c-64 -18 -132 -60 -171 -106 -31 -37 -39 -40 -127 -55
-116 -20 -302 -67 -430 -108 -113 -36 -341 -148 -578 -284 -278 -159 -336
-203 -705 -535 -308 -278 -473 -459 -741 -816 -132 -176 -164 -226 -314 -488
-205 -359 -232 -422 -311 -745 -49 -199 -60 -279 -68 -514 -6 -177 -6 -186 29
-391 20 -115 44 -235 53 -265 18 -65 158 -337 217 -424 151 -226 338 -433 597
-666 168 -151 227 -189 265 -172 17 8 27 6 48 -11 l26 -22 -15 -65 c-22 -92
-30 -419 -14 -578 16 -174 54 -390 85 -490 26 -82 72 -152 101 -152 8 0 -16
-38 -54 -87 -194 -250 -268 -409 -367 -798 -73 -288 -95 -453 -95 -726 0 -262
30 -417 125 -651 126 -307 268 -513 539 -783 260 -259 364 -339 672 -515 478
-273 779 -388 1135 -434 634 -81 802 -94 1334 -102 512 -8 743 4 1240 66 267
33 457 69 749 141 452 112 582 152 1031 320 567 211 754 310 1159 614 327 245
684 586 916 875 177 218 374 622 426 870 25 118 25 545 1 704 -9 60 -17 119
-17 131 0 16 41 59 146 151 141 125 231 227 272 309 45 91 132 400 153 545 20
144 -2 554 -42 755 -25 127 -66 211 -138 285 -49 50 -67 61 -132 81 -64 21
-95 24 -229 24 -85 0 -177 -6 -205 -12 -27 -7 -78 -19 -113 -27 l-63 -14 21
31 c30 46 84 153 113 224 14 34 52 104 86 155 79 123 119 211 174 388 25 80
68 217 96 306 28 88 64 218 81 290 16 71 41 171 55 223 61 225 70 310 70 646
0 350 -7 414 -66 630 -110 403 -241 663 -492 975 -46 58 -90 123 -97 145 -39
121 -113 213 -225 277 -74 43 -116 75 -230 173 -83 71 -266 205 -314 230 -34
17 -548 195 -693 240 -231 71 -591 120 -1172 160 -276 19 -403 19 -746 0 -537
-29 -616 -43 -940 -162 -200 -74 -240 -94 -240 -118 0 -7 -18 -20 -39 -30 -42
-19 -47 -18 -203 23 -42 12 -131 26 -198 32 -89 8 -137 18 -176 35 -30 13
-100 35 -157 49 -56 13 -129 31 -162 39 -33 8 -139 42 -235 75 -118 41 -232
73 -350 96 -213 43 -290 50 -351 33z m2564 -264 c-7 -2 -21 -2 -30 0 -10 3 -4
5 12 5 17 0 24 -2 18 -5z m-1133 -2031 c36 -17 97 -39 135 -47 104 -22 351
-36 510 -29 l140 7 0 -154 c1 -217 33 -323 165 -542 43 -72 76 -143 93 -199
65 -208 170 -383 342 -566 39 -42 110 -129 156 -192 86 -116 199 -244 298
-335 29 -27 66 -74 81 -105 39 -76 94 -147 152 -196 67 -57 312 -177 438 -214
196 -59 238 -78 377 -168 153 -99 209 -129 310 -167 37 -14 102 -45 143 -68
203 -115 247 -122 760 -122 l405 0 117 32 c64 18 140 44 169 60 28 15 70 38
93 50 58 31 116 30 151 -3 l28 -26 118 13 c149 15 305 8 356 -18 42 -20 96
-93 113 -151 21 -73 42 -352 43 -567 2 -243 0 -251 -74 -509 -65 -224 -96
-274 -260 -416 -65 -56 -97 -79 -108 -74 -43 19 -88 16 -116 -8 -28 -24 -28
-25 -30 -159 -3 -116 0 -137 15 -154 30 -35 45 -186 44 -455 0 -237 -1 -248
-28 -334 -63 -208 -205 -501 -316 -658 -113 -158 -398 -463 -598 -639 -317
-281 -638 -508 -907 -642 -207 -102 -823 -332 -1135 -422 -285 -83 -658 -172
-857 -206 -210 -35 -642 -84 -883 -100 -117 -8 -322 -9 -615 -5 -451 7 -633
16 -835 41 -63 8 -200 24 -305 35 -520 57 -723 126 -1245 423 -312 177 -379
228 -613 457 -154 150 -277 291 -361 414 -105 153 -230 452 -273 656 -14 69
-18 132 -18 330 1 271 10 357 71 631 77 349 96 397 277 697 140 233 157 296
114 424 -63 182 -106 431 -113 648 -2 85 -6 201 -9 257 l-4 101 97 0 c148 1
371 29 528 67 77 18 186 39 242 45 56 6 127 18 159 26 32 9 101 26 153 40 137
35 250 80 306 123 54 40 112 119 121 163 3 15 7 28 9 28 3 0 28 -16 56 -36 39
-26 58 -34 77 -29 33 7 61 40 61 71 0 13 -39 83 -86 156 -187 287 -240 477
-238 863 1 228 18 390 59 560 28 118 112 359 161 461 43 91 120 194 144 194
56 0 131 43 223 129 84 78 113 97 253 168 161 82 424 199 634 280 63 25 125
49 137 53 20 8 19 4 -13 -66 -46 -98 -71 -200 -89 -354 -42 -359 17 -907 120
-1110 41 -81 142 -207 184 -232 29 -16 41 -30 41 -45 0 -13 13 -37 29 -55 26
-29 35 -33 81 -33 46 0 55 4 81 33 26 29 29 39 29 99 0 37 -7 96 -16 132 -20
84 -106 257 -161 324 -74 89 -103 156 -124 285 -66 386 -65 434 2 697 28 110
58 213 66 230 31 61 85 146 92 143 3 -2 35 -18 71 -36z m5497 -569 c-2 -27 -3
-5 -3 47 0 52 1 74 3 48 2 -27 2 -69 0 -95z m-7359 -31 c9 -6 1 -26 -34 -78
-26 -38 -44 -60 -41 -49 3 11 11 40 17 65 17 64 31 79 58 62z"/>
<path d="M8235 5914 c-268 -28 -341 -42 -490 -96 -190 -70 -300 -134 -414
-242 -70 -68 -101 -119 -101 -168 0 -44 22 -74 65 -88 43 -14 76 0 155 66 97
81 196 140 307 183 191 74 248 85 687 121 71 6 141 17 156 25 27 14 60 68 60
100 0 39 -34 88 -74 106 -51 23 -67 23 -351 -7z"/>
<path d="M3534 5700 c-66 -9 -131 -38 -235 -105 -98 -63 -135 -138 -89 -180
26 -24 71 -14 146 31 103 63 155 84 212 84 63 0 267 -36 542 -95 280 -60 310
-65 414 -65 138 1 206 42 206 125 0 29 -40 74 -67 76 -10 1 -70 2 -133 3 -91
2 -156 11 -310 43 -107 23 -278 51 -380 62 -102 12 -198 23 -215 25 -16 2 -58
0 -91 -4z"/>
<path d="M7973 4921 c-72 -21 -90 -32 -164 -99 -130 -119 -163 -282 -78 -385
54 -66 98 -82 219 -82 141 1 196 19 271 94 182 182 102 454 -141 484 -29 4
-67 -1 -107 -12z"/>
<path d="M3935 4530 c-51 -12 -111 -47 -145 -86 -98 -113 -136 -327 -76 -441
37 -72 143 -133 232 -133 33 0 166 40 214 65 60 31 122 147 141 263 20 118
-13 187 -126 264 -93 63 -170 85 -240 68z"/>
<path d="M9531 3799 c-64 -12 -218 -69 -255 -93 -43 -29 -116 -143 -116 -181
0 -68 66 -125 145 -125 99 0 379 92 458 150 56 41 77 76 77 131 0 57 -36 101
-96 118 -45 13 -149 13 -213 0z"/>
<path d="M6795 3553 c-45 -12 -73 -44 -105 -122 l-32 -80 -80 -42 c-45 -23
-133 -58 -197 -79 -64 -21 -208 -70 -321 -109 -113 -39 -218 -71 -233 -71 -39
0 -94 -25 -106 -48 -16 -29 -14 -84 4 -109 26 -38 95 -57 183 -50 64 4 134 23
383 107 468 157 536 197 612 360 59 128 49 201 -33 234 -22 9 -44 15 -48 15
-4 -1 -16 -4 -27 -6z"/>
<path d="M2777 2840 c-16 -5 -45 -21 -65 -37 -39 -29 -122 -62 -159 -63 -60
-1 -103 -48 -103 -112 0 -48 21 -71 102 -114 68 -35 80 -38 179 -42 88 -3 119
0 185 18 43 12 105 28 137 36 78 19 142 57 157 94 24 57 -4 131 -54 146 -11 3
-30 15 -42 25 -39 36 -127 59 -221 58 -49 0 -101 -5 -116 -9z"/>
</g>
</svg>
