<svg id="Capa_1" enable-background="new 0 0 497 497" height="512" viewBox="0 0 497 497" width="512" xmlns="http://www.w3.org/2000/svg"><path d="m248.5 0v497c137.243 0 248.5-111.257 248.5-248.5s-111.257-248.5-248.5-248.5z" fill="#12398f"/><path d="m467 248.5c0-137.243-97.826-248.5-218.5-248.5-137.243 0-248.5 111.257-248.5 248.5s111.257 248.5 248.5 248.5c120.674 0 218.5-111.257 218.5-248.5z" fill="#1d54bd"/><circle cx="248.5" cy="248.5" fill="#487ed2" r="188.5"/><circle cx="248.5" cy="248.5" fill="#adeeff" r="128.5"/><path d="m218.5 60 30 15 30-15c0-16.569-13.431-30-30-30s-30 13.431-30 30z" fill="#5ede8a"/><path d="m248.5 90c16.569 0 30-13.431 30-30h-60c0 16.569 13.431 30 30 30z" fill="#76fca3"/><path d="m377 218.5-15 30 15 30c16.569 0 30-13.431 30-30s-13.431-30-30-30z" fill="#12b5ff"/><path d="m347 248.5c0 16.569 13.431 30 30 30v-60c-16.569 0-30 13.431-30 30z" fill="#48d9ff"/><path d="m51.571 93.997 31.82-10.607 10.607-31.82c-11.716-11.716-30.711-11.716-42.426 0s-11.717 30.711-.001 42.427z" fill="#fc5a37"/><path d="m93.997 93.997c11.716-11.716 11.716-30.711 0-42.426l-42.426 42.426c11.715 11.716 30.71 11.716 42.426 0z" fill="#fe843f"/><path d="m311.573 276.255-48.073-27.755 48.073-27.755c3.587-2.071 4.816-6.658 2.745-10.245s-6.658-4.816-10.245-2.745l-48.073 27.755-15 25.981v55.509c0 4.142 3.358 7.5 7.5 7.5s7.5-3.358 7.5-7.5v-55.51l48.073 27.755c3.587 2.071 8.174.842 10.245-2.745s.842-8.174-2.745-10.245z" fill="#fc5a37"/><path d="m248.5 172.5c-4.142 0-7.5 3.358-7.5 7.5v55.51l-48.073-27.755c-3.587-2.071-8.174-.842-10.245 2.745s-.842 8.174 2.745 10.245l48.073 27.755-48.073 27.755c-3.587 2.071-4.816 6.658-2.745 10.245s6.658 4.816 10.245 2.745l48.073-27.755 15-25.981v-55.509c0-4.142-3.358-7.5-7.5-7.5z" fill="#fe843f"/><path d="m248.5 195v107c29.547 0 53.5-23.953 53.5-53.5s-23.953-53.5-53.5-53.5z" fill="#fe843f"/><path d="m272 248.5c0-29.547-10.521-53.5-23.5-53.5-29.547 0-53.5 23.953-53.5 53.5s23.953 53.5 53.5 53.5c12.979 0 23.5-23.953 23.5-53.5z" fill="#ffae46"/><g fill="#fff"><circle cx="332.116" cy="450.368" r="7.5"/><circle cx="450.368" cy="332.116" r="7.5"/><circle cx="450.368" cy="164.884" r="7.5"/><circle cx="332.116" cy="46.632" r="7.5"/><circle cx="164.884" cy="46.632" r="7.5"/><circle cx="46.632" cy="164.884" r="7.5"/><circle cx="46.632" cy="332.116" r="7.5"/><circle cx="164.884" cy="450.368" r="7.5"/><circle cx="248.5" cy="407" r="7.5"/><circle cx="360.576" cy="360.576" r="7.5"/><circle cx="360.576" cy="136.424" r="7.5"/><circle cx="136.424" cy="136.424" r="7.5"/><circle cx="90" cy="248.5" r="7.5"/><circle cx="136.424" cy="360.576" r="7.5"/></g></svg>