<svg xmlns="http://www.w3.org/2000/svg" xmlns:xlink="http://www.w3.org/1999/xlink" viewBox="0 0 66 51" fill="#fff" fill-rule="evenodd" stroke="#000" stroke-linecap="round" stroke-linejoin="round"><use xlink:href="#C" x=".5" y=".5"/><defs><linearGradient id="A" x1="0.00%" x2="100.00%" y1="-61.47%" y2="161.47%" spreadMethod="pad"><stop offset="0%" stop-color="#cbced0"/><stop offset="100%" stop-color="#84838b"/></linearGradient><linearGradient id="B" x1="-0.00%" x2="100.00%" y1="-0.01%" y2="100.00%" spreadMethod="pad"><stop offset="0%" stop-color="#276dc3"/><stop offset="100%" stop-color="#165caa"/></linearGradient></defs><symbol id="C" overflow="visible"><g stroke="none"><path d="M32 42.863c-17.674 0-32-9.595-32-21.431S14.327 0 32 0s32 9.595 32 21.431-14.327 21.431-32 21.431zm4.898-34.484c-13.433 0-24.323 6.56-24.323 14.651s10.89 14.651 24.323 14.651 23.35-4.485 23.35-14.651-9.913-14.651-23.35-14.651z" fill="url(#A)"/><path d="M48.734 33.195s1.932.585 3.062 1.154c.391.201 1.066.592 1.553 1.11a4.2 4.2 0 0 1 .71 1.02l7.633 12.87-12.337.006-5.769-10.83s-1.181-2.03-1.908-2.618c-.606-.491-.865-.665-1.465-.665h-2.931l.002 14.109-10.917.004V13.312H48.29s9.985.18 9.985 9.68-9.541 10.207-9.541 10.207zm-4.748-12.069l-6.609-.004-.003 6.129 6.612-.002s3.062-.01 3.062-3.118c0-3.17-3.062-3.004-3.062-3.004z" fill="url(#B)"/></g></symbol></svg>