<?xml version="1.0" standalone="no"?>
<!DOCTYPE svg PUBLIC "-//W3C//DTD SVG 20010904//EN"
 "http://www.w3.org/TR/2001/REC-SVG-20010904/DTD/svg10.dtd">
<svg version="1.0" xmlns="http://www.w3.org/2000/svg"
 width="700.000000pt" height="700.000000pt" viewBox="0 0 700.000000 700.000000"
 preserveAspectRatio="xMidYMid meet">
<metadata>
Created by potrace 1.11, written by Peter Selinger 2001-2013
</metadata>
<g transform="translate(0.000000,700.000000) scale(0.100000,-0.100000)"
fill="#000000" stroke="none">
<path d="M2735 6469 c-98 -14 -126 -21 -178 -38 -188 -66 -289 -166 -332 -327
-15 -58 -22 -232 -11 -284 3 -14 8 -41 11 -60 5 -32 4 -31 -10 10 -31 86 -104
227 -143 277 -51 64 -127 119 -199 144 -69 25 -189 31 -255 13 -27 -7 -48 -11
-48 -9 0 2 -33 -8 -72 -22 -193 -67 -452 -232 -702 -446 -27 -23 -60 -51 -73
-62 -14 -11 -70 -63 -126 -116 l-101 -96 66 -69 c90 -94 114 -121 178 -194 30
-35 60 -68 66 -74 5 -6 53 -65 105 -131 374 -471 603 -905 724 -1370 33 -127
37 -148 56 -270 24 -157 33 -457 17 -620 -54 -579 -307 -1149 -767 -1729 -98
-125 -114 -144 -196 -235 -54 -59 -60 -66 -120 -132 l-40 -44 50 46 c76 71
104 96 175 158 36 31 70 61 76 66 14 13 72 60 154 125 36 28 73 57 83 65 9 8
21 15 26 15 5 0 11 3 13 8 14 34 381 264 578 362 167 84 435 191 518 206 13 3
42 11 65 18 23 8 56 17 72 20 17 4 41 9 55 12 81 16 185 33 245 39 39 4 81 8
95 11 32 5 334 5 380 -1 19 -2 58 -7 86 -10 29 -3 62 -8 75 -10 13 -3 44 -8
69 -11 25 -3 53 -8 62 -10 10 -3 29 -7 42 -10 113 -20 342 -93 501 -159 112
-46 346 -164 406 -205 24 -16 48 -30 52 -30 20 0 346 -230 487 -343 173 -139
259 -215 403 -355 l99 -96 102 104 c55 58 128 136 161 174 33 37 65 73 70 80
32 36 129 163 181 236 301 423 344 745 130 953 -63 61 -216 145 -326 180 -8 2
-1 2 15 0 284 -42 449 -5 574 129 105 111 163 330 155 588 -3 110 -13 245 -19
275 -5 23 -14 82 -21 140 -3 22 -14 81 -24 130 -11 50 -21 101 -24 115 -6 36
-75 311 -85 340 -5 14 -19 59 -31 100 -24 82 -74 227 -95 275 -7 17 -26 62
-43 100 -147 339 -345 550 -573 610 -263 70 -586 -69 -944 -404 -57 -54 -54
-41 5 19 35 35 140 171 186 240 109 162 183 332 199 455 7 51 8 158 2 185 -2
8 -7 33 -12 55 -28 141 -168 324 -330 430 -47 31 -213 125 -221 125 -2 0 -32
13 -66 29 -134 61 -322 122 -543 178 -33 8 -67 16 -75 18 -25 7 -303 65 -330
70 -14 2 -45 7 -70 10 -25 3 -70 10 -100 15 -30 5 -80 12 -110 16 -79 9 -396
12 -455 3z"/>
</g>
</svg>
