<svg id="Layer_1" enable-background="new 0 0 128 128" height="512" viewBox="0 0 128 128" width="512" xmlns="http://www.w3.org/2000/svg"><g><path d="m120.983 12.039h-74.758c-1.654 0-3 1.346-3 3v27.203c-1.404-.305-2.857-.477-4.352-.477-11.241 0-20.387 9.108-20.387 20.303 0 6.187 2.801 11.727 7.197 15.454h-5.667c-7.168 0-13 5.832-13 13v25.44c0 1.654 1.346 3 3 3h97.115c.266 0 .52-.105.707-.293l15.851-15.847c.188-.188.293-.442.293-.707v-87.076c.001-1.654-1.345-3-2.999-3z" fill="#e6e7e8"/><g><g><path d="m103.133 113.961h-60.908c-1.105 0-2-.896-2-2v-100.922c0-1.105.895-2 2-2h74.758c1.104 0 2 .895 2 2v87.076z" fill="#d4fbff"/><g><path d="m42.225 113.961 60.908-.002v-2.998h-60.908c-1.104 0-2-.896-2-2v3c0 1.105.896 2 2 2z" fill="#fff"/></g><path d="m103.133 100.113v13.849l15.85-15.847-13.85-.002c-1.105 0-2 .895-2 2z" fill="#6dc9f7"/></g><g><path d="m63.729 113.961h-57.712c-1.105 0-2-.895-2-2v-25.44c0-6.627 5.373-12 12-12h37.712c6.627 0 12 5.373 12 12v25.44c0 1.105-.895 2-2 2z" fill="#6dc9f7"/><g fill="#fa759e"><path d="m34.873 77.158-4.184 5.169 2.236 6.773h3.896l2.236-6.773z"/><path d="m36.821 89.1h-3.895l-1.5 24.861h6.894z"/></g><g><g><path d="m54.259 58.068c0 10.661-8.679 19.303-19.386 19.303s-19.386-8.642-19.386-19.303 8.679-19.303 19.386-19.303 19.386 8.642 19.386 19.303z" fill="#fff"/><g fill="#3a2c60"><path d="m71.598 17.395c2.317 0 4.439 1.224 5.678 3.275.286.472.9.625 1.373.339.473-.285.625-.9.34-1.373-1.604-2.656-4.366-4.241-7.391-4.241-4.802 0-8.708 4.038-8.708 9s3.906 9 8.708 9c2.967 0 5.702-1.541 7.315-4.121.293-.468.15-1.085-.317-1.378-.47-.294-1.086-.15-1.378.317-1.246 1.992-3.347 3.181-5.62 3.181-3.699 0-6.708-3.14-6.708-7s3.008-6.999 6.708-6.999z"/><path d="m88.861 33.395c.389 0 .742-.225.906-.578l7.457-16c.233-.5.017-1.095-.483-1.329-.499-.234-1.095-.017-1.329.484l-6.551 14.055-6.551-14.055c-.233-.5-.826-.72-1.329-.484-.5.233-.717.828-.483 1.329l7.457 16c.164.353.518.578.906.578z"/><path d="m108.73 59.348h-48.252c-.553 0-1 .448-1 1s.447 1 1 1h48.253c.553 0 1-.448 1-1s-.448-1-1.001-1z"/><path d="m108.73 69.348h-44.252c-.553 0-1 .448-1 1s.447 1 1 1h44.253c.553 0 1-.448 1-1s-.448-1-1.001-1z"/><path d="m108.73 79.348h-39.252c-.553 0-1 .448-1 1s.447 1 1 1h39.253c.553 0 1-.448 1-1s-.448-1-1.001-1z"/><path d="m108.73 89.348h-37.252c-.553 0-1 .448-1 1s.447 1 1 1h37.253c.553 0 1-.448 1-1s-.448-1-1.001-1z"/><path d="m108.73 49.348h-51.252c-.553 0-1 .448-1 1s.447 1 1 1h51.253c.553 0 1-.448 1-1s-.448-1-1.001-1z"/><path d="m108.73 39.348h-57.252c-.553 0-1 .448-1 1s.447 1 1 1h57.253c.553 0 1-.448 1-1s-.448-1-1.001-1z"/><path d="m116.983 8.039h-74.757c-1.654 0-3 1.346-3 3v27.203c-1.404-.306-2.858-.477-4.353-.477-11.241 0-20.386 9.108-20.386 20.303 0 6.187 2.801 11.727 7.197 15.454h-5.667c-7.168 0-13 5.832-13 13v25.44c0 1.654 1.346 3 3 3h97.116c.266 0 .52-.105.707-.293l15.851-15.847c.188-.188.293-.442.293-.707v-51.615c0-.552-.447-1-1-1s-1 .448-1 1v50.615l-12.851-.002c-1.654 0-3 1.346-3 3v12.849h-35.588c.112-.314.184-.648.184-1v-25.44c0-7.168-5.832-13-13-13h-5.667c4.396-3.727 7.197-9.267 7.197-15.454 0-8.985-5.896-16.614-14.033-19.28v-27.749c0-.551.448-1 1-1h74.758c.552 0 1 .449 1 1v17.628c0 .552.447 1 1 1s1-.448 1-1v-17.628c-.001-1.655-1.346-3-3.001-3zm-71.748 67.482h.856l-3.768 9.252-5.278-6.522c2.969-.314 5.739-1.28 8.19-2.73zm-9.137 12.579h-2.449l-1.838-5.568 3.063-3.784 3.063 3.784zm-8.675-3.326-3.768-9.252h.856c2.451 1.449 5.221 2.416 8.19 2.731zm-22.406 27.187v-25.44c0-6.065 4.935-11 11-11h5.479l4.713 11.574c.133.328.429.567.779.612.349.045.732-.124.924-.36l2.402-2.968 1.602 4.851-1.432 23.731h-24.467c-.552 0-1-.448-1-1zm27.471 1 1.379-22.861h2.012l1.379 22.862h-4.77zm72.645-13.848 11.436.002-12.436 12.433v-11.435c0-.551.448-1 1-1zm-40.404-12.592v25.44c0 .551-.448 1-1 1h-24.467l-1.432-23.731 1.602-4.851 2.402 2.968c.191.237.531.413.924.36.35-.047.646-.285.779-.612l4.713-11.574h5.479c6.066 0 11 4.935 11 11zm-11.47-28.453c0 10.092-8.248 18.303-18.386 18.303s-18.386-8.211-18.386-18.303 8.248-18.303 18.386-18.303 18.386 8.211 18.386 18.303z"/><path d="m118.983 31.959c-.553 0-1 .448-1 1v9.208c0 .552.447 1 1 1s1-.448 1-1v-9.208c0-.552-.447-1-1-1z"/></g></g></g></g></g></g></svg>