<?xml version="1.0" standalone="no"?>
<!DOCTYPE svg PUBLIC "-//W3C//DTD SVG 20010904//EN"
 "http://www.w3.org/TR/2001/REC-SVG-20010904/DTD/svg10.dtd">
<svg version="1.0" xmlns="http://www.w3.org/2000/svg"
 width="128.000000pt" height="128.000000pt" viewBox="0 0 128.000000 128.000000"
 preserveAspectRatio="xMidYMid meet">

<g transform="translate(0.000000,128.000000) scale(0.100000,-0.100000)"
fill="#000000" stroke="none">
<path d="M536 1270 c-205 -37 -377 -163 -463 -340 -53 -109 -67 -172 -67 -290
0 -118 14 -181 67 -290 77 -159 241 -289 417 -331 71 -17 229 -17 300 0 176
42 340 172 417 331 53 109 67 172 67 290 0 118 -14 181 -67 290 -75 154 -229
281 -397 325 -70 19 -210 27 -274 15z m151 -232 c24 -37 28 -56 31 -130 4 -86
4 -86 35 -100 18 -7 52 -13 77 -13 39 0 45 -3 48 -23 3 -16 21 -31 71 -56 37
-19 73 -41 80 -49 19 -23 10 -127 -12 -141 -21 -14 -51 2 -55 30 -2 15 -28 26
-127 55 l-124 35 -3 -95 c-4 -110 -8 -104 102 -174 64 -41 65 -43 65 -87 0
-58 -16 -61 -114 -20 -73 30 -74 30 -88 10 -18 -26 -48 -26 -66 0 -14 20 -15
20 -88 -10 -98 -41 -114 -38 -114 20 0 44 1 46 65 87 110 70 106 64 102 174
l-3 96 -147 -44 c-81 -23 -155 -40 -164 -37 -14 4 -18 16 -18 48 0 50 10 61
97 105 45 22 62 37 65 53 3 20 9 23 48 23 25 0 59 6 77 13 31 14 31 14 35 100
3 74 7 93 31 130 17 26 35 42 47 42 12 0 30 -16 47 -42z"/>
</g>
</svg>
