<?xml version="1.0" standalone="no"?>
<!DOCTYPE svg PUBLIC "-//W3C//DTD SVG 20010904//EN"
 "http://www.w3.org/TR/2001/REC-SVG-20010904/DTD/svg10.dtd">
<svg version="1.0" xmlns="http://www.w3.org/2000/svg"
 width="200.000000pt" height="200.000000pt" viewBox="0 0 200.000000 200.000000"
 preserveAspectRatio="xMidYMid meet">
<metadata>
Created by potrace 1.15, written by Peter Selinger 2001-2017
</metadata>
<g transform="translate(0.000000,200.000000) scale(0.100000,-0.100000)"
fill="#000000" stroke="none">
<path d="M933 1750 c-35 -21 -58 -52 -68 -90 -6 -23 -24 -32 -195 -88 l-189
-63 -29 21 c-64 48 -153 30 -199 -39 -27 -41 -29 -84 -5 -130 23 -46 59 -71
107 -75 37 -3 43 -8 74 -60 33 -55 33 -57 15 -77 -14 -16 -26 -19 -58 -14 -52
7 -102 -17 -133 -64 -63 -93 20 -222 133 -206 32 5 44 2 58 -14 18 -20 18 -22
-15 -77 -31 -52 -37 -57 -74 -60 -48 -4 -84 -29 -107 -75 -24 -46 -22 -89 5
-130 46 -69 135 -87 199 -39 l29 21 189 -63 c179 -59 190 -64 196 -90 14 -67
91 -116 159 -104 65 13 122 86 113 146 -2 16 36 46 205 159 l209 139 30 -15
c85 -43 196 42 184 140 -9 73 -57 118 -132 121 -39 2 -48 7 -71 39 l-26 37 28
40 c20 29 33 39 46 35 31 -10 96 14 123 45 90 108 -10 259 -147 220 l-44 -12
-203 135 -202 135 -2 40 c-5 102 -118 164 -203 112z m197 -370 l91 -120 -43 0
c-37 0 -47 5 -70 34 -47 59 -134 71 -191 26 -28 -22 -47 -26 -47 -9 0 6 24 51
53 99 48 83 54 90 84 90 30 0 40 -10 123 -120z m20 -326 c39 -26 70 -50 70
-54 0 -4 -32 -28 -71 -54 -60 -40 -73 -45 -86 -34 -9 7 -39 12 -73 11 -55 -1
-60 1 -96 38 l-38 39 38 39 c36 37 41 39 97 38 35 -1 63 3 71 11 6 6 13 12 15
12 2 0 35 -21 73 -46z m-19 -433 c-84 -112 -92 -119 -124 -118 -31 1 -37 7
-85 88 -29 48 -52 92 -52 98 0 17 19 13 47 -9 57 -45 144 -33 191 26 23 29 33
34 70 34 l43 0 -90 -119z"/>
</g>
</svg>
