<svg xmlns="http://www.w3.org/2000/svg" viewBox="102.505 111.715 370 335.2749995422363"> <svg xmlns="http://www.w3.org/2000/svg" id="Layer_2" dataName="Layer 2" viewBox="0.010001182556152344 0.009999275207519531 497.2799987792969 312.84014892578125" height="144.6875" width="230" y="181.715" x="172.505" preserveAspectRatio="xMinYMin" style="overflow: visible;"><path class="cls-1" d="m177.22,248.6c0,9.97-6.69,18.92-16.3,21.78l-.96.33L13.14,312.66c-1.2.33-2.44.18-3.52-.42-1.05-.6-1.81-1.6-2.08-2.74-5-19.83-7.53-40.31-7.53-60.89s2.53-41.1,7.53-60.92c.27-1.15,1.02-2.14,2.08-2.74.69-.39,1.48-.6,2.26-.6.42,0,.84.06,1.27.18l146.7,41.91,1.08.39c9.61,2.8,16.3,11.75,16.3,21.78Z" style="fill: #FED74F; fill-opacity: 1;"></path><path class="cls-3" d="m198.52,198.5c-7.05,7.08-18.14,8.65-26.91,3.86l-.96-.42L36.73,127.54c-1.08-.6-1.87-1.6-2.17-2.8-.33-1.18-.15-2.38.45-3.44,8.47-14.19,18.41-27.6,29.59-39.89,5.33-5.88,11.03-11.57,16.87-16.87,12.26-11.15,25.7-21.12,39.89-29.59,1.02-.6,2.23-.78,3.41-.45,1.2.3,2.2,1.08,2.8,2.17l74.3,133.72-.06.03.6,1.14c4.79,8.8,3.19,19.86-3.89,26.94Z" style="fill: #FFA048; fill-opacity: 1;"></path><path class="cls-2" d="m288.76,243.27c-1.14-8.98-5.39-17.11-11.57-23.29-6.2-6.17-14.37-10.39-23.35-11.51-1.72-.21-3.47-.34-5.15-.34-10.76,0-21,4.19-28.66,11.87-8.89,8.92-13.07,21.24-11.51,33.83,2.26,17.93,16.93,32.6,34.83,34.86,12.62,1.6,24.98-2.62,33.9-11.54,8.92-8.92,13.1-21.27,11.51-33.9Z" style="fill: #FFA048; fill-opacity: 1;"></path><path class="cls-2" d="m277.25,277.16c-8.92,8.92-21.27,13.14-33.9,11.54-17.9-2.26-32.57-16.93-34.83-34.86-1.57-12.59,2.62-24.92,11.51-33.84,7.65-7.68,17.9-11.87,28.65-11.87,1.69,0,3.44.12,5.15.33,8.98,1.12,17.14,5.33,23.35,11.51,6.18,6.18,10.42,14.31,11.57,23.29,1.6,12.62-2.59,24.98-11.51,33.9Z" style="fill: #FFA048; fill-opacity: 1;"></path><path class="cls-1" d="m312.75,13.08l-41.91,146.7-.42,1.08c-2.8,9.61-11.78,16.3-21.75,16.3s-18.98-6.69-21.78-16.3l-.36-.96L184.57,13.08c-.36-1.18-.21-2.44.42-3.52.6-1.05,1.57-1.78,2.74-2.08,19.8-5,40.34-7.47,60.92-7.47s41.13,2.47,60.92,7.47c1.14.3,2.14,1.02,2.74,2.08.6,1.08.75,2.35.42,3.52Z" style="fill: #FED74F; fill-opacity: 1;"></path><path class="cls-3" d="m462.76,124.71c-.33,1.21-1.11,2.2-2.2,2.8l-133.86,74.36-.03-.03-.99.52c-8.8,4.79-19.85,3.22-26.9-3.86-7.08-7.08-8.68-18.14-3.92-26.93l.42-.9,74.45-133.99c.6-1.08,1.6-1.86,2.8-2.17,1.17-.33,2.38-.15,3.41.45,14.19,8.47,27.63,18.44,39.89,29.59,5.94,5.39,11.63,11.08,16.88,16.87,11.15,12.26,21.12,25.7,29.58,39.89.6,1.03.78,2.23.48,3.41Z" style="fill: #FFA048; fill-opacity: 1;"></path><path class="cls-1" d="m497.29,248.6c0,20.61-2.53,41.13-7.53,60.92-.27,1.15-1.02,2.11-2.08,2.71-1.08.63-2.32.78-3.52.45l-146.7-41.94-1.08-.36c-9.58-2.86-16.3-11.81-16.3-21.78s6.72-18.98,16.3-21.78l.96-.36,146.82-41.97c1.17-.33,2.44-.18,3.52.45,1.05.6,1.81,1.57,2.08,2.74,5,19.8,7.53,40.28,7.53,60.92Z" style="fill: #FED74F; fill-opacity: 1;"></path></svg> <svg y="339.26" viewBox="2.6028571128845215 4.800000190734863 183.4971466064453 37.72999954223633" x="195.751" height="37.72999954223633" width="183.4971466064453" xmlns="http://www.w3.org/2000/svg" style="overflow: visible;"><g fill="#FFA048" fill-opacity="1" style=""><path d="M13.87 42.48L13.87 42.48Q10.51 42.48 7.66 41.45Q4.80 40.42 3.22 38.83L3.22 38.83Q2.50 38.06 2.62 37.08Q2.74 36.10 3.55 35.47L3.55 35.47Q4.51 34.70 5.45 34.82Q6.38 34.94 7.06 35.66L7.06 35.66Q7.87 36.58 9.67 37.37Q11.47 38.16 13.68 38.16L13.68 38.16Q16.46 38.16 17.93 37.25Q19.39 36.34 19.44 34.90L19.44 34.90Q19.49 33.46 18.07 32.40Q16.66 31.34 12.91 30.67L12.91 30.67Q8.06 29.71 5.88 27.79Q3.70 25.87 3.70 23.09L3.70 23.09Q3.70 20.64 5.14 19.03Q6.58 17.42 8.83 16.63Q11.09 15.84 13.54 15.84L13.54 15.84Q16.70 15.84 19.15 16.85Q21.60 17.86 23.04 19.63L23.04 19.63Q23.71 20.40 23.66 21.24Q23.62 22.08 22.85 22.66L22.85 22.66Q22.08 23.18 21.02 22.99Q19.97 22.80 19.25 22.13L19.25 22.13Q18.05 20.98 16.66 20.54Q15.26 20.11 13.44 20.11L13.44 20.11Q11.33 20.11 9.86 20.83Q8.40 21.55 8.40 22.94L8.40 22.94Q8.40 23.81 8.86 24.50Q9.31 25.20 10.66 25.75Q12 26.30 14.59 26.83L14.59 26.83Q18.19 27.55 20.28 28.66Q22.37 29.76 23.28 31.22Q24.19 32.69 24.19 34.61L24.19 34.61Q24.19 36.82 23.02 38.59Q21.84 40.37 19.56 41.42Q17.28 42.48 13.87 42.48ZM41.42 42.53L41.42 42.53Q38.11 42.53 35.50 41.11Q32.88 39.70 31.37 36.96Q29.86 34.22 29.86 30.24L29.86 30.24L29.86 18.43Q29.86 17.38 30.55 16.68Q31.25 15.98 32.30 15.98L32.30 15.98Q33.36 15.98 34.06 16.68Q34.75 17.38 34.75 18.43L34.75 18.43L34.75 30.24Q34.75 32.93 35.76 34.68Q36.77 36.43 38.50 37.27Q40.22 38.11 42.38 38.11L42.38 38.11Q44.45 38.11 46.06 37.30Q47.66 36.48 48.62 35.09Q49.58 33.70 49.58 31.97L49.58 31.97L52.61 31.97Q52.61 34.94 51.14 37.34Q49.68 39.74 47.16 41.14Q44.64 42.53 41.42 42.53ZM52.03 42.29L52.03 42.29Q50.98 42.29 50.28 41.59Q49.58 40.90 49.58 39.84L49.58 39.84L49.58 18.43Q49.58 17.33 50.28 16.66Q50.98 15.98 52.03 15.98L52.03 15.98Q53.14 15.98 53.81 16.66Q54.48 17.33 54.48 18.43L54.48 18.43L54.48 39.84Q54.48 40.90 53.81 41.59Q53.14 42.29 52.03 42.29ZM85.30 42.34L85.30 42.34Q84.24 42.34 83.54 41.64Q82.85 40.94 82.85 39.89L82.85 39.89L82.85 28.08Q82.85 25.34 81.84 23.62Q80.83 21.89 79.13 21.05Q77.42 20.21 75.22 20.21L75.22 20.21Q73.20 20.21 71.57 21.02Q69.94 21.84 68.98 23.21Q68.02 24.58 68.02 26.35L68.02 26.35L64.99 26.35Q64.99 23.33 66.46 20.95Q67.92 18.58 70.46 17.18Q73.01 15.79 76.18 15.79L76.18 15.79Q79.49 15.79 82.10 17.21Q84.72 18.62 86.23 21.36Q87.74 24.10 87.74 28.08L87.74 28.08L87.74 39.89Q87.74 40.94 87.05 41.64Q86.35 42.34 85.30 42.34ZM65.57 42.34L65.57 42.34Q64.51 42.34 63.82 41.64Q63.12 40.94 63.12 39.89L63.12 39.89L63.12 18.48Q63.12 17.38 63.82 16.70Q64.51 16.03 65.57 16.03L65.57 16.03Q66.67 16.03 67.34 16.70Q68.02 17.38 68.02 18.48L68.02 18.48L68.02 39.89Q68.02 40.94 67.34 41.64Q66.67 42.34 65.57 42.34ZM107.76 42.48L107.76 42.48Q104.02 42.48 101.02 40.73Q98.02 38.98 96.26 35.95Q94.51 32.93 94.51 29.14L94.51 29.14Q94.51 25.34 96.12 22.34Q97.73 19.34 100.51 17.59Q103.30 15.84 106.80 15.84L106.80 15.84Q109.63 15.84 112.03 17.02Q114.43 18.19 116.06 20.21L116.06 20.21L116.06 7.25Q116.06 6.14 116.76 5.47Q117.46 4.80 118.51 4.80L118.51 4.80Q119.62 4.80 120.29 5.47Q120.96 6.14 120.96 7.25L120.96 7.25L120.96 29.14Q120.96 32.93 119.21 35.95Q117.46 38.98 114.48 40.73Q111.50 42.48 107.76 42.48ZM107.76 38.16L107.76 38.16Q110.21 38.16 112.13 36.98Q114.05 35.81 115.15 33.74Q116.26 31.68 116.26 29.14L116.26 29.14Q116.26 26.54 115.15 24.53Q114.05 22.51 112.13 21.34Q110.21 20.16 107.76 20.16L107.76 20.16Q105.36 20.16 103.42 21.34Q101.47 22.51 100.34 24.53Q99.22 26.54 99.22 29.14L99.22 29.14Q99.22 31.68 100.34 33.74Q101.47 35.81 103.42 36.98Q105.36 38.16 107.76 38.16ZM132.53 42.29L132.53 42.29Q131.47 42.29 130.78 41.59Q130.08 40.90 130.08 39.84L130.08 39.84L130.08 18.48Q130.08 17.38 130.78 16.70Q131.47 16.03 132.53 16.03L132.53 16.03Q133.63 16.03 134.30 16.70Q134.98 17.38 134.98 18.48L134.98 18.48L134.98 39.84Q134.98 40.90 134.30 41.59Q133.63 42.29 132.53 42.29ZM132.53 11.76L132.53 11.76Q131.23 11.76 130.30 10.82Q129.36 9.89 129.36 8.59L129.36 8.59Q129.36 7.30 130.30 6.36Q131.23 5.42 132.53 5.42L132.53 5.42Q133.82 5.42 134.76 6.36Q135.70 7.30 135.70 8.59L135.70 8.59Q135.70 9.89 134.76 10.82Q133.82 11.76 132.53 11.76ZM155.04 42.48L155.04 42.48Q151.54 42.48 148.75 40.73Q145.97 38.98 144.36 35.98Q142.75 32.98 142.75 29.18L142.75 29.18Q142.75 25.39 144.50 22.37Q146.26 19.34 149.26 17.59Q152.26 15.84 156 15.84L156 15.84Q159.74 15.84 162.72 17.59Q165.70 19.34 167.45 22.37Q169.20 25.39 169.20 29.18L169.20 29.18L167.33 29.18Q167.33 32.98 165.72 35.98Q164.11 38.98 161.33 40.73Q158.54 42.48 155.04 42.48ZM156 38.16L156 38.16Q158.45 38.16 160.37 36.98Q162.29 35.81 163.39 33.77Q164.50 31.73 164.50 29.18L164.50 29.18Q164.50 26.59 163.39 24.55Q162.29 22.51 160.37 21.34Q158.45 20.16 156 20.16L156 20.16Q153.60 20.16 151.66 21.34Q149.71 22.51 148.58 24.55Q147.46 26.59 147.46 29.18L147.46 29.18Q147.46 31.73 148.58 33.77Q149.71 35.81 151.66 36.98Q153.60 38.16 156 38.16ZM166.75 42.34L166.75 42.34Q165.70 42.34 165 41.64Q164.30 40.94 164.30 39.89L164.30 39.89L164.30 32.54L165.22 27.46L169.20 29.18L169.20 39.89Q169.20 40.94 168.50 41.64Q167.81 42.34 166.75 42.34ZM182.83 42.29L182.74 42.29Q180.62 42.29 178.99 41.14Q177.36 39.98 176.45 37.99Q175.54 36 175.54 33.41L175.54 33.41L175.54 7.20Q175.54 6.14 176.21 5.47Q176.88 4.80 177.94 4.80L177.94 4.80Q178.99 4.80 179.66 5.47Q180.34 6.14 180.34 7.20L180.34 7.20L180.34 33.41Q180.34 35.18 181.01 36.34Q181.68 37.49 182.74 37.49L182.74 37.49L183.94 37.49Q184.90 37.49 185.50 38.16Q186.10 38.83 186.10 39.89L186.10 39.89Q186.10 40.94 185.18 41.62Q184.27 42.29 182.83 42.29L182.83 42.29Z" transform="translate(0, 0)"></path></g></svg></svg>