<?xml version="1.0" standalone="no"?>
<!DOCTYPE svg PUBLIC "-//W3C//DTD SVG 20010904//EN"
 "http://www.w3.org/TR/2001/REC-SVG-20010904/DTD/svg10.dtd">
<svg version="1.0" xmlns="http://www.w3.org/2000/svg"
 width="200.000000pt" height="200.000000pt" viewBox="0 0 200.000000 200.000000"
 preserveAspectRatio="xMidYMid meet">
<metadata>
Created by potrace 1.15, written by Peter Selinger 2001-2017
</metadata>
<g transform="translate(0.000000,200.000000) scale(0.100000,-0.100000)"
fill="#000000" stroke="none">
<path d="M994 1651 c-50 -31 -77 -77 -82 -142 l-4 -56 -132 -61 -131 -60 -25
23 c-38 34 -64 45 -112 45 -86 0 -148 -65 -148 -155 0 -65 28 -110 83 -135 47
-22 83 -25 121 -11 22 9 28 5 64 -43 l40 -53 -37 -48 -37 -48 -77 -1 c-75 -1
-78 -2 -114 -39 -37 -36 -38 -40 -38 -107 0 -67 2 -71 36 -106 20 -20 51 -39
72 -44 58 -13 100 1 171 53 7 5 63 -16 139 -52 l127 -60 0 -41 c0 -150 167
-231 285 -139 59 47 76 135 41 220 -5 11 32 52 132 147 l140 132 38 -16 c48
-20 125 -14 162 13 34 24 72 97 72 137 0 47 -37 113 -78 138 -44 27 -127 30
-163 6 -27 -18 -15 -27 -212 158 l-98 92 16 48 c39 116 -40 224 -165 224 -36
0 -66 -6 -86 -19z m145 -39 c74 -40 91 -135 35 -193 -84 -87 -214 -33 -214 89
0 46 29 88 74 108 42 18 65 17 105 -4z m-194 -222 c5 -14 -15 -46 -75 -125
-45 -58 -87 -105 -93 -104 -7 0 -34 10 -61 22 -46 21 -48 24 -50 64 l-2 41
130 61 c72 33 134 60 138 61 4 0 9 -9 13 -20z m392 -161 l141 -130 -13 -32
-13 -32 -100 -3 -100 -3 -7 31 c-9 43 -66 97 -116 110 -64 18 -138 -5 -177
-55 l-20 -25 -51 22 -51 23 81 105 c55 70 87 104 98 101 56 -12 111 -11 142 2
18 9 37 16 40 16 3 1 69 -58 146 -130z m349 -114 c33 -22 64 -73 64 -108 0
-73 -63 -137 -136 -137 -81 0 -140 66 -131 147 11 99 121 152 203 98z m-535
-8 c40 -27 66 -89 55 -132 -4 -15 -22 -43 -41 -62 -27 -27 -41 -33 -74 -33
-53 0 -97 22 -116 60 -61 118 68 240 176 167z m-292 -38 c50 -21 51 -22 51
-65 0 -42 -2 -44 -46 -64 -26 -11 -52 -20 -59 -20 -7 0 -27 19 -44 41 l-30 42
31 43 c17 24 35 44 38 44 4 0 30 -10 59 -21z m602 -126 l14 -37 -139 -132
-140 -131 -44 20 c-43 19 -80 19 -138 2 -17 -5 -34 12 -102 101 l-82 107 48
22 47 22 27 -29 c53 -56 138 -73 204 -42 42 20 83 68 91 105 l6 29 97 0 97 0
14 -37z m-586 -208 c73 -95 82 -112 70 -124 -12 -13 -32 -6 -146 46 l-132 60
-1 42 c-1 40 1 42 49 66 28 13 56 23 63 22 7 -1 51 -51 97 -112z m266 -120
c37 -20 69 -70 69 -110 0 -40 -32 -90 -69 -110 -87 -45 -181 15 -181 115 0 36
6 48 39 81 44 44 88 51 142 24z"/>
</g>
</svg>
