<?xml version="1.0" standalone="no"?>
<!DOCTYPE svg PUBLIC "-//W3C//DTD SVG 20010904//EN"
 "http://www.w3.org/TR/2001/REC-SVG-20010904/DTD/svg10.dtd">
<svg version="1.0" xmlns="http://www.w3.org/2000/svg"
 width="192.000000pt" height="192.000000pt" viewBox="0 0 192.000000 192.000000"
 preserveAspectRatio="xMidYMid meet">

<g transform="translate(0.000000,192.000000) scale(0.100000,-0.100000)"
fill="#000000" stroke="none">
<path d="M127 1792 l-127 -127 335 -335 335 -335 49 49 c43 42 52 47 66 36 22
-18 19 -28 -25 -76 -22 -24 -40 -48 -40 -53 0 -5 16 -31 36 -57 l36 -47 -46
-45 c-44 -45 -46 -46 -65 -28 -25 23 -46 10 -54 -32 -8 -43 17 -91 58 -108 62
-26 125 7 89 47 -18 19 -17 21 28 65 l45 46 47 -36 c26 -20 52 -36 57 -36 5 0
29 18 53 40 48 44 58 47 76 25 11 -14 6 -23 -36 -66 l-49 -49 335 -335 335
-335 128 128 127 127 -335 335 -335 335 -49 -49 c-43 -42 -52 -47 -66 -36 -8
7 -15 18 -15 24 0 6 54 65 120 131 73 73 120 127 120 140 0 27 -198 225 -225
225 -13 0 -65 -45 -140 -120 -66 -66 -125 -120 -131 -120 -6 0 -17 7 -24 15
-11 14 -6 23 36 66 l49 49 -335 335 -335 335 -128 -128z"/>
<path d="M245 1118 c-204 -239 -186 -608 40 -833 166 -167 402 -223 630 -151
120 38 265 140 238 167 -9 9 -23 2 -55 -24 -103 -83 -249 -137 -372 -137 -86
0 -185 24 -264 62 -92 44 -216 168 -260 260 -100 207 -74 447 68 626 37 47 44
72 20 72 -5 0 -25 -19 -45 -42z"/>
<path d="M371 1005 c-86 -98 -122 -260 -87 -392 22 -84 57 -144 121 -209 142
-143 358 -174 536 -77 63 34 107 79 92 94 -9 9 -22 4 -51 -20 -108 -85 -250
-112 -380 -72 -277 84 -382 424 -201 652 28 35 32 59 9 59 -4 0 -22 -16 -39
-35z"/>
<path d="M516 880 c-27 -32 -56 -115 -56 -160 0 -133 127 -260 260 -260 78 0
204 67 180 95 -9 11 -21 7 -60 -17 -94 -58 -194 -47 -271 31 -78 77 -89 178
-30 273 24 38 27 49 16 58 -10 8 -19 3 -39 -20z"/>
</g>
</svg>
