<svg width="200" height="200" xmlns="http://www.w3.org/2000/svg">
 <!-- Created with Method Draw - http://github.com/duopixel/Method-Draw/ -->
 <g>
  <title>background</title>
  <rect fill="none" id="canvas_background" height="202" width="202" y="-1" x="-1"/>
 </g>
 <g>
  <title>Layer 1</title>
  <path stroke="#fff" id="svg_11" d="m20.60662,51.30213c-0.83147,0 -1.25885,-0.8524 -1.25885,-1.87459c0,-0.85221 0.21366,-1.6796 0.83147,-1.6796c0.42738,0 1.07074,0.82739 1.2844,1.6796c0.42738,1.24079 0,1.87459 -0.85702,1.87459zm142.13189,48.63705c1.90228,0 2.32959,0.21861 1.25885,1.6794c-0.61782,1.02218 -1.90221,1.87439 -2.52003,1.87439c-0.6433,0 -1.2844,-0.85221 -1.2844,-1.87439c0,-1.04726 0.85708,-1.6794 2.54558,-1.6794zm-132.80894,-59.49407c-1.90221,-0.4136 -2.11593,-2.50798 0,-3.14032c1.07067,-0.19472 1.68856,0.41353 1.68856,1.6796c0,1.04713 -0.61788,1.65565 -1.68856,1.46072zm-23.71152,66.16331c2.54558,-0.60859 2.54558,-1.046 1.68856,-2.48298c-0.6411,-1.046 -0.85475,-2.31194 -0.42738,-2.7256c0.21366,-0.63346 1.2844,0 1.90221,1.24093c0.85702,1.6796 1.49805,1.89953 3.18661,0.85221c1.04752,-0.63227 1.90221,-1.04699 1.90221,-0.41353c0,0.41353 0.64336,0 1.47484,-0.85221c1.28446,-1.24093 1.49812,-3.96765 0.21372,-5.42851c-1.0452,-1.24093 -6.35,-0.82726 -7.82484,0.63227c-0.85475,1.04732 -1.49812,0.82858 -2.32959,-1.04581c-1.2844,-3.11664 -1.2844,-3.55419 1.68849,-3.74891c2.54558,0 2.54558,0 0.42738,-1.26594c-1.06841,-0.60859 -2.11587,-1.87439 -2.11587,-2.70178c0,-2.09425 2.94967,-3.33518 4.23407,-1.87432c0.42738,0.60845 1.25892,1.24093 2.11593,1.24093c1.68856,0 9.75027,-7.08317 9.75027,-8.54402c0,-0.6334 0.8338,-1.04693 1.68856,-0.6334c1.04746,0.21986 2.94974,-0.41353 4.87749,-1.46086c2.73369,-1.67947 2.73369,-1.87439 1.25885,-4.59999c-1.0452,-1.87439 -2.32959,-2.50798 -5.30254,-2.50798c-3.37705,0 -4.23407,0.41373 -5.27926,2.92171c-0.42971,1.6794 -1.71404,2.92039 -2.54558,2.92039c-1.47484,0 -1.90221,-1.87327 -0.42738,-2.92039c0.64103,-0.41373 1.06841,-1.87439 1.06841,-3.33525c0,-2.28819 -0.42738,-2.70178 -3.18661,-2.09313c-2.75923,0.41353 -2.75923,0.21861 -2.11593,-2.92185c0.42738,-1.87432 1.0452,-3.55379 1.4749,-3.74871c0.42738,-0.21861 0.85469,-2.09313 0.85469,-3.96752c0,-3.74911 1.26118,-4.38138 3.5931,-1.6796c1.06835,1.46079 1.71177,1.6796 2.11587,0.41353c0.42738,-0.82726 1.92543,-1.02218 4.25735,-0.60865c3.16339,0.82739 3.37705,0.60865 2.94967,-1.87439c-0.21366,-1.46066 -0.42964,-3.14026 -0.6433,-3.55379c0,-0.63247 -1.0452,-1.46086 -2.30638,-2.09333c-2.54558,-1.04693 -3.18661,-3.55379 -0.85702,-3.55379c0.64336,0 1.26112,-0.41373 1.26112,-1.24225c0,-0.63247 1.28446,-1.046 2.97295,-0.85234c2.33192,0.21986 3.59077,-0.60832 6.77738,-4.98951c2.33192,-3.14046 4.02041,-4.81992 4.23413,-3.96772c0.21366,1.046 1.2844,1.65446 2.33185,1.65446c1.68856,0 1.90228,-0.60845 1.28446,-3.33406c-0.21598,-1.87452 -1.28446,-4.16244 -1.92776,-5.20977c-1.90228,-2.31286 -1.90228,-5.01465 0,-4.18758c1.49805,0.82858 6.1595,-1.45954 6.1595,-2.92033c0,-0.63346 0.62015,-1.04713 1.47484,-1.04713c0.85708,0 1.26118,1.26587 1.26118,2.92165c0,2.09313 0.42738,2.92053 1.49812,2.31187c0.83147,-0.43749 1.4749,-1.6796 1.4749,-2.5068c0,-2.50812 6.77732,-6.88937 8.46581,-5.64732c0.64343,0.41386 1.2844,0 1.50051,-1.46066c0.61775,-2.92165 4.4454,-5.20977 6.13389,-3.74891c0.85708,0.60845 1.68862,0.41373 1.90461,-0.21861c0.42731,-0.82852 2.11587,-1.46086 4.01808,-1.65591c1.90221,-0.21861 4.44779,-1.04713 5.51853,-1.89933c4.01808,-2.70178 8.03856,-2.50686 9.72705,0.41498c1.07074,2.093 1.49805,2.093 1.49805,0.63214c0,-1.87452 0.83387,-2.09313 5.92269,-1.46066c8.06178,0.82852 9.32296,0.82852 12.29591,-0.21881c1.90221,-0.60859 2.54551,-0.41366 2.54551,1.26574c0,1.04732 0.61788,1.87459 1.4749,1.87459c0.64103,0 1.25885,-0.60865 1.25885,-1.24211c0,-1.6794 3.40266,-2.5068 6.37555,-1.6794c2.30638,0.82852 2.52003,1.04693 1.90221,6.67036c-0.21366,3.35907 0,5.64719 0.40416,5.64719c0.42731,0 0.85702,-1.46086 0.85702,-3.55399c0,-3.53017 2.32959,-4.98984 3.18661,-2.0932c0.21372,1.04607 0.83147,0.63234 1.25885,-1.02212c1.0708,-4.3825 3.40266,-2.09445 2.75923,2.70178c-0.64097,3.96752 -0.64097,3.96752 1.26124,2.50666c1.07067,-0.63234 1.90215,-2.28792 1.90215,-3.33406c0,-1.04719 0.64343,-2.28924 1.49818,-2.72679c1.68843,-0.82706 3.59303,2.31207 2.97289,4.60112c-0.21366,1.0462 -0.21366,1.87452 0.4041,1.87452c0.42971,0 0.85708,-0.60845 0.85708,-1.04713c0,-0.60859 1.04746,-0.82739 2.33185,-0.41353c2.75697,0.63234 3.16107,2.31174 0.83154,3.33393c-0.61782,0.43867 -1.26118,1.46086 -1.26118,2.31319c0,1.46086 0.42964,1.46086 2.75923,0c3.80443,-2.5068 5.49292,-2.31319 6.13635,0.41353c0.42731,1.46086 1.26112,2.09432 2.11587,1.46086c0.85702,-0.21874 2.75923,0.63346 4.23413,2.09313c1.2844,1.24205 3.18661,2.28812 4.04363,2.28812c1.26118,0 1.26118,1.04726 0.83147,3.96877c-0.42731,3.14046 -0.42731,3.55399 0.85708,2.28825c1.68849,-2.06951 2.32959,-1.87472 2.94974,1.04581c0.21366,1.46086 1.71171,2.50798 3.40027,3.14032c1.90221,0.41498 2.94974,1.46079 2.94974,2.70291c0,1.26587 0.64097,2.7256 1.2844,3.55412c1.68856,1.46066 1.25885,5.84191 -0.64343,7.3027c-0.64097,0.43755 -1.47477,0.21881 -1.68849,-0.41353c-0.42731,-0.63359 -1.90221,-0.63359 -4.66151,0c-4.44779,1.45954 -5.27926,1.87439 -4.23407,3.7726c0.64336,1.24093 8.04082,0.82739 12.08219,-0.63346c1.26118,-0.63241 1.68856,0 1.68856,2.92171c0,2.093 -0.42738,3.74891 -1.06841,3.74891c-0.42971,0 -0.8338,0.63227 -0.8338,1.6794c0,2.50785 1.04752,2.28792 3.80676,-0.63247c1.47251,-1.6794 2.32953,-2.09425 3.37705,-1.04693c1.06841,1.04693 1.2844,1.04693 1.2844,-0.63247c0,-1.02344 -0.42971,-1.87439 -1.07067,-1.87439c-0.40416,0 -0.83387,-0.82852 -0.83387,-1.65591c0,-1.04699 0.62015,-1.87439 1.47484,-1.87439c0.64336,0 1.49812,0.41353 1.49812,1.02218c0,0.63373 0.8338,1.46079 1.90454,1.6796c1.47257,0.63359 1.90221,1.46086 1.68849,3.96765c-0.42964,4.79591 0.42744,6.25689 3.59077,5.42963c1.49812,-0.41498 2.32953,0 1.68856,0.82726c-0.19044,0.41353 0,1.46086 0.42738,1.89808c1.71404,1.24218 1.07067,4.16277 -0.83154,4.16277c-2.33185,0 -2.97295,1.04693 -1.71171,2.92152c0.85469,1.04713 1.49805,1.24093 2.32953,0.41366c1.92776,-2.09313 2.33192,-0.41366 2.54558,7.93649c0,4.18613 0.42738,7.52151 0.85475,7.52151c1.04746,0 0.64336,4.60112 -0.85475,6.4755c-0.8338,1.046 -0.8338,2.06812 -0.21366,2.92033c1.49805,1.87459 0,7.3031 -1.90461,7.3031c-1.68843,0 -4.8751,3.96752 -4.8751,5.84204c0,2.28937 -2.73369,0 -3.37705,-2.50686c-0.64103,-2.28805 -0.64103,-2.28805 -1.07074,-0.63346c-0.4041,1.8994 1.90454,7.74144 3.83004,9.39702c1.26112,1.26607 -1.07074,3.35907 -2.7593,2.50686c-0.85708,-0.41353 -1.26118,-1.65446 -1.26118,-2.92039c0,-3.55379 -5.30254,-12.5126 -9.32296,-15.87154c-2.13909,-1.65591 -4.04136,-3.5303 -4.04136,-4.16257c0,-1.26594 -6.77964,-5.20977 -10.58407,-6.47564c-2.11826,-0.63346 -2.7593,-0.4136 -2.7593,1.26587c0,1.24093 -0.4041,1.65446 -1.26118,1.24093c-1.90221,-0.82739 -2.75923,1.04732 -1.07067,2.92171c2.33185,2.28805 1.92776,5.01465 -0.61782,3.96752c-1.71177,-0.63234 -1.92549,-0.41373 -1.2844,3.14039c0.21366,2.06931 0.64336,4.79591 0.64336,6.03683c0,1.26594 0.42731,2.09333 0.85469,2.09333c0.62021,0 0.8338,-0.41373 0.40416,-1.046c-0.21366,-0.63359 0.21605,-1.24211 1.07067,-1.24211c0.64343,0 1.26118,0.82838 1.26118,1.65565c0,0.85234 -0.83374,1.6794 -2.33185,1.46099c-1.25885,0 -2.32959,-0.60865 -2.32959,-1.02232c0,-1.89953 -5.70897,-14.82566 -7.39746,-16.72387c-1.90228,-2.06951 -0.6411,-2.70178 -15.67302,7.10791c-2.32953,1.46086 -4.8751,4.60112 -6.1595,6.88937c-1.04752,2.28792 -2.73602,4.60112 -3.59077,5.01465c-0.85702,0.41373 -4.02041,3.74891 -6.77971,7.3029c-11.86853,15.65161 -9.94077,17.52613 -9.10923,49.48939c3.59303,24.22044 3.59303,24.22044 3.59303,24.22044c-8.4682,0 -8.4682,0 -8.4682,0c-6.99104,0 -6.99104,0 -6.99104,0c0.64103,-22.3473 0.64103,-22.3473 0.64103,-22.3473c0.42731,-1.87314 0.64336,-5.64699 0.85708,-7.74032c0.21366,-1.24205 -5.94591,-6.67056 -5.73218,-7.91135c0,-1.04713 6.37322,1.87459 6.37322,0.82726c1.04746,-15.23807 0,-27.3609 -2.7593,-33.81265c-0.64103,-3.96772 -5.94584,-16.72262 -6.77732,-16.72262c-0.21372,0 -1.71177,-1.24205 -3.18661,-2.70291c-2.54564,-2.72547 -3.59077,-2.92053 -17.79122,-3.74891c-15.24558,-0.85108 -15.24558,-0.85108 -15.24558,-0.85108c-3.61399,2.92053 -3.61399,2.92053 -3.61399,2.92053c-2.11587,1.89933 -4.23407,3.14032 -4.85195,3.14032c-1.2844,0 -6.5892,4.38231 -8.89558,6.88897c-0.21366,0 -0.42731,-0.21841 -0.42731,-0.41353c-0.21372,0 -0.21372,0 -0.21372,-0.21874c-0.21366,-0.60845 -0.42964,-1.24205 -0.85702,-1.87439c1.2844,-1.04713 2.33185,-1.68059 2.75923,-1.46066c0.64103,0.41353 1.26118,0 1.26118,-1.04732c0,-1.046 -1.26118,-1.46079 -4.63823,-1.046c-4.04369,0.63247 -5.09115,0.85108 -5.73218,3.33412c-1.04752,1.26587 -1.26118,3.14039 -0.64103,4.60125c-0.21605,1.87439 -0.21605,3.14026 0,3.14026c0.21366,0 0.42731,-0.41353 1.06841,-0.85221c0,0.21881 0.21366,0.43867 0.42964,0.63346c-2.1182,0.63234 -3.18894,2.50686 -2.97295,4.38125c-1.07067,0.85221 -2.1182,1.26587 -3.40253,1.89821c0,0 0,-0.21861 -0.19051,-0.21861c0.8338,-1.87439 1.26118,-3.96772 1.47484,-7.10798c0.42971,-3.5303 0.21366,-5.84204 -0.42731,-5.84204c-0.42738,0 -0.85702,0.85221 -0.85702,2.09293c0.21359,1.04732 -0.19051,2.09333 -1.04526,2.28825c-0.64336,0.21861 -1.07067,-0.19492 -1.07067,-1.24093c0,-2.50798 -0.83154,-2.50798 -2.73608,-0.21986c-0.85469,0.85221 -2.54325,1.87452 -4.01808,2.31319c-1.92776,0.60845 -2.54558,0.19472 -3.40259,-2.09333c-0.64103,-1.87439 -1.06841,-3.96877 -0.64103,-4.79604c0.21366,-1.04713 0.21366,-1.89821 -0.61782,-1.89821c-2.33192,0 -0.64336,-3.33538 2.11587,-3.96884zm18.21853,-48.00359c-1.2844,-0.21861 -2.33192,-0.82726 -2.75923,-1.67947c-0.21372,-1.24205 -0.42738,-1.24205 -0.42738,0c0,0.85221 -0.85702,1.46086 -1.68856,1.67947c-1.49805,0 -1.49805,0.21874 0.21372,1.04732c1.04513,0.41353 2.11587,1.04581 2.32953,1.04581c0.19044,0 1.26118,-0.63227 2.33192,-1.04581c1.90221,-1.04732 1.90221,-1.04732 0,-1.04732zm167.95928,33.61772c0.40416,0.41373 0.83154,-0.21986 0.83154,-1.26587c0,-0.82838 -0.42738,-1.65578 -0.83154,-1.65578c-0.6433,0 -1.07067,0.41366 -1.07067,1.02218c0,0.63359 0.42738,1.4858 1.07067,1.89946zm-1.49805,1.87452c-0.21366,-0.63359 -1.26118,-1.46079 -2.1182,-1.46079c-0.61782,0 -1.0452,0.8272 -0.61782,1.46079c0.19044,0.63234 1.04746,1.04607 1.90221,1.04607c0.8338,0 1.04746,-0.41373 0.8338,-1.04607zm-1.90221,9.3959c0.64103,0 1.49805,-0.21861 1.49805,-0.41353c0,-0.43867 -0.85702,-0.85221 -1.49805,-1.26594c-0.8338,-0.41366 -1.4749,-0.19492 -1.4749,0.41373c0,0.63346 0.6411,1.26574 1.4749,1.26574zm1.68856,-19.83906c0.85469,-0.41386 1.28433,-1.04726 1.06841,-1.65591c-0.6411,-1.48448 -4.23187,-1.48448 -4.23187,0c0,1.65591 1.25892,2.28825 3.16346,1.65591zm-11.63159,-15.65306c-1.07074,0.63359 -1.71177,1.87452 -1.49818,2.50798c1.07074,1.65466 2.33198,1.24093 3.40033,-1.46086c1.04752,-2.50798 0.62015,-2.92152 -1.90215,-1.04713zm-4.04369,32.15693c5.51846,5.62323 5.73218,5.84204 5.73218,3.96765c0,-1.046 -0.42738,-1.89821 -1.07074,-1.89821c-0.61775,0 -1.68849,-1.04732 -2.32953,-2.28805c-0.61788,-1.24225 -1.90221,-2.50818 -2.94974,-2.50818c-1.92543,0 -1.92543,0.21993 0.61782,2.72679zm-4.44553,-9.8347c1.28213,0 1.90228,-0.41353 1.06848,-0.60852c-0.64103,-0.41366 -1.68856,-0.41366 -2.32959,0c-0.64343,0.19499 0,0.60852 1.26112,0.60852zm-6.13628,-28.38308c0.64103,0.63247 2.54325,1.45974 4.23174,1.87459c2.97302,0.63227 3.18667,0.63227 1.49812,-1.04713c-1.92543,-2.06951 -7.20469,-2.70178 -5.72986,-0.82746zm-12.91605,-34.63971c-0.64103,0.60845 -0.85469,1.87439 -0.64103,2.70159c0.42738,1.6796 1.68856,0.21881 1.68856,-2.28805c0,-1.26594 -0.21372,-1.46086 -1.04752,-0.41353zm6.35,45.08307c1.68856,1.04587 2.33192,1.04587 3.189,-0.41485c1.68849,-2.28819 0.61775,-3.33406 -2.54564,-1.87432c-2.54558,1.02331 -2.54558,1.02331 -0.64336,2.28918zm-4.23174,-10.44336c3.18661,-2.28786 3.18661,-2.28786 0.64103,-2.28786c-1.71177,0 -2.97295,0.82706 -3.61399,2.28786c-0.40416,1.45974 -0.8338,2.28825 -0.62015,2.28825c0,0 1.68856,-1.24218 3.5931,-2.28825zm-4.66151,33.83653c1.47251,2.28825 4.01815,2.28825 3.18661,-0.21874c-0.21366,-0.82838 -0.42964,-1.87439 -0.42964,-2.09432c0,-0.19492 -0.85475,-0.19492 -1.90221,0.21993c-1.71177,0.41366 -1.71177,1.046 -0.85475,2.09313zm-6.56599,-8.56877c1.68849,2.28819 2.54558,2.5068 4.44779,0.82739c1.26118,-1.046 1.26118,-1.046 0,-1.24093c-0.64103,0 -2.32959,-0.21993 -3.80443,-0.63359c-2.1182,-0.82726 -2.1182,-0.82726 -0.64336,1.04713zm-0.21366,-22.7609c1.07067,0 2.33185,-3.33518 1.68856,-4.38119c-0.83154,-1.04713 -2.54331,0.63227 -2.54331,2.5068c0,1.04719 0.42738,1.87439 0.85475,1.87439zm-10.36815,14.19207c-1.2844,0.85221 -1.07067,1.04732 0.61788,1.04732c1.07067,0 2.32953,-0.41498 2.75923,-1.04732c0.64097,-1.65558 -1.4749,-1.65558 -3.37711,0zm0.21372,18.37853c0.19044,0.21993 0.83147,-0.21874 1.47484,-1.24093c0.64097,-0.85221 2.54331,-1.89933 4.01808,-2.31306c1.90221,-0.63247 2.7593,-1.65459 2.7593,-3.14039c0,-3.52885 -2.97295,-2.48304 -6.13641,2.09439c-1.28433,2.31194 -2.32953,4.18646 -2.11581,4.59999zm-2.33185,-9.61477c1.90215,-2.28792 1.90215,-2.70291 0.40403,-3.33525c-1.68849,-0.82739 -2.94734,1.04732 -2.94734,4.38125c-0.21598,2.50798 -0.21598,2.50798 2.54331,-1.046zm-3.40033,-24.63523c0.21366,1.6794 0.64103,1.46079 1.90215,-1.65578c1.49818,-3.33412 1.49818,-3.7728 0.21372,-3.7728c-0.83147,0 -1.68856,0.63247 -1.90221,1.67967c-0.42738,0.8272 -0.42738,2.72673 -0.21366,3.74891zm-1.04752,-17.11266c0,0.85108 0.4041,2.92053 0.8338,4.38125c0.64103,2.92165 0.64103,2.92165 1.2844,0.41366c0.83147,-2.50666 0,-6.25557 -1.2844,-6.25557c-0.62015,0 -0.8338,0.63214 -0.8338,1.46066zm-14.83916,6.88805c-1.04746,1.46086 -1.04746,2.92171 -0.21598,7.3029c0.42971,3.14032 1.50044,6.28071 2.1182,6.88937c1.07074,1.04713 1.2844,0 1.49805,-6.47451c0,-7.91155 -1.07067,-10.41934 -3.40027,-7.71775zm1.90221,22.12856c0.21372,0.41373 0.64103,-0.41366 0.42738,-1.65571c0,-1.26594 -0.21366,-1.46086 -0.64103,-0.63234c-0.19051,0.82726 -0.19051,1.87439 0.21366,2.28805zm7.6344,-19.62058c-0.21366,0.41373 -0.21366,3.33538 0.42738,6.47451c0.64336,5.42963 0.8338,5.64824 1.04752,1.68059c0.21366,-6.47564 -0.21372,-9.6159 -1.4749,-8.1551zm-7.20702,58.88549c1.2844,-2.50798 3.40033,-6.69445 4.87517,-9.20223c1.68849,-2.70198 2.75923,-6.25577 3.18661,-9.80976c0.62015,-5.62343 0.62015,-5.62343 0.62015,-5.62343c-2.54558,3.11657 -2.54558,3.11657 -2.54558,3.11657c-1.26118,1.6796 -2.11593,3.55399 -2.11593,4.18646c0,1.65565 -4.02041,12.0988 -5.28159,13.97333c-0.64103,1.04581 -1.71177,3.35907 -1.90221,5.01465c-1.07074,4.79505 0.8338,3.96765 3.16339,-1.65558zm-15.03192,21.49497c0.64336,4.16244 0.64336,4.16244 2.7593,-4.7961c1.26118,-4.81999 3.16339,-12.53629 4.44779,-17.33246c1.68849,-6.06085 2.33185,-11.0755 2.33185,-18.15959c0,-9.20131 -0.21598,-9.39623 -1.90448,-8.3489c-3.82771,2.70172 -5.94591,10.22323 -6.80066,24.82883c-0.4041,7.52296 -0.8338,15.04447 -1.26112,16.70025c-0.21372,1.67947 0,4.81986 0.42731,7.10798zm0.42971,-53.43329c0.83147,2.06944 1.68856,3.74891 1.68856,3.74891c0.21366,0 1.25879,-1.26594 2.11587,-2.92152c1.07067,-1.45967 2.75923,-3.13914 3.40033,-3.74779c2.5223,-1.89933 3.16333,-7.74137 1.04746,-11.70903c-1.68856,-3.55399 -6.35,-7.52283 -7.20709,-6.25689c-0.42731,0.41366 -1.04513,4.3825 -1.47484,8.9825c-0.85469,6.88917 -0.85469,8.98342 0.42971,11.90382zm-1.2844,-47.80966c0.42738,0.41485 0.85469,0.19492 0.85469,-0.43735c0,-0.82852 -0.42731,-1.65591 -0.85469,-2.06951c-0.64336,-0.43861 -1.04752,-0.21874 -1.04752,0.60865c0,0.63234 0.40416,1.46086 1.04752,1.89821zm-68.61679,56.13474c2.94967,0.21986 2.94967,0.21986 2.94967,0.21986c2.97295,0 5.94591,-2.70291 5.94591,-5.01465c0,-1.46086 -0.21366,-1.46086 -8.89558,4.79478zm1.26118,-5.84211c0,0.63379 0.42738,1.26594 1.07074,1.26594c1.0452,0 4.01808,-3.74891 3.37705,-4.38119c-0.64336,-0.85221 -4.44779,1.87432 -4.44779,3.11525zm2.33185,-14.38679c3.18667,4.16356 4.66151,4.57723 6.35,1.87432c1.71177,-2.50666 0.21372,-4.18626 -4.87743,-4.79492c-4.2318,-0.63359 -4.2318,-0.63359 -1.47257,2.92059zm-2.33185,-11.70797c0,0.43735 1.49805,1.45954 3.18661,2.31174c7.8249,3.96772 9.32296,3.96772 9.10923,0.19512c0,-2.28825 -3.18661,-7.30303 -4.44779,-7.30303c-1.49805,0 -7.84805,3.96765 -7.84805,4.79617zm11.44115,29.64895c2.32959,0 2.54325,-0.63247 0.64103,-1.65466c-0.85702,-0.21986 -1.68856,0 -1.90221,0.60865c-0.42971,0.63214 0.21366,1.046 1.26118,1.046zm1.68856,-49.05078c-1.4749,-1.04726 -3.37944,-1.46079 -4.23413,-1.04726c-1.47484,0.82852 -1.26118,1.04726 0.85469,1.6794c1.04752,0.41498 3.189,0.82858 4.23413,1.0235c1.26118,0 1.26118,-0.41485 -0.85469,-1.65565zm-0.19044,7.52151c1.25879,0 1.47484,-0.21874 0.61782,-0.85108c-0.61782,-0.19479 -1.4749,-0.19479 -1.90228,0.21881c-0.21366,0.41353 0.42738,0.82739 1.28446,0.63227zm1.25879,4.79624c-2.97289,0 -2.97289,0.19472 -1.25879,1.87432c2.11587,1.87439 2.73369,2.093 3.59077,0.82726c1.47477,-1.65466 0.42731,-2.70159 -2.33198,-2.70159zm4.2342,-23.5883c-0.85708,-1.04713 -1.07074,0.82739 -0.6411,3.11545c0.21366,1.46086 1.06841,2.72659 1.49812,2.72659c0.83147,0 0.21366,-4.60112 -0.85702,-5.84204zm6.77732,27.55562c-0.42731,0.19512 0.64336,1.46086 1.90454,2.50812c1.2844,1.046 2.32953,1.4596 2.32953,0.82726c0,-1.46066 -3.59071,-4.18739 -4.23407,-3.33538zm-5.30254,1.46086c-1.90221,1.46099 -0.83147,5.2097 1.92549,5.84217c1.47484,0.4136 3.80676,2.0932 5.28159,3.74878c1.2844,1.6796 2.32953,2.31319 2.32953,1.6796c0,-2.09313 -8.46587,-12.12276 -9.53661,-11.27055zm8.68192,17.33266c-1.26112,-3.36032 -2.73602,-5.01498 -5.49531,-6.0621c-2.11587,-0.82726 -4.23407,-1.26574 -4.8751,-1.04587c-0.64336,0.21861 1.90221,2.92039 5.51853,6.06072c6.77732,5.42851 6.77732,5.42851 4.85189,1.04726zm11.24838,-32.15706c-0.42738,0 -0.85708,0.82739 -0.85708,1.65466c0,1.04713 0.42971,1.6796 0.85708,1.6796c0.61782,0 1.04752,-0.63247 1.04752,-1.6796c0,-0.82726 -0.42971,-1.65466 -1.04752,-1.65466zm-1.92543,17.11266c0,1.46066 3.61399,0.41366 5.08882,-1.46086c2.11593,-3.14026 1.90221,-3.96765 -0.85702,-3.96765c-1.90221,0 -4.2318,2.92178 -4.2318,5.42851zm6.15956,-45.08326c-0.64336,2.70178 -1.07074,4.98984 -0.85702,5.20977c0.6433,0.82739 2.33192,-5.42838 2.33192,-7.93636c0,-1.046 -0.64343,0.21993 -1.4749,2.72659zm11.01151,42.16155c-1.07074,0 -1.90228,0.41498 -1.90228,1.24205c0,0.63247 0.61782,1.04732 1.25885,1.04732c0.85702,0 1.68856,-0.41485 1.90454,-1.04732c0.42738,-0.82706 -0.21598,-1.24205 -1.26112,-1.24205zm-2.54564,39.24102c1.26118,3.77392 3.16339,7.3029 4.23413,8.1551c1.07074,0.63247 3.18661,3.55412 4.44779,6.47564c1.26118,2.92053 2.54558,5.20865 2.7593,5.20865c1.04513,0 -1.07074,-19.20579 -2.54558,-25.04896c-1.28446,-5.01353 -1.68862,-9.61477 -1.4749,-16.91767c0.19044,-5.42838 0,-10.22455 -0.42731,-10.63815c-0.21372,-0.41366 -1.68856,-0.41366 -2.97295,0c-2.33192,0.82726 -2.54558,1.46086 -2.54558,6.06197c0,3.52905 -0.42744,5.42851 -1.4749,6.25557c-2.97289,1.87459 -2.75923,12.51267 0,20.44784zm-6.13628,-27.96928c-0.42738,-3.14032 -0.85469,-3.55399 -3.18661,-3.55399c-2.7593,0 -2.7593,0.21874 -2.54558,4.59999c0,2.70291 0.42964,5.84316 0.6433,7.30283c0.21372,1.46086 1.04752,2.92152 1.90228,3.14032c1.68849,1.04726 3.59071,-6.25557 3.18661,-11.48916zm-3.18661,21.08011c-1.90228,-2.50686 -3.18661,-5.20865 -3.37711,-5.84204c0,-0.82726 -1.07067,-2.92039 -2.32959,-4.79492c-1.2844,-1.87439 -2.75923,-4.18745 -3.40259,-5.01485c-2.11587,-2.92152 -1.68856,-0.41353 0.64336,6.06085c1.47484,4.38231 4.01815,8.35003 6.99104,11.68521c5.49525,5.64712 6.13635,4.60019 1.4749,-2.09425zm-3.37711,10.24824c2.30638,0 2.11593,-0.21861 -1.07067,-3.55379c-2.11593,-2.09333 -3.59077,-4.38138 -3.59077,-5.42858c0,-0.8272 -2.7593,-3.77273 -5.94584,-6.47451c-3.16346,-2.72653 -6.13641,-5.42831 -6.56372,-6.2567c-0.42971,-1.046 -0.64336,-1.046 -0.64336,0.19492c0,1.26594 -1.0452,1.46066 -4.44779,0.82726c-2.32959,-0.41373 -4.2318,-0.41373 -4.2318,-0.1938c0,0.41366 0.85469,2.92053 1.71177,5.42831c1.4749,4.16264 2.11587,5.01498 6.77738,6.6695c2.94974,1.04713 7.61112,3.55392 10.58407,5.42831c2.7593,1.89953 6.13635,3.35907 7.42074,3.35907zm-33.05995,7.08409c0.85702,0 2.1182,-0.41353 2.97289,-1.04693c1.4749,-1.45974 0.21605,-1.45974 -2.54325,0c-1.26118,0.6334 -1.47484,0.82832 -0.42964,1.04693zm-2.32959,-5.2097c2.11593,-0.85095 8.89558,-1.67947 15.05514,-1.67947c11.62933,-0.19492 13.96119,-0.82706 9.29968,-2.09313c-1.47477,-0.41353 -4.85189,-1.46086 -7.61112,-2.50686c-4.87517,-1.87439 -14.84148,-1.24205 -15.88668,0.85128c-0.21598,0.41465 -1.2844,0.6334 -2.33185,0.41465c-2.11593,-0.63346 -4.23413,1.04614 -4.87517,4.38138c-0.85702,2.70159 0.64103,2.92152 6.35,0.63214zm-16.93414,4.79617c0.42738,1.6796 2.54558,1.87439 4.23413,0.41353c1.04513,-0.8272 1.04513,-1.24073 0,-2.50666c-0.85702,-1.24225 -1.47484,-1.24225 -2.75923,-0.19492c-0.85702,0.60865 -1.4749,1.65466 -1.4749,2.28805zm-6.77738,14.6058c0.83154,0 1.25892,0.63247 0.83154,1.87452c-0.19051,0.85221 -0.83154,1.67947 -1.26118,1.67947c-0.64103,0 -1.0452,-0.82726 -1.0452,-1.67947c0,-1.02218 0.61782,-1.87452 1.47484,-1.87452z" stroke-width="1.5" fill="#000"/>
  <path stroke="#fff" id="svg_12" d="m152.68434,174.87907c-1.18194,-1.5995 -2.62797,-2.89446 -4.07844,-3.80034c-1.69247,0.92853 -3.7538,1.49393 -6.00105,1.49393c-2.25167,0 -4.31596,-0.56651 -6.00545,-1.49393c-1.45046,0.90588 -2.89797,2.20084 -4.08281,3.80034c-2.75044,3.71358 -3.05292,7.52277 -0.67731,8.51044c1.0639,0.44491 2.17938,0.1133 3.3318,-0.71852c-0.20215,0.84341 -0.3202,1.75756 -0.3202,2.71374c0,4.24804 2.20301,7.68913 4.91798,7.68913c1.6364,0 2.44647,-1.25298 2.83599,-3.17138c0.38809,1.91841 1.19815,3.17138 2.82862,3.17138c2.71943,0 4.92246,-3.44109 4.92246,-7.68913c0,-0.95618 -0.11809,-1.87033 -0.32463,-2.71374c1.15534,0.83182 2.26936,1.16343 3.33621,0.71852c2.37415,-0.98767 2.0672,-4.79686 -0.68316,-8.51044l0,0zm-10.08239,-3.75557c4.56825,0 8.27334,-2.77564 8.27334,-6.19959s-3.70509,-6.1996 -8.27334,-6.1996c-4.56981,0 -8.27782,2.77619 -8.27782,6.1996s3.70802,6.19959 8.27782,6.19959z" stroke-width="1.5" fill="#000"/>
 </g>
</svg>
