<?xml version="1.0" standalone="no"?>
<!DOCTYPE svg PUBLIC "-//W3C//DTD SVG 20010904//EN"
 "http://www.w3.org/TR/2001/REC-SVG-20010904/DTD/svg10.dtd">
<svg version="1.0" xmlns="http://www.w3.org/2000/svg"
 width="200.000000pt" height="200.000000pt" viewBox="0 0 200.000000 200.000000"
 preserveAspectRatio="xMidYMid meet">
<metadata>
Created by potrace 1.15, written by Peter Selinger 2001-2017
</metadata>
<g transform="translate(0.000000,200.000000) scale(0.100000,-0.100000)"
fill="#000000" stroke="none">
<path d="M630 1823 c-21 -7 -40 -33 -40 -54 0 -46 78 -68 102 -29 11 17 24 20
80 20 l68 0 0 -192 0 -193 -58 3 c-90 5 -165 -36 -217 -118 -29 -46 -73 -60
-194 -60 l-91 0 0 63 c0 50 4 66 20 80 24 20 26 60 4 81 -43 43 -120 -5 -96
-60 7 -13 19 -27 27 -30 12 -5 15 -24 15 -85 l0 -79 82 0 81 0 -20 -22 c-29
-32 -43 -62 -43 -92 0 -23 -4 -26 -38 -26 -26 0 -41 6 -50 20 -14 23 -70 28
-90 8 -15 -15 -16 -53 -2 -79 15 -27 75 -26 92 1 9 14 24 20 50 20 34 0 40 -4
58 -39 16 -32 18 -45 9 -70 l-11 -30 -111 -3 -112 -3 -3 -88 c-2 -71 -6 -91
-22 -107 -40 -40 -19 -100 35 -100 46 0 74 38 57 76 -7 13 -19 27 -27 30 -12
5 -15 24 -15 85 l0 79 99 0 98 0 6 -39 c8 -63 37 -112 106 -182 89 -88 143
-112 236 -107 38 3 78 8 88 12 15 7 17 0 17 -83 l0 -91 -55 0 c-42 0 -60 5
-76 21 -27 27 -69 22 -88 -12 -13 -24 -13 -29 2 -53 21 -32 59 -34 87 -6 16
16 33 20 90 20 l70 0 0 119 c0 113 1 121 22 135 12 9 39 16 60 16 l38 0 0
-118 c0 -106 -2 -121 -20 -137 -37 -34 -13 -95 38 -95 48 0 69 61 32 95 -18
16 -20 31 -20 135 l0 118 38 6 c20 4 49 9 65 12 l27 6 0 -191 0 -191 85 0 c49
0 85 -4 85 -10 0 -5 11 -17 24 -25 48 -32 104 22 76 74 -15 29 -75 29 -92 1
-11 -17 -24 -20 -80 -20 l-68 0 0 183 0 184 57 29 c43 22 64 40 81 71 22 40
25 41 85 48 34 4 85 16 112 26 35 13 76 19 138 19 l87 0 0 -60 c0 -47 -4 -64
-20 -80 -40 -40 -16 -100 40 -100 41 0 68 40 52 76 -7 13 -19 27 -27 30 -12 5
-15 24 -15 85 l0 79 -87 0 c-85 0 -86 0 -68 20 10 11 20 42 23 70 l5 50 51 0
c41 0 54 -4 64 -21 20 -32 83 -23 96 13 16 44 -6 78 -49 78 -24 0 -39 -6 -47
-20 -17 -27 -115 -29 -125 -3 -5 16 -40 95 -51 115 -2 4 63 9 145 10 l148 3 3
88 c2 71 6 91 22 107 40 40 19 100 -35 100 -46 0 -74 -38 -57 -76 7 -13 19
-27 27 -30 12 -5 15 -24 15 -85 l0 -79 -148 0 -148 0 -30 31 c-32 35 -81 59
-117 59 -16 0 -34 12 -51 34 -14 19 -55 54 -91 78 l-65 42 0 123 0 123 55 0
c42 0 60 -5 76 -21 27 -27 69 -22 88 12 13 24 13 29 -2 53 -21 32 -59 34 -87
6 -16 -16 -33 -20 -90 -20 l-70 0 0 -136 c0 -120 -2 -135 -16 -130 -9 3 -36 6
-60 6 l-44 0 0 113 c0 101 2 116 20 132 38 34 16 95 -35 95 -51 0 -73 -61 -35
-95 18 -16 20 -31 20 -137 0 -91 -3 -118 -13 -118 -8 0 -36 -11 -63 -25 -27
-14 -50 -25 -51 -25 -2 0 -3 92 -3 205 l0 205 -80 0 c-71 0 -82 3 -104 25 -26
26 -30 27 -56 18z m567 -458 c28 -15 69 -46 92 -69 l42 -43 -40 -26 c-22 -15
-48 -39 -57 -53 -14 -20 -22 -24 -43 -19 -42 11 -90 45 -106 76 -18 33 -35 38
-35 10 0 -30 46 -78 98 -101 39 -18 48 -26 47 -47 0 -37 21 -40 28 -3 8 36 76
113 117 130 75 31 160 -29 220 -154 74 -156 22 -247 -158 -278 -39 -6 -73 -10
-75 -7 -3 2 -7 25 -11 50 -7 45 -6 46 33 72 52 34 98 94 83 109 -7 7 -21 -2
-48 -31 -20 -23 -50 -51 -65 -62 l-28 -19 -36 24 c-45 31 -106 41 -199 32 -67
-6 -74 -5 -93 16 -33 36 -43 63 -43 112 0 47 -12 59 -28 29 -9 -15 -14 -14
-47 12 -21 15 -45 45 -54 66 -16 39 -41 53 -41 23 0 -36 62 -113 111 -139 16
-9 29 -26 32 -43 3 -16 17 -43 31 -60 15 -16 26 -32 26 -35 0 -3 -42 -15 -92
-27 -108 -26 -180 -22 -232 10 -22 13 -37 17 -41 10 -14 -23 33 -53 102 -65
45 -7 53 -20 53 -87 0 -57 -30 -81 -110 -90 -36 -4 -31 -22 6 -26 45 -4 102
22 122 57 15 26 25 31 82 41 48 8 78 8 110 0 65 -16 72 -16 77 -3 8 21 -66 35
-162 31 l-93 -4 -5 36 c-2 19 -4 36 -3 37 1 1 33 9 71 17 39 9 102 25 140 35
148 41 270 18 301 -56 21 -50 14 -117 -17 -150 -60 -63 -174 -93 -361 -93
-105 0 -128 -3 -128 -14 0 -10 13 -16 38 -18 l37 -3 -50 -24 c-98 -49 -196
-22 -296 80 -120 121 -132 237 -35 331 60 58 43 82 -19 27 -20 -18 -37 -30
-39 -28 -29 34 -34 107 -9 145 16 25 107 84 130 84 6 0 14 -13 18 -29 8 -39
68 -96 131 -126 58 -28 84 -31 84 -12 0 7 -21 20 -48 29 -61 22 -129 80 -137
117 -14 64 72 161 160 181 49 11 107 -6 154 -46 21 -19 44 -34 50 -34 20 0 11
28 -16 50 -32 25 -26 33 43 60 69 29 163 22 231 -15z"/>
</g>
</svg>
