<svg width="642" height="482" xmlns="http://www.w3.org/2000/svg">
 <!-- Created with Method Draw - http://github.com/duopixel/Method-Draw/ -->

 <g>
  <title>background</title>
  <rect fill="#fff" id="canvas_background" height="484" width="644" y="-1" x="-1"/>
  <g display="none" overflow="visible" y="0" x="0" height="100%" width="100%" id="canvasGrid">
   <rect fill="url(#gridpattern)" stroke-width="0" y="2" x="2" height="400" width="580"/>
  </g>
 </g>
 <g>
  <title>Layer 1</title>
  <path stroke="#000" id="svg_1" d="m130.69951,122.9383c-1.99299,0 -3.01738,-1.90255 -3.01738,-4.18404c0,-1.90211 0.51212,-3.74883 1.99299,-3.74883c1.02439,0 2.56649,1.84673 3.07861,3.74883c1.02439,2.76943 0,4.18404 -2.05421,4.18404zm340.68039,108.55698c4.55963,0 5.58387,0.48793 3.01738,3.74839c-1.48087,2.2815 -4.55948,4.1836 -6.04034,4.1836c-1.54194,0 -3.07861,-1.90211 -3.07861,-4.1836c0,-2.33746 2.05437,-3.74839 6.10157,-3.74839zm-318.3339,-132.78964c-4.55948,-0.92314 -5.07175,-5.59777 0,-7.00914c2.56633,-0.43462 4.04736,0.923 4.04736,3.74883c0,2.33717 -1.48102,3.69537 -4.04736,3.26031zm-56.83488,147.67525c6.10157,-1.35835 6.10157,-2.33466 4.04736,-5.54195c-1.53667,-2.33466 -2.04879,-5.16021 -1.02439,-6.0835c0.51212,-1.41388 3.07861,0 4.55948,2.76972c2.05421,3.74883 3.59073,4.23971 7.63808,1.90211c2.51084,-1.41123 4.55948,-2.33687 4.55948,-0.923c0,0.923 1.54209,0 3.53508,-1.90211c3.07876,-2.76972 3.59088,-8.85573 0.51227,-12.11633c-2.50526,-2.76972 -15.22052,-1.84643 -18.7556,1.41123c-2.04879,2.33761 -3.59088,1.84938 -5.58387,-2.33422c-3.07861,-6.95627 -3.07861,-7.93288 4.0472,-8.3675c6.10157,0 6.10157,0 1.02439,-2.82554c-2.56091,-1.35835 -5.0716,-4.1836 -5.0716,-6.03033c0,-4.67433 7.07016,-7.44406 10.14877,-4.18345c1.02439,1.35806 3.01754,2.76972 5.07175,2.76972c4.04736,0 23.37072,-15.80949 23.37072,-19.0701c0,-1.41373 1.99857,-2.33673 4.04736,-1.41373c2.51069,0.49073 7.07032,-0.923 11.69102,-3.2606c6.55246,-3.74854 6.55246,-4.1836 3.01738,-10.2671c-2.50526,-4.1836 -5.58387,-5.59777 -12.70983,-5.59777c-8.09456,0 -10.14877,0.92344 -12.65403,6.52121c-1.02997,3.74839 -4.10843,6.51826 -6.10157,6.51826c-3.53508,0 -4.55948,-4.1811 -1.02439,-6.51826c1.53651,-0.92344 2.56091,-4.1836 2.56091,-7.44421c0,-5.10719 -1.02439,-6.03033 -7.63808,-4.67183c-6.61369,0.923 -6.61369,0.48793 -5.07175,-6.5215c1.02439,-4.18345 2.50526,-7.93199 3.53524,-8.36705c1.02439,-0.48793 2.04863,-4.67183 2.04863,-8.85543c0,-8.36794 3.02296,-9.77916 8.61241,-3.74883c2.56075,3.26046 4.103,3.74883 5.0716,0.923c1.02439,-1.84643 4.61512,-2.2815 10.20457,-1.3585c7.58244,1.84673 8.09456,1.3585 7.07016,-4.1836c-0.51212,-3.26016 -1.02982,-7.009 -1.54194,-7.93199c0,-1.41167 -2.50526,-3.2606 -5.52822,-4.67227c-6.10157,-2.33673 -7.63808,-7.93199 -2.05421,-7.93199c1.54209,0 3.02281,-0.92344 3.02281,-2.77267c0,-1.41167 3.07876,-2.33466 7.12596,-1.9024c5.58945,0.49073 8.60683,-1.35776 16.24492,-11.13648c5.58945,-7.00944 9.63665,-10.75798 10.14893,-8.85587c0.51212,2.33466 3.07861,3.69272 5.58929,3.69272c4.04736,0 4.55963,-1.35806 3.07876,-7.44155c-0.5177,-4.1839 -3.07876,-9.29049 -4.6207,-11.6281c-4.55963,-5.16227 -4.55963,-11.1926 0,-9.34661c3.59073,1.84938 14.76389,-3.25766 14.76389,-6.51812c0,-1.41388 1.48645,-2.33717 3.53508,-2.33717c2.05437,0 3.02296,2.8254 3.02296,6.52106c0,4.67183 1.02439,6.51856 3.59088,5.16006c1.99299,-0.97646 3.53524,-3.74883 3.53524,-5.59512c0,-5.59807 16.24476,-15.37694 20.29196,-12.60471c1.54225,0.92373 3.07861,0 3.59662,-3.26016c1.48071,-6.52106 10.65531,-11.6281 14.70251,-8.3675c2.05437,1.35806 4.04751,0.92344 4.56521,-0.48793c1.02424,-1.84923 5.0716,-3.2606 9.63107,-3.69596c4.55948,-0.48793 10.66105,-2.33717 13.22753,-4.23927c9.63107,-6.03033 19.26788,-5.59527 23.31508,0.92624c2.56649,4.67154 3.59073,4.67154 3.59073,1.41093c0,-4.1839 1.99872,-4.67183 14.19628,-3.26016c19.32352,1.84923 22.34648,1.84923 29.47245,-0.48838c4.55948,-1.35835 6.10141,-0.92329 6.10141,2.8251c0,2.33761 1.48102,4.18404 3.53524,4.18404c1.53651,0 3.01738,-1.3585 3.01738,-2.77238c0,-3.74839 8.15594,-5.59512 15.28175,-3.74839c5.52822,1.84923 6.04034,2.33673 4.55948,14.88812c-0.51212,7.49737 0,12.60441 0.96875,12.60441c1.02424,0 2.05421,-3.2606 2.05421,-7.93243c0,-7.87927 5.58387,-11.13722 7.63808,-4.67198c0.51227,2.33481 1.99299,1.41137 3.01738,-2.28135c2.56664,-9.78167 8.15594,-4.67478 6.61369,6.03033c-1.53636,8.85543 -1.53636,8.85543 3.02312,5.59483c2.56633,-1.41137 4.55932,-5.1066 4.55932,-7.44155c0,-2.33731 1.54225,-5.10954 3.59104,-6.08615c4.04705,-1.84599 8.61226,5.1605 7.12581,10.2696c-0.51212,2.33511 -0.51212,4.1839 0.96859,4.1839c1.02997,0 2.05437,-1.35806 2.05437,-2.33717c0,-1.35835 2.51069,-1.84673 5.58929,-0.923c6.60826,1.41137 7.57686,5.15976 1.99314,7.44126c-1.48087,0.97911 -3.02296,3.2606 -3.02296,5.163c0,3.2606 1.02982,3.2606 6.61369,0c9.11895,-5.59512 13.16615,-5.163 14.7084,0.923c1.02424,3.2606 3.02281,4.67448 5.0716,3.2606c2.05421,-0.48823 6.61369,1.41388 10.14893,4.67183c3.07861,2.77223 7.63808,5.10704 9.6923,5.10704c3.02296,0 3.02296,2.33746 1.99299,8.85823c-1.02424,7.00944 -1.02424,7.93243 2.05437,5.10733c4.0472,-4.6191 5.58387,-4.18434 7.07032,2.33422c0.51212,3.2606 4.10285,5.59777 8.1502,7.00914c4.55948,0.92624 7.07032,3.26046 7.07032,6.03283c0,2.8254 1.53636,6.0835 3.07861,7.93273c4.04736,3.26016 3.01738,13.03903 -1.54225,16.29949c-1.53636,0.97661 -3.53493,0.48838 -4.0472,-0.923c-1.02424,-1.41417 -4.55948,-1.41417 -11.17332,0c-10.66105,3.25766 -12.65403,4.1836 -10.14877,8.42037c1.54209,2.76972 19.2733,1.84673 28.96017,-1.41388c3.02296,-1.41152 4.04736,0 4.04736,6.52121c0,4.67154 -1.02439,8.3675 -2.56091,8.3675c-1.02997,0 -1.99857,1.41123 -1.99857,3.74839c0,5.59748 2.51084,5.1066 9.12453,-1.41167c3.5295,-3.74839 5.58371,-4.67433 8.09456,-2.33673c2.56091,2.33673 3.07861,2.33673 3.07861,-1.41167c0,-2.28429 -1.02997,-4.1836 -2.56633,-4.1836c-0.96875,0 -1.99872,-1.84923 -1.99872,-3.69596c0,-2.33687 1.48645,-4.1836 3.53508,-4.1836c1.54209,0 3.59088,0.923 3.59088,2.2815c0,1.41447 1.99857,3.26046 4.56506,3.74883c3.52966,1.41417 4.55948,3.2606 4.0472,8.85573c-1.02982,10.70437 1.02455,13.96527 8.60683,12.11883c3.59088,-0.92624 5.58371,0 4.04736,1.84643c-0.45647,0.923 0,3.2606 1.02439,4.23647c4.10843,2.77252 2.56633,9.29123 -1.99314,9.29123c-5.58929,0 -7.12596,2.33673 -4.10285,6.52077c2.04863,2.33717 3.59073,2.76972 5.58371,0.92329c4.6207,-4.67183 5.58945,-0.92329 6.10157,17.7141c0,9.34337 1.02439,16.78787 2.04879,16.78787c2.51069,0 1.54209,10.2696 -2.04879,14.4532c-1.99857,2.33466 -1.99857,4.61601 -0.51212,6.51812c3.59073,4.18404 0,16.30037 -4.56521,16.30037c-4.04705,0 -11.68528,8.85543 -11.68528,13.03933c0,5.10984 -6.55246,0 -8.09456,-5.59527c-1.53651,-5.10689 -1.53651,-5.10689 -2.56649,-1.41388c-0.96859,4.23942 4.56506,17.27875 9.18033,20.97397c3.02281,2.82584 -2.56649,7.49737 -6.61384,5.59527c-2.05437,-0.923 -3.02296,-3.69272 -3.02296,-6.51826c0,-7.93199 -12.70983,-27.92789 -22.34648,-35.42496c-5.12724,-3.69596 -9.68687,-7.87956 -9.68687,-9.29079c0,-2.82554 -16.25034,-11.6281 -25.36929,-14.4535c-5.07733,-1.41388 -6.61384,-0.92314 -6.61384,2.8254c0,2.76972 -0.96859,3.69272 -3.02296,2.76972c-4.55948,-1.84673 -6.61369,2.33761 -2.56633,6.52121c5.58929,5.10689 4.6207,11.1926 -1.48087,8.85543c-4.103,-1.41137 -4.61528,-0.92344 -3.07861,7.00929c0.51212,4.61866 1.54209,10.70437 1.54209,13.47409c0,2.82554 1.02424,4.67227 2.04863,4.67227c1.4866,0 1.99857,-0.92344 0.96875,-2.33466c-0.51212,-1.41417 0.51785,-2.77238 2.56633,-2.77238c1.54225,0 3.02296,1.84894 3.02296,3.69537c0,1.9024 -1.99841,3.74839 -5.58929,3.2609c-3.01738,0 -5.58387,-1.3585 -5.58387,-2.28179c0,-4.23971 -13.68401,-33.0906 -17.73121,-37.32736c-4.55963,-4.6191 -1.53667,-6.03033 -37.56716,15.86472c-5.58371,3.2606 -11.68528,10.2696 -14.76389,15.37694c-2.51084,5.1066 -6.55804,10.2696 -8.60683,11.1926c-2.05421,0.92344 -9.63665,8.3675 -16.2505,16.29993c-28.44805,34.93408 -23.82735,39.11798 -21.83421,110.45938c8.61226,54.05956 8.61226,54.05956 8.61226,54.05956c-20.2977,0 -20.2977,0 -20.2977,0c-16.75703,0 -16.75703,0 -16.75703,0c1.53651,-49.87876 1.53651,-49.87876 1.53651,-49.87876c1.02424,-4.1808 1.54209,-12.60397 2.05437,-17.27624c0.51212,-2.77223 -14.25193,-14.88856 -13.73965,-17.65799c0,-2.33717 15.27617,4.18404 15.27617,1.84643c2.51069,-34.01109 0,-61.069 -6.61384,-75.46918c-1.53651,-8.85587 -14.25177,-37.32457 -16.24476,-37.32457c-0.51227,0 -4.103,-2.77223 -7.63808,-6.03283c-6.10172,-6.0832 -8.60683,-6.51856 -42.64434,-8.3675c-36.54261,-1.8996 -36.54261,-1.8996 -36.54261,-1.8996c-8.66248,6.51856 -8.66248,6.51856 -8.66248,6.51856c-5.0716,4.23927 -10.14877,7.00914 -11.62979,7.00914c-3.07861,0 -15.79387,9.78123 -21.32209,15.37605c-0.51212,0 -1.02424,-0.48749 -1.02424,-0.923c-0.51227,0 -0.51227,0 -0.51227,-0.48823c-0.51212,-1.35806 -1.02982,-2.77223 -2.05421,-4.1836c3.07861,-2.33717 5.58929,-3.75104 6.61369,-3.26016c1.53651,0.923 3.02296,0 3.02296,-2.33761c0,-2.33466 -3.02296,-3.26046 -11.11752,-2.33466c-9.69245,1.41167 -12.20314,1.8996 -13.73965,7.4417c-2.51084,2.8254 -3.02296,7.00929 -1.53651,10.2699c-0.51785,4.1836 -0.51785,7.009 0,7.009c0.51212,0 1.02424,-0.923 2.56091,-1.90211c0,0.48838 0.51212,0.97911 1.02982,1.41388c-5.07718,1.41137 -7.64366,5.59527 -7.12596,9.77887c-2.56633,1.90211 -5.07718,2.8254 -8.15563,4.23677c0,0 0,-0.48793 -0.45663,-0.48793c1.99857,-4.1836 3.02296,-8.85587 3.53508,-15.86487c1.02997,-7.87956 0.51212,-13.03933 -1.02424,-13.03933c-1.02439,0 -2.05421,1.90211 -2.05421,4.67139c0.51196,2.33761 -0.45663,4.67227 -2.50542,5.10733c-1.54209,0.48793 -2.56633,-0.43506 -2.56633,-2.76972c0,-5.59777 -1.99314,-5.59777 -6.5582,-0.49073c-2.04863,1.90211 -6.09599,4.1839 -9.63107,5.163c-4.6207,1.35806 -6.10157,0.43462 -8.15578,-4.67227c-1.53651,-4.1836 -2.56091,-8.85823 -1.53651,-10.70466c0.51212,-2.33717 0.51212,-4.23677 -1.48087,-4.23677c-5.58945,0 -1.54209,-7.4445 5.0716,-8.85838zm43.66858,-107.1431c-3.07861,-0.48793 -5.58945,-1.84643 -6.61369,-3.74854c-0.51227,-2.77223 -1.02439,-2.77223 -1.02439,0c0,1.90211 -2.05421,3.2606 -4.04736,3.74854c-3.59073,0 -3.59073,0.48823 0.51227,2.33761c2.50511,0.923 5.0716,2.33422 5.58371,2.33422c0.45647,0 3.02296,-1.41123 5.58945,-2.33422c4.55948,-2.33761 4.55948,-2.33761 0,-2.33761zm402.58687,75.03412c0.96875,0.92344 1.99314,-0.49073 1.99314,-2.8254c0,-1.84894 -1.02439,-3.69567 -1.99314,-3.69567c-1.54194,0 -2.56633,0.92329 -2.56633,2.2815c0,1.41417 1.02439,3.31628 2.56633,4.23957zm-3.59073,4.1839c-0.51212,-1.41417 -3.02296,-3.26046 -5.07718,-3.26046c-1.48087,0 -2.50526,1.84629 -1.48087,3.26046c0.45647,1.41137 2.51069,2.33481 4.55948,2.33481c1.99857,0 2.51069,-0.92344 1.99857,-2.33481zm-4.55948,20.97147c1.53651,0 3.59073,-0.48793 3.59073,-0.923c0,-0.97911 -2.05421,-1.90211 -3.59073,-2.82554c-1.99857,-0.92329 -3.53524,-0.43506 -3.53524,0.92344c0,1.41388 1.53667,2.8251 3.53524,2.8251zm4.04736,-44.2804c2.04863,-0.92373 3.07845,-2.33746 2.56091,-3.69596c-1.53667,-3.31333 -10.1435,-3.31333 -10.1435,0c0,3.69596 3.01754,5.10733 7.58259,3.69596zm-27.88013,-34.93732c-2.56649,1.41417 -4.103,4.1839 -3.59104,5.59777c2.56649,3.69316 5.5896,2.76972 8.15036,-3.2606c2.51084,-5.59777 1.48645,-6.52077 -4.55932,-2.33717zm-9.69245,71.77366c13.22738,12.55095 13.73965,13.03933 13.73965,8.85573c0,-2.33466 -1.02439,-4.23677 -2.56649,-4.23677c-1.48071,0 -4.0472,-2.33761 -5.58371,-5.10689c-1.48102,-2.77267 -4.55948,-5.59821 -7.07032,-5.59821c-4.61512,0 -4.61512,0.49088 1.48087,6.08615zm-10.65562,-21.95087c3.07318,0 4.55963,-0.923 2.56106,-1.3582c-1.53651,-0.92329 -4.04736,-0.92329 -5.58387,0c-1.54225,0.43521 0,1.3582 3.02281,1.3582zm-14.70825,-63.35049c1.53651,1.41167 6.09599,3.2581 10.14319,4.18404c7.12612,1.41123 7.63824,1.41123 3.59088,-2.33717c-4.61512,-4.6191 -17.26915,-6.03033 -13.73407,-1.84688zm-30.9589,-77.31517c-1.53651,1.35806 -2.04863,4.1836 -1.53651,6.02989c1.02439,3.74883 4.04736,0.48838 4.04736,-5.10689c0,-2.82554 -0.51227,-3.2606 -2.51084,-0.923zm15.22052,100.62454c4.04736,2.33437 5.58945,2.33437 7.64382,-0.92594c4.0472,-5.10719 1.48071,-7.44155 -6.10172,-4.18345c-6.10157,2.284 -6.10157,2.284 -1.54209,5.1094zm-10.14319,-23.30937c7.63808,-5.10645 7.63808,-5.10645 1.53651,-5.10645c-4.103,0 -7.12596,1.84599 -8.66248,5.10645c-0.96875,3.2581 -1.99857,5.10733 -1.48645,5.10733c0,0 4.04736,-2.77252 8.61241,-5.10733zm-11.17332,75.5225c3.5295,5.10733 9.63123,5.10733 7.63808,-0.48823c-0.51212,-1.84894 -1.02982,-4.1836 -1.02982,-4.67448c0,-0.43506 -2.04879,-0.43506 -4.55948,0.49088c-4.103,0.92329 -4.103,2.33466 -2.04879,4.67183zm-15.73822,-19.12533c4.0472,5.10719 6.10157,5.59512 10.66105,1.84673c3.02296,-2.33466 3.02296,-2.33466 0,-2.76972c-1.53651,0 -5.58387,-0.49088 -9.11895,-1.41417c-5.07718,-1.84643 -5.07718,-1.84643 -1.54209,2.33717zm-0.51212,-50.8019c2.56633,0 5.58929,-7.44406 4.04736,-9.77872c-1.99314,-2.33717 -6.09614,1.41123 -6.09614,5.59512c0,2.33731 1.02439,4.1836 2.04879,4.1836zm-24.85175,31.67642c-3.07861,1.90211 -2.56633,2.33761 1.48102,2.33761c2.56633,0 5.58371,-0.92624 6.61369,-2.33761c1.53636,-3.69522 -3.53524,-3.69522 -8.09471,0zm0.51227,41.02053c0.45647,0.49088 1.99299,-0.48823 3.53508,-2.76972c1.53636,-1.90211 6.09614,-4.23927 9.63107,-5.16271c4.55948,-1.41167 6.61384,-3.69302 6.61384,-7.00929c0,-7.87632 -7.12596,-5.5421 -14.70856,4.67463c-3.07845,5.16021 -5.58371,9.3441 -5.07144,10.2671zm-5.58929,-21.45999c4.55932,-5.1066 4.55932,-6.03283 0.96844,-7.44421c-4.0472,-1.84673 -7.06458,2.33761 -7.06458,9.77887c-0.5177,5.59777 -0.5177,5.59777 6.09614,-2.33466zm-8.15036,-54.98535c0.51212,3.74839 1.53651,3.26046 4.55932,-3.69567c3.59104,-7.4417 3.59104,-8.42081 0.51227,-8.42081c-1.99299,0 -4.04736,1.41167 -4.55948,3.74898c-1.02439,1.84629 -1.02439,6.086 -0.51212,8.3675zm-2.51084,-38.19513c0,1.8996 0.96859,6.51856 1.99857,9.77887c1.53651,6.52106 1.53651,6.52106 3.07861,0.92329c1.99299,-5.59483 0,-13.96232 -3.07861,-13.96232c-1.48645,0 -1.99857,1.41093 -1.99857,3.26016zm-35.56844,15.37399c-2.51069,3.2606 -2.51069,6.52121 -0.5177,16.29993c1.02997,7.00914 3.59646,14.01844 5.07718,15.37694c2.56649,2.33717 3.07861,0 3.59073,-14.45099c0,-17.65843 -2.56633,-23.25576 -8.1502,-17.22587zm4.55948,49.39053c0.51227,0.92344 1.53651,-0.92329 1.02439,-3.69552c0,-2.82554 -0.51212,-3.2606 -1.53651,-1.41137c-0.45663,1.84643 -0.45663,4.1836 0.51212,5.10689zm18.29913,-43.79276c-0.51212,0.92344 -0.51212,7.4445 1.02439,14.45099c1.54209,12.11883 1.99857,12.60677 2.51084,3.75104c0.51212,-14.4535 -0.51227,-21.46249 -3.53524,-18.20204zm-17.27473,131.43129c3.07861,-5.59777 8.15036,-14.94187 11.68544,-20.5392c4.0472,-6.03077 6.61369,-13.96276 7.63808,-21.8952c1.48645,-12.55139 1.48645,-12.55139 1.48645,-12.55139c-6.10157,6.95612 -6.10157,6.95612 -6.10157,6.95612c-3.02296,3.74883 -5.07175,7.93243 -5.07175,9.3441c0,3.69537 -9.63665,27.0043 -12.65961,31.1882c-1.53651,2.33422 -4.103,7.49737 -4.55948,11.1926c-2.56649,10.70245 1.99857,8.85573 7.58244,-3.69522zm-36.03049,47.97636c1.54209,9.29049 1.54209,9.29049 6.61384,-10.70481c3.02296,-10.75813 7.58244,-27.98076 10.66105,-38.68572c4.0472,-13.5277 5.58929,-24.7203 5.58929,-40.53186c0,-20.53714 -0.5177,-20.9722 -4.5649,-18.63459c-9.17475,6.03018 -14.25193,22.81805 -16.30072,55.41747c-0.96859,16.79111 -1.99857,33.57897 -3.02281,37.27464c-0.51227,3.74854 0,10.75783 1.02424,15.86487zm1.02997,-119.26208c1.99299,4.61896 4.04736,8.3675 4.04736,8.3675c0.51212,0 3.01723,-2.82554 5.0716,-6.52077c2.56633,-3.25795 6.61369,-7.00649 8.15036,-8.36499c6.04577,-4.23927 7.58228,-17.2786 2.51069,-26.13432c-4.04736,-7.93243 -15.22052,-16.79081 -17.27489,-13.96527c-1.02424,0.92329 -2.50511,9.78167 -3.53508,20.04877c-2.04863,15.37649 -2.04863,20.05083 1.02997,26.56909zm-3.07861,-106.71025c1.02439,0.92594 2.04863,0.43506 2.04863,-0.97616c0,-1.84923 -1.02424,-3.69596 -2.04863,-4.6191c-1.54209,-0.97896 -2.51084,-0.48823 -2.51084,1.3585c0,1.41137 0.96875,3.2606 2.51084,4.23677zm-164.46973,125.29168c7.07016,0.49073 7.07016,0.49073 7.07016,0.49073c7.12596,0 14.25193,-6.03283 14.25193,-11.1926c0,-3.2606 -0.51212,-3.2606 -21.32209,10.70187zm3.02296,-13.03947c0,1.41461 1.02439,2.82554 2.56649,2.82554c2.50526,0 9.63107,-8.3675 8.09456,-9.77872c-1.54209,-1.90211 -10.66105,4.18345 -10.66105,6.95318zm5.58929,-32.11104c7.63824,9.293 11.17332,10.21629 15.22052,4.18345c4.103,-5.59483 0.51227,-9.34366 -11.69086,-10.70216c-10.14335,-1.41417 -10.14335,-1.41417 -3.52966,6.51871zm-5.58929,-26.13197c0,0.97616 3.59073,3.25766 7.63808,5.15976c18.75576,8.85587 22.34648,8.85587 21.83421,0.4355c0,-5.10733 -7.63808,-16.30023 -10.66105,-16.30023c-3.59073,0 -18.81125,8.85573 -18.81125,10.70496zm27.42366,66.17589c5.58387,0 6.09599,-1.41167 1.53651,-3.69316c-2.05421,-0.49073 -4.04736,0 -4.55948,1.3585c-1.02997,1.41093 0.51212,2.33466 3.02296,2.33466zm4.04736,-109.48042c-3.53524,-2.33746 -8.10029,-3.26046 -10.14893,-2.33746c-3.53508,1.84923 -3.02296,2.33746 2.04863,3.74839c2.51084,0.92624 7.64382,1.84938 10.14893,2.28444c3.02296,0 3.02296,-0.92594 -2.04863,-3.69537zm-0.45647,16.78787c3.01723,0 3.53508,-0.48823 1.48087,-1.8996c-1.48087,-0.43477 -3.53524,-0.43477 -4.55963,0.48838c-0.51212,0.923 1.02439,1.84673 3.07876,1.41123zm3.01723,10.70511c-7.12581,0 -7.12581,0.43462 -3.01723,4.18345c5.0716,4.1836 6.55246,4.67154 8.60683,1.84643c3.53493,-3.69316 1.02424,-6.02989 -5.5896,-6.02989zm10.14908,-52.64863c-2.05437,-2.33717 -2.56649,1.84673 -1.53667,6.95362c0.51212,3.2606 2.56091,6.08571 3.59088,6.08571c1.99299,0 0.51212,-10.2696 -2.05421,-13.03933zm16.24476,61.50362c-1.02424,0.4355 1.54209,3.2606 4.56506,5.59807c3.07861,2.33466 5.58371,3.25781 5.58371,1.84643c0,-3.26016 -8.60668,-9.34616 -10.14877,-7.4445zm-12.70983,3.2606c-4.55948,3.2609 -1.99299,11.62795 4.61528,13.03962c3.53508,0.92314 9.12453,4.67198 12.65961,8.3672c3.07861,3.74883 5.58371,5.163 5.58371,3.74883c0,-4.67183 -20.29212,-27.05776 -22.8586,-25.15566zm20.80997,38.68616c-3.02281,-7.50017 -6.55804,-11.19333 -13.17189,-13.5305c-5.0716,-1.84643 -10.14877,-2.8251 -11.68528,-2.33437c-1.54209,0.48793 4.55948,6.51826 13.22753,13.52741c16.24476,12.11633 16.24476,12.11633 11.62964,2.33746zm26.96161,-71.77396c-1.02439,0 -2.05437,1.84673 -2.05437,3.69316c0,2.33717 1.02997,3.74883 2.05437,3.74883c1.48087,0 2.51084,-1.41167 2.51084,-3.74883c0,-1.84643 -1.02997,-3.69316 -2.51084,-3.69316zm-4.61512,38.19513c0,3.26016 8.66248,0.92329 12.19756,-3.2606c5.07175,-7.009 4.55948,-8.85573 -2.05421,-8.85573c-4.55948,0 -10.14335,6.52136 -10.14335,12.11633zm14.76405,-100.62498c-1.54209,6.03033 -2.56649,11.13722 -2.05421,11.6281c1.54194,1.84673 5.58945,-12.11604 5.58945,-17.71381c0,-2.33466 -1.54225,0.49088 -3.53524,6.08571zm26.39384,94.10377c-2.56649,0 -4.55963,0.92624 -4.55963,2.77223c0,1.41167 1.48087,2.33761 3.01738,2.33761c2.05421,0 4.04736,-0.92594 4.56506,-2.33761c1.02439,-1.84599 -0.5177,-2.77223 -3.02281,-2.77223zm-6.10172,87.58522c3.02296,8.42332 7.58244,16.29993 10.14893,18.20204c2.56649,1.41167 7.63808,7.93273 10.66105,14.4535c3.02296,6.51856 6.10157,11.6256 6.61384,11.6256c2.50511,0 -2.56649,-42.86696 -6.10157,-55.90879c-3.07876,-11.19009 -4.04751,-21.45999 -3.53524,-37.75992c0.45647,-12.11604 0,-22.82099 -1.02424,-23.74414c-0.51227,-0.92329 -4.04736,-0.92329 -7.12596,0c-5.58945,1.84643 -6.10157,3.2606 -6.10157,13.53021c0,7.87676 -1.02455,12.11633 -3.53524,13.96232c-7.12581,4.18404 -6.61369,27.92803 0,45.63919zm-14.70825,-62.42691c-1.02439,-7.00914 -2.04863,-7.93243 -7.63808,-7.93243c-6.61384,0 -6.61384,0.48823 -6.10157,10.2671c0,6.03283 1.02982,13.04183 1.54194,16.29978c0.51227,3.2606 2.51084,6.52077 4.55963,7.00914c4.0472,2.33746 8.60668,-13.96232 7.63808,-25.64359zm-7.63808,47.05041c-4.55963,-5.59527 -7.63808,-11.6256 -8.09471,-13.03933c0,-1.84643 -2.56633,-6.51826 -5.58387,-10.70216c-3.07861,-4.1836 -6.61369,-9.34631 -8.15578,-11.19304c-5.0716,-6.52077 -4.04736,-0.923 1.54209,13.5277c3.53508,9.78123 9.63123,18.6371 16.75703,26.08116c13.17173,12.60427 14.7084,10.26754 3.53524,-4.67433zm-8.09471,22.87387c5.52822,0 5.07175,-0.48793 -2.56633,-7.93199c-5.07175,-4.67227 -8.60683,-9.77916 -8.60683,-12.11648c0,-1.84629 -6.61384,-8.42066 -14.25177,-14.45099c-7.58259,-6.08556 -14.70856,-12.11589 -15.7328,-13.96483c-1.02997,-2.33466 -1.54209,-2.33466 -1.54209,0.43506c0,2.82554 -2.50526,3.26016 -10.66105,1.84643c-5.58387,-0.92344 -10.14335,-0.92344 -10.14335,-0.43256c0,0.92329 2.04863,6.51856 4.103,12.11589c3.53524,9.29093 5.0716,11.19333 16.24492,14.8862c7.07032,2.33717 18.24333,7.93229 25.36929,12.11589c6.61384,4.23971 14.7084,7.49737 17.78701,7.49737zm-79.24244,15.81156c2.05421,0 5.07718,-0.923 7.12581,-2.33673c3.53524,-3.2581 0.51785,-3.2581 -6.09599,0c-3.02296,1.41373 -3.53508,1.84879 -1.02982,2.33673zm-5.58387,-11.62795c5.07175,-1.89931 21.32209,-3.74854 36.08614,-3.74854c27.87471,-0.43506 33.464,-1.84599 22.29068,-4.67183c-3.53493,-0.923 -11.62964,-3.2606 -18.24333,-5.59527c-11.68544,-4.1836 -35.57402,-2.77223 -38.07928,1.90004c-0.5177,0.9255 -3.07861,1.41373 -5.58929,0.9255c-5.07175,-1.41388 -10.14893,2.33496 -11.68544,9.77916c-2.05421,6.02989 1.53651,6.52077 15.22052,1.41093zm-40.58997,10.70496c1.02439,3.74883 6.10157,4.1836 10.14893,0.923c2.50511,-1.84629 2.50511,-2.76928 0,-5.59483c-2.05421,-2.77267 -3.53508,-2.77267 -6.61369,-0.43506c-2.05421,1.3585 -3.53524,3.69316 -3.53524,5.10689zm-16.24492,32.59986c1.99314,0 3.01754,1.41167 1.99314,4.1839c-0.45663,1.90211 -1.99314,3.74854 -3.02296,3.74854c-1.53651,0 -2.50526,-1.84643 -2.50526,-3.74854c0,-2.2815 1.48087,-4.1839 3.53508,-4.1839z" stroke-width="1.5" fill="#fff"/>
  <path stroke="#000" id="svg_5" d="m397.59191,414.37256c-0.17235,-0.64563 -0.18848,-1.33818 -0.18848,-1.33818c0,0 -2.17258,-2.15089 -3.23938,-3.36987c-0.89929,-1.02842 -2.3918,-3.97599 -2.3918,-3.97599c0,0 -0.07935,-0.74494 0.0599,-0.76581c0.22587,-0.03306 1.39683,1.12936 2.53955,1.808c1.17705,0.69911 2.52771,1.15893 2.52771,1.15893l1.47734,0c0,0 -1.21345,-3.6273 0.34313,-3.15192c0.56239,0.05395 0.87319,1.42617 1.72978,1.57707c1.00369,-0.28055 1.49793,-3.57031 1.49793,-3.57031c0,0 -0.30524,-0.61253 -0.2915,-1.19418c0.01107,-0.38457 0.34378,-0.82354 0.34378,-0.82354c0,0 -0.70967,0.13445 -1.19614,-0.04348c-0.43839,-0.16054 -1.10811,-0.78483 -1.28542,-1.24637c-0.21946,-0.57131 -0.16253,-1.20337 -0.39566,-1.56658c-0.02313,-0.28503 0.29949,-0.38219 0.47083,-0.24842c0.64499,0.5036 1.49981,0.55717 1.68429,0.66026c0.77192,0.43143 2.07383,0.49161 2.26367,0.40517c-1.70843,-2.42017 0.45903,-2.92262 0.76102,-2.97392c0.37793,0.46731 0.94741,1.02914 1.11067,1.53962c0.21638,0.31066 0.19878,-0.13094 0.19878,-0.13094c0,0 0.01107,-1.30251 0.50439,-2.27787c0.11372,-0.22753 0.74234,-0.95399 1.16142,-1.01757c0.15193,-0.02304 0.4741,-0.07495 0.81689,-0.425c0.87582,-0.89439 3.2656,-0.74481 3.2656,-0.74481c0,0 0.19344,0.10179 0.55515,0.10005c0.31935,-0.00214 5.9389,-0.37928 8.2371,0.56078c1.54478,0.63187 4.30773,0.4429 7.63581,-0.6382c1.05045,-0.34121 4.0844,-0.42982 4.0844,-0.42982c0,0 1.14746,0.07238 2.0788,0.43048c1.45199,0.55828 4.21703,0.34215 5.91146,0.54662c0.65395,0.07918 1.90602,0.77623 2.94205,1.42691c3.25733,2.04566 5.15561,6.62668 4.9261,8.18694c-0.44729,3.04087 -3.11142,8.25007 -4.28835,10.54059c-0.47615,0.92667 -0.72134,2.33373 -0.61714,3.40366c0.03035,0.31159 -0.36045,1.09093 -1.10152,1.62221c-1.04438,0.74878 -0.25715,1.84675 -0.16061,2.3514c0.09613,0.50333 0.06408,1.14893 -0.21941,1.29251c-0.28231,0.14266 -4.31742,0.94605 -4.43578,-0.12487c-0.59095,-1.20907 2.31084,-3.04552 1.97904,-5.18c-0.94952,-1.42014 -1.17005,-4.58389 -1.32205,-5.06946c-0.15898,-2.18499 -3.26975,1.23801 -4.83833,1.93852c-4.50819,2.01333 -9.59553,1.10575 -9.99563,0.93665c-0.54902,1.8978 0.03054,2.83599 0.06793,3.06701c-0.12341,1.29417 1.09148,3.3686 1.36285,4.64007c0.22217,1.01903 -3.57433,1.01903 -4.6155,0.97841c-0.85708,-0.26189 0.43139,-2.16979 0.64137,-2.38269c0.2859,-1.6391 -1.30863,-3.10848 -1.30863,-3.10848c0,0 -0.11389,1.46938 -0.43083,2.70303c0.01322,0.58148 0.52157,1.00406 0.5956,1.52261c0.07861,0.5538 -0.2915,0.62601 -0.2915,0.62601c0,0 -2.91047,0.59371 -3.64372,-0.09614c-0.36775,-0.13128 -0.68831,0.08266 -0.94586,-0.14487c-0.17894,-0.15923 0.11637,-1.07016 0.33805,-1.32207c0.18962,-0.21662 1.45494,-0.26337 1.46474,-2.00681c-0.31353,-3.0969 -2.89515,-4.39341 -3.08743,-5.59808c-1.25039,0.55641 -2.5651,-0.48938 -2.5651,-0.48938c0,0 -0.34377,0.45286 -0.72227,0.53853c-0.30371,0.06788 -1.41785,-0.74604 -1.79096,-1.22025c-0.12042,1.85716 -1.46625,1.36167 -1.46625,1.36167c0,0 -0.47579,0.91246 -1.23202,1.35339c-1.86407,1.08689 -2.20577,1.00045 -2.97524,1.82979c-0.43337,0.46706 -1.19502,-0.22303 -1.69826,-0.00822c-1.82232,0.77791 -2.92329,-0.21609 -2.83638,-2.42278z" fill-opacity="null" stroke-opacity="null" stroke-width="1.5" fill="#fff"/>
 </g>
</svg>
