<?xml version="1.0" standalone="no"?><!DOCTYPE svg PUBLIC "-//W3C//DTD SVG 1.1//EN" "http://www.w3.org/Graphics/SVG/1.1/DTD/svg11.dtd"><svg t="1623130231689" class="icon" viewBox="0 0 1024 1024" version="1.1" xmlns="http://www.w3.org/2000/svg" p-id="18166" data-spm-anchor-id="a313x.7781069.0.i78" xmlns:xlink="http://www.w3.org/1999/xlink" width="200" height="200"><defs><style type="text/css"></style></defs><path d="M586.4 763.5C465.8 711.9 460.3 581 476.7 509.4c20.4-88.8 93.2-350.8 235.8-350.8S912 438.1 912 438.1c31.1 160.4 21.3 271.9-69.6 320 0 0-107.9 68.9-256 5.4z" fill="#e48257" p-id="18167" data-spm-anchor-id="a313x.7781069.0.i72" class=""></path><path d="M259.4 787c-93.8-40.2-106.5-89.3-93.7-145.1 15.9-69.1 81-332.3 191.9-325.8 148.7 8.7 155.2 217.6 155.2 217.6 24.2 124.8 16.6 211.6-54.2 249.1 0.1 0-83.9 53.6-199.2 4.2z" fill="#e48257" p-id="18168" data-spm-anchor-id="a313x.7781069.0.i73" class=""></path><path d="M684.2 918.3c-0.9 0-1.8-0.1-2.7-0.2a17.45 17.45 0 0 1-14.6-20c11.5-74.1 1.7-112.9-9.5-157.7-9.3-37-19.8-78.8-18.1-144.5 3.4-127.8 133-187.4 138.5-189.9 8.8-4 19.1 0 23.1 8.8s0.1 19.2-8.8 23.2c-1.1 0.5-115.1 53.3-117.8 158.9-1.6 60.8 7.9 98.6 17 135 11.7 46.5 22.7 90.5 10.2 171.6-1.4 8.6-8.8 14.8-17.3 14.8z" fill="#f2edd7" p-id="18169" data-spm-anchor-id="a313x.7781069.0.i77" class=""></path><path d="M662.8 552.5c-6.7 0-13-3.8-16-10.3-32.7-72-71.5-106.8-71.9-107.1-7.2-6.4-8-17.4-1.6-24.7 6.4-7.3 17.4-8 24.7-1.7 1.8 1.6 44.6 39.5 80.7 119 4 8.8 0.1 19.2-8.7 23.2-2.4 1.1-4.8 1.6-7.2 1.6zM656.8 695.6c-5.3 0-10.5-2.4-14-6.9-44.9-59.2-79.9-53.3-80.3-53.2-9.3 1.8-18.6-4.1-20.7-13.3-2.1-9.2 3.3-18.4 12.5-20.8 5.7-1.5 57.2-12 116.4 66.1 5.8 7.7 4.3 18.7-3.4 24.5-3.1 2.5-6.8 3.6-10.5 3.6zM302.1 926.9c-0.9 0-1.8-0.1-2.7-0.2a17.45 17.45 0 0 1-14.6-20c12-77.3 6.1-108.1-0.1-140.7-5.1-26.8-10.4-54.5-7.3-105.7 1.9-32.2 23.9-106.8 24.8-109.9 2.7-9.3 12.5-14.5 21.8-11.8 9.3 2.7 14.6 12.5 11.8 21.8-6 20.5-22 78.7-23.4 102.1-2.8 46.9 1.9 71.3 6.8 97.1 6.5 34.1 13.2 69.3 0.3 152.6-1.5 8.5-8.9 14.7-17.4 14.7z" fill="#f2edd7" p-id="18170" data-spm-anchor-id="a313x.7781069.0.i76" class=""></path><path d="M288.1 695.6c-5.4 0-10.8-2.5-14.2-7.3-33.2-46.1-55.8-54.8-56.1-54.9-8.9-3.3-13.8-13.1-10.8-22.1 3-9 12.4-14 21.5-11.3 3.3 1 33.2 11.4 73.8 67.8 5.7 7.9 3.9 18.8-4 24.5-3.1 2.3-6.7 3.3-10.2 3.3z" fill="#f2edd7" p-id="18171" data-spm-anchor-id="a313x.7781069.0.i79" class=""></path><path d="M209.7 771.4c-1.1 0-2.3-0.1-3.5-0.3-41-8.3-70.9-28.9-89.1-61.3-27.5-49.1-25.2-124.2 6.5-211.5 48.3-132.7 83.1-215 185.1-233.6 55.1-10 93.5 28.8 95.1 30.4 6.7 6.9 6.6 18-0.3 24.8-6.9 6.7-18 6.6-24.7-0.3-1.2-1.2-27.6-27-63.8-20.4-79.2 14.4-109.1 75.4-158.4 211.1-28.2 77.6-31.4 142.3-8.9 182.4 13.1 23.4 34.6 37.8 65.5 44.1 9.5 1.9 15.6 11.2 13.7 20.6-1.8 8.3-9.1 14-17.2 14zM546.9 757.6c-2.3 0-4.6-0.5-6.8-1.4-136.4-57.8-142.3-205.9-124.3-284.3 26.1-113.8 104-378.5 262.3-378.5 160.8 0 222.1 292.3 224.6 304.7 25.3 130.5 38.8 288.2-81.4 351.8-8.5 4.5-19.2 1.3-23.7-7.3s-1.3-19.2 7.3-23.7c77.9-41.2 97.4-138.1 63.4-314-0.5-2.6-57.9-276.5-190.2-276.5-108.8 0-189.2 181.5-228.2 351.3-15.6 67.8-11.2 195.5 103.8 244.2 8.9 3.8 13.1 14.1 9.3 23-2.8 6.7-9.3 10.7-16.1 10.7zM378.9 779.6c-9.7 0-17.5-7.8-17.5-17.5 0-9.5 7.6-17.2 17-17.5 1-0.1 14.6-1.7 36.9-18.5 7.7-5.9 18.7-4.3 24.5 3.4 5.8 7.7 4.3 18.7-3.4 24.5-32.3 24.4-53.6 25.6-57.5 25.6z" fill="#393232" p-id="18172" data-spm-anchor-id="a313x.7781069.0.i75" class="selected"></path></svg>