<?xml version="1.0" encoding="iso-8859-1"?>
<!-- Generator: Adobe Illustrator 17.1.0, SVG Export Plug-In . SVG Version: 6.00 Build 0)  -->
<!DOCTYPE svg PUBLIC "-//W3C//DTD SVG 1.0//EN" "http://www.w3.org/TR/2001/REC-SVG-20010904/DTD/svg10.dtd">
<svg version="1.0" xmlns="http://www.w3.org/2000/svg" xmlns:xlink="http://www.w3.org/1999/xlink" x="0px" y="0px" width="110px"
	 height="110px" viewBox="0 0 110 110" style="enable-background:new 0 0 110 110;" xml:space="preserve">
<g id="Artboard">
</g>
<g id="Multicolor">
	<circle style="fill:#32BEA6;" cx="55" cy="55" r="55"/>
	<g>
		<g>
			<path style="fill:#3E3E3F;" d="M34,63c10,0,12,9,29,9c0-5,4-9,11-9s13,9,13,9c0-9.122-3-27-21.544-27H53.708
				c-1.636,0-3.106,0.996-3.714,2.514L47,55H31c-3.86,0-5,4-7,17C24.91,71.742,32.901,63,34,63z"/>
		</g>
		<path style="fill:#5B5C5F;" d="M34,63c10,0,12,9,29,9c0-5,4-9,11-9c0.245,0,0.486,0.035,0.728,0.057
			C70.956,61.038,59.779,59,30,59c-1.279,0-2.394,0.071-3.395,0.189c-0.76,2.188-1.405,5.365-2.129,9.808
			C26.021,65.998,29.002,63,34,63z"/>
		<g>
			<path style="fill:#FFFFFF;" d="M23.224,72.677c-0.095,0.58,0.07,1.171,0.45,1.619S24.613,75,25.2,75H84c1.657,0,3-1.343,3-3
				c0,0-6-9-13-9s-11,4-11,9c-17,0-19-9-29-9C26.819,63,23.795,69.188,23.224,72.677z"/>
		</g>
		<g>
			<circle style="fill:#3E3E3F;" cx="34" cy="73" r="6"/>
		</g>
		<g>
			<circle style="fill:#CFD3D4;" cx="34" cy="73" r="2"/>
		</g>
		<g>
			<circle style="fill:#3E3E3F;" cx="73" cy="73" r="6"/>
		</g>
		<g>
			<circle style="fill:#CFD3D4;" cx="73" cy="73" r="2"/>
		</g>
		<g>
			<path style="fill:#40C9E7;" d="M67,48.083C66.47,48.032,65.936,48,65.398,48H53.754c-0.446,0-0.839,0.296-0.961,0.725l-1.429,5
				c-0.086,0.302-0.026,0.626,0.163,0.877C51.716,54.853,52.012,55,52.326,55H67V48.083z"/>
		</g>
		<g>
			<path style="fill:#40C9E7;" d="M77.626,53.318c-1.837-1.971-4.119-3.438-6.626-4.332V55h5.894c0.398,0,0.758-0.236,0.917-0.601
				C77.97,54.034,77.897,53.61,77.626,53.318z"/>
		</g>
		<g>
			<path style="fill:#3E3E3F;" d="M26.198,57h-2v6h2c1.657,0,3-1.343,3-3S27.855,57,26.198,57z"/>
		</g>
		<g>
			<rect x="23.198" y="57" style="fill:#5B5C5F;" width="1" height="6"/>
		</g>
		<g>
			<path style="fill:#6FDAF1;" d="M53.754,48c-0.447,0-0.839,0.296-0.962,0.725l-1.428,5c-0.086,0.302-0.026,0.626,0.163,0.877
				S52.012,55,52.326,55h2.073l7-7H53.754z"/>
		</g>
	</g>
</g>
</svg>
