<?xml version="1.0" encoding="UTF-8" standalone="no"?>
<!DOCTYPE svg PUBLIC "-//W3C//DTD SVG 20010904//EN" "http://www.w3.org/TR/2001/REC-SVG-20010904/DTD/svg10.dtd">
<svg version="1.0" xmlns="http://www.w3.org/2000/svg" width="512.000000pt" height="512.000000pt" viewBox="0 0 512.000000 512.000000" preserveAspectRatio="xMidYMid meet">
<metadata>
Created by potrace 1.16, written by Peter Selinger 2001-2019
</metadata>
<g transform="translate(0.000000,512.000000) scale(0.100000,-0.100000)" fill="#000000" stroke="none">
<path fill="#1a5d47" d="M1520 4677 c-14 -7 -24 -21 -24 -30 1 -9 -2 -14 -7 -12 -11 8 -32 -34 -25 -51 3 -8 2 -13 -3 -9 -13 7 -45 -80 -36 -96 5 -7 4 -10 -2 -6 -13 8 -36 -68 -28 -96 5 -18 4 -19 -5 -7 -9 12 -10 8 -6 -20 4 -25 3 -31 -4 -20 -9 13 -10 13 -10 0 0 -13 -29 -15 -197 -15 -193 0 -259 -7 -249 -24 3 -5 -2 -8 -12 -7 -10 0 -16 -6 -16 -16 1 -10 -2 -15 -7 -12 -13 7 -11 -59 2 -112 8 -32 14 -42 21 -32 5 8 7 4 3 -13 -4 -17 0 -33 12 -48 l18 -23 90 18 c79 14 104 15 200 4 61 -7 147 -23 193 -36 46 -13 88 -21 94 -18 7 5 8 2 3 -6 -6 -10 -4 -12 11 -6 10 4 15 4 11 0 -8 -8 67 -54 89 -54 8 0 14 1 14 3 0 1 -7 24 -15 51 -21 69 -19 204 5 303 11 45 17 90 14 100 -5 14 -4 15 4 4 8 -11 11 -9 17 8 3 11 3 26 -1 32 -4 7 -3 9 3 6 13 -8 36 41 27 55 -5 7 -2 8 6 3 10 -6 12 -4 7 8 -4 10 -2 16 6 14 7 -1 12 6 12 15 0 9 4 20 9 25 5 4 6 3 2 -4 -4 -7 -5 -13 -2 -13 3 0 10 9 16 20 9 17 7 24 -12 40 -13 11 -29 17 -35 15 -7 -2 -12 1 -10 8 1 7 -6 11 -15 11 -10 -1 -15 3 -11 9 4 6 0 8 -11 4 -10 -4 -15 -3 -11 3 3 5 -18 16 -47 25 -62 18 -57 18 -88 2z"/>
<path fill="#1a5d47" d="M3560 4631 c-48 -15 -91 -42 -84 -53 4 -7 3 -8 -5 -4 -14 9 -73 -32 -68 -48 3 -6 9 -10 15 -9 5 1 9 -5 8 -15 0 -9 5 -16 12 -14 8 1 11 -2 7 -8 -9 -14 14 -52 27 -44 6 4 8 3 5 -3 -3 -5 7 -47 23 -94 17 -46 30 -93 30 -104 0 -16 2 -17 9 -6 7 10 8 0 5 -30 -3 -29 -1 -37 4 -25 21 47 -1 -189 -24 -266 -4 -12 0 -18 10 -18 23 0 77 35 68 45 -4 5 -2 5 5 2 6 -4 52 6 101 23 50 16 98 30 108 30 12 0 15 3 8 8 -23 14 268 13 334 -1 54 -12 66 -12 78 0 16 17 54 139 54 177 0 38 -18 69 -36 62 -8 -3 -12 -2 -9 3 12 21 -103 33 -272 29 l-172 -3 -12 49 c-8 34 -14 44 -21 35 -5 -9 -6 -4 -2 15 5 22 4 27 -6 21 -9 -5 -11 -4 -6 4 10 16 -2 64 -13 56 -5 -3 -7 5 -3 17 4 16 2 19 -8 13 -9 -5 -11 -4 -6 4 9 15 -3 53 -15 46 -5 -3 -6 1 -3 9 6 17 -10 51 -39 84 -21 23 -59 27 -107 13z"/>
<path xmlns="http://www.w3.org/2000/svg" d="M2200 4542 c-148 -152 -288 -427 -325 -637 -19 -112 -19 -174 1 -247 9 -32 14 -61 11 -65 -4 -3 -24 6 -45 19 -112 75 -256 107 -457 103 -253 -4 -507 -84 -559 -174 l-20 -34 23 -65 c12 -36 50 -110 83 -165 33 -54 58 -100 56 -102 -2 -1 -50 -25 -108 -53 -135 -65 -190 -111 -190 -158 0 -70 80 -182 247 -344 145 -142 266 -233 392 -297 53 -26 98 -49 100 -50 2 -1 -33 -41 -78 -89 -64 -67 -91 -105 -125 -177 -68 -142 -81 -210 -81 -422 0 -208 18 -303 63 -333 34 -22 206 -20 303 3 43 11 74 14 80 8 5 -5 13 -43 19 -83 10 -86 39 -174 75 -236 32 -55 59 -61 167 -35 300 71 574 255 673 451 19 39 37 70 39 70 2 0 29 -38 60 -84 133 -200 423 -402 684 -477 124 -35 190 -21 227 50 19 37 44 179 47 271 3 87 -8 84 132 40 112 -34 166 -37 216 -12 44 22 59 63 67 189 18 276 -111 643 -281 802 -14 14 -26 28 -26 32 0 4 30 5 68 2 55 -4 82 0 147 21 137 44 267 127 397 252 143 138 219 265 226 377 4 61 2 70 -22 102 -31 40 -195 124 -283 146 -33 8 -53 18 -53 27 0 8 23 54 51 102 56 99 98 194 99 226 0 26 -22 46 -80 71 -117 51 -277 86 -441 98 -153 12 -366 -28 -487 -90 -41 -21 -48 -15 -28 23 78 150 -11 526 -185 786 -138 207 -224 213 -399 29 l-87 -93 -49 63 c-117 150 -195 217 -253 217 -30 0 -44 -9 -91 -58z" fill="#1a5d47"/>
<path fill="#1a5d47" d="M469 2543 c-1 -4 -1 -12 0 -16 1 -5 -3 -6 -9 -2 -12 8 -107 -80 -126 -117 -26 -50 -18 -80 34 -131 27 -27 53 -47 58 -45 5 2 10 -1 12 -7 7 -21 36 -45 51 -43 9 2 16 -1 16 -7 1 -20 17 -35 33 -33 9 2 17 -4 17 -12 0 -8 8 -14 17 -14 10 1 16 -3 15 -10 -1 -6 5 -11 13 -10 9 1 16 -7 16 -17 0 -10 -3 -16 -7 -13 -10 6 -20 -26 -12 -38 4 -7 1 -8 -7 -3 -10 6 -12 4 -7 -9 4 -9 3 -14 -2 -11 -12 7 -24 -31 -15 -46 4 -7 3 -9 -3 -6 -14 9 -37 -48 -27 -64 4 -7 3 -10 -4 -5 -12 7 -41 -76 -62 -178 -9 -46 -9 -61 1 -70 9 -8 10 -8 4 3 -5 9 -4 12 3 7 6 -4 8 -14 5 -23 -5 -13 -2 -15 11 -10 10 4 15 3 11 -3 -7 -12 39 -24 65 -17 11 3 17 1 14 -4 -3 -6 23 -9 67 -7 l73 3 14 80 c8 44 15 92 16 107 0 14 4 24 8 22 10 -6 20 34 12 47 -5 8 -3 9 6 4 10 -6 12 -4 7 9 -4 9 -3 15 2 12 11 -7 23 22 14 36 -4 7 -1 8 7 3 10 -6 12 -4 7 9 -4 10 -3 15 3 11 11 -7 33 32 25 45 -4 6 -1 9 7 8 7 -2 13 5 13 14 0 9 4 20 9 25 5 5 6 2 2 -7 -4 -8 -1 -6 8 4 8 10 13 22 11 27 -3 4 0 11 6 15 8 5 10 2 5 -7 -4 -8 2 -3 13 10 12 12 19 26 16 30 -2 4 24 34 58 67 l62 59 -60 -65 -60 -65 63 60 c34 33 62 63 62 68 0 5 -25 7 -55 5 -31 -3 -51 -2 -44 2 6 4 -5 10 -25 14 -20 4 -41 4 -48 0 -6 -4 -8 -3 -4 4 8 13 -29 26 -45 16 -8 -5 -9 -3 -4 6 6 10 4 12 -9 7 -9 -4 -15 -3 -12 2 7 11 -22 23 -36 14 -7 -4 -8 -1 -3 7 6 10 4 12 -8 7 -10 -4 -16 -2 -14 6 1 7 -6 11 -15 11 -10 -1 -15 2 -12 7 5 8 -9 13 -28 10 -5 0 -7 5 -5 12 1 6 -7 12 -18 12 -11 0 -20 6 -20 13 0 14 -25 33 -36 27 -3 -3 -17 7 -29 20 -13 14 -20 25 -17 25 4 0 0 11 -9 25 -9 14 -20 23 -24 20 -4 -3 -7 3 -6 13 0 9 -4 16 -10 15 -7 -1 -11 5 -10 15 1 17 -43 32 -45 15z"/>
<path fill="#1a5d47" d="M4611 2406 c-6 -8 -10 -20 -9 -27 2 -7 -4 -13 -12 -14 -8 0 -15 -9 -15 -20 0 -11 -5 -20 -12 -20 -7 0 -18 -6 -25 -14 -11 -12 -11 -13 1 -6 10 5 12 4 7 -4 -4 -6 -11 -9 -15 -6 -5 2 -19 -8 -32 -23 -18 -20 -19 -23 -4 -12 18 14 19 14 6 -2 -7 -10 -17 -16 -21 -13 -4 2 -16 -3 -26 -11 -10 -9 -13 -12 -5 -8 9 4 12 3 7 -4 -4 -6 -13 -9 -20 -6 -8 3 -17 0 -22 -7 -5 -8 -3 -10 6 -4 8 5 11 4 6 -3 -4 -6 -14 -8 -23 -5 -10 4 -14 2 -10 -4 4 -6 -1 -10 -11 -9 -9 0 -16 -4 -15 -11 2 -8 -4 -10 -14 -6 -11 4 -14 3 -9 -5 5 -8 1 -10 -10 -5 -13 5 -15 3 -9 -7 5 -8 4 -11 -3 -6 -6 3 -44 -5 -84 -18 -40 -13 -94 -28 -120 -31 -52 -8 -60 -18 -28 -35 11 -6 20 -7 20 -3 0 4 6 1 13 -5 6 -7 12 -16 12 -21 0 -4 22 -32 49 -62 27 -30 46 -47 41 -39 -5 9 -4 12 1 7 5 -5 9 -16 9 -25 0 -9 6 -16 13 -14 6 1 11 -1 11 -5 -3 -20 2 -34 10 -29 5 3 8 -2 7 -12 0 -9 4 -16 11 -15 8 2 10 -4 6 -14 -5 -12 -3 -14 7 -8 8 5 11 4 6 -3 -8 -13 14 -63 25 -56 5 3 6 -3 2 -12 -5 -13 -3 -15 7 -9 8 5 11 4 7 -2 -10 -16 23 -104 35 -96 7 3 8 1 4 -5 -3 -6 -1 -43 5 -82 16 -93 32 -105 124 -95 36 3 63 10 60 15 -3 4 4 6 14 3 26 -7 60 13 70 41 12 29 -8 133 -21 114 -6 -9 -7 -6 -3 9 8 28 -4 75 -18 66 -6 -3 -7 -1 -3 6 10 16 -13 83 -26 75 -7 -5 -8 -2 -3 5 8 14 -24 93 -35 86 -3 -2 -6 6 -6 18 1 12 -4 21 -11 20 -8 -2 -10 4 -6 14 5 11 3 14 -6 8 -10 -6 -10 -2 0 16 7 13 12 28 11 32 -1 5 1 6 6 3 5 -3 18 2 28 10 10 9 13 12 5 8 -9 -4 -12 -3 -7 4 4 6 13 9 20 6 7 -3 19 3 27 12 12 15 12 17 0 9 -10 -5 -12 -4 -7 4 4 6 11 9 16 6 5 -3 21 7 37 21 15 15 19 20 8 13 -20 -14 -20 -13 -1 9 20 23 32 30 21 12 -9 -15 11 -12 24 3 6 8 7 18 3 22 -4 5 -2 5 4 2 7 -4 30 13 53 38 44 48 51 77 27 123 -20 38 -92 106 -104 98 -6 -3 -14 -1 -18 5 -5 8 -2 10 7 5 8 -4 5 0 -5 8 -24 20 -50 20 -65 2z"/>
<path fill="#1a5d47" d="M2534 1005 c-4 -8 -3 -22 0 -31 4 -10 2 -13 -6 -8 -8 5 -9 2 -5 -10 5 -11 3 -15 -5 -10 -8 5 -9 2 -5 -10 5 -11 3 -15 -5 -10 -8 5 -9 2 -5 -9 4 -10 2 -16 -6 -14 -7 1 -12 -6 -12 -15 0 -9 -4 -20 -9 -25 -5 -5 -6 -2 -1 6 6 10 4 12 -4 7 -7 -5 -10 -14 -7 -22 3 -7 0 -16 -6 -20 -7 -5 -8 -2 -3 7 5 9 2 9 -9 -2 -10 -9 -18 -24 -20 -33 -3 -22 -107 -127 -118 -120 -13 8 -39 -16 -31 -29 3 -5 2 -7 -4 -4 -6 4 -19 -1 -29 -9 -10 -9 -13 -12 -5 -8 9 4 12 3 7 -4 -4 -6 -13 -9 -20 -6 -8 3 -17 0 -22 -7 -5 -8 -3 -10 6 -4 9 5 11 4 6 -4 -4 -6 -12 -9 -17 -5 -9 5 -96 -22 -112 -36 -12 -10 3 -61 16 -53 6 4 7 1 2 -6 -9 -15 14 -63 26 -55 5 3 6 -3 2 -12 -5 -13 -3 -15 7 -9 9 6 11 4 5 -4 -9 -16 62 -91 87 -91 28 0 100 39 93 50 -3 5 0 7 8 4 8 -3 18 0 23 7 5 8 3 10 -7 4 -8 -5 -11 -4 -6 1 5 5 16 9 25 9 9 0 16 5 15 11 -1 7 5 11 15 10 9 0 17 6 17 14 0 8 7 14 16 12 9 -1 24 8 35 20 19 22 19 23 -1 8 -19 -14 -19 -14 -6 3 8 9 16 15 19 13 8 -9 43 15 37 25 -4 5 -1 8 6 7 7 -2 13 4 14 12 1 8 7 13 15 11 8 -2 23 -5 33 -6 10 -1 28 -12 40 -25 l22 -24 -26 19 c-14 11 -11 6 8 -13 19 -18 38 -30 43 -27 5 3 12 0 16 -6 5 -8 3 -9 -6 -4 -9 6 -11 4 -6 -4 5 -7 15 -10 23 -7 8 3 12 2 9 -3 -8 -12 21 -34 34 -26 6 4 9 1 8 -7 -2 -7 5 -12 14 -12 10 1 16 -3 15 -10 -1 -6 6 -10 15 -10 10 1 15 -3 11 -9 -4 -6 0 -8 10 -4 10 4 16 2 14 -6 -1 -7 6 -11 15 -11 10 1 15 -3 11 -9 -4 -6 0 -8 11 -4 9 4 14 3 11 -2 -7 -12 31 -24 46 -15 8 4 9 3 5 -4 -14 -23 50 -13 71 11 29 32 45 66 39 83 -4 10 -2 12 6 8 7 -5 9 0 6 14 -4 12 -3 20 2 17 9 -5 20 28 20 62 0 25 -33 48 -56 39 -8 -3 -13 -2 -10 3 7 11 -43 33 -56 25 -7 -5 -8 -2 -3 6 6 10 4 12 -9 7 -11 -5 -15 -3 -10 5 5 8 2 9 -9 5 -9 -3 -19 -1 -23 5 -5 7 -2 8 6 3 9 -6 11 -4 6 4 -5 7 -15 10 -23 7 -8 -3 -11 -2 -8 4 5 7 -26 31 -45 34 -3 1 -4 4 -3 8 2 4 -6 12 -17 18 -11 6 -20 7 -20 3 0 -4 -25 17 -55 47 -30 29 -52 56 -50 60 6 10 -13 35 -27 35 -7 0 -13 9 -13 20 0 11 -5 20 -12 20 -6 0 -15 4 -20 9 -5 5 -2 6 6 1 9 -5 12 -3 9 6 -3 8 -10 13 -16 12 -7 -2 -9 4 -5 14 4 11 3 14 -5 9 -7 -4 -10 -2 -7 6 6 16 -30 78 -45 78 -6 0 -13 -7 -16 -15z"/>
</g>
</svg>