<?xml version="1.0" encoding="UTF-8"?>
<svg xmlns="http://www.w3.org/2000/svg" xmlns:xlink="http://www.w3.org/1999/xlink" width="24pt" height="24pt" viewBox="0 0 24 24" version="1.1">
<defs>
<linearGradient id="linear0" gradientUnits="userSpaceOnUse" x1="63.3523" y1="124.2943" x2="63.3523" y2="105.9692" gradientTransform="matrix(0.1875,0,0,0.1875,0,0)">
<stop offset="0.00227541" style="stop-color:rgb(36.470588%,25.098039%,21.568627%);stop-opacity:1;"/>
<stop offset="1" style="stop-color:rgb(55.294118%,43.137255%,38.823529%);stop-opacity:1;"/>
</linearGradient>
<filter id="alpha" filterUnits="objectBoundingBox" x="0%" y="0%" width="100%" height="100%">
  <feColorMatrix type="matrix" in="SourceGraphic" values="0 0 0 0 1 0 0 0 0 1 0 0 0 0 1 0 0 0 1 0"/>
</filter>
<mask id="mask0">
  <g filter="url(#alpha)">
<rect x="0" y="0" width="24" height="24" style="fill:rgb(0%,0%,0%);fill-opacity:0.2;stroke:none;"/>
  </g>
</mask>
<clipPath id="clip1">
  <rect x="0" y="0" width="24" height="24"/>
</clipPath>
<g id="surface5" clip-path="url(#clip1)">
<path style=" stroke:none;fill-rule:nonzero;fill:rgb(25.882353%,25.882353%,25.882353%);fill-opacity:1;" d="M 9.820312 19.785156 C 9.941406 19.785156 10.058594 19.796875 10.175781 19.820312 C 10.460938 19.878906 10.761719 20.015625 11.074219 20.160156 C 11.566406 20.386719 12.070312 20.617188 12.644531 20.617188 C 12.820312 20.617188 12.996094 20.59375 13.167969 20.546875 C 13.347656 20.496094 13.507812 20.421875 13.652344 20.355469 C 13.777344 20.296875 13.890625 20.246094 13.992188 20.222656 C 14.035156 20.214844 14.078125 20.207031 14.121094 20.207031 C 14.449219 20.207031 14.867188 20.484375 15.242188 20.949219 C 15.328125 21.054688 15.410156 21.164062 15.496094 21.28125 C 15.867188 21.769531 16.285156 22.324219 16.933594 22.621094 C 16.976562 22.640625 17.015625 22.660156 17.0625 22.675781 L 5.980469 22.621094 C 6.007812 22.59375 6.035156 22.570312 6.054688 22.546875 C 6.328125 22.28125 6.582031 22 6.824219 21.730469 C 6.988281 21.546875 7.15625 21.359375 7.324219 21.183594 C 7.9375 20.542969 8.863281 19.785156 9.820312 19.785156 M 9.820312 19.222656 C 8.730469 19.222656 7.699219 19.976562 6.921875 20.792969 C 6.496094 21.238281 6.101562 21.714844 5.664062 22.148438 C 5.417969 22.390625 4.347656 23.171875 4.347656 23.171875 L 19.414062 23.25 C 19.414062 23.25 18.878906 22.554688 18.453125 22.433594 C 18.027344 22.316406 17.574219 22.292969 17.171875 22.109375 C 16.519531 21.8125 16.128906 21.152344 15.683594 20.597656 C 15.289062 20.109375 14.726562 19.644531 14.125 19.644531 C 14.039062 19.644531 13.957031 19.65625 13.871094 19.675781 C 13.574219 19.738281 13.3125 19.921875 13.019531 20.003906 C 12.894531 20.039062 12.769531 20.054688 12.648438 20.054688 C 11.859375 20.054688 11.105469 19.4375 10.292969 19.269531 C 10.132812 19.238281 9.976562 19.222656 9.820312 19.222656 Z M 9.820312 19.222656 "/>
</g>
<linearGradient id="linear1" gradientUnits="userSpaceOnUse" x1="9.8166" y1="34.9628" x2="51.348" y2="69.7646" gradientTransform="matrix(0.1875,0,0,0.1875,0,0)">
<stop offset="0" style="stop-color:rgb(61.176471%,80%,39.607843%);stop-opacity:1;"/>
<stop offset="0.9952" style="stop-color:rgb(40.784314%,62.352941%,21.960784%);stop-opacity:1;"/>
</linearGradient>
<mask id="mask1">
  <g filter="url(#alpha)">
<rect x="0" y="0" width="24" height="24" style="fill:rgb(0%,0%,0%);fill-opacity:0.2;stroke:none;"/>
  </g>
</mask>
<clipPath id="clip2">
  <rect x="0" y="0" width="24" height="24"/>
</clipPath>
<g id="surface8" clip-path="url(#clip2)">
<path style=" stroke:none;fill-rule:nonzero;fill:rgb(25.882353%,25.882353%,25.882353%);fill-opacity:1;" d="M 2.210938 6.507812 C 5.308594 6.507812 7.625 7.3125 9.089844 8.90625 C 10.648438 10.597656 10.816406 12.746094 10.820312 13.527344 C 10.460938 13.65625 9.769531 13.847656 8.84375 13.847656 C 7.503906 13.847656 6.144531 13.457031 4.796875 12.691406 C 1.894531 11.035156 1.398438 7.746094 1.316406 6.527344 C 1.621094 6.515625 1.921875 6.507812 2.210938 6.507812 M 2.210938 5.992188 C 1.757812 5.992188 1.285156 6.007812 0.789062 6.046875 C 0.789062 6.046875 0.632812 10.90625 4.546875 13.136719 C 6.214844 14.089844 7.695312 14.363281 8.84375 14.363281 C 10.382812 14.363281 11.324219 13.871094 11.324219 13.871094 C 11.324219 13.871094 12.007812 5.992188 2.210938 5.992188 Z M 2.210938 5.992188 "/>
</g>
<linearGradient id="linear2" gradientUnits="userSpaceOnUse" x1="67.6232" y1="56.9923" x2="114.1056" y2="14.0402" gradientTransform="matrix(0.1875,0,0,0.1875,0,0)">
<stop offset="0.00480709" style="stop-color:rgb(40.784314%,62.352941%,21.960784%);stop-opacity:1;"/>
<stop offset="1" style="stop-color:rgb(61.176471%,80%,39.607843%);stop-opacity:1;"/>
</linearGradient>
<mask id="mask2">
  <g filter="url(#alpha)">
<rect x="0" y="0" width="24" height="24" style="fill:rgb(0%,0%,0%);fill-opacity:0.2;stroke:none;"/>
  </g>
</mask>
<clipPath id="clip3">
  <rect x="0" y="0" width="24" height="24"/>
</clipPath>
<g id="surface11" clip-path="url(#clip3)">
<path style=" stroke:none;fill-rule:nonzero;fill:rgb(25.882353%,25.882353%,25.882353%);fill-opacity:1;" d="M 20.714844 1.710938 C 21.542969 1.710938 22.238281 1.804688 22.664062 1.878906 C 22.152344 5.449219 20.886719 8.042969 18.898438 9.59375 C 17.160156 10.949219 15.199219 11.234375 13.859375 11.234375 C 13.25 11.234375 12.757812 11.175781 12.457031 11.128906 C 12.320312 10.175781 12.152344 7.191406 14.699219 4.191406 C 16.441406 2.144531 18.933594 1.710938 20.714844 1.710938 M 20.714844 1.199219 C 18.792969 1.199219 16.167969 1.671875 14.308594 3.863281 C 11.03125 7.722656 12.015625 11.570312 12.015625 11.570312 C 12.015625 11.570312 12.753906 11.75 13.859375 11.75 C 16.746094 11.75 22.128906 10.503906 23.234375 1.472656 C 23.234375 1.472656 22.175781 1.199219 20.714844 1.199219 Z M 20.714844 1.199219 "/>
</g>
<mask id="mask3">
  <g filter="url(#alpha)">
<rect x="0" y="0" width="24" height="24" style="fill:rgb(0%,0%,0%);fill-opacity:0.2;stroke:none;"/>
  </g>
</mask>
<clipPath id="clip4">
  <rect x="0" y="0" width="24" height="24"/>
</clipPath>
<g id="surface14" clip-path="url(#clip4)">
<path style=" stroke:none;fill-rule:nonzero;fill:rgb(20%,41.176471%,11.764706%);fill-opacity:1;" d="M 12.667969 10.378906 C 12.667969 10.378906 12.753906 10.226562 12.910156 9.960938 C 12.988281 9.828125 13.082031 9.667969 13.203125 9.484375 C 13.320312 9.304688 13.445312 9.09375 13.597656 8.875 C 13.75 8.65625 13.910156 8.417969 14.09375 8.175781 C 14.269531 7.929688 14.472656 7.679688 14.679688 7.421875 C 14.78125 7.289062 14.898438 7.167969 15.007812 7.035156 C 15.117188 6.90625 15.230469 6.777344 15.351562 6.652344 C 15.46875 6.523438 15.589844 6.394531 15.710938 6.269531 C 15.835938 6.144531 15.960938 6.019531 16.085938 5.894531 C 16.210938 5.769531 16.34375 5.652344 16.472656 5.53125 C 16.597656 5.414062 16.730469 5.296875 16.863281 5.183594 C 17.125 4.957031 17.390625 4.742188 17.652344 4.539062 C 17.914062 4.339844 18.167969 4.148438 18.417969 3.976562 C 18.667969 3.804688 18.902344 3.644531 19.125 3.507812 C 19.347656 3.363281 19.554688 3.238281 19.738281 3.132812 C 19.921875 3.019531 20.085938 2.925781 20.21875 2.855469 C 20.488281 2.707031 20.640625 2.625 20.640625 2.625 C 20.640625 2.625 20.492188 2.714844 20.230469 2.875 C 20.101562 2.953125 19.941406 3.054688 19.765625 3.171875 C 19.585938 3.289062 19.382812 3.421875 19.171875 3.574219 C 18.953125 3.722656 18.726562 3.890625 18.488281 4.074219 C 18.25 4.257812 18.003906 4.457031 17.753906 4.667969 C 17.507812 4.878906 17.25 5.101562 17.003906 5.339844 C 16.875 5.457031 16.753906 5.578125 16.632812 5.703125 C 16.511719 5.828125 16.386719 5.945312 16.269531 6.074219 C 16.152344 6.203125 16.03125 6.332031 15.917969 6.460938 C 15.804688 6.589844 15.691406 6.722656 15.582031 6.851562 C 15.46875 6.984375 15.363281 7.117188 15.261719 7.25 C 15.160156 7.382812 15.050781 7.507812 14.957031 7.640625 C 14.765625 7.902344 14.578125 8.15625 14.414062 8.40625 C 14.246094 8.652344 14.097656 8.894531 13.960938 9.113281 C 13.820312 9.332031 13.707031 9.542969 13.601562 9.722656 C 13.5 9.902344 13.410156 10.070312 13.339844 10.207031 C 13.195312 10.476562 13.113281 10.632812 13.113281 10.632812 C 13.046875 10.757812 12.890625 10.808594 12.765625 10.738281 C 12.640625 10.671875 12.59375 10.519531 12.660156 10.394531 C 12.664062 10.386719 12.664062 10.382812 12.667969 10.378906 Z M 12.667969 10.378906 "/>
</g>
<mask id="mask4">
  <g filter="url(#alpha)">
<rect x="0" y="0" width="24" height="24" style="fill:rgb(0%,0%,0%);fill-opacity:0.2;stroke:none;"/>
  </g>
</mask>
<clipPath id="clip5">
  <rect x="0" y="0" width="24" height="24"/>
</clipPath>
<g id="surface17" clip-path="url(#clip5)">
<path style=" stroke:none;fill-rule:nonzero;fill:rgb(20%,41.176471%,11.764706%);fill-opacity:1;" d="M 10.210938 12.910156 C 10.210938 12.910156 10.128906 12.757812 9.988281 12.496094 C 9.953125 12.429688 9.914062 12.355469 9.871094 12.277344 C 9.824219 12.199219 9.773438 12.121094 9.71875 12.035156 C 9.613281 11.859375 9.496094 11.664062 9.34375 11.457031 C 9.269531 11.355469 9.191406 11.246094 9.113281 11.136719 C 9.027344 11.027344 8.941406 10.917969 8.851562 10.804688 C 8.671875 10.574219 8.457031 10.355469 8.246094 10.117188 C 8.015625 9.898438 7.792969 9.65625 7.535156 9.441406 C 7.285156 9.214844 7.015625 9.011719 6.746094 8.804688 C 6.464844 8.613281 6.1875 8.410156 5.898438 8.246094 C 5.613281 8.0625 5.316406 7.917969 5.035156 7.765625 C 4.890625 7.691406 4.746094 7.632812 4.605469 7.566406 C 4.464844 7.503906 4.328125 7.441406 4.191406 7.390625 C 4.054688 7.339844 3.921875 7.285156 3.792969 7.238281 C 3.660156 7.1875 3.53125 7.152344 3.410156 7.113281 C 3.289062 7.074219 3.171875 7.035156 3.058594 7 C 2.945312 6.972656 2.835938 6.945312 2.734375 6.917969 C 2.53125 6.863281 2.355469 6.820312 2.207031 6.796875 C 1.914062 6.738281 1.746094 6.707031 1.746094 6.707031 C 1.746094 6.707031 1.917969 6.734375 2.210938 6.777344 C 2.363281 6.796875 2.539062 6.835938 2.746094 6.878906 C 2.851562 6.902344 2.957031 6.925781 3.074219 6.949219 C 3.1875 6.980469 3.304688 7.011719 3.429688 7.046875 C 3.554688 7.082031 3.6875 7.113281 3.820312 7.15625 C 3.953125 7.203125 4.085938 7.246094 4.226562 7.296875 C 4.371094 7.339844 4.511719 7.398438 4.65625 7.457031 C 4.800781 7.515625 4.949219 7.570312 5.097656 7.640625 C 5.390625 7.777344 5.695312 7.917969 5.992188 8.085938 C 6.292969 8.242188 6.582031 8.4375 6.875 8.621094 C 7.160156 8.820312 7.445312 9.019531 7.707031 9.238281 C 7.980469 9.445312 8.222656 9.683594 8.464844 9.898438 C 8.691406 10.136719 8.925781 10.351562 9.117188 10.582031 C 9.214844 10.695312 9.3125 10.804688 9.402344 10.914062 C 9.488281 11.023438 9.574219 11.132812 9.652344 11.234375 C 9.816406 11.4375 9.953125 11.640625 10.070312 11.820312 C 10.128906 11.910156 10.1875 11.992188 10.238281 12.070312 C 10.285156 12.148438 10.328125 12.21875 10.367188 12.28125 C 10.519531 12.542969 10.609375 12.691406 10.609375 12.691406 C 10.671875 12.796875 10.636719 12.9375 10.527344 13.003906 C 10.417969 13.070312 10.277344 13.03125 10.214844 12.921875 C 10.214844 12.917969 10.214844 12.914062 10.210938 12.910156 Z M 10.210938 12.910156 "/>
</g>
</defs>
<g id="surface1">
<path style=" stroke:none;fill-rule:nonzero;fill:rgb(33.333333%,54.509804%,18.431373%);fill-opacity:1;" d="M 14.027344 8.867188 C 14.027344 8.867188 13.996094 8.90625 13.9375 8.980469 C 13.878906 9.050781 13.785156 9.160156 13.6875 9.300781 C 13.59375 9.441406 13.46875 9.597656 13.351562 9.804688 C 13.289062 9.910156 13.222656 10.019531 13.15625 10.132812 C 13.09375 10.25 13.03125 10.375 12.964844 10.503906 C 12.894531 10.632812 12.832031 10.773438 12.769531 10.921875 C 12.710938 11.066406 12.636719 11.210938 12.585938 11.371094 C 12.527344 11.53125 12.46875 11.691406 12.410156 11.859375 C 12.359375 12.027344 12.308594 12.199219 12.257812 12.375 C 12.199219 12.550781 12.167969 12.738281 12.121094 12.921875 C 12.078125 13.105469 12.035156 13.289062 12.003906 13.484375 C 11.972656 13.675781 11.9375 13.867188 11.90625 14.058594 C 11.882812 14.253906 11.859375 14.449219 11.835938 14.644531 C 11.808594 14.835938 11.796875 15.035156 11.78125 15.230469 C 11.769531 15.425781 11.75 15.621094 11.746094 15.8125 C 11.742188 16.203125 11.71875 16.582031 11.734375 16.953125 C 11.746094 17.320312 11.75 17.675781 11.78125 18.015625 C 11.808594 18.355469 11.824219 18.675781 11.863281 18.96875 C 11.898438 19.265625 11.929688 19.535156 11.953125 19.773438 C 11.992188 20.011719 12.023438 20.21875 12.050781 20.390625 C 12.101562 20.730469 12.132812 20.929688 12.132812 20.929688 L 12.136719 20.949219 C 12.179688 21.226562 11.988281 21.488281 11.710938 21.527344 C 11.433594 21.570312 11.171875 21.378906 11.132812 21.101562 C 11.132812 21.097656 11.128906 21.09375 11.128906 21.089844 C 11.128906 21.089844 11.105469 20.886719 11.0625 20.53125 C 11.039062 20.351562 11.011719 20.136719 10.980469 19.886719 C 10.960938 19.640625 10.9375 19.359375 10.914062 19.050781 C 10.882812 18.746094 10.878906 18.414062 10.867188 18.058594 C 10.847656 17.707031 10.855469 17.335938 10.863281 16.949219 C 10.859375 16.566406 10.898438 16.167969 10.917969 15.761719 C 10.929688 15.5625 10.960938 15.359375 10.980469 15.152344 C 11.003906 14.949219 11.019531 14.746094 11.058594 14.542969 C 11.09375 14.339844 11.125 14.136719 11.15625 13.933594 C 11.199219 13.734375 11.25 13.53125 11.292969 13.332031 C 11.332031 13.132812 11.386719 12.9375 11.441406 12.75 C 11.5 12.558594 11.546875 12.367188 11.617188 12.183594 C 11.679688 12 11.742188 11.820312 11.804688 11.644531 C 11.878906 11.472656 11.949219 11.304688 12.015625 11.140625 C 12.082031 10.976562 12.167969 10.824219 12.238281 10.671875 C 12.3125 10.523438 12.382812 10.378906 12.464844 10.242188 C 12.542969 10.109375 12.613281 9.980469 12.691406 9.855469 C 12.769531 9.738281 12.84375 9.628906 12.917969 9.523438 C 13.054688 9.3125 13.210938 9.140625 13.316406 8.996094 C 13.433594 8.855469 13.527344 8.761719 13.59375 8.6875 C 13.65625 8.617188 13.6875 8.578125 13.6875 8.578125 C 13.773438 8.488281 13.910156 8.484375 14 8.566406 C 14.089844 8.644531 14.101562 8.777344 14.027344 8.867188 Z M 14.027344 8.867188 "/>
<path style=" stroke:none;fill-rule:nonzero;fill:url(#linear0);" d="M 6.921875 20.792969 C 7.8125 19.863281 9.027344 19.011719 10.289062 19.269531 C 11.230469 19.464844 12.09375 20.261719 13.019531 20.007812 C 13.3125 19.925781 13.570312 19.742188 13.871094 19.675781 C 14.566406 19.519531 15.234375 20.042969 15.679688 20.597656 C 16.128906 21.15625 16.519531 21.8125 17.167969 22.113281 C 17.570312 22.296875 18.023438 22.316406 18.449219 22.4375 C 18.875 22.554688 19.410156 23.25 19.410156 23.25 L 4.34375 23.175781 C 4.34375 23.175781 5.414062 22.394531 5.664062 22.148438 C 6.101562 21.714844 6.496094 21.238281 6.921875 20.792969 Z M 6.921875 20.792969 "/>
<use xlink:href="#surface5" mask="url(#mask0)"/>
<path style=" stroke:none;fill-rule:nonzero;fill:url(#linear1);" d="M 0.789062 6.046875 C 0.789062 6.046875 0.632812 10.90625 4.546875 13.136719 C 8.457031 15.367188 11.324219 13.871094 11.324219 13.871094 C 11.324219 13.871094 12.074219 5.25 0.789062 6.046875 Z M 0.789062 6.046875 "/>
<use xlink:href="#surface8" mask="url(#mask1)"/>
<path style=" stroke:none;fill-rule:nonzero;fill:url(#linear2);" d="M 23.234375 1.472656 C 23.234375 1.472656 17.582031 0.00390625 14.308594 3.863281 C 11.03125 7.726562 12.015625 11.570312 12.015625 11.570312 C 12.015625 11.570312 21.710938 13.949219 23.234375 1.472656 Z M 23.234375 1.472656 "/>
<use xlink:href="#surface11" mask="url(#mask2)"/>
<use xlink:href="#surface14" mask="url(#mask3)"/>
<use xlink:href="#surface17" mask="url(#mask4)"/>
</g>
</svg>
