<?xml version="1.0" encoding="iso-8859-1"?>
<!-- Generator: Adobe Illustrator 18.1.1, SVG Export Plug-In . SVG Version: 6.00 Build 0)  -->
<svg version="1.1" id="Capa_1" xmlns="http://www.w3.org/2000/svg" xmlns:xlink="http://www.w3.org/1999/xlink" x="0px" y="0px"
	 viewBox="0 0 18.558 18.558" style="enable-background:new 0 0 18.558 18.558;" xml:space="preserve">
<g>
	<g>
		<path style="fill:#010002;" d="M14.027,6.629C14.423,8.7,16.646,17.998,16.5,18.117c-0.166,0.133-0.279,0.178-0.609,0.441
			c-1.989-2.628-3.893-5.31-5.872-7.938c-1.091,1.069-2.184,2.144-3.269,3.216l-0.287,4.61l-2.282-3.99l-4.068-2.357l4.625-0.288
			l3.318-3.319C5.448,6.534,2.797,4.649,0.196,2.68c0.265-0.331,0.312-0.445,0.443-0.61c0.118-0.146,9.136,2.006,11.389,2.452
			l2.194-2.196c4.255-4.254,5.925-2.127,2.025,2.004C15.518,5.104,14.776,5.869,14.027,6.629z"/>
	</g>
</g>
<g>
</g>
<g>
</g>
<g>
</g>
<g>
</g>
<g>
</g>
<g>
</g>
<g>
</g>
<g>
</g>
<g>
</g>
<g>
</g>
<g>
</g>
<g>
</g>
<g>
</g>
<g>
</g>
<g>
</g>
</svg>