<?xml version="1.0" encoding="UTF-8" standalone="no"?>
<!DOCTYPE svg PUBLIC "-//W3C//DTD SVG 1.1//EN" "http://www.w3.org/Graphics/SVG/1.1/DTD/svg11.dtd">
<svg xmlns="http://www.w3.org/2000/svg" xmlns:xl="http://www.w3.org/1999/xlink" version="1.1" xmlns:dc="http://purl.org/dc/elements/1.1/" viewBox="742 241 182 150" width="182" height="150">
  <defs/>
  <metadata> Produced by OmniGraffle 7.10.1 
    <dc:date>2019-03-29 16:58:22 +0000</dc:date>
  </metadata>
  <g id="Canvas_1" stroke-opacity="1" fill="none" fill-opacity="1" stroke-dasharray="none" stroke="none">
    <title>Canvas 1</title>
    <g id="Canvas_1: Layer 1">
      <title>Layer 1</title>
      <g id="Graphic_8">
        <title>Navigation</title>
        <path d="M 924 316 L 760.3526 241 L 754 248.1 L 780.8421 316 L 754 383.9 L 760.3526 391 Z" fill="black"/>
      </g>
      <g id="Graphic_10">
        <title>WiFi Tethering</title>
        <path d="M 774 272 C 771.8 272 770 273.8 770 276 C 770 278.2 771.8 280 774 280 C 776.2 280 778 278.2 778 276 C 778 273.8 776.2 272 774 272 Z M 786 276 C 786 269.38 780.62 264 774 264 C 767.38 264 762 269.38 762 276 C 762 280.44 764.42 284.3 768 286.38 L 770 282.9 C 767.62 281.5 766 278.96 766 276 C 766 271.58 769.58 268 774 268 C 778.42 268 782 271.58 782 276 C 782 278.96 780.38 281.5 778 282.9 L 780 286.38 C 783.58 284.3 786 280.44 786 276 Z M 774 256 C 762.96 256 754 264.96 754 276 C 754 283.4 758.02 289.84 763.98 293.3 L 765.98 289.84 C 761.22 287.06 758 281.92 758 276 C 758 267.16 765.16 260 774 260 C 782.84 260 790 267.16 790 276 C 790 281.92 786.78 287.06 782 289.84 L 784 293.3 C 789.98 289.84 794 283.4 794 276 C 794 264.96 785.04 256 774 256 Z" fill="white"/>
      </g>
      <g id="Graphic_3">
        <title>Directions Car</title>
        <path d="M 798.6044 302.09312 C 797.8933 300.28625 795.9022 299 793.5556 299 L 754.4444 299 C 752.0978 299 750.1422 300.28625 749.3956 302.09312 L 742 320.4375 L 742 344.9375 C 742 346.62187 743.6 348 745.55556 348 L 749.1111 348 C 751.0667 348 752.6667 346.62187 752.6667 344.9375 L 752.6667 341.875 L 795.3333 341.875 L 795.3333 344.9375 C 795.3333 346.62187 796.9333 348 798.8889 348 L 802.4444 348 C 804.4 348 806 346.62187 806 344.9375 L 806 320.4375 L 798.6044 302.09312 Z M 754.4444 332.6875 C 751.4933 332.6875 749.1111 330.63562 749.1111 328.09375 C 749.1111 325.55188 751.4933 323.5 754.4444 323.5 C 757.3956 323.5 759.7778 325.55188 759.7778 328.09375 C 759.7778 330.63562 757.3956 332.6875 754.4444 332.6875 Z M 793.5556 332.6875 C 790.6044 332.6875 788.2222 330.63562 788.2222 328.09375 C 788.2222 325.55188 790.6044 323.5 793.5556 323.5 C 796.5067 323.5 798.8889 325.55188 798.8889 328.09375 C 798.8889 330.63562 796.5067 332.6875 793.5556 332.6875 Z M 749.1111 317.375 L 754.4444 303.59375 L 793.5556 303.59375 L 798.8889 317.375 L 749.1111 317.375 Z" fill="white"/>
      </g>
    </g>
  </g>
</svg>
