<?xml version="1.0" standalone="no"?>
<!DOCTYPE svg PUBLIC "-//W3C//DTD SVG 20010904//EN"
 "http://www.w3.org/TR/2001/REC-SVG-20010904/DTD/svg10.dtd">
<svg version="1.0" xmlns="http://www.w3.org/2000/svg"
 width="512.000000pt" height="512.000000pt" viewBox="0 0 512.000000 512.000000"
 preserveAspectRatio="xMidYMid meet">
<metadata>
Created by potrace 1.15, written by Peter Selinger 2001-2017
</metadata>
<g transform="translate(0.000000,512.000000) scale(0.100000,-0.100000)"
fill="#000000" stroke="none">
<path d="M203 4958 c-174 -172 -196 -198 -191 -231 3 -19 32 5 192 163 103
102 192 193 197 203 8 14 5 17 -17 17 -21 0 -60 -33 -181 -152z"/>
<path d="M303 4858 c-140 -139 -264 -265 -275 -281 -10 -15 -18 -37 -16 -50 3
-18 49 23 292 263 158 157 292 293 297 303 8 14 5 17 -17 17 -22 0 -75 -47
-281 -252z"/>
<path d="M402 4758 c-194 -194 -362 -365 -373 -381 -11 -15 -19 -37 -17 -50 4
-18 67 40 392 363 213 212 392 393 397 403 8 14 5 17 -18 17 -22 0 -89 -62
-381 -352z"/>
<path d="M502 4658 c-249 -249 -462 -465 -473 -481 -11 -15 -19 -37 -17 -50 4
-18 84 57 492 463 268 267 492 493 497 503 8 14 5 17 -18 17 -22 0 -104 -76
-481 -452z"/>
<path d="M602 4558 c-304 -304 -562 -565 -573 -581 -11 -15 -19 -37 -17 -50 4
-18 101 75 592 563 323 322 592 593 597 603 8 14 5 17 -18 17 -23 0 -118 -91
-581 -552z"/>
<path d="M1325 5078 c-26 -22 -47 -32 -66 -30 -39 5 -78 -34 -85 -83 -6 -37
-43 -77 -493 -527 l-486 -488 -42 0 c-52 0 -87 -37 -80 -85 3 -23 -3 -39 -29
-69 -37 -43 -48 -94 -16 -77 9 5 31 24 49 43 30 31 35 33 93 30 l61 -4 -110
-113 c-84 -86 -111 -120 -111 -140 0 -38 15 -26 165 124 l130 131 64 0 65 0
-212 -213 c-171 -172 -212 -219 -212 -241 0 -22 3 -25 18 -17 9 5 120 114 247
240 218 220 232 231 267 231 35 0 38 -2 38 -28 0 -22 -39 -66 -217 -243 -120
-118 -230 -221 -246 -227 -15 -7 -32 -23 -37 -37 -6 -15 -24 -43 -41 -64 -19
-25 -29 -48 -27 -62 3 -23 3 -23 39 9 32 28 38 30 49 17 7 -8 28 -15 48 -15
l35 0 -87 -90 c-62 -65 -86 -96 -86 -115 0 -37 16 -25 140 99 l105 106 64 0
65 0 -187 -189 c-149 -150 -187 -194 -187 -215 0 -22 3 -25 18 -17 9 5 109
102 222 215 l205 206 65 0 64 0 -287 -288 c-236 -237 -287 -293 -287 -316 0
-28 7 -28 42 2 16 13 18 12 27 -10 5 -13 16 -30 25 -37 14 -12 10 -20 -39 -73
-36 -39 -55 -68 -55 -84 0 -34 18 -23 110 70 l74 76 65 0 65 0 -157 -159
c-123 -125 -157 -164 -157 -185 0 -22 3 -25 18 -17 9 5 96 89 192 185 l175
176 64 0 65 0 -257 -258 c-207 -209 -257 -264 -257 -285 0 -15 3 -27 7 -27 4
0 132 125 285 277 l278 278 0 -65 0 -65 -173 -173 -172 -172 -55 0 c-34 0 -64
-6 -77 -15 -27 -19 -39 -75 -23 -104 10 -19 6 -28 -29 -68 -43 -48 -58 -103
-23 -84 9 5 39 32 67 60 49 51 49 51 114 51 l64 0 -131 -134 c-102 -104 -132
-140 -132 -160 0 -22 3 -25 18 -17 9 5 84 77 167 160 l150 151 64 0 65 0 -232
-233 c-188 -189 -232 -239 -232 -261 0 -22 3 -25 17 -17 10 5 130 123 268 260
137 138 258 251 267 251 15 0 18 -9 18 -48 l0 -47 -198 -198 c-172 -172 -201
-197 -228 -197 -44 0 -73 -27 -81 -75 -3 -22 -19 -56 -35 -76 -19 -23 -28 -46
-26 -60 3 -23 5 -23 48 17 35 32 49 40 65 33 11 -4 35 -8 54 -8 l34 -1 -101
-104 c-76 -78 -102 -111 -102 -131 0 -37 16 -26 155 114 l120 121 64 0 65 0
-202 -204 c-162 -163 -202 -208 -202 -230 0 -22 3 -25 18 -17 9 5 116 109 237
230 l220 221 47 0 c39 0 48 -3 48 -17 0 -10 -128 -146 -285 -303 -231 -232
-285 -292 -285 -313 0 -15 3 -27 7 -27 4 0 132 124 284 276 l276 276 6 -59 6
-58 -289 -291 c-235 -236 -290 -295 -290 -317 0 -15 3 -27 7 -27 4 0 139 131
299 291 l292 292 22 -43 22 -43 -321 -321 c-262 -263 -321 -327 -321 -349 0
-15 3 -27 7 -27 4 0 155 147 335 327 l328 328 32 -33 33 -32 -343 -343 c-188
-188 -342 -346 -342 -350 0 -4 12 -7 27 -7 22 0 88 61 362 334 l336 334 42
-21 43 -22 -296 -295 c-162 -162 -300 -303 -305 -312 -8 -15 -5 -18 17 -18 23
0 82 54 329 300 l301 301 58 -7 58 -7 -286 -286 c-157 -158 -286 -290 -286
-294 0 -4 12 -7 27 -7 22 0 81 55 318 290 276 276 293 290 328 290 34 0 37 -2
37 -28 0 -22 -43 -70 -246 -272 -135 -135 -250 -253 -255 -262 -8 -15 -5 -18
17 -18 22 0 71 44 256 227 l228 227 0 -65 0 -64 -146 -145 c-80 -80 -150 -153
-155 -162 -8 -15 -5 -18 17 -18 20 0 56 29 155 127 l129 126 0 -64 c0 -64 -1
-66 -46 -109 -25 -25 -50 -53 -55 -62 -18 -33 35 -20 81 19 38 33 51 38 93 38
63 0 87 26 87 94 l0 46 183 183 182 182 65 0 65 0 -283 -283 c-155 -156 -282
-286 -282 -290 0 -4 12 -7 27 -7 21 0 76 49 280 252 l253 252 0 -65 0 -64
-171 -170 c-93 -94 -175 -178 -180 -187 -8 -15 -5 -18 17 -18 21 0 60 33 180
152 l154 152 0 -65 0 -65 -71 -69 c-88 -87 -99 -105 -65 -105 16 0 45 19 84
55 50 46 62 53 71 41 7 -8 26 -18 43 -21 30 -7 30 -7 10 -28 -34 -39 -35 -47
-6 -47 23 0 78 50 311 282 l283 282 0 -64 0 -65 -201 -200 c-110 -110 -205
-208 -210 -218 -8 -14 -5 -17 17 -17 21 0 64 37 210 182 l184 182 0 -65 0 -64
-101 -100 c-119 -119 -131 -135 -94 -135 18 0 49 23 110 81 75 72 85 79 85 57
0 -14 9 -33 20 -43 19 -18 19 -18 -12 -54 -31 -35 -31 -36 -9 -39 33 -5 60 19
350 312 152 153 273 266 283 266 15 0 18 -8 18 -48 l0 -47 -226 -225 c-124
-124 -230 -233 -235 -242 -8 -15 -5 -18 17 -18 22 0 68 41 236 207 l208 207 0
-65 0 -64 -126 -125 c-145 -145 -157 -160 -119 -160 20 0 53 26 134 105 l108
106 5 -58 c5 -56 4 -59 -33 -100 -22 -24 -39 -45 -39 -48 0 -18 53 0 87 30 23
19 52 35 66 35 39 0 77 36 77 73 0 28 24 56 203 235 199 199 203 202 245 202
80 0 64 -24 -209 -295 -137 -138 -255 -258 -260 -267 -8 -15 -5 -18 17 -18 22
0 72 44 261 232 l233 232 0 -65 0 -64 -151 -150 c-83 -83 -155 -158 -160 -168
-8 -14 -5 -17 17 -17 20 0 56 30 160 132 l134 131 0 -64 c0 -65 0 -65 -51
-114 -67 -67 -77 -85 -45 -85 14 0 44 17 72 43 46 40 51 42 86 33 66 -17 108
29 108 117 l0 42 468 467 467 467 64 3 c57 3 66 6 85 31 18 24 19 32 9 69 -11
41 -11 43 33 91 26 30 44 59 44 73 0 33 -18 22 -90 -50 l-54 -56 -65 0 -65 0
137 139 c106 108 137 145 137 165 0 22 -3 25 -17 17 -10 -5 -88 -80 -173 -165
l-155 -156 -64 0 -65 0 237 238 c192 193 237 244 237 266 0 22 -3 25 -17 17
-10 -5 -133 -125 -273 -265 -140 -141 -263 -256 -272 -256 -15 0 -18 9 -18 48
l0 47 198 198 c172 172 201 197 228 197 44 0 73 27 81 75 4 24 19 56 40 79 36
43 47 94 16 77 -10 -5 -32 -24 -50 -43 -30 -31 -35 -33 -93 -30 l-61 4 110
113 c84 86 111 120 111 140 0 38 -15 26 -165 -124 l-130 -131 -64 0 -65 0 212
213 c171 172 212 219 212 241 0 22 -3 25 -17 17 -10 -5 -121 -114 -248 -240
-228 -229 -230 -231 -272 -231 -83 0 -66 23 223 311 293 290 317 317 312 350
-3 22 -4 22 -39 -9 -36 -31 -36 -31 -54 -12 -10 11 -29 20 -43 20 -22 0 -15
10 57 85 58 61 81 92 81 110 0 37 -16 25 -135 -94 l-100 -101 -64 0 -65 0 182
184 c145 146 182 189 182 210 0 22 -3 25 -17 17 -10 -5 -108 -100 -218 -210
l-200 -201 -65 0 -64 0 282 283 c232 233 282 288 282 311 0 30 -8 28 -47 -7
-19 -17 -23 -18 -23 -5 0 8 -9 27 -21 42 l-21 26 56 61 c37 39 56 69 56 85 0
34 -18 23 -110 -70 l-74 -76 -65 0 -65 0 157 159 c123 125 157 164 157 185 0
22 -3 25 -17 17 -10 -5 -97 -89 -193 -185 l-175 -176 -64 0 -65 0 257 258
c207 209 257 264 257 285 0 15 -3 27 -7 27 -4 0 -134 -127 -290 -282 l-283
-283 0 65 0 65 178 178 177 177 50 0 c29 0 60 7 72 15 26 18 40 75 25 101 -8
15 -2 28 34 67 26 30 44 59 44 73 0 32 -18 22 -82 -43 l-47 -48 -61 3 -62 4
126 128 c97 98 126 134 126 154 0 22 -3 25 -17 17 -10 -5 -83 -75 -163 -155
l-145 -146 -64 0 -65 0 227 228 c183 185 227 234 227 256 0 22 -3 25 -17 17
-10 -5 -128 -120 -263 -255 -202 -203 -250 -246 -272 -246 -26 0 -28 3 -28 37
0 35 14 52 290 328 235 237 290 296 290 318 0 15 -3 27 -7 27 -4 0 -134 -126
-288 -280 l-281 -281 -12 52 -13 53 301 301 c244 245 300 306 300 328 0 15 -3
27 -7 27 -4 0 -143 -136 -310 -302 -166 -166 -304 -300 -306 -297 -2 2 -13 20
-25 39 l-21 35 334 336 c274 274 335 340 335 362 0 15 -3 27 -7 27 -4 0 -161
-154 -349 -342 l-343 -341 -34 30 -35 30 320 319 c175 176 324 327 329 337 8
14 5 17 -17 17 -23 0 -85 -57 -350 -322 l-323 -321 -41 18 c-22 10 -40 21 -40
24 0 3 126 132 281 286 154 154 285 288 290 298 8 14 5 17 -17 17 -23 0 -81
-53 -321 -292 -288 -287 -294 -292 -331 -290 -85 7 -92 -3 202 291 152 152
276 280 276 284 0 4 -12 7 -27 7 -21 0 -81 -54 -313 -285 -157 -157 -293 -285
-303 -285 -14 0 -17 9 -17 48 l0 47 221 220 c121 121 225 228 230 238 8 14 5
17 -17 17 -22 0 -67 -40 -230 -202 l-204 -202 0 65 0 64 121 120 c140 139 151
155 114 155 -20 0 -52 -25 -130 -101 l-103 -100 -4 58 c-4 55 -2 60 31 98 35
39 35 40 12 43 -14 2 -37 -7 -60 -26 -20 -16 -53 -32 -73 -36 -42 -8 -68 -37
-68 -76 0 -19 -46 -71 -203 -228 -199 -199 -203 -202 -245 -202 -80 0 -63 24
204 290 135 135 250 253 255 263 8 14 5 17 -17 17 -22 0 -71 -44 -256 -227
l-228 -227 0 65 0 64 146 145 c80 80 150 153 155 163 8 14 5 17 -17 17 -20 0
-56 -29 -155 -127 l-129 -126 0 64 c0 64 1 66 46 109 25 25 50 53 55 63 19 33
-36 19 -81 -21 -41 -36 -45 -38 -82 -28 -32 9 -42 7 -65 -10 -24 -18 -28 -29
-31 -80 l-3 -59 -177 -177 -177 -178 -65 0 -65 0 278 278 c152 153 277 281
277 285 0 4 -12 7 -27 7 -21 0 -76 -50 -285 -257 l-258 -257 0 65 0 64 176
175 c96 96 180 183 185 193 8 14 5 17 -17 17 -21 0 -60 -34 -185 -157 l-159
-157 0 65 0 65 76 74 c93 92 104 110 70 110 -16 0 -45 -19 -84 -55 -53 -49
-61 -53 -73 -39 -7 9 -24 20 -37 25 -22 9 -23 11 -10 27 30 35 30 42 2 42 -23
0 -78 -50 -311 -282 l-283 -282 0 64 0 65 201 200 c110 110 205 208 210 218 8
14 5 17 -17 17 -21 0 -64 -37 -210 -182 l-184 -182 0 65 0 64 101 100 c119
119 131 135 94 135 -18 0 -49 -23 -110 -81 -74 -71 -85 -79 -85 -58 0 14 -7
35 -16 47 -14 21 -14 24 12 55 l27 32 -23 3 c-13 2 -37 -8 -59 -25 -20 -16
-49 -37 -64 -46 -15 -10 -31 -26 -34 -35 -3 -9 -105 -117 -227 -239 -241 -244
-266 -260 -266 -180 0 42 2 44 226 267 124 124 230 233 235 243 8 14 5 17 -17
17 -22 0 -68 -41 -236 -207 l-208 -207 0 65 0 64 126 125 c145 145 157 160
119 160 -20 0 -53 -26 -135 -106 l-108 -105 -4 58 c-4 55 -2 60 34 100 21 24
38 45 38 48 0 17 -51 0 -85 -27z m1008 -390 l-148 -148 -65 0 -65 0 210 210
210 210 3 -62 3 -62 -148 -148z m-625 -25 l-123 -123 -65 0 -65 0 185 185 185
185 3 -62 3 -62 -123 -123z m1980 -20 l-103 -103 -65 0 -65 0 165 165 165 165
3 -62 3 -62 -103 -103z m-2612 -12 c-84 -84 -103 -98 -153 -113 -73 -21 -167
-82 -217 -139 -41 -47 -106 -171 -106 -203 0 -11 -44 -64 -102 -122 l-102
-104 -65 0 -66 0 450 450 450 450 3 -62 3 -62 -95 -95z m1987 -13 l-78 -78
-65 0 -65 0 140 140 140 140 3 -62 3 -62 -78 -78z m-630 -30 c-47 -48 -48 -48
-112 -48 l-66 0 110 110 110 110 3 -61 c3 -62 3 -62 -45 -111z m-1448 -448
l-240 -240 -3 62 -3 62 178 178 178 178 65 0 65 0 -240 -240z m100 -100 l-340
-340 -3 62 -3 62 278 278 278 278 65 0 65 0 -340 -340z m100 -100 l-440 -440
-3 62 -3 62 378 378 378 378 65 0 65 0 -440 -440z m100 -100 l-540 -540 -3 62
-3 62 478 478 478 478 65 0 65 0 -540 -540z m100 -100 l-640 -640 -3 62 -3 62
578 578 578 578 65 0 65 0 -640 -640z m537 338 c-294 -295 -304 -304 -375
-332 -116 -47 -239 -182 -280 -308 -3 -9 -32 -29 -64 -45 -79 -38 -180 -140
-220 -223 -24 -49 -57 -90 -137 -170 l-106 -105 0 65 0 65 677 677 678 678 65
0 65 0 -303 -302z m353 152 c-115 -115 -156 -150 -175 -150 -14 0 -50 -6 -79
-14 l-53 -14 163 164 164 164 65 0 65 0 -150 -150z m190 -10 l-161 -161 -52
13 -53 12 148 148 148 148 65 0 65 0 -160 -160z m166 -34 l-194 -194 -36 21
c-20 11 -38 22 -41 24 -2 2 72 80 165 173 l170 170 65 0 65 0 -194 -194z m152
-48 l-243 -243 -32 33 -33 32 210 210 210 210 65 0 65 0 -242 -242z m294 94
l-147 -147 -67 -16 c-38 -9 -77 -20 -88 -24 -11 -4 56 69 150 164 l170 171 65
0 65 0 -148 -148z m190 -10 l-158 -158 -54 10 -55 10 147 148 148 148 65 0 65
0 -158 -158z m169 -31 l-188 -189 -44 22 -44 21 168 168 167 167 65 0 65 0
-189 -189z m152 -48 l-237 -237 -31 34 -31 34 203 203 203 203 65 0 65 0 -237
-237z m138 -62 l-299 -299 -22 41 -21 42 255 258 256 257 65 0 65 0 -299 -299z
m464 269 c3 0 -132 -137 -299 -304 l-303 -303 -50 15 -49 16 302 302 302 302
46 -14 c25 -8 48 -14 51 -14z m-3305 -110 c-71 -71 -131 -128 -133 -125 -8 8
22 82 51 124 42 62 141 127 197 130 8 1 -44 -57 -115 -129z m3400 40 l19 -21
-298 -298 -299 -299 -38 27 -38 26 301 302 c319 319 309 312 353 263z m72
-115 l13 -39 -284 -285 -284 -284 -30 34 -31 34 292 293 c161 160 296 291 301
289 5 -2 15 -21 23 -42z m-235 -488 l-259 -259 -18 47 -18 47 274 274 274 274
3 -62 3 -62 -259 -259z m-1962 240 c0 -1 -75 -76 -166 -167 l-166 -165 6 45
c10 68 42 130 94 183 56 58 103 84 174 96 29 5 54 9 56 10 1 0 2 0 2 -2z m114
-23 l48 -17 -223 -223 c-122 -122 -226 -221 -231 -218 -4 3 -13 23 -19 45
l-13 40 195 195 c106 107 194 194 195 194 0 0 22 -7 48 -16z m676 13 c0 -1
-68 -70 -151 -152 -151 -150 -151 -150 -145 -110 20 119 93 209 204 250 32 12
92 20 92 12z m133 -8 c20 -5 37 -13 37 -17 0 -4 -106 -113 -235 -242 l-235
-235 0 65 0 65 187 187 c103 104 192 188 198 188 5 0 27 -5 48 -11z m1104
-357 l-193 -193 -37 21 c-20 12 -37 25 -37 28 0 4 102 109 228 235 l227 227 3
-62 3 -62 -194 -194z m-974 280 l27 -28 -295 -294 -295 -295 0 65 0 65 257
257 c142 142 263 258 269 258 5 0 22 -13 37 -28z m-816 -4 c13 -12 23 -26 23
-32 0 -13 -441 -456 -454 -456 -6 0 -23 12 -38 27 l-29 27 228 228 c125 125
232 228 237 228 5 0 20 -10 33 -22z m2288 -178 l-140 -140 -3 62 -3 62 78 78
78 78 65 0 65 0 -140 -140z m-1393 59 l12 -40 -325 -325 -324 -324 -3 62 -3
62 307 307 c169 169 311 306 316 303 4 -3 13 -23 20 -45z m-823 0 c6 -18 11
-39 11 -48 0 -9 -83 -99 -184 -200 -179 -179 -185 -183 -217 -177 -76 14 -78
12 151 241 118 118 218 215 221 215 4 0 12 -14 18 -31z m-2006 -281 l-118
-118 -65 0 -65 0 180 180 180 180 3 -62 3 -62 -118 -118z m3775 -25 l-142
-143 -33 32 -33 32 172 173 173 173 3 -62 3 -62 -143 -143z m-933 155 c-11
-70 -43 -130 -97 -185 -54 -55 -115 -86 -188 -97 l-45 -7 165 166 c91 91 166
165 168 165 2 0 1 -19 -3 -42z m-936 -224 l-122 -122 -31 31 -32 32 151 153
150 152 3 -62 3 -62 -122 -122z m-695 159 l6 -47 -122 -123 c-67 -67 -125
-120 -130 -117 -4 3 -8 28 -8 57 l0 52 117 117 c64 64 120 115 123 113 4 -3
10 -26 14 -52z m1985 -2 c12 -16 21 -33 21 -38 0 -4 -232 -240 -515 -523
l-515 -515 0 65 0 65 487 487 c269 269 491 488 495 488 4 0 16 -13 27 -29z
m613 -254 l-110 -110 -20 44 -20 44 127 128 126 127 3 -62 3 -62 -109 -109z
m-2534 97 c10 -18 -3 -34 -132 -163 -135 -135 -142 -140 -138 -108 2 19 -1 45
-8 57 -11 21 -3 32 116 151 121 121 128 127 139 106 6 -12 16 -31 23 -43z
m1981 -14 c1 -32 -12 -48 -180 -216 -179 -180 -182 -181 -208 -168 -33 17 -39
17 -76 -2 -16 -8 78 93 210 226 259 259 251 255 254 160z m-1466 -302 c-131
-131 -240 -232 -242 -226 -2 7 -13 26 -24 42 l-20 28 259 259 259 259 3 -62 3
-62 -238 -238z m-438 223 l33 -28 -172 -172 c-171 -171 -172 -171 -246 -195
-41 -13 -84 -27 -95 -31 -11 -4 83 96 210 224 126 127 232 231 234 231 2 0 18
-13 36 -29z m2471 -189 l-94 -95 -7 58 -8 57 99 99 99 100 3 -63 3 -62 -95
-94z m-316 90 c0 -4 -64 -71 -142 -149 l-143 -142 -58 6 -58 6 63 64 c51 52
67 63 87 58 36 -9 90 13 105 43 7 15 21 52 31 82 10 30 27 65 39 78 l21 23 27
-30 c16 -17 28 -35 28 -39z m-282 6 c-12 -29 -22 -68 -22 -86 -1 -28 -24 -55
-205 -235 l-203 -202 5 54 c4 51 8 57 61 106 31 29 56 61 56 71 0 11 67 86
162 181 90 90 164 163 165 163 2 0 -7 -24 -19 -52z m-761 -26 c16 -11 2 -27
-130 -160 l-147 -147 0 65 0 65 122 122 c121 121 123 123 130 96 4 -16 15 -34
25 -41z m-996 41 c21 -10 39 -20 39 -23 0 -3 -81 -86 -180 -185 -134 -134
-180 -174 -180 -159 0 12 -9 32 -19 45 l-20 24 157 158 c86 86 159 157 161
157 2 0 22 -8 42 -17z m319 -347 c-155 -155 -237 -231 -230 -213 5 16 10 49
10 75 l0 47 228 228 227 227 3 -62 3 -62 -241 -240z m-969 290 l16 -44 -87
-87 c-47 -47 -89 -82 -93 -79 -4 4 -7 30 -7 58 0 49 2 52 72 123 40 40 75 73
78 73 3 0 12 -20 21 -44z m1639 -221 l-265 -265 -3 62 -3 62 182 182 c169 169
185 183 226 189 24 3 61 12 81 20 20 7 39 14 42 14 3 1 -114 -118 -260 -264z
m1740 140 l-115 -115 -3 61 -3 62 53 54 52 53 65 0 66 0 -115 -115z m100 -100
l-215 -215 -3 62 -3 62 153 153 153 153 65 0 65 0 -215 -215z m-2623 181 c1
-1 -44 -49 -101 -105 l-104 -104 -30 22 c-17 11 -36 21 -43 21 -8 0 27 41 76
90 l90 91 55 -7 c30 -4 56 -7 57 -8z m1879 -80 c6 -38 5 -39 -92 -137 l-97
-98 -41 16 c-23 9 -43 18 -46 20 -2 2 54 62 125 133 85 85 132 125 137 117 4
-6 10 -29 14 -51z m-3583 -228 l-148 -148 -65 0 -65 0 210 210 210 210 3 -62
3 -62 -148 -148z m3771 -27 c-98 -97 -162 -157 -142 -135 48 56 83 118 104
184 14 46 32 70 113 153 l96 98 3 -63 3 -62 -177 -175z m-3268 194 l0 -64 -98
-98 -98 -98 0 65 0 65 97 97 c54 54 98 98 98 98 1 0 1 -29 1 -65z m451 30 l43
0 -117 -117 c-65 -65 -121 -118 -125 -118 -3 0 -16 16 -29 36 l-22 36 89 89
c63 63 93 87 104 82 8 -4 34 -7 57 -8z m901 -343 c-112 -112 -228 -223 -260
-247 -55 -42 -57 -43 -98 -33 l-42 11 299 299 298 298 3 -62 3 -62 -203 -204z
m-1755 46 c-47 -48 -48 -48 -112 -48 l-66 0 110 110 110 110 3 -61 c3 -62 3
-62 -45 -111z m3701 -99 l-148 -148 -16 47 -16 47 160 163 161 162 3 -62 3
-62 -147 -147z m-3373 27 l-121 -121 0 65 0 65 102 102 102 103 19 -47 18 -47
-120 -120z m659 -141 c-159 -159 -292 -286 -296 -283 -3 4 -12 24 -19 45 l-14
38 276 276 276 277 33 -32 33 -31 -289 -290z m1607 314 c-11 -23 -22 -63 -25
-89 -4 -44 -10 -54 -91 -134 l-86 -86 -53 12 -52 13 162 162 c90 90 163 163
164 163 1 0 -8 -18 -19 -41z m407 -79 c8 -18 -314 -344 -355 -359 -23 -8 -30
-6 -50 15 l-23 25 204 205 205 204 6 -37 c3 -21 9 -45 13 -53z m-1112 -133
c-66 -66 -71 -69 -123 -72 -30 -1 -63 -6 -74 -10 -11 -4 43 56 120 134 l140
141 3 -62 3 -62 -69 -69z m-557 88 l0 -45 -265 -265 -265 -265 -39 26 -38 26
293 294 c201 201 297 290 304 283 5 -5 10 -30 10 -54z m-832 -13 l25 -39 -159
-159 -159 -159 0 65 0 65 132 132 c73 73 133 133 134 133 1 0 13 -17 27 -38z
m332 -132 c-109 -109 -171 -165 -173 -155 -10 46 58 167 122 219 54 44 172
102 211 105 5 1 -67 -76 -160 -169z m2281 149 c24 -6 44 -14 44 -18 0 -3 -63
-69 -140 -146 l-140 -140 -61 3 -62 4 154 154 c85 85 155 154 157 154 2 0 23
-5 48 -11z m587 -281 l-148 -148 3 67 3 68 142 143 142 142 3 -62 3 -62 -148
-148z m-441 219 l38 -22 -149 -149 -149 -149 -36 29 -36 29 142 142 c79 79
145 143 148 143 3 0 22 -10 42 -23z m-1518 -378 c-181 -181 -223 -219 -253
-224 -47 -9 -133 -50 -174 -82 -17 -15 64 71 182 189 206 209 216 217 273 233
66 18 91 46 86 94 -2 25 6 39 47 81 l50 51 3 -62 3 -63 -217 -217z m-377 320
c6 -6 28 -11 48 -11 l38 0 -79 -79 c-72 -72 -82 -79 -119 -79 -22 -1 -58 -7
-79 -15 -37 -13 -33 -8 65 91 57 57 106 104 109 104 3 0 11 -5 17 -11z m1999
-53 l16 -29 -199 -199 c-109 -110 -213 -206 -231 -213 -20 -9 -38 -27 -47 -47
-7 -18 -36 -55 -63 -82 l-50 -48 -36 28 -36 29 122 118 c147 141 119 113 324
324 117 120 171 169 176 160 5 -6 16 -25 24 -41z m-2851 -6 c-8 -23 -15 -56
-15 -73 0 -26 -22 -53 -145 -176 l-145 -146 0 65 0 65 157 157 c86 87 158 156
160 154 2 -1 -4 -22 -12 -46z m3590 -100 l-90 -91 -3 62 c-3 56 0 65 24 90 25
26 34 29 93 29 l66 0 -90 -90z m100 -100 l-190 -190 -3 62 -3 62 128 128 128
128 65 0 65 0 -190 -190z m-574 -174 l-219 -219 -7 36 c-7 34 -4 41 33 81 22
24 48 59 57 77 9 19 92 109 183 202 l167 167 3 -62 3 -62 -220 -220z m-225
199 c-4 -22 -40 -64 -130 -154 l-123 -123 -58 7 -57 8 178 178 179 179 8 -32
c5 -17 6 -46 3 -63z m-1578 -202 l-132 -133 -21 20 c-12 11 -32 20 -46 20 -19
0 7 31 151 175 l175 175 3 -62 3 -62 -133 -133z m564 179 c4 -4 -55 -70 -132
-147 l-140 -140 0 65 0 65 97 97 96 97 36 -15 c20 -8 39 -18 43 -22z m-1888
-52 l6 -45 -150 -150 -150 -150 0 65 0 65 137 137 c76 76 140 134 144 130 4
-4 10 -27 13 -52z m-526 -177 l-72 -73 -66 0 -65 0 135 135 135 135 3 -62 3
-61 -73 -74z m1093 131 c19 -17 19 -19 -38 -76 -52 -52 -61 -58 -99 -58 -84 0
-83 5 18 107 84 84 93 91 96 69 2 -13 12 -32 23 -42z m1417 39 l33 -28 -201
-200 -200 -200 0 65 0 65 162 162 c90 90 165 163 168 163 3 0 20 -12 38 -27z
m1140 -320 c-122 -122 -223 -221 -224 -220 -1 1 4 35 10 74 l11 73 210 210
210 210 3 -62 3 -62 -223 -223z m-2314 299 c3 -5 -33 -46 -78 -91 -82 -82 -84
-83 -107 -67 -13 9 -35 16 -49 16 -22 1 -18 7 44 65 37 36 82 69 100 74 40 12
83 13 90 3z m1531 -16 c19 -8 35 -19 35 -23 0 -4 -46 -54 -102 -110 l-101
-102 -41 16 c-23 9 -43 18 -45 20 -6 5 201 213 212 213 4 0 23 -7 42 -14z
m-225 -91 l-95 -95 -57 0 c-81 0 -103 -22 -95 -95 l5 -52 -129 -129 -129 -129
0 65 0 65 212 212 c199 200 215 213 249 213 20 0 56 9 80 20 24 11 46 20 49
20 2 0 -38 -43 -90 -95z m-1188 72 l47 -13 -288 -288 -288 -288 -28 37 -28 36
114 115 c63 63 130 122 149 132 19 9 41 31 49 47 12 27 209 236 221 235 3 -1
26 -6 52 -13z m205 -455 l-325 -325 -11 54 -12 54 188 183 c103 101 193 189
200 195 6 7 71 74 145 150 l133 138 3 -62 3 -63 -324 -324z m-1083 377 l20
-40 -182 -182 -182 -182 0 65 0 65 157 157 c87 87 160 158 163 158 3 0 14 -18
24 -41z m2699 -761 l-598 -598 -65 0 -65 0 345 340 c444 438 398 392 708 708
l267 273 3 -62 3 -63 -598 -598z m-2600 613 c-2 -10 -103 -116 -224 -237
l-219 -219 0 65 0 65 197 197 197 198 27 -26 c16 -15 25 -33 22 -43z m1024
-389 l-284 -284 -28 37 -28 36 309 310 309 309 3 -62 3 -62 -284 -284z m-762
238 c-98 -99 -101 -99 -104 -9 -2 57 38 87 119 92 36 2 67 4 70 5 2 1 -36 -39
-85 -88z m2150 -50 l-130 -130 -14 51 -14 51 79 79 79 79 65 0 65 0 -130 -130z
m195 58 l0 -61 -127 -129 c-112 -113 -131 -128 -160 -128 -31 0 -33 2 -33 32
0 29 19 52 157 190 87 87 159 158 160 158 2 0 3 -28 3 -62z m93 -570 l-498
-498 -65 0 -65 0 560 560 560 560 3 -62 3 -62 -498 -498z m-2715 549 l2 -62
-215 -215 -215 -215 0 65 0 65 212 212 c117 117 213 213 213 213 0 0 1 -28 3
-63z m579 31 c-34 -45 -63 -105 -77 -158 -8 -31 -27 -61 -62 -97 l-51 -51 -44
21 -44 21 148 148 c81 81 149 148 151 148 2 0 -8 -15 -21 -32z m218 -98 c-72
-72 -131 -126 -133 -120 -2 5 9 37 24 70 41 92 145 175 224 179 8 1 -44 -58
-115 -129z m1103 115 c4 -3 -86 -98 -198 -211 -221 -221 -216 -218 -219 -124
-1 32 11 47 157 193 l157 159 49 -6 c27 -3 51 -8 54 -11z m1637 -175 l-160
-160 -3 62 -3 62 98 98 98 98 65 0 65 0 -160 -160z m-1539 129 c19 -11 34 -24
34 -27 0 -4 -104 -111 -232 -239 l-232 -232 -23 32 c-13 17 -23 36 -23 41 0
10 429 446 439 446 2 0 19 -9 37 -21z m-894 -362 l-218 -218 -42 16 c-23 10
-42 20 -42 24 0 3 116 122 258 264 l257 257 3 -62 3 -62 -219 -219z m999 242
l12 -31 -210 -210 c-225 -225 -224 -224 -278 -183 -19 15 -9 26 210 245 165
165 232 226 241 219 6 -5 18 -23 25 -40z m-2052 -84 c1 -6 -107 -118 -239
-250 l-240 -240 0 65 0 65 223 223 222 222 17 -37 c9 -21 17 -43 17 -48z
m-736 -147 l-98 -98 -65 0 -65 0 160 160 160 160 3 -62 3 -62 -98 -98z m3500
-300 l-398 -398 -65 0 -65 0 460 460 460 460 3 -62 3 -62 -398 -398z m-676
365 c-4 -43 -13 -54 -132 -173 -135 -135 -159 -149 -227 -135 -31 7 -30 8 158
196 202 203 212 208 201 112z m-832 -15 c-16 -72 -17 -74 -113 -171 -101 -102
-128 -117 -207 -117 l-40 0 185 185 c101 101 186 182 188 180 2 -2 -3 -37 -13
-77z m-1192 9 l25 -34 -268 -268 -268 -268 -15 49 -15 49 251 253 c139 138
255 252 258 252 4 0 18 -15 32 -33z m2800 -459 l-298 -298 -65 0 -65 0 360
360 360 360 3 -62 3 -62 -298 -298z m-2696 367 c18 -11 33 -22 33 -25 0 -3
-126 -131 -280 -285 l-281 -280 -31 34 -30 34 273 273 c151 151 276 273 279
271 3 -1 20 -11 37 -22z m-104 -367 l-289 -289 -34 12 c-19 7 -39 16 -45 21
-6 5 99 117 273 291 l283 283 50 -15 50 -15 -288 -288z m2002 2 l-300 -300
-65 0 -65 0 160 161 c88 88 190 181 228 206 68 45 112 92 161 171 24 38 30 42
69 43 23 1 56 5 72 9 17 4 32 8 35 9 3 0 -130 -134 -295 -299z m-1583 254 c11
-24 3 -34 -253 -290 l-264 -264 -65 0 -65 0 290 290 c241 241 295 290 318 290
20 0 31 -7 39 -26z m2481 -356 l-198 -198 -65 0 -65 0 260 260 260 260 3 -62
3 -62 -198 -198z m-1598 266 l28 -36 -214 -214 -214 -214 -65 0 -65 0 250 250
c138 137 251 249 251 249 1 1 14 -15 29 -35z m-810 -14 l29 -31 -209 -209
-210 -210 -65 0 -65 0 240 240 c132 132 242 240 246 240 3 0 18 -14 34 -30z
m3035 -23 c0 -1 -74 -76 -165 -167 -152 -151 -164 -161 -146 -120 11 25 23 66
27 90 5 39 17 56 82 123 l77 77 62 0 c35 0 63 -1 63 -3z m-2115 -60 l34 -23
-172 -172 -172 -172 -65 0 -65 0 195 195 c107 107 198 195 203 195 4 0 23 -10
42 -23z m-814 -9 l40 -22 -168 -168 -168 -168 -65 0 -65 0 190 190 c104 105
191 190 194 190 2 0 21 -10 42 -22z m943 -50 c22 -6 43 -13 46 -15 2 -2 -61
-69 -140 -148 l-145 -145 -65 0 -65 0 160 160 c88 88 162 160 164 160 2 0 22
-5 45 -12z m1542 -60 c-31 -114 -114 -199 -226 -232 -29 -9 -61 -16 -69 -16
-9 0 56 72 144 160 87 87 161 157 164 155 2 -3 -4 -33 -13 -67z m-2339 49 l43
-13 -143 -142 -142 -142 -65 0 -65 0 155 155 c85 85 159 155 165 155 5 0 29
-6 52 -13z m108 -147 l-150 -150 -65 0 -65 0 139 139 139 139 66 10 c36 5 70
10 76 11 5 0 -58 -66 -140 -149z m800 0 l-150 -150 -65 0 -65 0 145 145 144
144 60 4 c34 2 65 4 71 5 5 1 -58 -65 -140 -148z m1180 -420 l-160 -160 -3 62
-3 61 73 74 c41 42 81 73 93 73 11 1 49 11 85 24 36 13 67 24 70 25 3 0 -67
-71 -155 -159z m-2635 -35 l-145 -145 -3 62 -3 62 83 83 83 83 65 0 65 0 -145
-145z m625 25 l-120 -120 -3 61 -3 62 58 59 57 58 66 0 65 0 -120 -120z m100
-100 l-220 -220 -3 62 -3 62 158 158 158 158 65 0 65 0 -220 -220z m530 130
l-90 -91 -3 62 c-3 56 0 65 24 90 25 26 34 29 93 29 l66 0 -90 -90z m100 -100
l-190 -190 -3 62 -3 62 128 128 128 128 65 0 65 0 -190 -190z m625 25 l-165
-165 -3 62 -3 62 103 103 103 103 65 0 65 0 -165 -165z"/>
<path d="M4496 650 c-339 -338 -622 -623 -627 -632 -8 -15 -5 -18 18 -18 23 0
123 95 611 583 321 320 592 594 603 610 11 15 19 37 17 50 -4 18 -106 -80
-622 -593z"/>
<path d="M4596 550 c-284 -283 -522 -523 -527 -533 -8 -14 -5 -17 18 -17 23 0
108 81 511 483 266 265 492 494 503 510 11 15 19 37 17 50 -4 18 -89 -62 -522
-493z"/>
<path d="M4696 450 c-229 -228 -422 -423 -427 -432 -8 -15 -5 -18 18 -18 22 0
93 66 411 383 211 210 392 394 403 410 11 15 19 37 17 50 -4 18 -72 -45 -422
-393z"/>
<path d="M4796 350 c-174 -173 -322 -323 -327 -332 -8 -15 -5 -18 17 -18 23 0
80 52 312 282 156 156 293 295 303 311 11 15 19 37 17 50 -4 18 -54 -28 -322
-293z"/>
<path d="M4896 250 c-119 -118 -222 -223 -227 -232 -8 -15 -5 -18 17 -18 21 0
65 37 211 183 205 202 226 227 221 260 -3 19 -37 -11 -222 -193z"/>
<path d="M4996 150 c-136 -133 -149 -150 -111 -150 18 0 49 23 111 82 102 98
127 130 122 161 -3 19 -19 7 -122 -93z"/>
</g>
</svg>
