<?xml version="1.0" standalone="no"?>
<!DOCTYPE svg PUBLIC "-//W3C//DTD SVG 20010904//EN"
 "http://www.w3.org/TR/2001/REC-SVG-20010904/DTD/svg10.dtd">
<svg version="1.0" xmlns="http://www.w3.org/2000/svg"
 width="158.400000pt" height="111.200000pt" viewBox="0 0 158.400000 111.200000"
 preserveAspectRatio="xMidYMid meet">
<metadata>
Created by potrace 1.13, written by Peter Selinger 2001-2015
</metadata>
<g transform="translate(0.000000,111.200000) scale(0.080000,-0.080000)"
fill="#000000" stroke="none">
<path d="M813 928 l7 -103 -42 98 c-31 71 -47 97 -60 97 -21 0 -23 -33 -11
-213 6 -104 7 -107 30 -107 25 0 25 -4 8 159 -3 25 -3 43 -1 40 2 -2 23 -48
46 -101 24 -54 46 -98 49 -98 28 1 33 20 27 121 -12 192 -15 209 -38 209 -20
0 -21 -3 -15 -102z"/>
<path d="M930 871 l0 -161 55 0 c73 0 95 21 95 89 0 39 -5 53 -20 64 l-20 14
20 18 c27 25 27 86 0 110 -13 11 -41 20 -75 23 l-55 4 0 -161z m98 81 c4 -35
-11 -62 -34 -62 -10 0 -14 14 -14 51 0 47 2 50 23 47 17 -2 23 -11 25 -36z
m-17 -102 c36 -20 21 -110 -18 -110 -9 0 -13 17 -13 60 0 64 1 66 31 50z"/>
<path d="M1166 1001 c-25 -27 -35 -75 -38 -171 -3 -94 5 -114 51 -131 33 -13
75 5 91 39 7 15 15 75 17 133 5 99 4 108 -16 128 -27 27 -81 28 -105 2z m71
-128 c-3 -60 -9 -116 -12 -125 -9 -22 -41 -24 -49 -3 -6 17 10 211 19 226 4 5
16 9 27 9 20 0 21 -3 15 -107z"/>
<path d="M553 1002 c-29 -4 -30 -13 -38 -189 -4 -92 -3 -143 3 -143 28 0 42
14 42 41 0 26 4 29 30 29 23 0 31 -5 36 -25 4 -18 13 -25 30 -25 13 0 24 3 24
6 0 13 -94 299 -99 305 -3 3 -16 3 -28 1z m35 -154 l19 -66 -24 -5 c-23 -4
-23 -3 -22 77 1 89 1 89 27 -6z"/>
<path d="M1393 988 c-35 -17 -63 -115 -63 -224 0 -64 23 -94 70 -94 49 0 76
35 90 118 18 109 17 160 -6 182 -25 24 -63 32 -91 18z m56 -42 c9 -10 7 -40
-6 -122 -16 -97 -20 -109 -39 -112 -32 -4 -34 15 -17 124 18 118 33 145 62
110z"/>
<path d="M420 982 c-25 -8 -30 -24 -31 -97 l-1 -70 -35 73 c-29 59 -39 72 -59
72 -13 0 -24 -3 -24 -6 0 -4 23 -48 50 -99 28 -51 55 -118 62 -149 10 -54 20
-64 45 -48 8 5 9 21 2 57 -6 33 -6 83 2 146 12 109 11 128 -11 121z"/>
<path d="M1580 964 c0 -4 -14 -75 -31 -156 -18 -82 -30 -150 -28 -152 2 -2 13
-6 23 -8 16 -2 22 8 36 67 l17 70 13 -77 c10 -63 16 -77 33 -82 12 -3 23 -3
25 -1 3 2 -2 43 -11 91 l-16 87 44 62 c25 34 45 65 45 69 0 3 -11 6 -24 6 -17
0 -33 -14 -60 -55 -20 -30 -38 -55 -40 -55 -2 0 2 28 10 61 8 34 13 63 12 64
-10 8 -48 15 -48 9z"/>
<path d="M874 469 c-16 -17 -41 -37 -56 -45 -36 -18 -101 -18 -141 1 -28 14
-25 9 20 -34 83 -78 198 -112 266 -76 26 13 32 13 59 -1 64 -33 186 4 273 82
22 20 31 33 20 28 -36 -14 -115 -16 -144 -4 -16 6 -43 27 -62 46 -35 36 -61
42 -104 22 -19 -9 -28 -9 -37 0 -22 22 -63 13 -94 -19z"/>
</g>
</svg>
