<svg xmlns="http://www.w3.org/2000/svg" width="2518.732" height="2517.37" viewBox="0 0 2518.732 2517.37">
	<defs>
		<style>.a{fill:#7c7c7c;}.b{fill:#f0f0f0;}</style>
	</defs>
	<g transform="translate(-240.354 -240.934)">
		<path class="a" d="M2509.044,933.826c-16.779,100.676-33.558,192.961-58.727,276.858-8.39,41.948-50.338,201.351-33.559,234.91,50.338,117.455,58.728,268.468,50.338,394.313s-41.948,251.689-109.065,360.754c-142.624,226.52-436.261,302.027-696.339,310.417a1346.886,1346.886,0,0,1-260.079,0c-142.624-8.39-285.248-25.169-427.871-58.728-109.065-25.169-226.52-58.727-335.585-100.675-167.793-75.507-310.417-184.572-419.482-327.2S42.492,1722.452,17.323,1546.269c-50.338-285.247,8.39-545.326,184.572-780.236,159.4-201.351,385.923-352.365,629.223-469.82,226.52-109.065,486.6-218.131,738.288-268.468,302.027-58.727,620.833-41.948,805.4,226.52,75.507,109.065,117.455,226.52,134.234,352.365,16.779,109.065,8.39,218.131,0,327.2ZM797.559,1378.477c-8.39-25.169-16.779-50.338-16.779-75.507a302.507,302.507,0,0,1,50.338-167.793c33.559-50.338,83.9-83.9,134.234-100.676h8.39c16.779-8.39,33.559-8.39,50.338-8.39,41.948,0,67.117-33.558,67.117-67.117s-33.558-67.117-75.507-67.117c-33.559,0-58.727,8.39-92.286,16.779h-8.39c-83.9,25.169-151.013,83.9-201.351,151.013s-75.507,159.4-75.507,243.3c0,33.559,8.39,75.507,25.169,109.065,8.39,33.558,50.338,50.338,83.9,41.948,41.948,0,67.117-41.948,50.338-75.507Zm251.689-604.054c-302.027,0-545.326,234.91-545.326,528.547s243.3,528.547,553.716,528.547c302.027,0,553.716-234.91,553.716-528.547-8.39-293.637-251.689-528.547-562.105-528.547Zm1149.38-117.455c-16.779-83.9-41.948-159.4-92.286-234.91-100.675-151.013-327.2-134.234-478.209-100.676-226.52,41.948-453.041,142.624-662.781,243.3C772.39,656.968,579.429,782.813,453.584,950.605S285.791,1302.97,319.35,1504.321c16.779,125.844,67.117,243.3,142.624,343.975,83.9,100.675,184.572,176.182,310.417,234.91,83.9,41.948,184.572,67.117,276.858,83.9a2910.4,2910.4,0,0,0,377.533,50.338h209.741c142.624-8.39,369.144-41.948,453.04-167.793,41.948-67.117,58.727-151.013,67.117-226.52,8.389-83.9,0-192.962-33.559-268.468-50.338-117.455-8.389-285.247,25.169-402.7,16.78-83.9,41.948-167.793,50.338-251.689s16.779-167.793,0-243.3Z" transform="translate(240.354 240.934)"/>
		<g transform="translate(904.028 1212.309)">
			<g transform="translate(0 0)">
				<path class="b" d="M588,129.107c-16.544-1.912-258.752-25.865-366.543,161.552-72.085,125.313-55.781,295.936,42.843,392.3,83.1,81.2,195.736,81.406,244.511,81.471,39.323.076,170.134.326,270.321-98.221,86.9-85.436,146.224-240.719,80.775-372.006C789.179,152.4,619.72,132.78,588,129.107Z" transform="translate(-106.016 -96.9)"/>
				<path class="b" d="M485.814,779.436c-23.746,0-65.361-.967-113.505-12.5-66.915-16.022-123.836-46.992-169.275-92.051-35.054-34.761-64.09-78.875-83.883-127.54a21.4,21.4,0,0,1-2-9.108A21.73,21.73,0,0,1,159.3,530.8c17.69,43.439,43.358,82.546,74.3,113.233,93.419,92.736,218.19,92.116,259.175,91.92,40.257-.2,162.769-.8,255.167-91.964,90.9-89.683,140.054-255.829,64.96-378.622-79.69-130.3-252.821-131.32-318.02-131.755-66.264-.391-242.458-1.434-324.08,131.733C146,305.853,133.478,352.4,133.576,403.759a21.725,21.725,0,0,1-43.451,0c-.109-58.659,14.968-114.407,43.626-161.15,40.605-66.264,105.369-111.571,192.565-134.7,69.228-18.293,134.014-17.9,168.818-17.75,34.425.25,98.493.63,166.374,19.293,85.349,23.464,148.821,68.294,188.5,133.254,20.64,33.827,34.076,71.694,39.813,112.615,5.313,37.9,3.943,77.441-4.051,117.525C870.564,549.018,831.458,622.677,778.5,674.9c-44.885,44.277-100.947,74.954-166.657,91.182-52.566,12.982-97.308,13.2-118.817,13.307Z" transform="translate(-90.124 -90.128)"/>
				<path class="b" d="M119.479,569.437A21.732,21.732,0,0,1,98.2,551.94q-.337-1.763-.64-3.393a21.16,21.16,0,0,1-.359-3.933,21.733,21.733,0,0,1,43.082-4.066q.292,1.6.576,3.057a21.128,21.128,0,0,1,.392,4.107,21.725,21.725,0,0,1-21.725,21.726H119.5Z" transform="translate(-91.419 -169.339)"/>
				<path class="a" d="M554.78,112.013c11.656-8.691,39.172.163,48.98,17.38,9.961,17.521-4.965,32.143,3.682,44.658,16.044,23.2,84.36-3.258,89.879,11.025,2.857,7.354-14.176,13.557-18.868,30.513-10.222,36.933,50.914,78.288,43.7,88.814-8.137,11.873-84.73-42.614-118.61-16.946-16.74,12.678-15.208,38.943-24.767,39.106-11.852.2-10.4-40.627-32.588-53.446-37.217-21.5-113.288,51.805-123.174,41.061-8.875-9.646,54.869-66.013,38.454-111.442-5.54-15.338-17.587-22.138-14.339-28.678,7.484-15.056,77.506,21.194,99.059-2.607,15.067-16.6-6.256-48.362,8.592-59.44Z" transform="translate(-150.9 -93.514)"/>
			</g>
		</g>
	</g>
</svg>