<?xml version="1.0" standalone="no"?>
<!DOCTYPE svg PUBLIC "-//W3C//DTD SVG 20010904//EN"
 "http://www.w3.org/TR/2001/REC-SVG-20010904/DTD/svg10.dtd">
<svg version="1.0" xmlns="http://www.w3.org/2000/svg"
 width="225.000000pt" height="224.000000pt" viewBox="0 0 225.000000 224.000000"
 preserveAspectRatio="xMidYMid meet">

<g transform="translate(0.000000,224.000000) scale(0.100000,-0.100000)"
fill="#000000" stroke="none">
<path d="M10 1135 l0 -1095 1093 2 1092 3 3 1093 2 1092 -1095 0 -1095 0 0
-1095z m735 1003 c0 -35 -2 -186 -3 -335 l-2 -273 -309 0 c-169 0 -329 3 -355
6 l-46 7 0 328 0 329 358 0 357 0 0 -62z m729 35 c-1 -16 -3 -166 -3 -335 l-1
-308 -350 0 -350 0 0 335 0 335 353 0 353 0 -2 -27z m696 -313 l0 -340 -117 0
c-65 0 -216 3 -335 7 l-218 6 0 334 0 333 335 0 335 0 0 -340z m-1461 -356
l31 -7 -2 -346 -3 -346 -100 -3 c-55 -2 -214 0 -352 3 l-253 7 0 349 0 349
324 0 c178 0 338 -3 355 -6z m761 -354 l0 -350 -355 0 -355 0 0 148 c0 81 3
238 7 350 l6 202 349 0 348 0 0 -350z m700 -6 l0 -355 -337 7 c-186 3 -340 8
-342 10 -1 1 0 158 4 348 l8 346 333 0 334 0 0 -356z m-1440 -719 l0 -355
-350 0 -350 0 0 355 0 355 350 0 350 0 0 -355z m441 347 l296 -2 -2 -102 c-1
-57 -2 -214 -3 -350 l-2 -248 -350 0 -350 0 0 348 c0 192 2 351 4 353 3 2 28
4 58 3 29 0 186 -1 349 -2z m999 -352 l0 -350 -340 0 -340 0 0 350 0 350 340
0 340 0 0 -350z"/>
<path d="M1023 2142 c-134 -48 -200 -151 -191 -297 11 -164 140 -275 307 -263
144 11 253 117 268 261 21 203 -190 368 -384 299z"/>
<path d="M1771 1415 c-130 -36 -211 -144 -211 -280 0 -165 125 -288 292 -288
113 0 203 57 260 166 34 64 32 184 -4 253 -65 124 -205 185 -337 149z"/>
<path d="M283 694 c-59 -22 -132 -89 -159 -149 -17 -36 -24 -68 -24 -116 0
-122 49 -208 151 -264 47 -26 64 -30 134 -30 89 0 142 21 203 79 58 54 86 120
86 206 1 117 -54 207 -159 262 -53 28 -173 34 -232 12z"/>
<path d="M1013 694 c-58 -21 -127 -85 -157 -146 -29 -58 -35 -150 -15 -218 18
-59 78 -130 139 -164 49 -28 64 -31 135 -31 89 0 142 21 203 79 59 55 86 120
87 206 0 118 -55 209 -160 263 -53 27 -173 33 -232 11z"/>
<path d="M1744 694 c-55 -20 -118 -75 -151 -131 -21 -36 -27 -63 -31 -124 -4
-74 -2 -84 27 -144 66 -135 208 -194 352 -148 79 25 162 110 184 188 42 143
-19 280 -155 350 -47 25 -171 30 -226 9z"/>
</g>
</svg>
