<svg width="24" height="24" xmlns="http://www.w3.org/2000/svg">
 <style type="text/css">.st0{fill:#515151;}</style>

 <g>
  <title>background</title>
  <rect fill="none" id="canvas_background" height="26" width="26" y="-1" x="-1"/>
 </g>
 <g>
  <title>Layer 1</title>
  <path stroke="null" id="svg_3" d="m9.12266,14.014c-0.73308,1.20164 -2.09689,2.01188 -3.66458,2.01458c-2.34179,-0.00386 -4.2348,-1.80343 -4.23927,-4.028c0.00447,-2.22573 1.89748,-4.02491 4.23927,-4.02916c1.56729,0.0027 2.93069,0.81255 3.66417,2.01419l1.60912,0.88164l0.05808,0.03165c-0.53245,-2.33535 -2.71544,-4.08552 -5.33137,-4.08629c-3.01476,0.00077 -5.45768,2.32261 -5.45808,5.18796c0.00081,2.86418 2.44373,5.18603 5.45808,5.1868c2.61634,-0.00077 4.80014,-1.75171 5.33137,-4.08745l-0.05727,0.03127l-1.60952,0.8828zm1.75208,-2.01342l-2.90388,-1.59383l0,0.88666l-4.45736,0l0,1.41318l4.45736,0l0,0.88666l2.90388,-1.59267z" fill-opacity="null" stroke-opacity="null" stroke-width="null" fill="null"/>
  <path transform="rotate(-180 18.56262969970703,11.999999999999998) " stroke="null" id="svg_7" d="m22.24792,14.014c-0.73308,1.20164 -2.09689,2.01188 -3.66458,2.01458c-2.34179,-0.00386 -4.2348,-1.80343 -4.23927,-4.028c0.00447,-2.22573 1.89748,-4.02491 4.23927,-4.02916c1.56729,0.0027 2.93069,0.81255 3.66417,2.01419l1.60912,0.88165l0.05808,0.03165c-0.53245,-2.33535 -2.71544,-4.08552 -5.33137,-4.08629c-3.01476,0.00077 -5.45768,2.32262 -5.45808,5.18796c0.00081,2.86418 2.44373,5.18602 5.45808,5.1868c2.61634,-0.00078 4.80014,-1.75171 5.33137,-4.08745l-0.05727,0.03127l-1.60952,0.8828zm1.75208,-2.01342l-2.90389,-1.59383l0,0.88666l-4.45736,0l0,1.41318l4.45736,0l0,0.88666l2.90389,-1.59267z" fill-opacity="null" stroke-opacity="null" stroke-width="null" fill="null"/>
 </g>
</svg>
