<?xml version="1.0" encoding="iso-8859-1"?>
<!-- Generator: Adobe Illustrator 19.0.0, SVG Export Plug-In . SVG Version: 6.00 Build 0)  -->
<svg xmlns="http://www.w3.org/2000/svg" xmlns:xlink="http://www.w3.org/1999/xlink" version="1.1" id="Capa_1" x="0px" y="0px" viewBox="0 0 512 512" style="enable-background:new 0 0 512 512;" xml:space="preserve" width="512px" height="512px">
<g>
	<g>
		<path d="M226,211h-60c-8.284,0-15,6.716-15,15v30c0,24.813,20.187,45,45,45s45-20.187,45-45v-30C241,217.716,234.284,211,226,211z     M211,256c0,8.271-6.729,15-15,15s-15-6.729-15-15v-15h30V256z" fill="#ffffff"/>
	</g>
</g>
<g>
	<g>
		<path d="M346,211h-60c-8.284,0-15,6.716-15,15v30c0,24.813,20.187,45,45,45s45-20.187,45-45v-30C361,217.716,354.284,211,346,211z     M331,256c0,8.271-6.729,15-15,15s-15-6.729-15-15v-15h30V256z" fill="#ffffff"/>
	</g>
</g>
<g>
	<g>
		<path d="M296.607,335.394l-30-30c-5.857-5.858-15.355-5.858-21.213,0l-30,30c-5.859,5.857-5.859,15.355,0,21.213    c5.857,5.858,15.355,5.858,21.213,0L256,337.213l19.394,19.394c5.857,5.857,15.355,5.858,21.213,0    C302.465,350.749,302.465,341.252,296.607,335.394z" fill="#ffffff"/>
	</g>
</g>
<g>
	<g>
		<path d="M467,392c-3.437,0-6.86,0.397-10.194,1.171l-40.05-40.05c2.728-6.85,4.244-14.31,4.244-22.121    c0-14.308-5.083-27.852-14.24-38.584C416.215,271.423,421,249.132,421,226c0-20.884-3.909-41.201-11.28-60.085l47.086-47.086    C460.14,119.603,463.563,120,467,120c24.813,0,45-20.187,45-45c0-20.271-13.473-37.455-31.934-43.066    C474.454,13.472,457.271,0,437,0c-24.813,0-45,20.187-45,45c0,3.436,0.396,6.861,1.171,10.194l-38.54,38.54    c-37.957-28.333-86.32-38.938-133.817-29.082c-23.372,4.85-45.004,14.917-63.638,28.888l-38.347-38.347    C119.604,51.861,120,48.436,120,45c0-24.813-20.187-45-45-45C54.729,0,37.546,13.472,31.934,31.934C13.473,37.545,0,54.729,0,75    c0,24.813,20.187,45,45,45c3.436,0,6.861-0.397,10.194-1.171l46.986,46.986c-3.68,9.443-6.5,19.291-8.359,29.442    c-6.105,33.34-2.111,66.644,11.535,97.011C96.124,303.018,91,316.613,91,331c0,7.811,1.516,15.271,4.244,22.121l-40.05,40.05    C51.86,392.397,48.437,392,45,392c-24.813,0-45,20.187-45,45c0,20.271,13.473,37.455,31.934,43.066    C37.546,498.528,54.729,512,75,512c24.813,0,45-20.187,45-45c0-3.436-0.396-6.861-1.171-10.194l47.239-47.239    C174.028,416.672,184.517,421,196,421h120c11.483,0,21.972-4.328,29.932-11.434l47.239,47.239    C392.396,460.139,392,463.564,392,467c0,24.813,20.187,45,45,45c20.271,0,37.454-13.472,43.066-31.934    C498.527,474.455,512,457.271,512,437C512,412.187,491.813,392,467,392z M421.107,69.684c4.665-4.665,5.734-11.831,2.635-17.654    C422.586,49.857,422,47.492,422,45c0-8.271,6.729-15,15-15s15,6.729,15,15c0,8.284,6.716,15,15,15c8.271,0,15,6.729,15,15    s-6.729,15-15,15c-2.492,0-4.857-0.586-7.029-1.742c-5.825-3.101-12.99-2.03-17.654,2.634l-46.857,46.856    c-5.378-8.482-11.541-16.507-18.463-23.954L421.107,69.684z M69.684,90.892c-4.664-4.665-11.83-5.735-17.654-2.635    C49.857,89.414,47.492,90,45,90c-8.271,0-15-6.729-15-15s6.729-15,15-15c8.284,0,15-6.716,15-15c0-8.271,6.729-15,15-15    s15,6.729,15,15c0,2.492-0.586,4.857-1.742,7.03c-3.1,5.824-2.03,12.989,2.635,17.654l43.98,43.98    c-6.845,7.401-13.024,15.43-18.437,23.98L69.684,90.892z M90.893,442.317c-4.665,4.665-5.734,11.831-2.635,17.654    C89.414,462.143,90,464.508,90,467c0,8.271-6.729,15-15,15s-15-6.729-15-15c0-8.284-6.716-15-15-15c-8.271,0-15-6.729-15-15    s6.729-15,15-15c2.492,0,4.857,0.586,7.029,1.742c5.824,3.1,12.99,2.031,17.655-2.634l43.539-43.538    c8.311,6.755,18.457,11.326,29.563,12.854L90.893,442.317z M351.024,359.113c-4.591-1.633-9.691-0.933-13.674,1.878    c-3.982,2.811-6.351,7.381-6.351,12.255V376c0,8.271-6.729,15-15,15H196c-8.271,0-15-6.729-15-15v-2.754    c0-4.874-2.368-9.444-6.351-12.255c-2.564-1.811-5.593-2.745-8.65-2.745c-1.689,0-3.39,0.286-5.023,0.867    c-3.572,1.27-6.835,1.887-9.976,1.887c-16.542,0-30-13.458-30-30c0-9.224,4.305-17.837,11.81-23.63    c5.798-4.475,7.517-12.483,4.064-18.943c-14.43-27.005-19.113-57.354-13.543-87.765c9.707-52.999,51.473-95.823,103.578-106.635    C313.276,76.104,391,140.986,391,226c0,21.952-5.297,42.99-15.744,62.53c-3.443,6.441-1.747,14.427,4.019,18.912    C386.727,313.239,391,321.825,391,331c0,16.542-13.458,30-30,30C357.859,361,354.597,360.383,351.024,359.113z M467,452    c-8.284,0-15,6.716-15,15c0,8.271-6.729,15-15,15s-15-6.729-15-15c0-2.492,0.586-4.857,1.742-7.03    c3.1-5.824,2.03-12.989-2.635-17.654l-51.893-51.893c11.106-1.528,21.252-6.099,29.563-12.854l43.539,43.538    c4.663,4.665,11.829,5.735,17.655,2.635c2.172-1.156,4.537-1.742,7.029-1.742c8.271,0,15,6.729,15,15S475.271,452,467,452z" fill="#ffffff"/>
	</g>
</g>
<g>
</g>
<g>
</g>
<g>
</g>
<g>
</g>
<g>
</g>
<g>
</g>
<g>
</g>
<g>
</g>
<g>
</g>
<g>
</g>
<g>
</g>
<g>
</g>
<g>
</g>
<g>
</g>
<g>
</g>
</svg>
