<svg version="1.1" xmlns="http://www.w3.org/2000/svg" xmlns:xlink="http://www.w3.org/1999/xlink" x="0px" y="0px"
	width="100px" height="17.5px" viewBox="0 0 100 17.5">
<g>
	<path class="brand-fill" d="M43.6,11.6c0-1.2-0.6-2.3-1.7-2.6c1.3-0.4,1.7-1.3,1.7-2.7V3.7c0-2.2-1.1-3.4-3.4-3.4H36v16.9h2.2V9.8H40
		c1,0,1.4,0.6,1.4,1.6v2c0,1.9,0.1,2.9,0.3,3.8h2.4c-0.4-1.2-0.5-2.3-0.5-3.8L43.6,11.6z M41.3,6.5c0,1-0.5,1.6-1.4,1.6h-1.7V2.3
		h1.9c0.9,0,1.2,0.5,1.2,1.4V6.5z"/>
	<rect y="0.3" class="brand-fill" width="2.2" height="16.9"/>
	<polygon class="brand-fill" points="11.8,11.4 10.8,8.8 7.5,0.3 5.6,0.3 5.6,17.2 7.7,17.2 7.7,6.2 8.7,8.8 12.3,17.2 13.9,17.2 13.9,0.3 
		11.8,0.3 	"/>
	<path class="brand-fill" d="M20.7,0c-2.5,0-3.9,1.7-3.9,4c0,2.2,1.6,4.1,3.2,5.5c1.4,1.2,2.3,2.4,2.3,4.2c0,1.2-0.6,1.9-1.8,1.9
		c-1.3,0-1.8-0.9-1.8-2.2V12h-2.2v1.6c0,2.2,1.6,3.8,4,3.8c2.2,0,4-1.5,4-4.1c0-2.2-1.2-3.8-2.9-5.3C20.1,6.6,19,5.6,19,3.6
		c0-1,0.6-1.7,1.7-1.7c1.2,0,1.8,0.9,1.8,2.1v1.4h2.1V3.8C24.4,1.6,23,0,20.7,0z"/>
	<polygon class="brand-fill" points="26,2.3 28.9,2.3 28.9,17.2 31,17.2 31,2.3 33.9,2.3 33.9,0.3 26,0.3 	"/>
	<path class="brand-fill" d="M52.5,13.7c0,1.2-0.6,1.9-1.8,1.9s-1.8-0.7-1.8-1.9V0.3h-2.2v13.3c0,2.4,1.7,3.9,4,3.9s4-1.5,4-3.9V0.3h-2.2
		V13.7z"/>
	<polygon class="brand-fill" points="64.1,10.8 63.6,13.6 63.1,10.8 61.2,0.3 58.1,0.3 58.1,17.2 60.1,17.2 60.1,4.7 60.6,7.3 62.5,17.2 
		64.6,17.2 66.5,7.3 67,4.7 67,17.2 69,17.2 69,0.3 66,0.3 	"/>
	<polygon class="brand-fill" points="72.4,17.2 79.1,17.2 79.1,15.2 74.6,15.2 74.6,9.4 78.1,9.4 78.1,7.5 74.6,7.5 74.6,2.3 79.1,2.3 
		79.1,0.3 72.4,0.3 	"/>
	<polygon class="brand-fill" points="88,11.4 87,8.8 83.7,0.3 81.9,0.3 81.9,17.2 83.9,17.2 83.9,6.2 85,8.8 88.5,17.2 90.1,17.2 90.1,0.3 
		88,0.3 	"/>
	<polygon class="brand-fill" points="92.2,0.3 92.2,2.3 95,2.3 95,17.2 97.2,17.2 97.2,2.3 100,2.3 100,0.3 	"/>
</g>
</svg>