<svg id="Layer_1" data-name="Layer 1" xmlns="https://www.w3.org/2000/svg" viewBox="0 0 83.03 94.08"><defs><style>.cls-1{fill:none;}.cls-1,.cls-2{fill-rule:evenodd;}.cls-2{fill:#231f20;}</style></defs><path class="cls-1" d="M608.6,432h.48c-.33.46,0,.14-.48.48Z" transform="translate(-598.77 -432.04)"/><path class="cls-2" d="M609.56,433c1.68.7,13.12,11.26,13.68,12.72l1,7c1.59,7.52,4.8,10.84,11,13.68l.48-.48a5.71,5.71,0,0,1,0-3.36l1.92-.72-.72-1-1.2-1c.32-2.22,1.46-2.05,2.16-3.36l.72-9.6h.48v.48l.48,8.88c.52,1.06,2,1.67,2.64,3.12L640.52,462c2.23,1,1.09,2.68,1.44,4.56,3.17-1.57,8.5-3.51,10.56-6.24,2.55-3.38.48-9.54,1.92-14.16l10.08-11.76c-1.1,4.81-6.95,7.78-8.88,12-2.14,4.67.3,10.32-1.92,14.4L642,468.28l.48.72,3.84,2.4c2.32.77,6-1.23,7.68-1.68,6.24-1.62,21.47-4.92,27.36-1.2l.48,4.32c-1.67,5.44-17.57,9.73-26.64,7.2-.85.19-1.27,0-1.92.48l5.52,10.32c3.76,7.18,7,13.62,11.52,19.68l-1,1.44-.48-.24-5.52-7.44c-4.34-7.61-7-17.85-12.72-24.24-3.57,1-5.69-1.31-8.4-1.92L653,496.84c.74,2.23-.68,5.84-1,7-1.55,6.17-2.18,15.61-.24,21.6l-.24.48-1.44-.24c-.38-3.1-2.41-5.66-1.68-9.6l2.88-18.72-11-19.68H640c.4,9.5,2,20.2,0,30.24h-.24c-1.31-.65-.54-.35-2.16,0-.12-5.94-3.08-10.88-1.92-17.76.53-3.12,2.49-10.55,1.2-13.44l-.24.48c-2.86,3.65-7.44,13.72-8.64,18.48-.92,3.65,3.35,18.53,4.32,23l-1.68,7.44h-1.44l-.48-.24v-.24c2.91-5.18,0-17.5-1.68-24-.38-1.49-1.78-4.05-1.2-6.24l7.92-17c-3,1.65-5.44,1.14-9.36,2.16l-10.56,24L605,512.44l-1-.72,8.88-8.64,9.6-22.56-.24-.24c-9.11.38-29.46-1.81-21.84-13.2,8.42-2.53,27,9.12,34.56,1l-.48-.72c-7.18-1.32-10.48-9.14-11.76-14.88-.39-1.75.39-4-.48-5.52Z" transform="translate(-598.77 -432.04)"/><path class="cls-1" d="M641.24,469.72l-.24,1.2c-.46,1-.85,1.81-.24,2.64l3.6-1.68-.48-.72Z" transform="translate(-598.77 -432.04)"/><path class="cls-1" d="M635,470l-2.88,1.92.24.48,4.08,1.2v-1.92L636,470.2Z" transform="translate(-598.77 -432.04)"/></svg>