<?xml version="1.0" encoding="UTF-8" standalone="no"?>
<!-- Created with Inkscape (http://www.inkscape.org/) -->

<svg
   xmlns:dc="http://purl.org/dc/elements/1.1/"
   xmlns:cc="http://creativecommons.org/ns#"
   xmlns:rdf="http://www.w3.org/1999/02/22-rdf-syntax-ns#"
   xmlns:svg="http://www.w3.org/2000/svg"
   xmlns="http://www.w3.org/2000/svg"
   xmlns:sodipodi="http://sodipodi.sourceforge.net/DTD/sodipodi-0.dtd"
   xmlns:inkscape="http://www.inkscape.org/namespaces/inkscape"
   id="svg7122"
   version="1.1"
   inkscape:version="0.48.5 r10040"
   xml:space="preserve"
   width="707.79883"
   height="260.84195"
   viewBox="0 0 707.79883 260.84195"
   sodipodi:docname="nbislogo-green-mm-4.svg"><metadata
     id="metadata7128"><rdf:RDF><cc:Work
         rdf:about=""><dc:format>image/svg+xml</dc:format><dc:type
           rdf:resource="http://purl.org/dc/dcmitype/StillImage" /><dc:title /></cc:Work></rdf:RDF></metadata><defs
     id="defs7126" /><sodipodi:namedview
     pagecolor="#ffffff"
     bordercolor="#000000"
     borderopacity="0"
     objecttolerance="10"
     gridtolerance="10"
     guidetolerance="10"
     inkscape:pageopacity="0"
     inkscape:pageshadow="2"
     inkscape:window-width="1586"
     inkscape:window-height="916"
     id="namedview7124"
     showgrid="false"
     fit-margin-top="0"
     fit-margin-left="0"
     fit-margin-right="0"
     fit-margin-bottom="0"
     inkscape:zoom="1.0263264"
     inkscape:cx="325.8791"
     inkscape:cy="129.27545"
     inkscape:window-x="55"
     inkscape:window-y="57"
     inkscape:window-maximized="0"
     inkscape:current-layer="g7130"
     showguides="true"
     inkscape:guide-bbox="true"
     borderlayer="false" /><g
     id="g7130"
     inkscape:groupmode="layer"
     inkscape:label="ink_ext_XXXXXX"
     transform="matrix(1.25,0,0,-1.25,-35.076172,380.02206)"><path
       inkscape:connector-curvature="0"
       id="path7134"
       style="fill:#487a2d;fill-opacity:1;fill-rule:nonzero;stroke:none"
       d="m 367.927,292.638 0,0 c -0.85,1.678 -2.571,2.737 -4.453,2.737 l -4.067,0 c -2.049,0 -3.381,-2.158 -2.462,-3.99 l 6.799,-13.56 6.209,-10.562 c 4.875,-8.292 11.477,-15.437 19.358,-20.95 l 40.424,-28.281 c 5.497,-3.846 10.172,-8.749 13.752,-14.423 l 13.194,-21.202 1.932,17.081 -10.634,18.964 c -3.041,5.423 -7.322,10.051 -12.493,13.505 l -43.778,29.241 -4.241,3.866 c -6.856,6.251 -12.518,13.697 -16.707,21.976 l -2.833,5.598" /><path
       inkscape:connector-curvature="0"
       id="path7136"
       style="fill:#487a2d;fill-opacity:1;fill-rule:nonzero;stroke:none"
       d="m 391.895,134.173 0,0 -14.611,13.321 -8.774,21.492 0.319,8.239 -4.262,-14.725 2.298,-9.005 c 2.611,-10.238 8.977,-19.119 17.833,-24.881 l 38.252,-24.888 c 3.76,-2.446 8.148,-3.7479 12.634,-3.7479 l 1.574,0 c 3.975,0 5.374,5.2699 1.922,7.2409 l -47.185,26.954" /><path
       inkscape:connector-curvature="0"
       id="path7138"
       style="fill:#487a2d;fill-opacity:1;fill-rule:nonzero;stroke:none"
       d="m 455.814,266.492 0,0 0.167,-0.315 c 0.747,-1.405 0.904,-3.05 0.436,-4.571 l -1.657,-5.382 c -0.494,-1.606 -2.592,-1.991 -3.624,-0.664 l -21.868,28.116 c -2.33,2.997 -0.063,7.346 3.728,7.151 l 6.802,-0.348 c 2.085,-0.107 3.96,-1.301 4.94,-3.144 l 11.076,-20.843" /><path
       inkscape:connector-curvature="0"
       id="path7140"
       style="fill:#f47d20;fill-opacity:1;fill-rule:nonzero;stroke:none"
       d="m 443.887,281.032 0,0 c 1.154,-2.174 -0.585,-4.756 -3.034,-4.504 l -32.02,3.304 c -0.209,0.022 -0.42,0.022 -0.629,0 l -35.885,-3.675 c -1.293,-0.133 -2.53,0.562 -3.09,1.735 l -3.779,7.912 c -1.09,2.282 0.886,4.831 3.368,4.346 l 38.476,-7.524 c 0.306,-0.06 0.62,-0.073 0.93,-0.039 l 30.012,3.329 c 1.743,0.194 3.428,-0.696 4.25,-2.245 l 1.401,-2.639" /><path
       inkscape:connector-curvature="0"
       id="path7142"
       style="fill:#f47d20;fill-opacity:1;fill-rule:nonzero;stroke:none"
       d="m 453.697,259.865 0,0 c 0.241,-0.399 0.389,-0.847 0.431,-1.312 l 0,0 c 0.177,-1.93 -1.454,-3.541 -3.382,-3.341 l -26.633,2.763 c -0.189,0.02 -0.38,0.022 -0.569,0.007 l -33.982,-2.793 c -0.855,-0.071 -1.7,0.219 -2.332,0.799 l -2.997,2.747 c -2.168,1.988 -0.578,5.594 2.352,5.333 l 36.252,-3.222 c 0.32,-0.029 0.643,-0.007 0.957,0.065 l 22.313,5.091 c 2.036,0.464 4.14,-0.429 5.22,-2.216 l 2.37,-3.921" /><path
       inkscape:connector-curvature="0"
       id="path7144"
       style="fill:#f47d20;fill-opacity:1;fill-rule:nonzero;stroke:none"
       d="m 412.438,241.871 18.351,-3.063 c 0.523,-0.087 1.059,-0.038 1.557,0.143 l 7.529,2.732 c 2.437,0.884 4.808,-1.456 3.956,-3.904 l -0.146,-0.422 c -0.46,-1.321 -1.753,-2.166 -3.148,-2.057 l -8.299,0.653 c -0.43,0.034 -0.862,-0.023 -1.268,-0.167 l -9.747,-3.452 c -1.126,-0.398 -2.381,-0.11 -3.219,0.741 l -6.637,6.734 c -0.83,0.843 -0.096,2.257 1.071,2.062" /><path
       inkscape:connector-curvature="0"
       id="path7146"
       style="fill:#f47d20;fill-opacity:1;fill-rule:nonzero;stroke:none"
       d="m 372.962,148.345 0,0 c 0.482,-1.474 1.986,-2.36 3.509,-2.065 l 19.056,3.685 c 0.247,0.048 0.499,0.065 0.75,0.052 l 14.136,-0.762 c 1.217,-0.066 2.358,0.593 2.91,1.68 l 0.499,0.983 c 1.193,2.351 -0.929,5.015 -3.487,4.379 l -13.843,-3.442 c -0.391,-0.097 -0.798,-0.117 -1.196,-0.057 l -21.991,3.276 c -1.385,0.206 -2.503,-1.117 -2.068,-2.448 l 1.725,-5.281" /><path
       inkscape:connector-curvature="0"
       id="path7148"
       style="fill:#f47d20;fill-opacity:1;fill-rule:nonzero;stroke:none"
       d="m 437.76,217.472 -4.777,-2.32 c -0.432,-0.21 -0.907,-0.316 -1.387,-0.309 l -19.538,0.271 c -1.444,0.02 -2.708,-0.966 -3.038,-2.372 l -1.05,-4.463 c -0.557,-2.366 1.72,-4.412 4.013,-3.609 l 20.402,7.152 c 0.514,0.18 1.066,0.22 1.6,0.117 l 4.983,-0.959 c 2.647,-0.509 4.623,2.39 3.181,4.668 l -0.444,0.702 c -0.838,1.323 -2.536,1.806 -3.945,1.122" /><path
       inkscape:connector-curvature="0"
       id="path7150"
       style="fill:#f47d20;fill-opacity:1;fill-rule:nonzero;stroke:none"
       d="m 454.034,195.286 0,0 c 0.757,-2.052 -0.808,-4.217 -2.994,-4.141 l -24.365,0.846 c -0.235,0.008 -0.47,-0.01 -0.7,-0.056 l -39.713,-7.801 c -2.677,-0.526 -4.663,2.434 -3.163,4.712 l 5.231,7.944 c 0.636,0.965 1.758,1.492 2.907,1.366 l 34.628,-3.813 c 0.303,-0.033 0.609,-0.022 0.908,0.035 l 23.202,4.384 c 1.498,0.283 2.981,-0.557 3.509,-1.987 l 0.55,-1.489" /><path
       inkscape:connector-curvature="0"
       id="path7152"
       style="fill:#f47d20;fill-opacity:1;fill-rule:nonzero;stroke:none"
       d="m 421.342,113.879 0,0 c 2.585,-1.802 1.111,-5.864 -2.028,-5.589 l -21.113,1.513 c -0.251,-0.009 -0.499,-0.017 -0.749,-0.026 l -23.044,-3.245 c -2.579,-0.363 -4.415,2.442 -3.05,4.66 l 2.703,4.395 c 0.711,1.155 2.094,1.709 3.405,1.363 l 19.63,-5.175 c 0.495,-0.13 1.016,-0.135 1.513,-0.014 l 18.994,3.22 c 1.114,0.189 2.257,-0.067 3.183,-0.714 l 0.556,-0.388" /><path
       inkscape:connector-curvature="0"
       id="path7154"
       style="fill:#f47d20;fill-opacity:1;fill-rule:nonzero;stroke:none"
       d="m 444.008,180.473 -5.912,-11.826 c -0.575,-1.148 -1.801,-1.819 -3.078,-1.683 l -32.188,3.419 c -0.27,0.029 -0.543,0.021 -0.811,-0.022 l -31.345,-5.015 c -2.561,-0.41 -4.45,2.34 -3.147,4.583 l 1.854,3.196 c 0.586,1.01 1.693,1.601 2.859,1.526 l 29.8,-1.911 c 0.255,-0.017 0.51,-0.001 0.761,0.046 l 41.207,7.687 0,0" /><path
       inkscape:connector-curvature="0"
       id="path7156"
       style="fill:#85be42;fill-opacity:1;fill-rule:nonzero;stroke:none"
       d="m 450.038,253.093 6.643,10.136 -0.364,-15.19 c -0.039,-1.622 -0.595,-3.189 -1.587,-4.473 l -6.894,-8.918 c -5.04,-6.521 -11.016,-12.261 -17.735,-17.035 l -40.959,-29.108 c -2.556,-1.816 -4.898,-3.915 -6.984,-6.256 0,0 -14.115,-14.326 -17.591,-19.749 0.55,2.805 0.695,4.323 0.695,4.323 1.379,8.592 4.918,16.693 10.285,23.543 l 3.408,4.35 c 2.686,3.428 5.874,6.433 9.456,8.911 l 40.17,27.794 c 3.183,2.203 6.157,4.696 8.882,7.446 l 5.857,5.911 c 2.514,2.538 4.765,5.324 6.718,8.315 l 0,0" /><path
       inkscape:connector-curvature="0"
       id="path7158"
       style="fill:#85be42;fill-opacity:1;fill-rule:nonzero;stroke:none"
       d="m 423.174,165.621 -26.962,-18.656 c -8.72,-6.033 -16.179,-13.708 -21.96,-22.597 l -15.204,-23.375 c -0.678,-1.0418 0.07,-2.42 1.313,-2.42 l 7.102,0 c 1.753,0 3.377,0.9219 4.276,2.427 l 3.672,6.152 c 6.519,10.921 15.239,20.366 25.607,27.733 l 27.793,19.752 c 7.6,5.401 14.703,11.469 21.225,18.131 l 4.553,4.651 c 2.137,2.184 3.385,5.085 3.5,8.138 l 0.524,13.931 -0.039,-0.066 c -2.577,-5.963 -5.279,-8.687 -7.932,-11.598 l -1.134,-1.137 c -0.853,-0.856 -1.756,-1.66 -2.704,-2.408 l -23.63,-18.658" /><path
       style="fill:#85be42;fill-opacity:1;fill-rule:nonzero;stroke:none"
       d="m 35.076172,7.3027344 0,260.3593756 56.02539,0 0,-150.42578 73.365238,150.42578 66.50976,0 0,-260.3593756 -56.02539,0 0,150.0820356 L 101.13281,7.3027344 z"
       transform="matrix(0.8,0,0,-0.8,0,309.474)"
       id="path7160"
       inkscape:connector-curvature="0"
       sodipodi:nodetypes="ccccccccccc" /><path
       inkscape:connector-curvature="0"
       id="path7162"
       style="fill:#85be42;fill-opacity:1;fill-rule:nonzero;stroke:none"
       d="m 251.029,186.097 0,-54.281 28.779,0 c 12.157,0 21.132,2.326 26.926,6.982 5.792,4.652 8.691,11.774 8.691,21.369 0,17.285 -12.348,25.93 -37.042,25.93 l -27.354,0 z m 0,35.046 25.645,0 c 11.967,0 20.633,1.852 26,5.557 5.365,3.704 8.049,9.83 8.049,18.378 0,7.978 -2.92,13.699 -8.761,17.167 -5.841,3.466 -15.08,5.201 -27.71,5.201 l -23.223,0 0,-46.303 z m -44.165,82.489 64.823,0 c 29.538,0 50.979,-4.202 64.325,-12.608 13.343,-8.405 20.017,-21.776 20.017,-40.105 0,-12.444 -2.921,-22.652 -8.762,-30.63 -5.841,-7.979 -13.606,-12.776 -23.293,-14.39 l 0,-1.425 c 13.199,-2.945 22.723,-8.454 28.564,-16.526 5.841,-8.073 8.761,-18.806 8.761,-32.198 0,-18.997 -6.862,-33.814 -20.585,-44.449 -13.727,-10.638 -32.365,-15.9569 -55.92,-15.9569 l -77.93,0 0,208.2879" /><path
       inkscape:connector-curvature="0"
       id="path7164"
       style="fill:#85be42;fill-opacity:1;fill-rule:nonzero;stroke:none"
       d="m 594.3,154.48948 c 0,-18.32777 -6.767,-32.76526 -20.301,-43.31735 C 560.463,100.62005 541.634,95.3441 517.51,95.3441 c -22.225,0 -41.886,4.072415 -58.982,12.21842 l 0,39.98546 c 14.056,-6.11023 25.952,-10.4137 35.688,-12.91237 9.735,-2.49964 18.64,-3.74799 26.714,-3.74799 9.686,0 17.117,1.8048 22.295,5.41442 5.175,3.60962 7.764,8.97532 7.764,16.10392 0,3.97993 -1.139,7.52036 -3.418,10.62127 -2.28,3.09995 -5.629,6.08587 -10.045,8.95583 -4.416,2.86801 -13.415,7.44922 -26.997,13.74363 -12.729,5.8325 -22.274,11.43111 -28.636,16.8007 -6.364,5.3657 -11.446,11.61431 -15.244,18.74292 -3.8,7.12568 -5.698,15.45683 -5.698,24.98957 0,17.95648 6.243,32.07238 18.734,42.34576 12.488,10.27434 29.751,15.41201 51.787,15.41201 10.827,0 17.16219,-1.47302 26.92311,-4.22923 10.87104,-3.06968 16.42989,-4.32218 26.90789,-8.34952 l 0.5631,-40.83702 c -14.47881,9.59481 -24.41794,12.94566 -32.78115,15.55582 -7.55321,2.35736 -16.01095,2.0386 -23.03795,2.0386 -8.359,0 -14.77,-1.89739 -19.233,-5.69217 -4.465,-3.79575 -6.697,-8.74533 -6.697,-14.85556 0,-3.79575 0.902,-7.10424 2.708,-9.92644 1.803,-2.82416 4.677,-5.55281 8.62,-8.1918 3.94,-2.63705 13.27,-7.38198 27.994,-14.22992 19.468,-9.0718 32.814,-18.166 40.034,-27.28165 7.216,-9.11857 10.827,-20.29435 10.827,-33.52928"
       sodipodi:nodetypes="ccscccscscccccscssccsscscsccc" /></g></svg>