<?xml version="1.0" encoding="UTF-8" standalone="no"?>
<svg
   xmlns:dc="http://purl.org/dc/elements/1.1/"
   xmlns:cc="http://creativecommons.org/ns#"
   xmlns:rdf="http://www.w3.org/1999/02/22-rdf-syntax-ns#"
   xmlns:svg="http://www.w3.org/2000/svg"
   xmlns="http://www.w3.org/2000/svg"
   viewBox="0 0 707.96399 735.98132"
   height="735.98132"
   width="707.96399"
   xml:space="preserve"
   id="svg2"
   version="1.1"><metadata
     id="metadata8"><rdf:RDF><cc:Work
         rdf:about=""><dc:format>image/svg+xml</dc:format><dc:type
           rdf:resource="http://purl.org/dc/dcmitype/StillImage" /></cc:Work></rdf:RDF></metadata><defs
     id="defs6"><clipPath
       id="clipPath20"
       clipPathUnits="userSpaceOnUse"><path
         id="path18"
         d="M 0,551.986 H 530.973 V 0 H 0 Z" /></clipPath></defs><g
     transform="matrix(1.3333333,0,0,-1.3333333,0,735.98133)"
     id="g10"><path
       id="path12"
       style="fill:#231f20;fill-opacity:1;fill-rule:nonzero;stroke:none"
       d="M 0,0 H 530.973 V 275.986 H 0 Z" /><g
       id="g14"><g
         clip-path="url(#clipPath20)"
         id="g16"><g
           transform="translate(152.6083,444.5454)"
           id="g22"><path
             id="path24"
             style="fill:#1b1817;fill-opacity:1;fill-rule:evenodd;stroke:none"
             d="m 0,0 c -8.995,0 -16.288,-7.293 -16.288,-16.29 0,-7.197 4.667,-13.302 11.14,-15.457 0.815,-0.149 1.112,0.354 1.112,0.786 0,0.386 -0.014,1.411 -0.022,2.77 -4.531,-0.984 -5.487,2.184 -5.487,2.184 -0.741,1.881 -1.809,2.382 -1.809,2.382 -1.479,1.011 0.112,0.991 0.112,0.991 1.635,-0.116 2.495,-1.679 2.495,-1.679 1.453,-2.489 3.813,-1.77 4.741,-1.354 0.148,1.053 0.568,1.771 1.034,2.178 -3.617,0.411 -7.42,1.809 -7.42,8.051 0,1.778 0.635,3.232 1.677,4.371 -0.168,0.412 -0.727,2.068 0.159,4.311 0,0 1.368,0.438 4.48,-1.67 1.299,0.361 2.693,0.542 4.078,0.548 1.383,-0.006 2.777,-0.187 4.078,-0.548 3.11,2.108 4.475,1.67 4.475,1.67 0.889,-2.243 0.33,-3.899 0.162,-4.311 1.044,-1.139 1.675,-2.593 1.675,-4.371 0,-6.258 -3.809,-7.635 -7.438,-8.038 0.585,-0.503 1.106,-1.497 1.106,-3.017 0,-2.177 -0.02,-3.934 -0.02,-4.468 0,-0.436 0.293,-0.943 1.12,-0.784 6.468,2.159 11.131,8.26 11.131,15.455 C 16.291,-7.293 8.997,0 0,0" /></g><g
           transform="translate(350.6088,493.5547)"
           id="g26"><path
             id="path28"
             style="fill:#1b1817;fill-opacity:1;fill-rule:evenodd;stroke:none"
             d="m 0,0 c -33.347,0 -60.388,-27.035 -60.388,-60.388 0,-26.68 17.303,-49.316 41.297,-57.301 3.018,-0.559 4.126,1.31 4.126,2.905 0,1.439 -0.056,6.197 -0.082,11.243 -16.8,-3.653 -20.345,7.125 -20.345,7.125 -2.747,6.979 -6.705,8.836 -6.705,8.836 -5.479,3.748 0.413,3.671 0.413,3.671 6.064,-0.426 9.257,-6.224 9.257,-6.224 5.386,-9.231 14.127,-6.562 17.573,-5.019 0.543,3.902 2.107,6.567 3.834,8.075 -13.413,1.526 -27.513,6.705 -27.513,29.844 0,6.592 2.359,11.98 6.222,16.209 -0.627,1.521 -2.694,7.663 0.586,15.981 0,0 5.071,1.622 16.61,-6.191 4.817,1.338 9.983,2.009 15.115,2.033 5.132,-0.024 10.302,-0.695 15.128,-2.033 11.526,7.813 16.59,6.191 16.59,6.191 3.287,-8.318 1.22,-14.46 0.593,-15.981 3.872,-4.229 6.214,-9.617 6.214,-16.209 0,-23.195 -14.127,-28.301 -27.574,-29.796 2.166,-1.874 4.096,-5.549 4.096,-11.183 0,-8.08 -0.069,-14.583 -0.069,-16.572 0,-1.608 1.086,-3.49 4.147,-2.898 23.982,7.994 41.263,30.622 41.263,57.294 C 60.388,-27.035 33.351,0 0,0" /></g><g
           transform="translate(313.0932,406.8515)"
           id="g30"><path
             id="path32"
             style="fill:#1b1817;fill-opacity:1;fill-rule:nonzero;stroke:none"
             d="m 0,0 c -0.133,-0.301 -0.605,-0.391 -1.035,-0.185 -0.439,0.198 -0.684,0.607 -0.542,0.908 0.13,0.308 0.602,0.394 1.04,0.188 C -0.099,0.714 0.151,0.301 0,0" /></g><g
           transform="translate(315.5395,404.123)"
           id="g34"><path
             id="path36"
             style="fill:#1b1817;fill-opacity:1;fill-rule:nonzero;stroke:none"
             d="M 0,0 C -0.288,-0.267 -0.852,-0.143 -1.233,0.279 -1.629,0.7 -1.702,1.264 -1.41,1.534 -1.113,1.801 -0.567,1.676 -0.172,1.255 0.224,0.829 0.301,0.271 0,0" /></g><g
           transform="translate(317.9204,400.6455)"
           id="g38"><path
             id="path40"
             style="fill:#1b1817;fill-opacity:1;fill-rule:nonzero;stroke:none"
             d="M 0,0 C -0.37,-0.258 -0.976,-0.017 -1.35,0.52 -1.72,1.058 -1.72,1.702 -1.341,1.96 -0.967,2.218 -0.37,1.985 0.009,1.453 0.378,0.907 0.378,0.263 0,0" /></g><g
           transform="translate(321.1821,397.2851)"
           id="g42"><path
             id="path44"
             style="fill:#1b1817;fill-opacity:1;fill-rule:nonzero;stroke:none"
             d="M 0,0 C -0.331,-0.365 -1.036,-0.267 -1.552,0.232 -2.08,0.718 -2.227,1.409 -1.896,1.774 -1.56,2.14 -0.851,2.037 -0.331,1.543 0.193,1.057 0.352,0.361 0,0" /></g><g
           transform="translate(325.6821,395.334)"
           id="g46"><path
             id="path48"
             style="fill:#1b1817;fill-opacity:1;fill-rule:nonzero;stroke:none"
             d="m 0,0 c -0.147,-0.473 -0.825,-0.687 -1.509,-0.486 -0.683,0.207 -1.13,0.76 -0.992,1.238 0.142,0.476 0.824,0.7 1.513,0.485 C -0.306,1.031 0.142,0.481 0,0" /></g><g
           transform="translate(330.6245,394.9726)"
           id="g50"><path
             id="path52"
             style="fill:#1b1817;fill-opacity:1;fill-rule:nonzero;stroke:none"
             d="m 0,0 c 0.017,-0.498 -0.563,-0.911 -1.281,-0.92 -0.722,-0.016 -1.307,0.387 -1.315,0.877 0,0.503 0.568,0.911 1.289,0.924 C -0.589,0.895 0,0.494 0,0" /></g><g
           transform="translate(335.2231,395.7549)"
           id="g54"><path
             id="path56"
             style="fill:#1b1817;fill-opacity:1;fill-rule:nonzero;stroke:none"
             d="m 0,0 c 0.086,-0.485 -0.413,-0.984 -1.126,-1.117 -0.701,-0.129 -1.35,0.172 -1.439,0.653 -0.087,0.498 0.42,0.997 1.121,1.126 C -0.73,0.786 -0.091,0.494 0,0" /></g><g
           transform="translate(224.8979,499.4882)"
           id="g58"><path
             id="path60"
             style="fill:none;stroke:#3a7fc3;stroke-width:1;stroke-linecap:round;stroke-linejoin:miter;stroke-miterlimit:10;stroke-dasharray:none;stroke-opacity:1"
             d="M 0,0 V -0.5" /></g><g
           transform="translate(224.8979,496.9882)"
           id="g62"><path
             id="path64"
             style="fill:none;stroke:#3a7fc3;stroke-width:1;stroke-linecap:round;stroke-linejoin:miter;stroke-miterlimit:10;stroke-dasharray:1, 2;stroke-dashoffset:0;stroke-opacity:1"
             d="M 0,0 V -133.993" /></g><g
           transform="translate(224.8979,361.9951)"
           id="g66"><path
             id="path68"
             style="fill:none;stroke:#3a7fc3;stroke-width:1;stroke-linecap:round;stroke-linejoin:miter;stroke-miterlimit:10;stroke-dasharray:none;stroke-opacity:1"
             d="M 0,0 V -0.5" /></g><g
           transform="translate(133.2758,347.4795)"
           id="g70"><path
             id="path72"
             style="fill:#176fc1;fill-opacity:1;fill-rule:nonzero;stroke:none"
             d="m 0,0 c -0.38,0.276 -0.866,0.414 -1.458,0.414 -0.24,0 -0.476,-0.024 -0.708,-0.071 -0.232,-0.049 -0.438,-0.129 -0.618,-0.24 -0.18,-0.114 -0.324,-0.263 -0.432,-0.452 -0.108,-0.187 -0.162,-0.421 -0.162,-0.701 0,-0.264 0.078,-0.478 0.234,-0.642 0.156,-0.165 0.364,-0.298 0.624,-0.402 0.26,-0.104 0.554,-0.19 0.882,-0.259 0.328,-0.067 0.662,-0.141 1.002,-0.22 0.34,-0.08 0.674,-0.175 1.002,-0.284 C 0.694,-2.964 0.988,-3.11 1.248,-3.294 1.508,-3.478 1.716,-3.71 1.872,-3.989 2.028,-4.27 2.106,-4.622 2.106,-5.046 2.106,-5.502 2.004,-5.892 1.8,-6.216 1.596,-6.54 1.334,-6.804 1.014,-7.008 0.694,-7.212 0.336,-7.36 -0.06,-7.452 -0.456,-7.544 -0.85,-7.59 -1.242,-7.59 c -0.48,0 -0.934,0.06 -1.362,0.18 -0.428,0.12 -0.804,0.302 -1.128,0.546 -0.324,0.244 -0.58,0.556 -0.768,0.936 -0.188,0.38 -0.282,0.829 -0.282,1.35 h 1.08 c 0,-0.361 0.07,-0.67 0.21,-0.93 0.14,-0.261 0.324,-0.474 0.552,-0.642 0.228,-0.167 0.494,-0.292 0.798,-0.372 0.304,-0.081 0.616,-0.12 0.936,-0.12 0.256,0 0.514,0.024 0.774,0.073 0.26,0.047 0.494,0.129 0.702,0.246 0.208,0.115 0.376,0.273 0.504,0.472 0.128,0.201 0.192,0.457 0.192,0.769 0,0.296 -0.078,0.536 -0.234,0.72 -0.156,0.183 -0.364,0.334 -0.624,0.45 -0.26,0.116 -0.554,0.21 -0.882,0.282 -0.328,0.072 -0.662,0.147 -1.002,0.223 -0.34,0.075 -0.674,0.163 -1.002,0.263 -0.328,0.1 -0.622,0.232 -0.882,0.396 -0.26,0.164 -0.468,0.376 -0.624,0.636 -0.156,0.259 -0.234,0.586 -0.234,0.978 0,0.432 0.088,0.806 0.264,1.122 0.176,0.316 0.41,0.575 0.702,0.78 0.292,0.204 0.624,0.356 0.996,0.456 0.372,0.1 0.754,0.15 1.146,0.15 0.44,0 0.848,-0.053 1.224,-0.156 C 0.19,1.114 0.52,0.95 0.804,0.725 1.088,0.502 1.312,0.22 1.476,-0.12 1.64,-0.46 1.73,-0.866 1.746,-1.338 H 0.666 C 0.602,-0.722 0.38,-0.276 0,0" /></g><g
           transform="translate(137.5537,346.2851)"
           id="g74"><path
             id="path76"
             style="fill:#176fc1;fill-opacity:1;fill-rule:nonzero;stroke:none"
             d="m 0,0 v -0.912 h 0.024 c 0.464,0.705 1.132,1.057 2.004,1.057 0.384,0 0.732,-0.08 1.044,-0.241 0.312,-0.16 0.532,-0.431 0.66,-0.816 0.208,0.336 0.482,0.596 0.822,0.78 0.34,0.185 0.714,0.277 1.122,0.277 0.312,0 0.594,-0.035 0.846,-0.102 0.252,-0.068 0.468,-0.175 0.648,-0.318 0.18,-0.145 0.32,-0.33 0.42,-0.559 0.1,-0.227 0.15,-0.502 0.15,-0.822 V -6.203 H 6.72 v 4.067 c 0,0.193 -0.016,0.372 -0.048,0.54 -0.032,0.168 -0.092,0.315 -0.18,0.438 -0.088,0.125 -0.21,0.223 -0.366,0.295 -0.156,0.072 -0.358,0.107 -0.606,0.107 -0.504,0 -0.9,-0.143 -1.188,-0.431 C 4.044,-1.476 3.9,-1.859 3.9,-2.34 V -6.203 H 2.88 v 4.067 c 0,0.201 -0.018,0.384 -0.054,0.552 -0.036,0.168 -0.098,0.314 -0.186,0.438 -0.088,0.125 -0.206,0.22 -0.354,0.289 -0.148,0.068 -0.338,0.101 -0.57,0.101 -0.296,0 -0.55,-0.059 -0.762,-0.179 C 0.742,-1.056 0.57,-1.199 0.438,-1.367 0.306,-1.535 0.21,-1.709 0.15,-1.89 0.09,-2.07 0.06,-2.22 0.06,-2.34 V -6.203 H -0.96 V 0 Z" /></g><g
           transform="translate(150.1655,343.0761)"
           id="g78"><path
             id="path80"
             style="fill:#176fc1;fill-opacity:1;fill-rule:nonzero;stroke:none"
             d="m 0,0 c -0.208,-0.045 -0.426,-0.08 -0.654,-0.108 -0.228,-0.029 -0.458,-0.06 -0.69,-0.097 -0.232,-0.035 -0.44,-0.094 -0.624,-0.174 -0.184,-0.08 -0.334,-0.193 -0.45,-0.342 -0.116,-0.148 -0.174,-0.349 -0.174,-0.605 0,-0.168 0.034,-0.311 0.102,-0.426 0.068,-0.117 0.156,-0.211 0.264,-0.283 0.108,-0.071 0.236,-0.123 0.384,-0.155 0.148,-0.033 0.298,-0.048 0.45,-0.048 0.336,0 0.624,0.045 0.864,0.137 0.24,0.092 0.436,0.208 0.588,0.349 0.152,0.139 0.264,0.291 0.336,0.455 0.072,0.164 0.108,0.318 0.108,0.463 V 0.209 C 0.376,0.113 0.208,0.043 0,0 m 1.428,-3.127 c -0.264,0 -0.474,0.074 -0.63,0.223 -0.156,0.147 -0.234,0.389 -0.234,0.725 -0.28,-0.336 -0.606,-0.578 -0.978,-0.725 -0.372,-0.149 -0.774,-0.223 -1.206,-0.223 -0.28,0 -0.544,0.03 -0.792,0.09 -0.248,0.06 -0.466,0.16 -0.654,0.301 -0.188,0.139 -0.336,0.319 -0.444,0.539 -0.108,0.22 -0.162,0.486 -0.162,0.799 0,0.351 0.06,0.639 0.18,0.863 0.12,0.224 0.278,0.406 0.474,0.547 0.196,0.139 0.42,0.246 0.672,0.318 0.252,0.071 0.51,0.131 0.774,0.18 0.28,0.055 0.546,0.097 0.798,0.125 0.252,0.028 0.474,0.068 0.666,0.121 0.192,0.051 0.344,0.127 0.456,0.227 0.112,0.101 0.168,0.246 0.168,0.439 0,0.223 -0.042,0.403 -0.126,0.539 -0.084,0.137 -0.192,0.24 -0.324,0.312 -0.132,0.073 -0.28,0.121 -0.444,0.145 -0.164,0.023 -0.326,0.035 -0.486,0.035 -0.432,0 -0.792,-0.082 -1.08,-0.246 -0.288,-0.164 -0.444,-0.474 -0.468,-0.93 h -1.02 c 0.016,0.384 0.096,0.708 0.24,0.973 0.144,0.264 0.336,0.478 0.576,0.642 0.24,0.163 0.516,0.282 0.828,0.354 0.312,0.071 0.64,0.108 0.984,0.108 0.28,0 0.558,-0.02 0.834,-0.061 C 0.306,3.254 0.556,3.172 0.78,3.047 1.004,2.924 1.184,2.749 1.32,2.525 1.456,2.301 1.524,2.01 1.524,1.649 v -3.192 c 0,-0.24 0.014,-0.416 0.042,-0.527 0.028,-0.113 0.122,-0.168 0.282,-0.168 0.088,0 0.192,0.019 0.312,0.059 V -2.971 C 1.984,-3.074 1.74,-3.127 1.428,-3.127" /></g><path
           id="path82"
           style="fill:#176fc1;fill-opacity:1;fill-rule:nonzero;stroke:none"
           d="m 154.354,340.082 h -1.02 v 8.567 h 1.02 z" /><path
           id="path84"
           style="fill:#176fc1;fill-opacity:1;fill-rule:nonzero;stroke:none"
           d="m 157.017,340.082 h -1.02 v 8.567 h 1.02 z" /><g
           transform="translate(101.854,330.9863)"
           id="g86"><path
             id="path88"
             style="fill:#176fc1;fill-opacity:1;fill-rule:nonzero;stroke:none"
             d="m 0,0 v 0.899 h 1.044 v 0.924 c 0,0.504 0.146,0.886 0.438,1.146 0.292,0.26 0.718,0.39 1.278,0.39 0.096,0 0.206,-0.007 0.33,-0.023 C 3.214,3.319 3.324,3.295 3.42,3.264 V 2.375 C 3.332,2.407 3.236,2.43 3.132,2.441 3.028,2.453 2.932,2.459 2.844,2.459 2.596,2.459 2.404,2.411 2.268,2.315 2.132,2.219 2.064,2.035 2.064,1.764 V 0.899 h 1.2 V 0 h -1.2 V -5.305 H 1.044 V 0 Z" /></g><g
           transform="translate(106.9238,327.7754)"
           id="g90"><path
             id="path92"
             style="fill:#176fc1;fill-opacity:1;fill-rule:nonzero;stroke:none"
             d="m 0,0 c 0.1,-0.292 0.238,-0.535 0.414,-0.732 0.176,-0.196 0.382,-0.346 0.618,-0.45 0.236,-0.103 0.486,-0.156 0.75,-0.156 0.264,0 0.514,0.053 0.75,0.156 0.236,0.104 0.442,0.254 0.618,0.45 0.176,0.197 0.314,0.44 0.414,0.732 0.1,0.292 0.15,0.626 0.15,1.002 0,0.377 -0.05,0.71 -0.15,1.002 C 3.464,2.297 3.326,2.542 3.15,2.742 2.974,2.941 2.768,3.094 2.532,3.198 2.296,3.303 2.046,3.355 1.782,3.355 1.518,3.355 1.268,3.303 1.032,3.198 0.796,3.094 0.59,2.941 0.414,2.742 0.238,2.542 0.1,2.297 0,2.004 -0.1,1.712 -0.15,1.379 -0.15,1.002 -0.15,0.626 -0.1,0.292 0,0 m -1.038,2.28 c 0.128,0.396 0.32,0.74 0.576,1.033 0.256,0.291 0.572,0.521 0.948,0.689 0.376,0.168 0.808,0.252 1.296,0.252 0.496,0 0.93,-0.084 1.302,-0.252 C 3.456,3.834 3.77,3.604 4.026,3.313 4.282,3.02 4.474,2.676 4.602,2.28 4.73,1.885 4.794,1.458 4.794,1.002 4.794,0.547 4.73,0.122 4.602,-0.27 4.474,-0.662 4.282,-1.004 4.026,-1.296 3.77,-1.588 3.456,-1.816 3.084,-1.98 2.712,-2.144 2.278,-2.226 1.782,-2.226 c -0.488,0 -0.92,0.082 -1.296,0.246 -0.376,0.164 -0.692,0.392 -0.948,0.684 -0.256,0.292 -0.448,0.634 -0.576,1.026 -0.128,0.392 -0.192,0.817 -0.192,1.272 0,0.456 0.064,0.883 0.192,1.278" /></g><g
           transform="translate(113.8417,331.8857)"
           id="g94"><path
             id="path96"
             style="fill:#176fc1;fill-opacity:1;fill-rule:nonzero;stroke:none"
             d="m 0,0 v -1.308 h 0.024 c 0.248,0.504 0.552,0.875 0.912,1.116 0.36,0.24 0.816,0.351 1.368,0.336 V -0.937 C 1.896,-0.937 1.548,-0.992 1.26,-1.105 0.972,-1.216 0.74,-1.38 0.564,-1.597 0.388,-1.812 0.26,-2.074 0.18,-2.382 0.1,-2.69 0.06,-3.044 0.06,-3.444 v -2.76 H -0.96 V 0 Z" /></g><g
           transform="translate(122.7333,325.6816)"
           id="g98"><path
             id="path100"
             style="fill:#176fc1;fill-opacity:1;fill-rule:nonzero;stroke:none"
             d="m 0,0 v 6.096 h -2.208 v 0.816 c 0.288,0 0.568,0.022 0.84,0.066 0.272,0.043 0.518,0.125 0.738,0.247 0.22,0.119 0.406,0.283 0.558,0.491 C 0.08,7.924 0.184,8.188 0.24,8.508 H 1.02 L 1.02,0 Z" /></g><g
           transform="translate(128.8295,330.1035)"
           id="g102"><path
             id="path104"
             style="fill:#176fc1;fill-opacity:1;fill-rule:nonzero;stroke:none"
             d="m 0,0 c -0.216,-0.1 -0.4,-0.236 -0.552,-0.408 -0.152,-0.172 -0.266,-0.376 -0.341,-0.611 -0.077,-0.237 -0.115,-0.487 -0.115,-0.75 0,-0.264 0.04,-0.512 0.12,-0.745 0.08,-0.232 0.194,-0.431 0.342,-0.599 0.148,-0.168 0.332,-0.303 0.552,-0.403 0.22,-0.1 0.47,-0.15 0.75,-0.15 0.28,0 0.526,0.05 0.738,0.15 0.212,0.1 0.39,0.239 0.534,0.414 0.144,0.176 0.254,0.378 0.33,0.606 0.076,0.228 0.114,0.467 0.114,0.715 0,0.263 -0.034,0.513 -0.102,0.75 C 2.302,-0.796 2.196,-0.592 2.052,-0.42 1.908,-0.248 1.728,-0.109 1.512,-0.006 1.296,0.098 1.044,0.15 0.756,0.15 0.468,0.15 0.216,0.1 0,0 M 1.848,2.838 C 1.6,3.07 1.272,3.186 0.864,3.186 0.432,3.186 0.084,3.08 -0.18,2.868 -0.444,2.656 -0.65,2.389 -0.798,2.064 -0.946,1.74 -1.048,1.391 -1.104,1.014 -1.16,0.639 -1.192,0.286 -1.2,-0.042 l 0.024,-0.024 c 0.24,0.392 0.538,0.675 0.894,0.852 0.356,0.176 0.766,0.265 1.23,0.265 0.408,0 0.774,-0.07 1.098,-0.211 C 2.37,0.7 2.642,0.506 2.862,0.258 3.082,0.01 3.253,-0.281 3.372,-0.617 3.492,-0.954 3.552,-1.318 3.552,-1.71 3.552,-2.021 3.504,-2.346 3.408,-2.682 3.312,-3.018 3.154,-3.324 2.934,-3.6 2.714,-3.876 2.422,-4.103 2.058,-4.283 1.694,-4.464 1.244,-4.554 0.708,-4.554 c -0.632,0 -1.14,0.128 -1.524,0.384 -0.384,0.256 -0.68,0.584 -0.888,0.984 -0.208,0.4 -0.346,0.84 -0.414,1.321 -0.068,0.479 -0.102,0.943 -0.102,1.391 0,0.583 0.05,1.15 0.15,1.699 0.1,0.547 0.27,1.033 0.511,1.457 C -1.32,3.106 -1,3.445 -0.6,3.702 -0.2,3.958 0.304,4.086 0.912,4.086 1.616,4.086 2.176,3.9 2.592,3.528 3.008,3.156 3.248,2.618 3.312,1.914 H 2.292 C 2.244,2.299 2.096,2.606 1.848,2.838" /></g><g
           transform="translate(138.3159,329.6836)"
           id="g106"><path
             id="path108"
             style="fill:#176fc1;fill-opacity:1;fill-rule:nonzero;stroke:none"
             d="m 0,0 c -0.076,0.275 -0.192,0.521 -0.348,0.738 -0.156,0.216 -0.356,0.388 -0.6,0.516 -0.244,0.128 -0.531,0.192 -0.858,0.192 -0.344,0 -0.636,-0.068 -0.876,-0.204 -0.24,-0.137 -0.436,-0.314 -0.588,-0.534 -0.152,-0.22 -0.262,-0.47 -0.33,-0.75 -0.069,-0.28 -0.102,-0.563 -0.102,-0.853 0,-0.303 0.036,-0.597 0.108,-0.88 0.071,-0.286 0.186,-0.536 0.341,-0.75 0.157,-0.217 0.358,-0.391 0.607,-0.523 0.247,-0.132 0.548,-0.198 0.9,-0.198 0.351,0 0.646,0.068 0.882,0.204 0.236,0.136 0.425,0.315 0.569,0.54 0.145,0.224 0.249,0.481 0.312,0.768 0.064,0.289 0.097,0.584 0.097,0.888 C 0.114,-0.559 0.076,-0.275 0,0 M -3.666,2.202 V 1.361 h 0.024 c 0.168,0.345 0.431,0.595 0.792,0.75 0.36,0.157 0.756,0.235 1.188,0.235 0.48,0 0.898,-0.088 1.254,-0.264 C -0.052,1.906 0.244,1.668 0.48,1.368 0.716,1.068 0.893,0.722 1.014,0.33 c 0.12,-0.392 0.18,-0.809 0.18,-1.248 0,-0.439 -0.058,-0.855 -0.175,-1.248 C 0.904,-2.559 0.727,-2.9 0.492,-3.191 0.256,-3.484 -0.041,-3.714 -0.396,-3.882 -0.753,-4.05 -1.167,-4.134 -1.638,-4.134 c -0.153,0 -0.323,0.017 -0.511,0.048 -0.188,0.032 -0.374,0.084 -0.557,0.156 -0.184,0.073 -0.359,0.17 -0.522,0.294 -0.164,0.124 -0.302,0.279 -0.414,0.462 h -0.024 v -3.191 h -1.02 v 8.567 z" /></g><g
           transform="translate(140.2172,331.8857)"
           id="g110"><path
             id="path112"
             style="fill:#176fc1;fill-opacity:1;fill-rule:nonzero;stroke:none"
             d="M 0,0 H 1.308 L 2.796,-2.172 4.344,0 h 1.224 l -2.136,-2.856 2.4,-3.348 H 4.524 L 2.796,-3.636 1.068,-6.204 H -0.168 L 2.16,-2.94 Z" /></g><path
           id="path114"
           style="fill:#176fc1;fill-opacity:1;fill-rule:nonzero;stroke:none"
           d="m 150.225,328.537 h -3.468 v 0.961 h 3.468 z" /><g
           transform="translate(154.0771,325.6816)"
           id="g116"><path
             id="path118"
             style="fill:#176fc1;fill-opacity:1;fill-rule:nonzero;stroke:none"
             d="m 0,0 v 6.096 h -2.208 v 0.816 c 0.288,0 0.568,0.022 0.84,0.066 0.272,0.043 0.518,0.125 0.738,0.247 0.22,0.119 0.406,0.283 0.558,0.491 C 0.08,7.924 0.184,8.188 0.24,8.508 H 1.02 L 1.02,0 Z" /></g><g
           transform="translate(158.1572,332.3769)"
           id="g120"><path
             id="path122"
             style="fill:#176fc1;fill-opacity:1;fill-rule:nonzero;stroke:none"
             d="m 0,0 c 0.112,0.369 0.286,0.686 0.522,0.955 0.236,0.268 0.53,0.478 0.882,0.629 0.352,0.152 0.752,0.228 1.2,0.228 0.368,0 0.714,-0.053 1.038,-0.162 C 3.966,1.543 4.248,1.387 4.488,1.183 4.728,0.979 4.918,0.725 5.058,0.421 5.198,0.117 5.268,-0.235 5.268,-0.635 5.268,-1.012 5.21,-1.344 5.094,-1.631 4.977,-1.92 4.824,-2.178 4.632,-2.405 4.44,-2.633 4.22,-2.84 3.972,-3.023 3.724,-3.207 3.468,-3.383 3.204,-3.551 2.94,-3.711 2.676,-3.869 2.412,-4.025 2.148,-4.182 1.906,-4.348 1.686,-4.523 1.466,-4.699 1.278,-4.889 1.122,-5.094 0.966,-5.297 0.864,-5.531 0.816,-5.795 h 4.368 v -0.9 h -5.556 c 0.04,0.504 0.13,0.933 0.27,1.29 0.14,0.356 0.318,0.666 0.534,0.93 0.216,0.264 0.46,0.496 0.732,0.696 0.272,0.199 0.556,0.387 0.852,0.564 0.36,0.224 0.676,0.43 0.948,0.617 0.272,0.188 0.498,0.379 0.678,0.571 0.18,0.191 0.316,0.4 0.408,0.624 0.092,0.223 0.138,0.483 0.138,0.78 0,0.231 -0.045,0.441 -0.132,0.63 C 3.968,0.194 3.85,0.357 3.702,0.492 3.554,0.629 3.38,0.732 3.18,0.805 2.98,0.877 2.768,0.912 2.544,0.912 2.247,0.912 1.994,0.851 1.782,0.727 1.57,0.603 1.396,0.441 1.26,0.24 1.124,0.041 1.026,-0.185 0.966,-0.437 0.906,-0.689 0.88,-0.943 0.888,-1.199 h -1.02 C -0.156,-0.768 -0.112,-0.367 0,0" /></g><g
           transform="translate(165.7832,328.7949)"
           id="g124"><path
             id="path126"
             style="fill:#176fc1;fill-opacity:1;fill-rule:nonzero;stroke:none"
             d="m 0,0 c 0.02,-0.395 0.084,-0.768 0.192,-1.115 0.108,-0.348 0.282,-0.643 0.522,-0.882 0.24,-0.24 0.576,-0.36 1.008,-0.36 0.432,0 0.768,0.12 1.008,0.36 0.24,0.239 0.414,0.534 0.522,0.882 0.108,0.347 0.172,0.72 0.192,1.115 0.02,0.397 0.03,0.755 0.03,1.074 0,0.209 -0.002,0.439 -0.006,0.691 C 3.464,2.017 3.444,2.268 3.408,2.521 3.372,2.773 3.32,3.018 3.252,3.259 3.184,3.498 3.084,3.709 2.952,3.889 2.82,4.068 2.654,4.215 2.454,4.326 2.254,4.439 2.01,4.494 1.722,4.494 1.434,4.494 1.19,4.439 0.99,4.326 0.79,4.215 0.624,4.068 0.492,3.889 0.36,3.709 0.26,3.498 0.192,3.259 0.124,3.018 0.072,2.773 0.036,2.521 0,2.268 -0.02,2.017 -0.024,1.765 -0.028,1.513 -0.03,1.283 -0.03,1.074 -0.03,0.755 -0.02,0.397 0,0 m -1.086,2.035 c 0.016,0.336 0.056,0.664 0.12,0.983 0.064,0.32 0.156,0.625 0.276,0.913 0.12,0.288 0.284,0.54 0.492,0.756 C 0.01,4.902 0.272,5.074 0.588,5.203 0.904,5.33 1.282,5.395 1.722,5.395 2.162,5.395 2.54,5.33 2.856,5.203 3.172,5.074 3.434,4.902 3.642,4.687 3.85,4.471 4.014,4.219 4.134,3.931 4.254,3.643 4.346,3.338 4.41,3.018 4.474,2.699 4.514,2.371 4.53,2.035 4.546,1.699 4.554,1.375 4.554,1.062 4.554,0.75 4.546,0.427 4.53,0.091 4.514,-0.245 4.474,-0.573 4.41,-0.893 4.346,-1.213 4.254,-1.516 4.134,-1.799 4.014,-2.084 3.85,-2.334 3.642,-2.549 3.434,-2.766 3.174,-2.936 2.862,-3.059 2.55,-3.184 2.17,-3.245 1.722,-3.245 c -0.44,0 -0.818,0.061 -1.134,0.186 -0.316,0.123 -0.578,0.293 -0.786,0.51 -0.208,0.215 -0.372,0.465 -0.492,0.75 -0.12,0.283 -0.212,0.586 -0.276,0.906 -0.064,0.32 -0.104,0.648 -0.12,0.984 -0.016,0.336 -0.024,0.659 -0.024,0.971 0,0.313 0.008,0.637 0.024,0.973" /></g><g
           transform="translate(176.3315,329.6836)"
           id="g128"><path
             id="path130"
             style="fill:#176fc1;fill-opacity:1;fill-rule:nonzero;stroke:none"
             d="m 0,0 c -0.076,0.275 -0.192,0.521 -0.348,0.738 -0.156,0.216 -0.356,0.388 -0.6,0.516 -0.244,0.128 -0.531,0.192 -0.858,0.192 -0.344,0 -0.636,-0.068 -0.876,-0.204 -0.24,-0.137 -0.436,-0.314 -0.588,-0.534 -0.152,-0.22 -0.262,-0.47 -0.33,-0.75 -0.069,-0.28 -0.102,-0.563 -0.102,-0.853 0,-0.303 0.036,-0.597 0.108,-0.88 0.071,-0.286 0.186,-0.536 0.342,-0.75 0.156,-0.217 0.357,-0.391 0.606,-0.523 0.248,-0.132 0.548,-0.198 0.9,-0.198 0.351,0 0.646,0.068 0.882,0.204 0.236,0.136 0.425,0.315 0.57,0.54 0.144,0.224 0.248,0.481 0.312,0.768 0.063,0.289 0.096,0.584 0.096,0.888 C 0.114,-0.559 0.076,-0.275 0,0 M -3.666,2.202 V 1.361 h 0.024 c 0.168,0.345 0.431,0.595 0.792,0.75 0.36,0.157 0.756,0.235 1.188,0.235 0.48,0 0.898,-0.088 1.254,-0.264 C -0.052,1.906 0.244,1.668 0.48,1.368 0.716,1.068 0.893,0.722 1.014,0.33 1.134,-0.062 1.194,-0.479 1.194,-0.918 1.194,-1.357 1.136,-1.773 1.02,-2.166 0.904,-2.559 0.727,-2.9 0.492,-3.191 0.256,-3.484 -0.04,-3.714 -0.396,-3.882 -0.752,-4.05 -1.167,-4.134 -1.638,-4.134 c -0.152,0 -0.323,0.017 -0.51,0.048 -0.188,0.032 -0.375,0.084 -0.558,0.156 -0.184,0.073 -0.358,0.17 -0.522,0.294 -0.164,0.124 -0.302,0.279 -0.414,0.462 h -0.024 v -3.191 h -1.02 v 8.567 z" /></g><g
           transform="translate(178.2329,331.8857)"
           id="g132"><path
             id="path134"
             style="fill:#176fc1;fill-opacity:1;fill-rule:nonzero;stroke:none"
             d="M 0,0 H 1.308 L 2.796,-2.172 4.344,0 h 1.224 l -2.136,-2.856 2.4,-3.348 H 4.524 L 2.796,-3.636 1.068,-6.204 H -0.168 L 2.16,-2.94 Z" /></g><g
           transform="translate(335.6333,348.6504)"
           id="g136"><path
             id="path138"
             style="fill:#176fc1;fill-opacity:1;fill-rule:nonzero;stroke:none"
             d="M 0,0 V -7.607 H 4.536 V -8.568 H -1.14 l 0,8.568 z" /></g><g
           transform="translate(344.3334,343.0761)"
           id="g140"><path
             id="path142"
             style="fill:#176fc1;fill-opacity:1;fill-rule:nonzero;stroke:none"
             d="m 0,0 c -0.209,-0.044 -0.426,-0.08 -0.654,-0.107 -0.229,-0.029 -0.459,-0.061 -0.691,-0.096 -0.231,-0.037 -0.44,-0.095 -0.624,-0.174 -0.183,-0.08 -0.334,-0.195 -0.449,-0.343 -0.117,-0.147 -0.174,-0.35 -0.174,-0.606 0,-0.168 0.034,-0.31 0.102,-0.426 0.067,-0.115 0.156,-0.209 0.264,-0.281 0.107,-0.072 0.236,-0.125 0.384,-0.156 0.148,-0.033 0.297,-0.049 0.45,-0.049 0.335,0 0.624,0.047 0.864,0.138 0.239,0.092 0.435,0.208 0.588,0.348 0.151,0.141 0.264,0.293 0.336,0.457 0.071,0.163 0.108,0.317 0.108,0.461 V 0.211 C 0.375,0.114 0.207,0.045 0,0 m 1.428,-3.125 c -0.264,0 -0.475,0.073 -0.631,0.221 -0.155,0.148 -0.233,0.39 -0.233,0.726 -0.281,-0.336 -0.607,-0.578 -0.978,-0.726 -0.373,-0.148 -0.774,-0.221 -1.207,-0.221 -0.279,0 -0.543,0.029 -0.791,0.09 -0.248,0.059 -0.467,0.16 -0.654,0.299 -0.188,0.14 -0.336,0.32 -0.444,0.541 -0.109,0.219 -0.162,0.486 -0.162,0.798 0,0.351 0.06,0.639 0.18,0.864 0.119,0.223 0.277,0.405 0.474,0.545 0.196,0.14 0.419,0.246 0.671,0.318 0.252,0.072 0.511,0.133 0.775,0.18 0.279,0.056 0.546,0.098 0.798,0.127 0.252,0.027 0.473,0.067 0.666,0.119 0.192,0.053 0.343,0.129 0.456,0.228 0.111,0.1 0.168,0.246 0.168,0.438 0,0.224 -0.042,0.404 -0.126,0.541 C 0.306,2.098 0.197,2.202 0.066,2.274 -0.066,2.346 -0.215,2.395 -0.379,2.418 -0.543,2.442 -0.705,2.455 -0.864,2.455 -1.297,2.455 -1.656,2.372 -1.944,2.209 -2.232,2.045 -2.389,1.734 -2.412,1.278 h -1.021 c 0.017,0.384 0.097,0.708 0.241,0.972 0.143,0.264 0.336,0.479 0.575,0.643 0.24,0.164 0.517,0.281 0.828,0.353 0.313,0.072 0.641,0.108 0.984,0.108 0.281,0 0.559,-0.02 0.834,-0.059 C 0.306,3.254 0.556,3.172 0.779,3.049 1.004,2.924 1.184,2.75 1.319,2.526 1.455,2.303 1.524,2.01 1.524,1.65 v -3.191 c 0,-0.24 0.013,-0.416 0.042,-0.529 0.028,-0.112 0.122,-0.168 0.282,-0.168 0.088,0 0.191,0.02 0.312,0.06 V -2.97 C 1.983,-3.074 1.74,-3.125 1.428,-3.125" /></g><g
           transform="translate(348.3647,346.2871)"
           id="g144"><path
             id="path146"
             style="fill:#176fc1;fill-opacity:1;fill-rule:nonzero;stroke:none"
             d="m 0,0 v -1.309 h 0.023 c 0.249,0.504 0.553,0.876 0.913,1.117 0.36,0.239 0.816,0.351 1.369,0.335 v -1.08 C 1.897,-0.937 1.549,-0.992 1.26,-1.105 0.973,-1.217 0.74,-1.381 0.565,-1.597 0.389,-1.812 0.26,-2.074 0.18,-2.383 0.1,-2.691 0.061,-3.045 0.061,-3.445 v -2.76 H -0.96 V 0 Z" /></g><g
           transform="translate(354.4545,341.1211)"
           id="g148"><path
             id="path150"
             style="fill:#176fc1;fill-opacity:1;fill-rule:nonzero;stroke:none"
             d="M 0,0 C 0.236,0.139 0.426,0.323 0.57,0.551 0.715,0.779 0.82,1.037 0.889,1.325 0.956,1.613 0.99,1.901 0.99,2.189 0.99,2.461 0.959,2.729 0.895,2.994 0.83,3.258 0.729,3.496 0.588,3.707 0.448,3.92 0.266,4.09 0.043,4.217 -0.182,4.346 -0.453,4.41 -0.773,4.41 -1.102,4.41 -1.382,4.348 -1.613,4.224 -1.846,4.1 -2.035,3.934 -2.184,3.725 -2.332,3.518 -2.439,3.277 -2.508,3.006 -2.576,2.733 -2.609,2.449 -2.609,2.153 c 0,-0.28 0.027,-0.559 0.084,-0.84 0.055,-0.28 0.152,-0.534 0.287,-0.762 0.136,-0.228 0.316,-0.412 0.541,-0.551 0.223,-0.141 0.504,-0.211 0.84,-0.211 0.336,0 0.621,0.07 0.857,0.211 M 1.303,-2.791 C 0.838,-3.295 0.11,-3.547 -0.881,-3.547 c -0.289,0 -0.582,0.032 -0.883,0.096 -0.299,0.064 -0.572,0.168 -0.816,0.312 -0.244,0.145 -0.445,0.332 -0.606,0.565 -0.16,0.232 -0.248,0.515 -0.263,0.851 h 1.019 c 0.008,-0.183 0.067,-0.34 0.174,-0.467 0.109,-0.128 0.24,-0.232 0.397,-0.312 0.156,-0.08 0.326,-0.139 0.509,-0.175 0.184,-0.036 0.36,-0.053 0.528,-0.053 0.337,0 0.621,0.058 0.852,0.173 0.232,0.117 0.425,0.276 0.576,0.481 0.152,0.203 0.262,0.449 0.331,0.738 0.067,0.287 0.102,0.604 0.102,0.947 V 0.018 H 1.015 C 0.838,-0.367 0.572,-0.648 0.217,-0.828 -0.14,-1.009 -0.518,-1.099 -0.918,-1.099 c -0.464,0 -0.867,0.084 -1.211,0.252 -0.345,0.168 -0.633,0.394 -0.865,0.679 -0.231,0.283 -0.406,0.615 -0.522,0.996 -0.116,0.379 -0.173,0.781 -0.173,1.205 0,0.368 0.047,0.746 0.144,1.135 0.096,0.387 0.256,0.739 0.48,1.056 0.223,0.315 0.52,0.575 0.887,0.78 0.368,0.203 0.821,0.306 1.356,0.306 0.392,0 0.752,-0.087 1.08,-0.259 0.328,-0.172 0.584,-0.43 0.768,-0.774 h 0.013 v 0.889 h 0.959 v -5.677 c 0,-1.015 -0.232,-1.776 -0.695,-2.28" /></g><g
           transform="translate(362.1342,344.4629)"
           id="g152"><path
             id="path154"
             style="fill:#176fc1;fill-opacity:1;fill-rule:nonzero;stroke:none"
             d="M 0,0 C -0.092,0.216 -0.215,0.402 -0.371,0.558 -0.527,0.714 -0.712,0.838 -0.924,0.93 -1.136,1.021 -1.369,1.068 -1.625,1.068 -1.89,1.068 -2.128,1.021 -2.34,0.93 -2.552,0.838 -2.734,0.711 -2.886,0.552 -3.037,0.392 -3.158,0.205 -3.246,-0.006 -3.334,-0.219 -3.386,-0.444 -3.401,-0.685 H 0.162 C 0.147,-0.444 0.092,-0.217 0,0 m 0.246,-3.984 c -0.464,-0.352 -1.048,-0.528 -1.752,-0.528 -0.496,0 -0.926,0.08 -1.289,0.24 -0.365,0.16 -0.671,0.383 -0.918,0.671 -0.248,0.288 -0.434,0.632 -0.558,1.033 -0.125,0.4 -0.195,0.836 -0.21,1.308 0,0.471 0.071,0.904 0.215,1.295 0.145,0.393 0.346,0.733 0.606,1.021 0.26,0.288 0.568,0.511 0.925,0.672 0.355,0.16 0.745,0.24 1.17,0.24 0.551,0 1.009,-0.114 1.374,-0.343 C 0.172,1.397 0.465,1.107 0.685,0.756 0.904,0.403 1.057,0.02 1.141,-0.396 1.225,-0.812 1.258,-1.209 1.242,-1.584 h -4.643 c -0.009,-0.272 0.024,-0.53 0.095,-0.774 0.073,-0.245 0.189,-0.46 0.349,-0.648 0.159,-0.188 0.363,-0.338 0.611,-0.451 0.248,-0.111 0.54,-0.168 0.876,-0.168 0.433,0 0.786,0.1 1.062,0.301 0.277,0.199 0.459,0.504 0.547,0.912 H 1.147 C 1.01,-3.108 0.711,-3.633 0.246,-3.984" /></g><g
           transform="translate(365.3569,346.2871)"
           id="g156"><path
             id="path158"
             style="fill:#176fc1;fill-opacity:1;fill-rule:nonzero;stroke:none"
             d="m 0,0 v -1.309 h 0.023 c 0.248,0.504 0.553,0.876 0.912,1.117 0.36,0.239 0.817,0.351 1.369,0.335 v -1.08 C 1.895,-0.937 1.548,-0.992 1.26,-1.105 0.972,-1.217 0.739,-1.381 0.563,-1.597 0.388,-1.812 0.26,-2.074 0.18,-2.383 0.1,-2.691 0.06,-3.045 0.06,-3.445 v -2.76 H -0.961 V 0 Z" /></g><g
           transform="translate(318.2573,330.9863)"
           id="g160"><path
             id="path162"
             style="fill:#176fc1;fill-opacity:1;fill-rule:nonzero;stroke:none"
             d="m 0,0 v 0.9 h 1.044 v 0.924 c 0,0.504 0.145,0.887 0.438,1.147 C 1.773,3.23 2.199,3.36 2.76,3.36 2.855,3.36 2.966,3.352 3.09,3.336 3.214,3.32 3.324,3.297 3.42,3.264 V 2.377 C 3.332,2.408 3.236,2.43 3.132,2.442 3.027,2.454 2.932,2.461 2.844,2.461 2.596,2.461 2.404,2.412 2.268,2.316 2.132,2.221 2.064,2.036 2.064,1.764 V 0.9 h 1.2 V 0 h -1.2 V -5.304 H 1.044 V 0 Z" /></g><g
           transform="translate(323.3276,327.7773)"
           id="g164"><path
             id="path166"
             style="fill:#176fc1;fill-opacity:1;fill-rule:nonzero;stroke:none"
             d="m 0,0 c 0.1,-0.293 0.237,-0.537 0.414,-0.732 0.176,-0.197 0.381,-0.346 0.617,-0.451 0.237,-0.104 0.487,-0.156 0.75,-0.156 0.264,0 0.514,0.052 0.75,0.156 0.237,0.105 0.442,0.254 0.618,0.451 0.176,0.195 0.314,0.439 0.415,0.732 0.1,0.291 0.149,0.625 0.149,1.002 0,0.375 -0.049,0.709 -0.149,1.002 C 3.463,2.295 3.325,2.541 3.149,2.741 2.973,2.941 2.768,3.094 2.531,3.197 2.295,3.301 2.045,3.353 1.781,3.353 1.518,3.353 1.268,3.301 1.031,3.197 0.795,3.094 0.59,2.941 0.414,2.741 0.237,2.541 0.1,2.295 0,2.004 -0.101,1.711 -0.15,1.377 -0.15,1.002 -0.15,0.625 -0.101,0.291 0,0 m -1.039,2.279 c 0.129,0.397 0.32,0.741 0.576,1.032 0.256,0.292 0.572,0.523 0.948,0.691 0.376,0.168 0.808,0.252 1.296,0.252 0.496,0 0.93,-0.084 1.303,-0.252 C 3.455,3.834 3.77,3.603 4.025,3.311 4.281,3.02 4.473,2.676 4.602,2.279 4.73,1.883 4.793,1.457 4.793,1.002 4.793,0.545 4.73,0.121 4.602,-0.271 4.473,-0.662 4.281,-1.005 4.025,-1.297 3.77,-1.589 3.455,-1.816 3.084,-1.98 2.711,-2.145 2.277,-2.227 1.781,-2.227 c -0.488,0 -0.92,0.082 -1.296,0.247 -0.376,0.164 -0.692,0.391 -0.948,0.683 -0.256,0.292 -0.447,0.635 -0.576,1.026 -0.127,0.392 -0.191,0.816 -0.191,1.273 0,0.455 0.064,0.881 0.191,1.277" /></g><g
           transform="translate(330.2456,331.8867)"
           id="g168"><path
             id="path170"
             style="fill:#176fc1;fill-opacity:1;fill-rule:nonzero;stroke:none"
             d="m 0,0 v -1.309 h 0.023 c 0.248,0.504 0.553,0.877 0.913,1.118 0.359,0.239 0.816,0.351 1.368,0.336 V -0.936 C 1.896,-0.936 1.548,-0.992 1.26,-1.103 0.972,-1.217 0.739,-1.38 0.563,-1.596 0.388,-1.812 0.26,-2.074 0.18,-2.383 0.1,-2.689 0.06,-3.044 0.06,-3.444 v -2.76 H -0.961 V 0 Z" /></g><g
           transform="translate(339.1362,325.6826)"
           id="g172"><path
             id="path174"
             style="fill:#176fc1;fill-opacity:1;fill-rule:nonzero;stroke:none"
             d="m 0,0 v 6.097 h -2.207 v 0.815 c 0.287,0 0.567,0.023 0.84,0.066 0.271,0.044 0.517,0.127 0.738,0.246 0.219,0.121 0.405,0.284 0.558,0.492 C 0.08,7.924 0.185,8.189 0.24,8.508 H 1.02 V 0 Z" /></g><g
           transform="translate(343.2172,332.3789)"
           id="g176"><path
             id="path178"
             style="fill:#176fc1;fill-opacity:1;fill-rule:nonzero;stroke:none"
             d="M 0,0 C 0.112,0.367 0.286,0.685 0.522,0.953 0.758,1.222 1.052,1.432 1.403,1.584 1.756,1.735 2.155,1.811 2.604,1.811 2.972,1.811 3.317,1.758 3.642,1.65 3.966,1.541 4.248,1.386 4.487,1.182 4.728,0.978 4.918,0.724 5.058,0.42 5.198,0.115 5.269,-0.236 5.269,-0.637 5.269,-1.012 5.21,-1.344 5.094,-1.633 4.978,-1.92 4.823,-2.178 4.632,-2.406 4.44,-2.635 4.22,-2.84 3.972,-3.024 3.724,-3.209 3.468,-3.385 3.204,-3.553 2.94,-3.713 2.676,-3.87 2.411,-4.026 2.147,-4.182 1.905,-4.349 1.687,-4.524 1.466,-4.7 1.278,-4.891 1.122,-5.094 0.966,-5.299 0.864,-5.532 0.815,-5.797 h 4.37 v -0.899 h -5.557 c 0.04,0.504 0.13,0.934 0.269,1.29 0.141,0.355 0.319,0.666 0.535,0.929 0.215,0.264 0.46,0.497 0.732,0.697 0.272,0.2 0.556,0.387 0.852,0.563 0.36,0.225 0.676,0.431 0.948,0.619 0.271,0.188 0.498,0.377 0.678,0.57 0.179,0.192 0.316,0.399 0.408,0.624 0.092,0.224 0.139,0.484 0.139,0.779 0,0.232 -0.045,0.443 -0.133,0.631 C 3.968,0.193 3.85,0.355 3.702,0.492 3.554,0.627 3.38,0.732 3.18,0.804 2.979,0.875 2.768,0.912 2.544,0.912 2.247,0.912 1.993,0.85 1.782,0.726 1.569,0.602 1.396,0.439 1.26,0.24 1.124,0.039 1.026,-0.186 0.966,-0.439 0.905,-0.691 0.88,-0.944 0.888,-1.2 h -1.02 C -0.156,-0.768 -0.112,-0.368 0,0" /></g><g
           transform="translate(350.8432,328.7968)"
           id="g180"><path
             id="path182"
             style="fill:#176fc1;fill-opacity:1;fill-rule:nonzero;stroke:none"
             d="m 0,0 c 0.02,-0.396 0.084,-0.768 0.191,-1.116 0.109,-0.349 0.283,-0.642 0.523,-0.882 0.239,-0.24 0.575,-0.36 1.008,-0.36 0.432,0 0.768,0.12 1.008,0.36 0.24,0.24 0.414,0.533 0.522,0.882 0.107,0.348 0.172,0.72 0.191,1.116 0.02,0.396 0.031,0.754 0.031,1.074 0,0.207 -0.002,0.438 -0.006,0.69 C 3.463,2.016 3.443,2.268 3.408,2.52 3.371,2.771 3.32,3.018 3.252,3.258 3.184,3.498 3.084,3.707 2.951,3.888 2.82,4.068 2.654,4.213 2.453,4.326 2.254,4.437 2.01,4.494 1.722,4.494 1.434,4.494 1.189,4.437 0.99,4.326 0.789,4.213 0.623,4.068 0.492,3.888 0.359,3.707 0.26,3.498 0.191,3.258 0.123,3.018 0.072,2.771 0.035,2.52 0,2.268 -0.021,2.016 -0.024,1.764 -0.028,1.512 -0.03,1.281 -0.03,1.074 -0.03,0.754 -0.021,0.396 0,0 m -1.086,2.033 c 0.016,0.336 0.056,0.664 0.119,0.985 0.065,0.32 0.156,0.624 0.277,0.912 0.12,0.288 0.284,0.54 0.492,0.756 C 0.01,4.902 0.271,5.074 0.588,5.201 0.904,5.33 1.281,5.394 1.722,5.394 2.162,5.394 2.539,5.33 2.855,5.201 3.172,5.074 3.434,4.902 3.642,4.686 3.85,4.47 4.014,4.218 4.134,3.93 4.254,3.642 4.346,3.338 4.41,3.018 4.474,2.697 4.514,2.369 4.529,2.033 4.546,1.697 4.554,1.373 4.554,1.062 4.554,0.75 4.546,0.426 4.529,0.09 4.514,-0.246 4.474,-0.574 4.41,-0.895 4.346,-1.215 4.254,-1.517 4.134,-1.801 4.014,-2.084 3.85,-2.334 3.642,-2.551 3.434,-2.766 3.174,-2.937 2.861,-3.061 2.55,-3.184 2.17,-3.246 1.722,-3.246 c -0.441,0 -0.818,0.062 -1.134,0.185 -0.317,0.124 -0.578,0.295 -0.786,0.51 -0.208,0.217 -0.372,0.467 -0.492,0.75 -0.121,0.284 -0.212,0.586 -0.277,0.906 -0.063,0.321 -0.103,0.649 -0.119,0.985 -0.017,0.336 -0.024,0.66 -0.024,0.972 0,0.311 0.007,0.635 0.024,0.971" /></g><g
           transform="translate(361.3911,329.6845)"
           id="g184"><path
             id="path186"
             style="fill:#176fc1;fill-opacity:1;fill-rule:nonzero;stroke:none"
             d="m 0,0 c -0.076,0.276 -0.192,0.522 -0.349,0.738 -0.156,0.216 -0.355,0.388 -0.599,0.516 -0.244,0.128 -0.531,0.192 -0.858,0.192 -0.344,0 -0.636,-0.068 -0.877,-0.204 -0.24,-0.136 -0.435,-0.313 -0.588,-0.534 -0.152,-0.221 -0.261,-0.471 -0.33,-0.75 -0.068,-0.28 -0.101,-0.564 -0.101,-0.852 0,-0.304 0.036,-0.598 0.107,-0.882 0.073,-0.284 0.187,-0.534 0.342,-0.75 0.156,-0.216 0.358,-0.39 0.607,-0.522 0.248,-0.133 0.547,-0.198 0.9,-0.198 0.351,0 0.645,0.067 0.882,0.204 0.236,0.136 0.425,0.317 0.57,0.54 0.144,0.224 0.248,0.48 0.312,0.769 0.063,0.287 0.096,0.584 0.096,0.886 C 0.114,-0.558 0.075,-0.276 0,0 m -3.666,2.202 v -0.84 h 0.024 c 0.168,0.344 0.432,0.594 0.791,0.75 0.361,0.157 0.756,0.235 1.189,0.235 0.479,0 0.897,-0.089 1.254,-0.265 C -0.052,1.905 0.243,1.668 0.479,1.368 0.716,1.067 0.893,0.722 1.014,0.33 c 0.12,-0.392 0.18,-0.808 0.18,-1.248 0,-0.44 -0.058,-0.856 -0.174,-1.248 C 0.903,-2.558 0.728,-2.899 0.491,-3.192 0.256,-3.483 -0.04,-3.714 -0.396,-3.882 -0.753,-4.05 -1.167,-4.134 -1.638,-4.134 c -0.152,0 -0.322,0.016 -0.51,0.048 -0.189,0.032 -0.374,0.084 -0.558,0.155 -0.184,0.073 -0.358,0.17 -0.522,0.295 -0.164,0.123 -0.302,0.278 -0.414,0.462 h -0.024 v -3.192 h -1.021 v 8.568 z" /></g><g
           transform="translate(363.2924,331.8867)"
           id="g188"><path
             id="path190"
             style="fill:#176fc1;fill-opacity:1;fill-rule:nonzero;stroke:none"
             d="M 0,0 H 1.309 L 2.796,-2.172 4.344,0 h 1.224 l -2.136,-2.855 2.4,-3.349 H 4.523 L 2.796,-3.637 1.068,-6.204 h -1.236 l 2.328,3.265 z" /></g><g
           transform="translate(379.1928,329.1269)"
           id="g192"><path
             id="path194"
             style="fill:#176fc1;fill-opacity:1;fill-rule:nonzero;stroke:none"
             d="m 0,0 v -0.816 h -2.616 v -2.628 h -0.816 v 2.628 H -6.048 V 0 h 2.616 v 2.627 h 0.816 V 0 Z" /></g><g
           transform="translate(152.6083,168.5454)"
           id="g196"><path
             id="path198"
             style="fill:#ffffff;fill-opacity:1;fill-rule:evenodd;stroke:none"
             d="m 0,0 c -8.995,0 -16.288,-7.293 -16.288,-16.29 0,-7.197 4.667,-13.302 11.14,-15.457 0.815,-0.149 1.112,0.354 1.112,0.786 0,0.386 -0.014,1.411 -0.022,2.77 -4.531,-0.984 -5.487,2.184 -5.487,2.184 -0.741,1.882 -1.809,2.383 -1.809,2.383 -1.479,1.01 0.112,0.99 0.112,0.99 1.635,-0.115 2.495,-1.679 2.495,-1.679 1.453,-2.489 3.813,-1.77 4.741,-1.353 0.148,1.052 0.568,1.77 1.034,2.177 -3.617,0.411 -7.42,1.809 -7.42,8.051 0,1.778 0.635,3.232 1.677,4.371 -0.168,0.412 -0.727,2.068 0.159,4.311 0,0 1.368,0.438 4.48,-1.67 1.299,0.362 2.693,0.542 4.078,0.548 1.383,-0.006 2.777,-0.186 4.078,-0.548 3.11,2.108 4.475,1.67 4.475,1.67 0.889,-2.243 0.33,-3.899 0.162,-4.311 1.044,-1.139 1.675,-2.593 1.675,-4.371 0,-6.258 -3.809,-7.635 -7.438,-8.038 0.585,-0.503 1.106,-1.497 1.106,-3.017 0,-2.177 -0.02,-3.934 -0.02,-4.468 0,-0.436 0.293,-0.943 1.12,-0.784 6.468,2.159 11.131,8.26 11.131,15.455 C 16.291,-7.293 8.997,0 0,0" /></g><g
           transform="translate(350.6088,217.5547)"
           id="g200"><path
             id="path202"
             style="fill:#ffffff;fill-opacity:1;fill-rule:evenodd;stroke:none"
             d="m 0,0 c -33.347,0 -60.388,-27.035 -60.388,-60.388 0,-26.68 17.303,-49.316 41.297,-57.301 3.018,-0.559 4.126,1.31 4.126,2.905 0,1.439 -0.056,6.197 -0.082,11.243 -16.8,-3.653 -20.345,7.125 -20.345,7.125 -2.747,6.979 -6.705,8.836 -6.705,8.836 -5.479,3.748 0.413,3.671 0.413,3.671 6.064,-0.426 9.257,-6.224 9.257,-6.224 5.386,-9.231 14.127,-6.562 17.573,-5.019 0.543,3.902 2.107,6.567 3.834,8.075 -13.413,1.526 -27.513,6.705 -27.513,29.844 0,6.592 2.359,11.979 6.222,16.208 -0.627,1.522 -2.694,7.664 0.586,15.982 0,0 5.071,1.622 16.61,-6.191 4.817,1.338 9.983,2.009 15.115,2.033 5.132,-0.024 10.302,-0.695 15.128,-2.033 11.526,7.813 16.59,6.191 16.59,6.191 3.287,-8.318 1.22,-14.46 0.593,-15.982 3.872,-4.229 6.214,-9.616 6.214,-16.208 0,-23.195 -14.127,-28.301 -27.574,-29.796 2.166,-1.874 4.096,-5.549 4.096,-11.183 0,-8.08 -0.069,-14.583 -0.069,-16.572 0,-1.608 1.086,-3.491 4.147,-2.898 23.982,7.994 41.263,30.622 41.263,57.294 C 60.388,-27.035 33.351,0 0,0" /></g><g
           transform="translate(313.0932,130.8515)"
           id="g204"><path
             id="path206"
             style="fill:#ffffff;fill-opacity:1;fill-rule:nonzero;stroke:none"
             d="m 0,0 c -0.133,-0.301 -0.605,-0.391 -1.035,-0.184 -0.439,0.197 -0.684,0.606 -0.542,0.907 0.13,0.308 0.602,0.394 1.04,0.188 C -0.099,0.714 0.151,0.301 0,0" /></g><g
           transform="translate(315.5395,128.123)"
           id="g208"><path
             id="path210"
             style="fill:#ffffff;fill-opacity:1;fill-rule:nonzero;stroke:none"
             d="M 0,0 C -0.288,-0.267 -0.852,-0.143 -1.233,0.279 -1.629,0.7 -1.702,1.264 -1.41,1.534 -1.113,1.801 -0.567,1.676 -0.172,1.255 0.224,0.829 0.301,0.27 0,0" /></g><g
           transform="translate(317.9204,124.6455)"
           id="g212"><path
             id="path214"
             style="fill:#ffffff;fill-opacity:1;fill-rule:nonzero;stroke:none"
             d="M 0,0 C -0.37,-0.258 -0.976,-0.017 -1.35,0.52 -1.72,1.058 -1.72,1.702 -1.341,1.96 -0.967,2.218 -0.37,1.985 0.009,1.453 0.378,0.907 0.378,0.263 0,0" /></g><g
           transform="translate(321.1821,121.2851)"
           id="g216"><path
             id="path218"
             style="fill:#ffffff;fill-opacity:1;fill-rule:nonzero;stroke:none"
             d="M 0,0 C -0.331,-0.365 -1.036,-0.267 -1.552,0.231 -2.08,0.718 -2.227,1.409 -1.896,1.774 -1.56,2.14 -0.851,2.037 -0.331,1.543 0.193,1.057 0.352,0.361 0,0" /></g><g
           transform="translate(325.6821,119.334)"
           id="g220"><path
             id="path222"
             style="fill:#ffffff;fill-opacity:1;fill-rule:nonzero;stroke:none"
             d="m 0,0 c -0.147,-0.473 -0.825,-0.687 -1.509,-0.486 -0.683,0.207 -1.13,0.76 -0.992,1.238 0.142,0.477 0.824,0.7 1.513,0.485 C -0.306,1.031 0.142,0.481 0,0" /></g><g
           transform="translate(330.6245,118.9726)"
           id="g224"><path
             id="path226"
             style="fill:#ffffff;fill-opacity:1;fill-rule:nonzero;stroke:none"
             d="m 0,0 c 0.017,-0.498 -0.563,-0.911 -1.281,-0.92 -0.722,-0.017 -1.307,0.387 -1.315,0.877 0,0.503 0.568,0.911 1.289,0.924 C -0.589,0.895 0,0.494 0,0" /></g><g
           transform="translate(335.2231,119.7549)"
           id="g228"><path
             id="path230"
             style="fill:#ffffff;fill-opacity:1;fill-rule:nonzero;stroke:none"
             d="m 0,0 c 0.086,-0.485 -0.413,-0.984 -1.126,-1.117 -0.701,-0.129 -1.35,0.172 -1.439,0.653 -0.087,0.498 0.42,0.997 1.121,1.126 C -0.73,0.786 -0.091,0.494 0,0" /></g><g
           transform="translate(224.8979,223.4882)"
           id="g232"><path
             id="path234"
             style="fill:none;stroke:#3a7fc3;stroke-width:1;stroke-linecap:round;stroke-linejoin:miter;stroke-miterlimit:10;stroke-dasharray:none;stroke-opacity:1"
             d="M 0,0 V -0.5" /></g><g
           transform="translate(224.8979,220.9882)"
           id="g236"><path
             id="path238"
             style="fill:none;stroke:#3a7fc3;stroke-width:1;stroke-linecap:round;stroke-linejoin:miter;stroke-miterlimit:10;stroke-dasharray:1, 2;stroke-dashoffset:0;stroke-opacity:1"
             d="M 0,0 V -133.993" /></g><g
           transform="translate(224.8979,85.9951)"
           id="g240"><path
             id="path242"
             style="fill:none;stroke:#3a7fc3;stroke-width:1;stroke-linecap:round;stroke-linejoin:miter;stroke-miterlimit:10;stroke-dasharray:none;stroke-opacity:1"
             d="M 0,0 V -0.5" /></g><g
           transform="translate(133.2758,71.4795)"
           id="g244"><path
             id="path246"
             style="fill:#176fc1;fill-opacity:1;fill-rule:nonzero;stroke:none"
             d="m 0,0 c -0.38,0.276 -0.866,0.414 -1.458,0.414 -0.24,0 -0.476,-0.024 -0.708,-0.071 -0.232,-0.049 -0.438,-0.129 -0.618,-0.241 -0.18,-0.113 -0.324,-0.262 -0.432,-0.451 -0.108,-0.187 -0.162,-0.422 -0.162,-0.701 0,-0.264 0.078,-0.478 0.234,-0.642 0.156,-0.165 0.364,-0.298 0.624,-0.402 0.26,-0.104 0.554,-0.19 0.882,-0.259 0.328,-0.067 0.662,-0.141 1.002,-0.22 0.34,-0.08 0.674,-0.175 1.002,-0.284 C 0.694,-2.964 0.988,-3.11 1.248,-3.294 1.508,-3.478 1.716,-3.71 1.872,-3.989 2.028,-4.271 2.106,-4.622 2.106,-5.046 2.106,-5.502 2.004,-5.892 1.8,-6.216 1.596,-6.54 1.334,-6.804 1.014,-7.008 0.694,-7.212 0.336,-7.36 -0.06,-7.452 -0.456,-7.544 -0.85,-7.59 -1.242,-7.59 c -0.48,0 -0.934,0.06 -1.362,0.18 -0.428,0.12 -0.804,0.302 -1.128,0.546 -0.324,0.244 -0.58,0.556 -0.768,0.936 -0.188,0.38 -0.282,0.829 -0.282,1.35 h 1.08 c 0,-0.361 0.07,-0.67 0.21,-0.93 0.14,-0.261 0.324,-0.474 0.552,-0.642 0.228,-0.167 0.494,-0.292 0.798,-0.373 0.304,-0.08 0.616,-0.119 0.936,-0.119 0.256,0 0.514,0.024 0.774,0.073 0.26,0.046 0.494,0.128 0.702,0.246 0.208,0.115 0.376,0.273 0.504,0.472 0.128,0.201 0.192,0.457 0.192,0.769 0,0.296 -0.078,0.536 -0.234,0.72 -0.156,0.183 -0.364,0.334 -0.624,0.45 -0.26,0.116 -0.554,0.21 -0.882,0.282 -0.328,0.072 -0.662,0.147 -1.002,0.223 -0.34,0.075 -0.674,0.163 -1.002,0.263 -0.328,0.1 -0.622,0.232 -0.882,0.396 -0.26,0.164 -0.468,0.376 -0.624,0.636 -0.156,0.259 -0.234,0.586 -0.234,0.978 0,0.432 0.088,0.806 0.264,1.122 0.176,0.316 0.41,0.575 0.702,0.78 0.292,0.204 0.624,0.356 0.996,0.456 0.372,0.1 0.754,0.15 1.146,0.15 0.44,0 0.848,-0.053 1.224,-0.156 C 0.19,1.114 0.52,0.95 0.804,0.725 1.088,0.502 1.312,0.22 1.476,-0.12 1.64,-0.46 1.73,-0.866 1.746,-1.338 H 0.666 C 0.602,-0.722 0.38,-0.276 0,0" /></g><g
           transform="translate(137.5537,70.2851)"
           id="g248"><path
             id="path250"
             style="fill:#176fc1;fill-opacity:1;fill-rule:nonzero;stroke:none"
             d="m 0,0 v -0.912 h 0.024 c 0.464,0.705 1.132,1.057 2.004,1.057 0.384,0 0.732,-0.081 1.044,-0.241 0.312,-0.16 0.532,-0.431 0.66,-0.816 0.208,0.336 0.482,0.596 0.822,0.78 0.34,0.185 0.714,0.277 1.122,0.277 0.312,0 0.594,-0.035 0.846,-0.102 0.252,-0.068 0.468,-0.175 0.648,-0.318 0.18,-0.145 0.32,-0.33 0.42,-0.559 0.1,-0.228 0.15,-0.502 0.15,-0.822 V -6.203 H 6.72 v 4.067 c 0,0.193 -0.016,0.372 -0.048,0.54 -0.032,0.168 -0.092,0.315 -0.18,0.438 -0.088,0.125 -0.21,0.222 -0.366,0.295 -0.156,0.072 -0.358,0.107 -0.606,0.107 -0.504,0 -0.9,-0.143 -1.188,-0.431 C 4.044,-1.476 3.9,-1.859 3.9,-2.34 V -6.203 H 2.88 v 4.067 c 0,0.2 -0.018,0.384 -0.054,0.552 -0.036,0.168 -0.098,0.314 -0.186,0.438 -0.088,0.125 -0.206,0.22 -0.354,0.289 -0.148,0.068 -0.338,0.101 -0.57,0.101 -0.296,0 -0.55,-0.059 -0.762,-0.18 C 0.742,-1.056 0.57,-1.199 0.438,-1.367 0.306,-1.535 0.21,-1.709 0.15,-1.89 0.09,-2.07 0.06,-2.22 0.06,-2.34 V -6.203 H -0.96 V 0 Z" /></g><g
           transform="translate(150.1655,67.0761)"
           id="g252"><path
             id="path254"
             style="fill:#176fc1;fill-opacity:1;fill-rule:nonzero;stroke:none"
             d="m 0,0 c -0.208,-0.045 -0.426,-0.08 -0.654,-0.108 -0.228,-0.029 -0.458,-0.06 -0.69,-0.097 -0.232,-0.035 -0.44,-0.094 -0.624,-0.174 -0.184,-0.08 -0.334,-0.193 -0.45,-0.342 -0.116,-0.148 -0.174,-0.349 -0.174,-0.605 0,-0.168 0.034,-0.311 0.102,-0.426 0.068,-0.117 0.156,-0.211 0.264,-0.283 0.108,-0.071 0.236,-0.123 0.384,-0.155 0.148,-0.033 0.298,-0.048 0.45,-0.048 0.336,0 0.624,0.045 0.864,0.137 0.24,0.092 0.436,0.208 0.588,0.349 0.152,0.139 0.264,0.291 0.336,0.455 0.072,0.164 0.108,0.318 0.108,0.463 V 0.209 C 0.376,0.113 0.208,0.043 0,0 m 1.428,-3.127 c -0.264,0 -0.474,0.074 -0.63,0.223 -0.156,0.147 -0.234,0.389 -0.234,0.725 -0.28,-0.336 -0.606,-0.578 -0.978,-0.725 -0.372,-0.149 -0.774,-0.223 -1.206,-0.223 -0.28,0 -0.544,0.03 -0.792,0.09 -0.248,0.06 -0.466,0.16 -0.654,0.301 -0.188,0.139 -0.336,0.319 -0.444,0.539 -0.108,0.22 -0.162,0.486 -0.162,0.799 0,0.351 0.06,0.639 0.18,0.863 0.12,0.224 0.278,0.406 0.474,0.547 0.196,0.139 0.42,0.246 0.672,0.318 0.252,0.071 0.51,0.131 0.774,0.18 0.28,0.055 0.546,0.097 0.798,0.125 0.252,0.028 0.474,0.068 0.666,0.121 0.192,0.051 0.344,0.127 0.456,0.227 0.112,0.101 0.168,0.246 0.168,0.439 0,0.223 -0.042,0.403 -0.126,0.539 -0.084,0.137 -0.192,0.24 -0.324,0.312 -0.132,0.073 -0.28,0.121 -0.444,0.145 -0.164,0.023 -0.326,0.035 -0.486,0.035 -0.432,0 -0.792,-0.082 -1.08,-0.246 -0.288,-0.164 -0.444,-0.474 -0.468,-0.93 h -1.02 c 0.016,0.384 0.096,0.708 0.24,0.973 0.144,0.264 0.336,0.478 0.576,0.642 0.24,0.163 0.516,0.282 0.828,0.354 0.312,0.071 0.64,0.108 0.984,0.108 0.28,0 0.558,-0.02 0.834,-0.061 C 0.306,3.254 0.556,3.172 0.78,3.047 1.004,2.924 1.184,2.749 1.32,2.525 1.456,2.301 1.524,2.01 1.524,1.649 v -3.192 c 0,-0.24 0.014,-0.416 0.042,-0.527 0.028,-0.113 0.122,-0.168 0.282,-0.168 0.088,0 0.192,0.019 0.312,0.059 V -2.971 C 1.984,-3.074 1.74,-3.127 1.428,-3.127" /></g><path
           id="path256"
           style="fill:#176fc1;fill-opacity:1;fill-rule:nonzero;stroke:none"
           d="m 154.354,64.082 h -1.02 v 8.567 h 1.02 z" /><path
           id="path258"
           style="fill:#176fc1;fill-opacity:1;fill-rule:nonzero;stroke:none"
           d="m 157.017,64.082 h -1.02 v 8.567 h 1.02 z" /><g
           transform="translate(101.854,54.9863)"
           id="g260"><path
             id="path262"
             style="fill:#176fc1;fill-opacity:1;fill-rule:nonzero;stroke:none"
             d="m 0,0 v 0.899 h 1.044 v 0.924 c 0,0.504 0.146,0.886 0.438,1.146 0.292,0.26 0.718,0.39 1.278,0.39 0.096,0 0.206,-0.007 0.33,-0.023 C 3.214,3.319 3.324,3.295 3.42,3.264 V 2.375 C 3.332,2.407 3.236,2.43 3.132,2.441 3.028,2.453 2.932,2.459 2.844,2.459 2.596,2.459 2.404,2.411 2.268,2.315 2.132,2.219 2.064,2.035 2.064,1.764 V 0.899 h 1.2 V 0 h -1.2 V -5.305 H 1.044 V 0 Z" /></g><g
           transform="translate(106.9238,51.7754)"
           id="g264"><path
             id="path266"
             style="fill:#176fc1;fill-opacity:1;fill-rule:nonzero;stroke:none"
             d="m 0,0 c 0.1,-0.292 0.238,-0.535 0.414,-0.732 0.176,-0.196 0.382,-0.346 0.618,-0.45 0.236,-0.103 0.486,-0.156 0.75,-0.156 0.264,0 0.514,0.053 0.75,0.156 0.236,0.104 0.442,0.254 0.618,0.45 0.176,0.197 0.314,0.44 0.414,0.732 0.1,0.292 0.15,0.626 0.15,1.002 0,0.377 -0.05,0.71 -0.15,1.002 C 3.464,2.297 3.326,2.542 3.15,2.742 2.974,2.941 2.768,3.094 2.532,3.198 2.296,3.303 2.046,3.354 1.782,3.354 1.518,3.354 1.268,3.303 1.032,3.198 0.796,3.094 0.59,2.941 0.414,2.742 0.238,2.542 0.1,2.297 0,2.004 -0.1,1.712 -0.15,1.379 -0.15,1.002 -0.15,0.626 -0.1,0.292 0,0 m -1.038,2.28 c 0.128,0.396 0.32,0.74 0.576,1.033 0.256,0.291 0.572,0.521 0.948,0.689 0.376,0.168 0.808,0.252 1.296,0.252 0.496,0 0.93,-0.084 1.302,-0.252 C 3.456,3.834 3.77,3.604 4.026,3.313 4.282,3.02 4.474,2.676 4.602,2.28 4.73,1.885 4.794,1.458 4.794,1.002 4.794,0.547 4.73,0.122 4.602,-0.27 4.474,-0.662 4.282,-1.004 4.026,-1.296 3.77,-1.588 3.456,-1.816 3.084,-1.98 2.712,-2.144 2.278,-2.226 1.782,-2.226 c -0.488,0 -0.92,0.082 -1.296,0.246 -0.376,0.164 -0.692,0.392 -0.948,0.684 -0.256,0.292 -0.448,0.634 -0.576,1.026 -0.128,0.392 -0.192,0.817 -0.192,1.272 0,0.456 0.064,0.883 0.192,1.278" /></g><g
           transform="translate(113.8417,55.8857)"
           id="g268"><path
             id="path270"
             style="fill:#176fc1;fill-opacity:1;fill-rule:nonzero;stroke:none"
             d="m 0,0 v -1.308 h 0.024 c 0.248,0.504 0.552,0.875 0.912,1.116 0.36,0.24 0.816,0.351 1.368,0.336 v -1.08 C 1.896,-0.936 1.548,-0.992 1.26,-1.104 0.972,-1.216 0.74,-1.38 0.564,-1.597 0.388,-1.811 0.26,-2.074 0.18,-2.382 0.1,-2.69 0.06,-3.044 0.06,-3.444 v -2.76 H -0.96 V 0 Z" /></g><g
           transform="translate(122.7333,49.6816)"
           id="g272"><path
             id="path274"
             style="fill:#176fc1;fill-opacity:1;fill-rule:nonzero;stroke:none"
             d="m 0,0 v 6.096 h -2.208 v 0.816 c 0.288,0 0.568,0.022 0.84,0.067 0.272,0.042 0.518,0.125 0.738,0.246 0.22,0.119 0.406,0.283 0.558,0.491 C 0.08,7.924 0.184,8.188 0.24,8.508 H 1.02 L 1.02,0 Z" /></g><g
           transform="translate(128.8295,54.1035)"
           id="g276"><path
             id="path278"
             style="fill:#176fc1;fill-opacity:1;fill-rule:nonzero;stroke:none"
             d="M 0,0 C -0.216,-0.1 -0.4,-0.236 -0.552,-0.408 -0.704,-0.58 -0.818,-0.784 -0.893,-1.02 -0.97,-1.256 -1.008,-1.506 -1.008,-1.77 c 0,-0.263 0.04,-0.511 0.12,-0.744 0.08,-0.232 0.194,-0.431 0.342,-0.599 0.148,-0.168 0.332,-0.303 0.552,-0.403 0.22,-0.1 0.47,-0.15 0.75,-0.15 0.28,0 0.526,0.05 0.738,0.15 0.212,0.1 0.39,0.239 0.534,0.414 0.144,0.176 0.254,0.378 0.33,0.606 0.076,0.228 0.114,0.467 0.114,0.715 0,0.263 -0.034,0.513 -0.102,0.75 C 2.302,-0.796 2.196,-0.592 2.052,-0.42 1.908,-0.248 1.728,-0.109 1.512,-0.006 1.296,0.098 1.044,0.15 0.756,0.15 0.468,0.15 0.216,0.1 0,0 M 1.848,2.838 C 1.6,3.07 1.272,3.186 0.864,3.186 0.432,3.186 0.084,3.08 -0.18,2.868 -0.444,2.656 -0.65,2.389 -0.798,2.064 -0.946,1.74 -1.048,1.391 -1.104,1.014 -1.16,0.639 -1.192,0.286 -1.2,-0.042 l 0.024,-0.024 c 0.24,0.392 0.538,0.675 0.894,0.852 0.356,0.176 0.766,0.265 1.23,0.265 C 1.356,1.051 1.722,0.98 2.046,0.84 2.37,0.7 2.642,0.506 2.862,0.258 3.082,0.01 3.253,-0.281 3.372,-0.617 3.492,-0.954 3.552,-1.318 3.552,-1.71 3.552,-2.021 3.504,-2.346 3.408,-2.682 3.312,-3.018 3.154,-3.324 2.934,-3.6 2.714,-3.876 2.422,-4.104 2.058,-4.283 1.694,-4.464 1.244,-4.554 0.708,-4.554 c -0.632,0 -1.14,0.128 -1.524,0.384 -0.384,0.256 -0.68,0.584 -0.888,0.984 -0.208,0.4 -0.346,0.84 -0.414,1.321 -0.068,0.479 -0.102,0.943 -0.102,1.391 0,0.583 0.05,1.15 0.15,1.699 0.1,0.546 0.27,1.033 0.511,1.457 C -1.32,3.105 -1,3.445 -0.6,3.702 -0.2,3.958 0.304,4.086 0.912,4.086 1.616,4.086 2.176,3.9 2.592,3.528 3.008,3.156 3.248,2.618 3.312,1.914 H 2.292 C 2.244,2.299 2.096,2.605 1.848,2.838" /></g><g
           transform="translate(138.3159,53.6836)"
           id="g280"><path
             id="path282"
             style="fill:#176fc1;fill-opacity:1;fill-rule:nonzero;stroke:none"
             d="m 0,0 c -0.076,0.275 -0.192,0.521 -0.348,0.738 -0.156,0.216 -0.356,0.388 -0.6,0.516 -0.244,0.128 -0.531,0.192 -0.858,0.192 -0.344,0 -0.636,-0.068 -0.876,-0.204 -0.24,-0.137 -0.436,-0.314 -0.588,-0.534 -0.152,-0.22 -0.262,-0.47 -0.33,-0.75 -0.069,-0.28 -0.102,-0.564 -0.102,-0.853 0,-0.303 0.036,-0.597 0.108,-0.88 0.071,-0.286 0.186,-0.536 0.341,-0.75 0.157,-0.217 0.358,-0.391 0.607,-0.523 0.247,-0.132 0.548,-0.198 0.9,-0.198 0.351,0 0.646,0.068 0.882,0.204 0.236,0.136 0.425,0.315 0.569,0.54 0.145,0.224 0.249,0.481 0.312,0.768 0.064,0.289 0.097,0.584 0.097,0.888 C 0.114,-0.559 0.076,-0.275 0,0 M -3.666,2.202 V 1.361 h 0.024 c 0.168,0.345 0.431,0.595 0.792,0.75 0.36,0.156 0.756,0.235 1.188,0.235 0.48,0 0.898,-0.088 1.254,-0.264 C -0.052,1.906 0.244,1.668 0.48,1.368 0.716,1.068 0.893,0.722 1.014,0.33 c 0.12,-0.392 0.18,-0.809 0.18,-1.248 0,-0.44 -0.058,-0.856 -0.175,-1.248 C 0.904,-2.559 0.727,-2.9 0.492,-3.191 0.256,-3.484 -0.041,-3.714 -0.396,-3.882 -0.753,-4.05 -1.167,-4.134 -1.638,-4.134 c -0.153,0 -0.323,0.017 -0.511,0.048 -0.188,0.032 -0.374,0.084 -0.557,0.156 -0.184,0.072 -0.359,0.17 -0.522,0.294 -0.164,0.124 -0.302,0.278 -0.414,0.462 h -0.024 v -3.191 h -1.02 v 8.567 z" /></g><g
           transform="translate(140.2172,55.8857)"
           id="g284"><path
             id="path286"
             style="fill:#176fc1;fill-opacity:1;fill-rule:nonzero;stroke:none"
             d="M 0,0 H 1.308 L 2.796,-2.172 4.344,0 h 1.224 l -2.136,-2.856 2.4,-3.348 H 4.524 L 2.796,-3.636 1.068,-6.204 H -0.168 L 2.16,-2.94 Z" /></g><path
           id="path288"
           style="fill:#176fc1;fill-opacity:1;fill-rule:nonzero;stroke:none"
           d="m 150.225,52.537 h -3.468 v 0.961 h 3.468 z" /><g
           transform="translate(154.0771,49.6816)"
           id="g290"><path
             id="path292"
             style="fill:#176fc1;fill-opacity:1;fill-rule:nonzero;stroke:none"
             d="m 0,0 v 6.096 h -2.208 v 0.816 c 0.288,0 0.568,0.022 0.84,0.067 0.272,0.042 0.518,0.125 0.738,0.246 0.22,0.119 0.406,0.283 0.558,0.491 C 0.08,7.924 0.184,8.188 0.24,8.508 H 1.02 L 1.02,0 Z" /></g><g
           transform="translate(158.1572,56.3769)"
           id="g294"><path
             id="path296"
             style="fill:#176fc1;fill-opacity:1;fill-rule:nonzero;stroke:none"
             d="m 0,0 c 0.112,0.369 0.286,0.686 0.522,0.955 0.236,0.268 0.53,0.478 0.882,0.629 0.352,0.152 0.752,0.228 1.2,0.228 0.368,0 0.714,-0.053 1.038,-0.162 C 3.966,1.543 4.248,1.387 4.488,1.183 4.728,0.979 4.918,0.725 5.058,0.421 5.198,0.117 5.268,-0.235 5.268,-0.635 5.268,-1.012 5.21,-1.344 5.094,-1.631 4.977,-1.92 4.824,-2.178 4.632,-2.405 4.44,-2.633 4.22,-2.84 3.972,-3.023 3.724,-3.207 3.468,-3.383 3.204,-3.551 2.94,-3.711 2.676,-3.869 2.412,-4.025 2.148,-4.182 1.906,-4.348 1.686,-4.523 1.466,-4.699 1.278,-4.889 1.122,-5.094 0.966,-5.297 0.864,-5.531 0.816,-5.795 h 4.368 v -0.9 h -5.556 c 0.04,0.504 0.13,0.933 0.27,1.29 0.14,0.356 0.318,0.666 0.534,0.93 0.216,0.264 0.46,0.495 0.732,0.696 0.272,0.199 0.556,0.387 0.852,0.564 0.36,0.224 0.676,0.43 0.948,0.617 0.272,0.188 0.498,0.379 0.678,0.571 0.18,0.191 0.316,0.4 0.408,0.624 0.092,0.223 0.138,0.483 0.138,0.78 0,0.231 -0.045,0.441 -0.132,0.63 C 3.968,0.194 3.85,0.356 3.702,0.492 3.554,0.629 3.38,0.732 3.18,0.805 2.98,0.877 2.768,0.912 2.544,0.912 2.247,0.912 1.994,0.851 1.782,0.727 1.57,0.603 1.396,0.44 1.26,0.24 1.124,0.041 1.026,-0.186 0.966,-0.437 0.906,-0.689 0.88,-0.943 0.888,-1.199 h -1.02 C -0.156,-0.768 -0.112,-0.367 0,0" /></g><g
           transform="translate(165.7832,52.7949)"
           id="g298"><path
             id="path300"
             style="fill:#176fc1;fill-opacity:1;fill-rule:nonzero;stroke:none"
             d="m 0,0 c 0.02,-0.396 0.084,-0.768 0.192,-1.115 0.108,-0.348 0.282,-0.643 0.522,-0.882 0.24,-0.24 0.576,-0.36 1.008,-0.36 0.432,0 0.768,0.12 1.008,0.36 0.24,0.239 0.414,0.534 0.522,0.882 0.108,0.347 0.172,0.719 0.192,1.115 0.02,0.396 0.03,0.755 0.03,1.074 0,0.209 -0.002,0.439 -0.006,0.691 C 3.464,2.017 3.444,2.268 3.408,2.52 3.372,2.773 3.32,3.018 3.252,3.259 3.184,3.498 3.084,3.709 2.952,3.889 2.82,4.068 2.654,4.215 2.454,4.326 2.254,4.438 2.01,4.494 1.722,4.494 1.434,4.494 1.19,4.438 0.99,4.326 0.79,4.215 0.624,4.068 0.492,3.889 0.36,3.709 0.26,3.498 0.192,3.259 0.124,3.018 0.072,2.773 0.036,2.52 0,2.268 -0.02,2.017 -0.024,1.765 -0.028,1.513 -0.03,1.283 -0.03,1.074 -0.03,0.755 -0.02,0.396 0,0 m -1.086,2.035 c 0.016,0.336 0.056,0.664 0.12,0.983 0.064,0.32 0.156,0.625 0.276,0.913 0.12,0.288 0.284,0.54 0.492,0.755 C 0.01,4.902 0.272,5.074 0.588,5.203 0.904,5.33 1.282,5.395 1.722,5.395 2.162,5.395 2.54,5.33 2.856,5.203 3.172,5.074 3.434,4.902 3.642,4.686 3.85,4.471 4.014,4.219 4.134,3.931 4.254,3.643 4.346,3.338 4.41,3.018 4.474,2.699 4.514,2.371 4.53,2.035 4.546,1.699 4.554,1.375 4.554,1.062 4.554,0.75 4.546,0.427 4.53,0.091 4.514,-0.245 4.474,-0.573 4.41,-0.893 4.346,-1.213 4.254,-1.516 4.134,-1.799 4.014,-2.084 3.85,-2.334 3.642,-2.549 3.434,-2.766 3.174,-2.936 2.862,-3.059 2.55,-3.184 2.17,-3.245 1.722,-3.245 c -0.44,0 -0.818,0.061 -1.134,0.186 -0.316,0.123 -0.578,0.293 -0.786,0.51 -0.208,0.215 -0.372,0.465 -0.492,0.75 -0.12,0.283 -0.212,0.586 -0.276,0.906 -0.064,0.32 -0.104,0.648 -0.12,0.984 -0.016,0.336 -0.024,0.659 -0.024,0.971 0,0.313 0.008,0.637 0.024,0.973" /></g><g
           transform="translate(176.3315,53.6836)"
           id="g302"><path
             id="path304"
             style="fill:#176fc1;fill-opacity:1;fill-rule:nonzero;stroke:none"
             d="m 0,0 c -0.076,0.275 -0.192,0.521 -0.348,0.738 -0.156,0.216 -0.356,0.388 -0.6,0.516 -0.244,0.128 -0.531,0.192 -0.858,0.192 -0.344,0 -0.636,-0.068 -0.876,-0.204 -0.24,-0.137 -0.436,-0.314 -0.588,-0.534 -0.152,-0.22 -0.262,-0.47 -0.33,-0.75 -0.069,-0.28 -0.102,-0.564 -0.102,-0.853 0,-0.303 0.036,-0.597 0.108,-0.88 0.071,-0.286 0.186,-0.536 0.342,-0.75 0.156,-0.217 0.357,-0.391 0.606,-0.523 0.248,-0.132 0.548,-0.198 0.9,-0.198 0.351,0 0.646,0.068 0.882,0.204 0.236,0.136 0.425,0.315 0.57,0.54 0.144,0.224 0.248,0.481 0.312,0.768 0.063,0.289 0.096,0.584 0.096,0.888 C 0.114,-0.559 0.076,-0.275 0,0 M -3.666,2.202 V 1.361 h 0.024 c 0.168,0.345 0.431,0.595 0.792,0.75 0.36,0.156 0.756,0.235 1.188,0.235 0.48,0 0.898,-0.088 1.254,-0.264 C -0.052,1.906 0.244,1.668 0.48,1.368 0.716,1.068 0.893,0.722 1.014,0.33 c 0.12,-0.392 0.18,-0.809 0.18,-1.248 0,-0.44 -0.058,-0.856 -0.174,-1.248 C 0.904,-2.559 0.727,-2.9 0.492,-3.191 0.256,-3.484 -0.04,-3.714 -0.396,-3.882 -0.752,-4.05 -1.167,-4.134 -1.638,-4.134 c -0.152,0 -0.323,0.017 -0.51,0.048 -0.188,0.032 -0.375,0.084 -0.558,0.156 -0.184,0.072 -0.358,0.17 -0.522,0.294 -0.164,0.124 -0.302,0.278 -0.414,0.462 h -0.024 v -3.191 h -1.02 v 8.567 z" /></g><g
           transform="translate(178.2329,55.8857)"
           id="g306"><path
             id="path308"
             style="fill:#176fc1;fill-opacity:1;fill-rule:nonzero;stroke:none"
             d="M 0,0 H 1.308 L 2.796,-2.172 4.344,0 h 1.224 l -2.136,-2.856 2.4,-3.348 H 4.524 L 2.796,-3.636 1.068,-6.204 H -0.168 L 2.16,-2.94 Z" /></g><g
           transform="translate(335.6333,72.6504)"
           id="g310"><path
             id="path312"
             style="fill:#176fc1;fill-opacity:1;fill-rule:nonzero;stroke:none"
             d="M 0,0 V -7.607 H 4.536 V -8.568 H -1.14 l 0,8.568 z" /></g><g
           transform="translate(344.3334,67.0761)"
           id="g314"><path
             id="path316"
             style="fill:#176fc1;fill-opacity:1;fill-rule:nonzero;stroke:none"
             d="m 0,0 c -0.209,-0.044 -0.426,-0.08 -0.654,-0.107 -0.229,-0.029 -0.459,-0.061 -0.691,-0.096 -0.231,-0.037 -0.44,-0.095 -0.624,-0.174 -0.183,-0.08 -0.334,-0.195 -0.449,-0.343 -0.117,-0.147 -0.174,-0.35 -0.174,-0.606 0,-0.168 0.034,-0.31 0.102,-0.426 0.067,-0.115 0.156,-0.209 0.264,-0.281 0.107,-0.072 0.236,-0.125 0.384,-0.156 0.148,-0.033 0.297,-0.049 0.45,-0.049 0.335,0 0.624,0.047 0.864,0.138 0.239,0.092 0.435,0.208 0.588,0.348 0.151,0.141 0.264,0.293 0.336,0.457 0.071,0.163 0.108,0.317 0.108,0.461 V 0.211 C 0.375,0.114 0.207,0.045 0,0 m 1.428,-3.125 c -0.264,0 -0.475,0.073 -0.631,0.221 -0.155,0.148 -0.233,0.39 -0.233,0.726 -0.281,-0.336 -0.607,-0.578 -0.978,-0.726 -0.373,-0.148 -0.774,-0.221 -1.207,-0.221 -0.279,0 -0.543,0.029 -0.791,0.09 -0.248,0.059 -0.467,0.16 -0.654,0.299 -0.188,0.14 -0.336,0.32 -0.444,0.541 -0.109,0.219 -0.162,0.486 -0.162,0.798 0,0.351 0.06,0.639 0.18,0.864 0.119,0.223 0.277,0.405 0.474,0.545 0.196,0.14 0.419,0.246 0.671,0.318 0.252,0.072 0.511,0.133 0.775,0.18 0.279,0.056 0.546,0.098 0.798,0.127 0.252,0.027 0.473,0.067 0.666,0.119 0.192,0.053 0.343,0.129 0.456,0.228 0.111,0.1 0.168,0.246 0.168,0.438 0,0.224 -0.042,0.404 -0.126,0.541 C 0.306,2.098 0.197,2.202 0.066,2.274 -0.066,2.346 -0.215,2.395 -0.379,2.418 -0.543,2.442 -0.705,2.455 -0.864,2.455 -1.297,2.455 -1.656,2.372 -1.944,2.209 -2.232,2.045 -2.389,1.734 -2.412,1.278 h -1.021 c 0.017,0.384 0.097,0.708 0.241,0.972 0.143,0.264 0.336,0.479 0.575,0.643 0.24,0.164 0.517,0.281 0.828,0.353 0.313,0.072 0.641,0.108 0.984,0.108 0.281,0 0.559,-0.02 0.834,-0.059 C 0.306,3.254 0.556,3.172 0.779,3.049 1.004,2.924 1.184,2.75 1.319,2.526 1.455,2.303 1.524,2.01 1.524,1.65 v -3.191 c 0,-0.24 0.013,-0.416 0.042,-0.529 0.028,-0.112 0.122,-0.168 0.282,-0.168 0.088,0 0.191,0.02 0.312,0.06 V -2.97 C 1.983,-3.074 1.74,-3.125 1.428,-3.125" /></g><g
           transform="translate(348.3647,70.2871)"
           id="g318"><path
             id="path320"
             style="fill:#176fc1;fill-opacity:1;fill-rule:nonzero;stroke:none"
             d="m 0,0 v -1.309 h 0.023 c 0.249,0.504 0.553,0.876 0.913,1.117 0.36,0.239 0.816,0.351 1.369,0.335 v -1.08 C 1.897,-0.937 1.549,-0.992 1.26,-1.105 0.973,-1.217 0.74,-1.381 0.565,-1.597 0.389,-1.812 0.26,-2.074 0.18,-2.383 0.1,-2.691 0.061,-3.045 0.061,-3.445 v -2.76 H -0.96 V 0 Z" /></g><g
           transform="translate(354.4545,65.1211)"
           id="g322"><path
             id="path324"
             style="fill:#176fc1;fill-opacity:1;fill-rule:nonzero;stroke:none"
             d="M 0,0 C 0.236,0.139 0.426,0.323 0.57,0.551 0.715,0.779 0.82,1.037 0.889,1.325 0.956,1.613 0.99,1.901 0.99,2.189 0.99,2.461 0.959,2.729 0.895,2.994 0.83,3.258 0.729,3.496 0.588,3.707 0.448,3.92 0.266,4.09 0.043,4.217 -0.182,4.346 -0.453,4.41 -0.773,4.41 -1.102,4.41 -1.382,4.348 -1.613,4.224 -1.846,4.1 -2.035,3.934 -2.184,3.725 -2.332,3.518 -2.439,3.277 -2.508,3.006 -2.576,2.733 -2.609,2.449 -2.609,2.153 c 0,-0.28 0.027,-0.559 0.084,-0.84 0.055,-0.28 0.152,-0.534 0.287,-0.762 0.136,-0.228 0.316,-0.412 0.541,-0.551 0.223,-0.141 0.504,-0.211 0.84,-0.211 0.336,0 0.621,0.07 0.857,0.211 M 1.303,-2.791 C 0.838,-3.295 0.11,-3.547 -0.881,-3.547 c -0.289,0 -0.582,0.032 -0.883,0.096 -0.299,0.064 -0.572,0.168 -0.816,0.312 -0.244,0.145 -0.445,0.332 -0.606,0.565 -0.16,0.232 -0.248,0.515 -0.263,0.851 h 1.019 c 0.008,-0.183 0.067,-0.34 0.174,-0.468 0.109,-0.127 0.24,-0.231 0.397,-0.311 0.156,-0.08 0.326,-0.139 0.509,-0.175 0.184,-0.036 0.36,-0.054 0.528,-0.054 0.337,0 0.621,0.059 0.852,0.174 0.232,0.116 0.425,0.276 0.576,0.481 0.152,0.203 0.262,0.449 0.331,0.738 0.067,0.287 0.102,0.604 0.102,0.947 V 0.018 H 1.015 C 0.838,-0.367 0.572,-0.648 0.217,-0.828 -0.14,-1.009 -0.518,-1.099 -0.918,-1.099 c -0.464,0 -0.867,0.084 -1.211,0.252 -0.345,0.168 -0.633,0.394 -0.865,0.679 -0.231,0.283 -0.406,0.615 -0.522,0.996 -0.116,0.379 -0.173,0.781 -0.173,1.205 0,0.368 0.047,0.746 0.144,1.135 0.096,0.387 0.256,0.739 0.48,1.056 0.223,0.315 0.52,0.575 0.887,0.78 0.368,0.203 0.821,0.305 1.356,0.305 0.392,0 0.752,-0.086 1.08,-0.258 0.328,-0.172 0.584,-0.43 0.768,-0.774 h 0.013 v 0.889 h 0.959 v -5.677 c 0,-1.015 -0.232,-1.776 -0.695,-2.28" /></g><g
           transform="translate(362.1342,68.4629)"
           id="g326"><path
             id="path328"
             style="fill:#176fc1;fill-opacity:1;fill-rule:nonzero;stroke:none"
             d="M 0,0 C -0.092,0.216 -0.215,0.402 -0.371,0.558 -0.527,0.714 -0.712,0.838 -0.924,0.93 -1.136,1.021 -1.369,1.068 -1.625,1.068 -1.89,1.068 -2.128,1.021 -2.34,0.93 -2.552,0.838 -2.734,0.711 -2.886,0.552 -3.037,0.392 -3.158,0.205 -3.246,-0.006 -3.334,-0.219 -3.386,-0.444 -3.401,-0.685 H 0.162 C 0.147,-0.444 0.092,-0.217 0,0 m 0.246,-3.984 c -0.464,-0.352 -1.048,-0.528 -1.752,-0.528 -0.496,0 -0.926,0.08 -1.289,0.239 -0.365,0.161 -0.671,0.384 -0.918,0.672 -0.248,0.288 -0.434,0.632 -0.558,1.033 -0.125,0.4 -0.195,0.836 -0.21,1.308 0,0.471 0.071,0.903 0.215,1.295 0.145,0.393 0.346,0.733 0.606,1.021 0.26,0.288 0.568,0.511 0.925,0.671 0.355,0.161 0.745,0.241 1.17,0.241 0.551,0 1.009,-0.114 1.374,-0.343 C 0.172,1.397 0.465,1.107 0.685,0.756 0.904,0.403 1.057,0.02 1.141,-0.396 1.225,-0.812 1.258,-1.209 1.242,-1.584 h -4.643 c -0.009,-0.273 0.024,-0.53 0.095,-0.774 0.073,-0.245 0.189,-0.46 0.349,-0.648 0.159,-0.188 0.363,-0.338 0.611,-0.451 0.248,-0.111 0.54,-0.168 0.876,-0.168 0.433,0 0.786,0.1 1.062,0.301 0.277,0.199 0.459,0.504 0.547,0.912 H 1.147 C 1.01,-3.108 0.711,-3.633 0.246,-3.984" /></g><g
           transform="translate(365.3569,70.2871)"
           id="g330"><path
             id="path332"
             style="fill:#176fc1;fill-opacity:1;fill-rule:nonzero;stroke:none"
             d="m 0,0 v -1.309 h 0.023 c 0.248,0.504 0.553,0.876 0.912,1.117 0.36,0.239 0.817,0.351 1.369,0.335 v -1.08 C 1.895,-0.937 1.548,-0.992 1.26,-1.105 0.972,-1.217 0.739,-1.381 0.563,-1.597 0.388,-1.812 0.26,-2.074 0.18,-2.383 0.1,-2.691 0.06,-3.045 0.06,-3.445 v -2.76 H -0.961 V 0 Z" /></g><g
           transform="translate(318.2573,54.9863)"
           id="g334"><path
             id="path336"
             style="fill:#176fc1;fill-opacity:1;fill-rule:nonzero;stroke:none"
             d="m 0,0 v 0.9 h 1.044 v 0.924 c 0,0.504 0.145,0.887 0.438,1.147 C 1.773,3.23 2.199,3.36 2.76,3.36 2.855,3.36 2.966,3.352 3.09,3.336 3.214,3.32 3.324,3.297 3.42,3.264 V 2.377 C 3.332,2.408 3.236,2.43 3.132,2.442 3.027,2.454 2.932,2.461 2.844,2.461 2.596,2.461 2.404,2.412 2.268,2.316 2.132,2.221 2.064,2.036 2.064,1.764 V 0.9 h 1.2 V 0 h -1.2 V -5.304 H 1.044 V 0 Z" /></g><g
           transform="translate(323.3276,51.7773)"
           id="g338"><path
             id="path340"
             style="fill:#176fc1;fill-opacity:1;fill-rule:nonzero;stroke:none"
             d="m 0,0 c 0.1,-0.293 0.237,-0.537 0.414,-0.732 0.176,-0.197 0.381,-0.346 0.617,-0.451 0.237,-0.104 0.487,-0.156 0.75,-0.156 0.264,0 0.514,0.052 0.75,0.156 0.237,0.105 0.442,0.254 0.618,0.451 0.176,0.195 0.314,0.439 0.415,0.732 0.1,0.291 0.149,0.625 0.149,1.002 0,0.375 -0.049,0.709 -0.149,1.002 C 3.463,2.295 3.325,2.541 3.149,2.741 2.973,2.941 2.768,3.094 2.531,3.197 2.295,3.301 2.045,3.354 1.781,3.354 1.518,3.354 1.268,3.301 1.031,3.197 0.795,3.094 0.59,2.941 0.414,2.741 0.237,2.541 0.1,2.295 0,2.004 -0.101,1.711 -0.15,1.377 -0.15,1.002 -0.15,0.625 -0.101,0.291 0,0 m -1.039,2.279 c 0.129,0.397 0.32,0.741 0.576,1.032 0.256,0.293 0.572,0.523 0.948,0.691 0.376,0.168 0.808,0.252 1.296,0.252 0.496,0 0.93,-0.084 1.303,-0.252 C 3.455,3.834 3.77,3.604 4.025,3.311 4.281,3.02 4.473,2.676 4.602,2.279 4.73,1.883 4.793,1.457 4.793,1.002 4.793,0.545 4.73,0.121 4.602,-0.27 4.473,-0.662 4.281,-1.005 4.025,-1.297 3.77,-1.589 3.455,-1.816 3.084,-1.98 2.711,-2.145 2.277,-2.227 1.781,-2.227 c -0.488,0 -0.92,0.082 -1.296,0.247 -0.376,0.164 -0.692,0.391 -0.948,0.683 -0.256,0.292 -0.447,0.635 -0.576,1.027 -0.127,0.391 -0.191,0.815 -0.191,1.272 0,0.455 0.064,0.881 0.191,1.277" /></g><g
           transform="translate(330.2456,55.8867)"
           id="g342"><path
             id="path344"
             style="fill:#176fc1;fill-opacity:1;fill-rule:nonzero;stroke:none"
             d="m 0,0 v -1.309 h 0.023 c 0.248,0.504 0.553,0.877 0.913,1.118 0.359,0.239 0.816,0.351 1.368,0.336 V -0.936 C 1.896,-0.936 1.548,-0.992 1.26,-1.104 0.972,-1.217 0.739,-1.38 0.563,-1.596 0.388,-1.812 0.26,-2.074 0.18,-2.383 0.1,-2.689 0.06,-3.044 0.06,-3.444 v -2.76 H -0.961 V 0 Z" /></g><g
           transform="translate(339.1362,49.6826)"
           id="g346"><path
             id="path348"
             style="fill:#176fc1;fill-opacity:1;fill-rule:nonzero;stroke:none"
             d="m 0,0 v 6.097 h -2.207 v 0.815 c 0.287,0 0.567,0.023 0.84,0.065 0.271,0.045 0.517,0.128 0.738,0.247 0.219,0.121 0.405,0.284 0.558,0.492 C 0.08,7.924 0.185,8.189 0.24,8.508 H 1.02 V 0 Z" /></g><g
           transform="translate(343.2172,56.3789)"
           id="g350"><path
             id="path352"
             style="fill:#176fc1;fill-opacity:1;fill-rule:nonzero;stroke:none"
             d="M 0,0 C 0.112,0.367 0.286,0.686 0.522,0.953 0.758,1.222 1.052,1.432 1.403,1.584 1.756,1.735 2.155,1.811 2.604,1.811 2.972,1.811 3.317,1.758 3.642,1.65 3.966,1.541 4.248,1.386 4.487,1.182 4.728,0.977 4.918,0.724 5.058,0.42 5.198,0.115 5.269,-0.236 5.269,-0.637 5.269,-1.012 5.21,-1.344 5.094,-1.633 4.978,-1.92 4.823,-2.178 4.632,-2.406 4.44,-2.635 4.22,-2.84 3.972,-3.024 3.724,-3.209 3.468,-3.385 3.204,-3.553 2.94,-3.713 2.676,-3.87 2.411,-4.026 2.147,-4.182 1.905,-4.349 1.687,-4.524 1.466,-4.7 1.278,-4.891 1.122,-5.094 0.966,-5.299 0.864,-5.532 0.815,-5.797 h 4.37 v -0.899 h -5.557 c 0.04,0.504 0.13,0.934 0.269,1.29 0.141,0.355 0.319,0.666 0.535,0.929 0.215,0.264 0.46,0.497 0.732,0.697 0.272,0.2 0.556,0.387 0.852,0.563 0.36,0.225 0.676,0.431 0.948,0.619 0.271,0.188 0.498,0.377 0.678,0.57 0.179,0.192 0.316,0.399 0.408,0.624 0.092,0.224 0.139,0.484 0.139,0.779 0,0.232 -0.045,0.443 -0.133,0.631 C 3.968,0.193 3.85,0.355 3.702,0.492 3.554,0.627 3.38,0.732 3.18,0.804 2.979,0.875 2.768,0.912 2.544,0.912 2.247,0.912 1.993,0.85 1.782,0.726 1.569,0.602 1.396,0.439 1.26,0.24 1.124,0.039 1.026,-0.187 0.966,-0.439 0.905,-0.691 0.88,-0.944 0.888,-1.2 h -1.02 C -0.156,-0.768 -0.112,-0.368 0,0" /></g><g
           transform="translate(350.8432,52.7968)"
           id="g354"><path
             id="path356"
             style="fill:#176fc1;fill-opacity:1;fill-rule:nonzero;stroke:none"
             d="m 0,0 c 0.02,-0.396 0.084,-0.768 0.191,-1.116 0.109,-0.349 0.283,-0.642 0.523,-0.882 0.239,-0.24 0.575,-0.36 1.008,-0.36 0.432,0 0.768,0.12 1.008,0.36 0.24,0.24 0.414,0.533 0.522,0.882 0.107,0.348 0.172,0.72 0.191,1.116 0.02,0.396 0.031,0.754 0.031,1.074 0,0.207 -0.002,0.438 -0.006,0.69 C 3.463,2.016 3.443,2.268 3.408,2.52 3.371,2.771 3.32,3.018 3.252,3.258 3.184,3.498 3.084,3.707 2.951,3.888 2.82,4.068 2.654,4.213 2.453,4.326 2.254,4.437 2.01,4.494 1.722,4.494 1.434,4.494 1.189,4.437 0.99,4.326 0.789,4.213 0.623,4.068 0.492,3.888 0.359,3.707 0.26,3.498 0.191,3.258 0.123,3.018 0.072,2.771 0.035,2.52 0,2.268 -0.021,2.016 -0.024,1.764 -0.028,1.512 -0.03,1.281 -0.03,1.074 -0.03,0.754 -0.021,0.396 0,0 m -1.086,2.033 c 0.016,0.336 0.056,0.664 0.119,0.985 0.065,0.32 0.156,0.624 0.277,0.912 0.12,0.288 0.284,0.54 0.492,0.756 C 0.01,4.902 0.271,5.074 0.588,5.201 0.904,5.33 1.281,5.394 1.722,5.394 2.162,5.394 2.539,5.33 2.855,5.201 3.172,5.074 3.434,4.902 3.642,4.686 3.85,4.47 4.014,4.218 4.134,3.93 4.254,3.642 4.346,3.338 4.41,3.018 4.474,2.697 4.514,2.369 4.529,2.033 4.546,1.697 4.554,1.373 4.554,1.062 4.554,0.75 4.546,0.426 4.529,0.09 4.514,-0.246 4.474,-0.574 4.41,-0.895 4.346,-1.215 4.254,-1.517 4.134,-1.801 4.014,-2.084 3.85,-2.334 3.642,-2.551 3.434,-2.766 3.174,-2.936 2.861,-3.061 2.55,-3.184 2.17,-3.246 1.722,-3.246 c -0.441,0 -0.818,0.062 -1.134,0.185 -0.317,0.125 -0.578,0.295 -0.786,0.51 -0.208,0.217 -0.372,0.467 -0.492,0.75 -0.121,0.284 -0.212,0.586 -0.277,0.906 -0.063,0.321 -0.103,0.649 -0.119,0.985 -0.017,0.336 -0.024,0.66 -0.024,0.972 0,0.311 0.007,0.635 0.024,0.971" /></g><g
           transform="translate(361.3911,53.6845)"
           id="g358"><path
             id="path360"
             style="fill:#176fc1;fill-opacity:1;fill-rule:nonzero;stroke:none"
             d="m 0,0 c -0.076,0.276 -0.192,0.522 -0.349,0.738 -0.156,0.216 -0.355,0.388 -0.599,0.516 -0.244,0.128 -0.531,0.192 -0.858,0.192 -0.344,0 -0.636,-0.068 -0.877,-0.204 -0.24,-0.136 -0.435,-0.313 -0.588,-0.534 -0.152,-0.221 -0.261,-0.471 -0.33,-0.75 -0.068,-0.28 -0.101,-0.564 -0.101,-0.852 0,-0.304 0.036,-0.598 0.107,-0.882 0.073,-0.284 0.187,-0.534 0.342,-0.75 0.156,-0.216 0.358,-0.39 0.607,-0.522 0.248,-0.133 0.547,-0.198 0.9,-0.198 0.351,0 0.645,0.067 0.882,0.204 0.236,0.136 0.425,0.316 0.57,0.54 0.144,0.224 0.248,0.48 0.312,0.769 0.063,0.287 0.096,0.584 0.096,0.886 C 0.114,-0.558 0.075,-0.276 0,0 m -3.666,2.202 v -0.84 h 0.024 c 0.168,0.344 0.432,0.594 0.791,0.75 0.361,0.157 0.756,0.235 1.189,0.235 0.479,0 0.897,-0.089 1.254,-0.265 C -0.052,1.905 0.243,1.668 0.479,1.368 0.716,1.067 0.893,0.722 1.014,0.33 c 0.12,-0.392 0.18,-0.808 0.18,-1.248 0,-0.44 -0.058,-0.856 -0.174,-1.248 C 0.903,-2.558 0.728,-2.899 0.491,-3.192 0.256,-3.483 -0.04,-3.714 -0.396,-3.882 -0.753,-4.05 -1.167,-4.134 -1.638,-4.134 c -0.152,0 -0.322,0.016 -0.51,0.048 -0.189,0.032 -0.374,0.084 -0.558,0.155 -0.184,0.073 -0.358,0.17 -0.522,0.295 -0.164,0.123 -0.302,0.278 -0.414,0.462 h -0.024 v -3.192 h -1.021 v 8.568 z" /></g><g
           transform="translate(363.2924,55.8867)"
           id="g362"><path
             id="path364"
             style="fill:#176fc1;fill-opacity:1;fill-rule:nonzero;stroke:none"
             d="M 0,0 H 1.309 L 2.796,-2.172 4.344,0 h 1.224 l -2.136,-2.855 2.4,-3.349 H 4.523 L 2.796,-3.637 1.068,-6.204 h -1.236 l 2.328,3.265 z" /></g><g
           transform="translate(379.1928,53.1269)"
           id="g366"><path
             id="path368"
             style="fill:#176fc1;fill-opacity:1;fill-rule:nonzero;stroke:none"
             d="m 0,0 v -0.816 h -2.616 v -2.628 h -0.816 v 2.628 H -6.048 V 0 h 2.616 v 2.627 h 0.816 V 0 Z" /></g></g></g></g></svg>