<?xml version="1.0" encoding="UTF-8" standalone="no"?>
<!DOCTYPE svg PUBLIC "-//W3C//DTD SVG 1.1//EN" "http://www.w3.org/Graphics/SVG/1.1/DTD/svg11.dtd">
<svg xmlns="http://www.w3.org/2000/svg" xmlns:xl="http://www.w3.org/1999/xlink" version="1.1" xmlns:dc="http://purl.org/dc/elements/1.1/" viewBox="432 310 124 123" width="124" height="123">
  <defs/>
  <metadata> Produced by OmniGraffle 7.10.1 
    <dc:date>2019-03-29 17:24:01 +0000</dc:date>
  </metadata>
  <g id="Canvas_1" stroke-opacity="1" fill="none" fill-opacity="1" stroke-dasharray="none" stroke="none">
    <title>Canvas 1</title>
    <g id="Canvas_1: Layer 1">
      <title>Layer 1</title>
      <g id="Graphic_27">
        <path d="M 432.2 432.9 L 555.8 432.9 L 531.08 310.5 L 456.92 310.5 Z" fill="black"/>
      </g>
      <g id="Graphic_10">
        <title>WiFi Tethering</title>
        <path d="M 494 338.9311 C 491.437 338.9311 489.34 341.0496 489.34 343.63887 C 489.34 346.22814 491.437 348.34664 494 348.34664 C 496.563 348.34664 498.66 346.22814 498.66 343.63887 C 498.66 341.0496 496.563 338.9311 494 338.9311 Z M 507.98 343.63887 C 507.98 335.8475 501.7123 329.51554 494 329.51554 C 486.2877 329.51554 480.02 335.8475 480.02 343.63887 C 480.02 348.8645 482.8393 353.4075 487.01 355.85554 L 489.34 351.7598 C 486.5673 350.11206 484.68 347.12262 484.68 343.63887 C 484.68 338.43678 488.8507 334.2233 494 334.2233 C 499.1493 334.2233 503.32 338.43678 503.32 343.63887 C 503.32 347.12262 501.4327 350.11206 498.66 351.7598 L 500.99 355.85554 C 505.1607 353.4075 507.98 348.8645 507.98 343.63887 Z M 494 320.1 C 481.1384 320.1 470.7 330.6454 470.7 343.63887 C 470.7 352.34825 475.3833 359.92777 482.3267 364 L 484.6567 359.92777 C 479.1113 356.65587 475.36 350.60637 475.36 343.63887 C 475.36 333.2347 483.7014 324.80777 494 324.80777 C 504.2986 324.80777 512.64 333.2347 512.64 343.63887 C 512.64 350.60637 508.8887 356.65587 503.32 359.92777 L 505.65 364 C 512.6167 359.92777 517.3 352.34825 517.3 343.63887 C 517.3 330.6454 506.8616 320.1 494 320.1 Z" fill="white"/>
      </g>
      <g id="Graphic_3">
        <title>Directions Car</title>
        <path d="M 516.60444 369.09312 C 515.89333 367.28625 513.9022 366 511.55556 366 L 472.44444 366 C 470.0978 366 468.1422 367.28625 467.39556 369.09312 L 460 387.4375 L 460 411.9375 C 460 413.62187 461.6 415 463.55556 415 L 467.1111 415 C 469.06667 415 470.66667 413.62187 470.66667 411.9375 L 470.66667 408.875 L 513.33333 408.875 L 513.33333 411.9375 C 513.33333 413.62187 514.93333 415 516.8889 415 L 520.44444 415 C 522.4 415 524 413.62187 524 411.9375 L 524 387.4375 L 516.60444 369.09312 Z M 472.44444 399.6875 C 469.49333 399.6875 467.1111 397.63562 467.1111 395.09375 C 467.1111 392.55188 469.49333 390.5 472.44444 390.5 C 475.39556 390.5 477.7778 392.55188 477.7778 395.09375 C 477.7778 397.63562 475.39556 399.6875 472.44444 399.6875 Z M 511.55556 399.6875 C 508.60444 399.6875 506.2222 397.63562 506.2222 395.09375 C 506.2222 392.55188 508.60444 390.5 511.55556 390.5 C 514.50667 390.5 516.8889 392.55188 516.8889 395.09375 C 516.8889 397.63562 514.50667 399.6875 511.55556 399.6875 Z M 467.1111 384.375 L 472.44444 370.59375 L 511.55556 370.59375 L 516.8889 384.375 L 467.1111 384.375 Z" fill="white"/>
      </g>
      <g id="Graphic_28">
        <rect x="491.85" y="414.75" width="4.2999927" height="11.999995" fill="white"/>
      </g>
      <g id="Graphic_29">
        <rect x="491.85" y="352.25" width="4.2999927" height="11.999995" fill="white"/>
      </g>
      <g id="Graphic_30">
        <rect x="492.35" y="313.6" width="4.2999927" height="3.5000057" fill="white"/>
      </g>
    </g>
  </g>
</svg>
