<?xml version="1.0" encoding="iso-8859-1"?>
<!-- Generator: Adobe Illustrator 18.0.0, SVG Export Plug-In . SVG Version: 6.00 Build 0)  -->
<!DOCTYPE svg PUBLIC "-//W3C//DTD SVG 1.1//EN" "http://www.w3.org/Graphics/SVG/1.1/DTD/svg11.dtd">
<svg version="1.1" id="Capa_1" xmlns="http://www.w3.org/2000/svg" xmlns:xlink="http://www.w3.org/1999/xlink" x="0px" y="0px"
	 viewBox="0 0 230 230" style="enable-background:new 0 0 230 230;" xml:space="preserve">
<path d="M93.07,156.553c4.692,5.769,9.473,11.116,14.268,15.998c-15.603,14.058-29.657,21.284-38.699,21.284
	c-2.572,0-4.737-0.59-6.436-1.753c-7.013-4.805-7.569-20.004-1.132-40.499C70.924,153.93,81.719,155.607,93.07,156.553z
	 M84.192,85.024c-6.999,0.878-13.549,2.034-19.566,3.421c1.957,4.987,4.272,10.2,6.961,15.589c2.629-4.359,5.425-8.712,8.381-13.029
	C81.36,88.974,82.771,86.985,84.192,85.024z M230,115c0,63.514-51.486,115-115,115S0,178.514,0,115S51.486,0,115,0
	S230,51.486,230,115z M186.686,83.76c-2.418-0.91-4.936-1.768-7.541-2.574c0.808-2.605,1.522-5.167,2.138-7.676
	c5.313-21.652,2.654-37.402-7.487-44.349c-3.499-2.396-7.683-3.611-12.435-3.611c-12.843,0-29.428,9.083-46.361,24.505
	C98.067,34.633,81.482,25.55,68.639,25.55c-4.753,0-8.937,1.215-12.435,3.611c-10.142,6.947-12.801,22.697-7.487,44.349
	c0.616,2.509,1.331,5.072,2.139,7.677c-2.606,0.806-5.123,1.664-7.541,2.574C22.448,91.613,10.956,102.707,10.956,115
	c0,12.294,11.491,23.388,32.357,31.24c2.418,0.91,4.936,1.768,7.541,2.574c-0.808,2.605-1.522,5.167-2.138,7.676
	c-5.313,21.651-2.654,37.402,7.488,44.35c3.498,2.395,7.682,3.61,12.434,3.61c0.001,0,0,0,0.001,0
	c12.843,0,29.427-9.084,46.36-24.505c16.934,15.422,33.518,24.505,46.361,24.505c4.753,0,8.936-1.215,12.435-3.611
	c10.142-6.947,12.801-22.698,7.487-44.349c-0.616-2.509-1.331-5.071-2.138-7.676c2.606-0.806,5.123-1.664,7.541-2.574
	c20.866-7.852,32.357-18.946,32.357-31.24S207.552,91.612,186.686,83.76z M84.192,144.976c-1.421-1.961-2.832-3.95-4.224-5.982
	c-2.957-4.316-5.752-8.669-8.381-13.029c-2.689,5.389-5.004,10.602-6.961,15.589C70.643,142.941,77.194,144.098,84.192,144.976z
	 M175.642,91.216c-2.968,7.727-6.66,15.718-10.987,23.784c4.334,8.079,8.03,16.082,11.001,23.82
	c20.546-6.271,32.772-15.319,32.772-23.82c0-7.336-9.525-15.3-25.481-21.304C180.612,92.817,178.171,91.991,175.642,91.216z
	 M122.333,72.648c-2.459-2.772-4.908-5.395-7.333-7.858c-2.426,2.463-4.874,5.086-7.334,7.858c2.43-0.065,4.871-0.11,7.331-0.11
	C117.458,72.539,119.901,72.583,122.333,72.648z M107.666,157.352c2.46,2.772,4.908,5.396,7.334,7.858
	c2.426-2.463,4.874-5.086,7.333-7.858c-2.432,0.066-4.873,0.11-7.334,0.11C112.54,157.462,110.098,157.417,107.666,157.352z
	 M145.818,85.039c1.417,1.957,2.825,3.94,4.213,5.967c2.957,4.316,5.752,8.669,8.381,13.029c2.684-5.378,4.995-10.582,6.95-15.56
	C159.209,87.05,152.659,85.901,145.818,85.039z M136.93,156.553c-4.692,5.769-9.473,11.116-14.267,15.998
	c15.602,14.058,29.656,21.284,38.698,21.284c2.572,0,4.737-0.59,6.437-1.754c7.013-4.804,7.568-20.004,1.131-40.499
	C159.076,153.93,148.281,155.607,136.93,156.553z M54.344,91.18C33.797,97.451,21.571,106.498,21.571,115
	s12.226,17.549,32.772,23.82c2.971-7.738,6.667-15.741,11.001-23.82C61.011,106.921,57.315,98.918,54.344,91.18z M93.07,73.447
	c4.692-5.769,9.473-11.116,14.267-15.998C91.734,43.392,77.681,36.165,68.639,36.165c-2.572,0-4.737,0.59-6.436,1.754
	c-7.013,4.804-7.568,20.004-1.131,40.5C70.924,76.07,81.72,74.393,93.07,73.447z M158.414,125.966
	c-2.629,4.359-5.425,8.712-8.381,13.029c-1.392,2.032-2.803,4.021-4.224,5.982c6.998-0.878,13.549-2.035,19.566-3.421
	C163.417,136.568,161.102,131.355,158.414,125.966z M168.928,78.418c6.437-20.495,5.882-35.695-1.131-40.499
	c-1.699-1.163-3.864-1.754-6.436-1.754c-9.042,0-23.095,7.227-38.698,21.285c4.794,4.882,9.575,10.229,14.267,15.998
	C148.281,74.393,159.076,76.07,168.928,78.418z M88.726,132.996c-4.178-6.1-7.923-12.119-11.269-17.996
	c3.346-5.877,7.091-11.896,11.27-17.996c3.226-4.71,6.488-9.146,9.757-13.323c5.315-0.339,10.82-0.528,16.517-0.528
	c5.602,0,11.12,0.188,16.523,0.535c3.267,4.176,6.527,8.608,9.751,13.316c4.179,6.1,7.923,12.119,11.27,17.996
	c-3.346,5.877-7.091,11.896-11.269,17.996c-3.227,4.71-6.488,9.146-9.757,13.323c-5.315,0.339-10.821,0.528-16.518,0.528
	c-5.696,0-11.202-0.189-16.517-0.528C95.214,142.142,91.952,137.706,88.726,132.996z M101.289,112.982
	c0,7.571,6.139,13.711,13.711,13.711c7.572,0,13.711-6.14,13.711-13.711c0-7.572-6.139-13.711-13.711-13.711
	C107.428,99.271,101.289,105.41,101.289,112.982z"/>
<g>
</g>
<g>
</g>
<g>
</g>
<g>
</g>
<g>
</g>
<g>
</g>
<g>
</g>
<g>
</g>
<g>
</g>
<g>
</g>
<g>
</g>
<g>
</g>
<g>
</g>
<g>
</g>
<g>
</g>
</svg>
