<?xml version="1.0" standalone="no"?>
<!DOCTYPE svg PUBLIC "-//W3C//DTD SVG 20010904//EN"
 "http://www.w3.org/TR/2001/REC-SVG-20010904/DTD/svg10.dtd">
<svg version="1.0" xmlns="http://www.w3.org/2000/svg"
 width="200.000000pt" height="200.000000pt" viewBox="0 0 200.000000 200.000000"
 preserveAspectRatio="xMidYMid meet">
<metadata>
Created by potrace 1.11, written by Peter Selinger 2001-2013
</metadata>
<g transform="translate(0.000000,200.000000) scale(0.100000,-0.100000)"
fill="#000000" stroke="none">
<path d="M611 1806 c-21 -25 -9 -69 21 -80 23 -8 32 -6 51 12 19 18 35 22 95
22 l72 0 0 -200 0 -200 -26 10 c-61 24 -135 5 -198 -51 -26 -23 -53 -53 -60
-68 -21 -40 -92 -61 -203 -61 l-93 0 0 69 c0 58 3 71 20 82 43 29 22 99 -29
99 -47 0 -68 -64 -31 -97 15 -15 20 -35 22 -93 l3 -75 83 -3 83 -3 -30 -34
c-16 -19 -33 -50 -37 -70 -3 -19 -9 -36 -13 -36 -31 -6 -71 -5 -71 2 0 4 -7
15 -16 23 -40 40 -109 -7 -86 -59 16 -36 49 -41 86 -14 17 13 46 24 66 25 31
1 36 -3 53 -40 19 -44 16 -101 -6 -108 -6 -2 -58 -4 -115 -3 -85 1 -102 -2
-103 -15 0 -8 0 -50 1 -92 1 -48 -3 -78 -9 -78 -6 0 -18 -11 -26 -24 -34 -51
30 -111 75 -71 25 23 26 59 1 82 -19 18 -24 47 -22 133 l1 46 98 -1 97 0 12
-53 c19 -81 86 -169 177 -231 73 -50 150 -63 225 -36 47 16 43 26 43 -93 1
-40 -2 -76 -6 -79 -4 -4 -30 -8 -57 -9 -36 -1 -56 4 -67 16 -26 26 -48 30 -71
14 -45 -32 -10 -104 42 -85 13 5 27 15 29 22 3 9 26 13 71 14 36 0 69 3 72 7
4 3 7 56 8 117 0 105 2 112 24 127 15 9 40 14 66 12 l42 -3 1 -115 c0 -104 -2
-117 -22 -142 -38 -47 -5 -99 50 -78 14 5 26 13 27 17 0 5 2 16 4 26 2 10 -6
27 -18 37 -19 18 -21 32 -22 136 0 63 2 118 5 123 3 4 33 11 68 17 l62 10 0
-193 0 -193 83 0 c71 0 87 -3 102 -20 36 -40 89 -17 83 37 -5 41 -49 55 -81
25 -19 -18 -35 -22 -95 -22 l-72 0 0 185 0 185 36 15 c56 23 93 54 113 94 18
34 23 37 68 40 26 1 81 13 121 27 54 18 94 24 157 24 l85 0 0 -66 c0 -59 -3
-70 -26 -90 -27 -26 -26 -58 4 -81 54 -43 113 37 62 84 -15 15 -20 35 -22 93
l-3 75 -82 3 c-46 2 -83 6 -83 9 0 4 7 14 15 23 9 10 18 39 21 67 l6 49 49 -1
c36 -1 55 -7 73 -24 19 -17 31 -22 51 -17 55 14 54 88 -2 102 -21 6 -31 2 -47
-17 -18 -21 -30 -25 -75 -24 l-54 1 -18 47 c-10 26 -26 59 -35 72 -9 14 -12
26 -8 26 5 1 71 2 146 3 75 1 140 4 143 8 4 4 7 44 6 89 -1 76 1 84 25 106 19
17 24 29 19 46 -14 44 -60 61 -89 31 -22 -22 -20 -54 5 -81 22 -22 22 -27 20
-146 l-1 -33 -147 1 -148 1 -38 36 c-36 34 -85 55 -115 49 -7 -1 -31 18 -53
42 -21 25 -62 60 -91 78 -29 18 -55 34 -57 36 -3 2 -5 161 -2 235 1 25 3 26
59 24 45 -2 64 -8 80 -24 33 -33 82 -10 82 38 0 22 -6 30 -31 39 -26 9 -33 7
-53 -12 -18 -18 -33 -22 -85 -21 -47 0 -64 -4 -70 -15 -4 -9 -6 -71 -5 -138 2
-92 -1 -120 -10 -117 -7 3 -34 6 -62 9 -27 2 -51 4 -54 4 -3 1 -5 52 -5 114 0
100 2 116 22 140 36 46 3 98 -50 78 -40 -15 -44 -60 -8 -87 11 -9 15 -38 16
-133 l1 -121 -36 -11 c-19 -6 -50 -20 -67 -31 l-33 -20 0 211 0 211 -83 0
c-70 0 -85 3 -100 20 -20 23 -59 26 -76 6z m572 -429 c29 -13 76 -46 106 -73
l54 -50 -41 -27 c-23 -15 -51 -40 -63 -56 -18 -25 -25 -28 -50 -21 -46 14 -94
47 -107 75 -10 23 -32 35 -32 18 0 -34 98 -113 139 -113 8 0 11 -11 9 -27 -2
-14 2 -28 7 -30 6 -2 11 7 12 18 2 25 46 83 84 111 92 69 191 19 262 -132 40
-83 43 -159 10 -206 -28 -39 -104 -72 -187 -83 l-64 -7 -10 50 c-10 47 -9 52
11 66 40 28 88 73 98 92 18 34 1 32 -28 -2 -15 -18 -45 -46 -67 -62 l-39 -28
-23 21 c-41 39 -147 54 -245 36 -55 -11 -111 65 -103 141 2 24 0 42 -6 42 -6
0 -10 -9 -10 -20 0 -24 -8 -25 -40 -3 -38 26 -80 76 -80 96 0 9 -4 17 -10 17
-37 0 20 -93 81 -131 25 -15 40 -34 48 -58 6 -20 22 -49 36 -66 l26 -29 -23
-9 c-116 -43 -248 -51 -305 -17 -35 21 -51 21 -38 1 9 -15 72 -41 100 -41 30
0 43 -17 51 -67 11 -72 -22 -107 -111 -119 -31 -4 -31 -4 -14 -14 35 -20 139
29 139 66 0 30 162 42 238 19 13 -5 22 -3 22 3 0 27 -135 41 -212 23 -27 -6
-38 -6 -39 3 -1 17 -6 41 -14 65 -5 18 -2 21 22 22 40 1 70 7 143 29 236 71
372 31 374 -112 1 -61 -24 -95 -95 -131 -71 -36 -190 -56 -312 -54 -97 3 -135
-4 -102 -17 9 -3 21 -4 26 0 5 3 16 1 25 -4 13 -7 6 -15 -40 -37 -48 -23 -65
-27 -110 -22 -70 7 -123 35 -185 97 -128 128 -141 243 -40 346 52 53 31 60
-22 8 l-37 -36 -16 49 c-20 62 -13 102 26 142 33 33 114 74 129 65 5 -3 9 -12
9 -21 0 -47 69 -111 157 -146 70 -27 57 -3 -17 31 -129 60 -154 130 -78 217
90 103 193 111 291 25 26 -22 37 -27 37 -17 0 9 -11 24 -25 35 -14 11 -25 22
-25 26 0 3 15 13 33 22 88 47 175 50 260 11z"/>
</g>
</svg>
