<?xml version="1.0" standalone="no"?>
<!DOCTYPE svg PUBLIC "-//W3C//DTD SVG 20010904//EN"
 "http://www.w3.org/TR/2001/REC-SVG-20010904/DTD/svg10.dtd">
<svg version="1.0" xmlns="http://www.w3.org/2000/svg"
 width="700.000000pt" height="700.000000pt" viewBox="0 0 700.000000 700.000000"
 preserveAspectRatio="xMidYMid meet">
<metadata>
Created by potrace 1.14, written by Peter Selinger 2001-2017
</metadata>
<g transform="translate(0.000000,700.000000) scale(0.100000,-0.100000)"
fill="#000000" stroke="none">
<path d="M5818 6645 c-1 -1 -39 -6 -83 -9 -126 -11 -285 -38 -445 -77 -91 -22
-279 -88 -376 -132 -103 -47 -284 -146 -319 -176 -11 -10 -32 -25 -47 -34
-100 -62 -278 -229 -397 -372 -107 -128 -291 -388 -291 -410 0 -4 -9 -19 -19
-34 -31 -43 -145 -278 -184 -376 -79 -203 -142 -436 -163 -600 -3 -27 -8 -59
-10 -70 -23 -106 -22 -412 0 -625 2 -14 -10 -54 -25 -90 -35 -85 -102 -283
-130 -388 -12 -46 -23 -82 -24 -80 -2 2 -6 41 -9 87 -4 47 -9 87 -10 90 -2 3
-7 30 -10 60 -4 29 -8 57 -11 61 -2 4 -7 25 -9 47 -3 21 -21 94 -40 161 -209
726 -718 1214 -1501 1441 -73 21 -271 65 -340 76 -22 3 -67 10 -100 15 -33 5
-85 12 -115 15 -30 3 -75 8 -100 11 -61 7 -701 13 -774 7 l-58 -5 6 -121 c3
-67 7 -131 10 -142 2 -12 7 -52 11 -90 3 -38 8 -72 10 -75 2 -3 6 -26 10 -50
3 -25 19 -99 35 -165 145 -598 463 -1071 920 -1368 97 -63 298 -168 414 -216
157 -65 393 -140 496 -156 19 -3 58 -10 85 -15 166 -31 580 -34 668 -5 7 2 29
6 49 9 77 12 220 50 287 77 23 10 24 9 18 -33 -4 -24 -9 -52 -11 -64 -2 -12
-7 -45 -11 -75 -4 -30 -8 -56 -10 -59 -2 -3 -6 -43 -10 -90 -4 -47 -8 -87 -10
-90 -2 -3 -6 -50 -10 -105 -3 -55 -8 -127 -11 -160 -7 -82 -7 -584 0 -670 3
-38 8 -112 11 -164 6 -88 5 -93 -12 -86 -175 70 -316 84 -480 45 -107 -25
-159 -46 -275 -112 -58 -33 -209 -140 -244 -173 -113 -105 -164 -157 -334
-344 -184 -203 -212 -228 -474 -426 l-99 -75 214 0 c118 -1 574 -3 1014 -5
2913 -16 3156 -17 3161 -12 2 2 -31 40 -73 84 -106 109 -166 146 -273 167
-147 28 -196 39 -242 55 -146 50 -241 133 -411 356 -179 234 -288 326 -441
370 -92 27 -159 17 -304 -44 -103 -44 -136 -53 -198 -57 -70 -3 -199 17 -216
34 -3 4 -9 30 -12 57 -3 28 -10 88 -16 135 -5 47 -12 112 -15 145 -3 33 -8 80
-10 105 -27 287 -27 787 1 1040 22 210 51 394 85 545 24 106 73 282 95 342
l15 41 52 -4 c29 -3 90 -9 137 -13 95 -9 386 -7 470 3 30 4 71 8 90 10 68 7
126 17 245 42 626 133 1145 491 1514 1042 161 242 302 538 402 847 36 110 85
281 94 323 1 9 10 44 18 77 32 124 91 454 110 612 4 37 9 35 -108 57 -101 19
-135 24 -215 32 -36 3 -96 10 -135 14 -67 7 -489 12 -497 5z"/>
</g>
</svg>
