<?xml version="1.0" standalone="no"?>
<!DOCTYPE svg PUBLIC "-//W3C//DTD SVG 20010904//EN"
 "http://www.w3.org/TR/2001/REC-SVG-20010904/DTD/svg10.dtd">
<svg version="1.0" xmlns="http://www.w3.org/2000/svg"
 width="260.000000pt" height="260.000000pt" viewBox="0 0 260.000000 260.000000"
 preserveAspectRatio="xMidYMid meet">
<metadata>
Created by potrace 1.11, written by Peter Selinger 2001-2013
</metadata>
<g transform="translate(0.000000,260.000000) scale(0.100000,-0.100000)"
fill="#000000" stroke="none">
<path d="M980 2355 l0 -85 -165 0 -165 0 0 -80 0 -80 -80 0 -80 0 0 -80 0 -80
-80 0 -80 0 0 -80 0 -80 -85 0 -85 0 0 -85 0 -85 -80 0 -80 0 0 -160 0 -160
80 0 80 0 0 -80 0 -80 -80 0 -80 0 0 -245 0 -245 80 0 80 0 0 -80 0 -80 85 0
85 0 0 -85 0 -85 80 0 80 0 0 -80 0 -80 160 0 160 0 0 -80 0 -80 410 0 410 0
0 80 0 80 160 0 160 0 0 80 0 80 80 0 80 0 0 85 0 85 85 0 85 0 0 160 0 160
80 0 80 0 0 405 0 405 -80 0 -80 0 0 165 0 165 -85 0 -85 0 0 80 0 80 -80 0
-80 0 0 80 0 80 -160 0 -160 0 0 85 0 85 -325 0 -325 0 0 -85z m650 -165 l0
-80 160 0 160 0 0 -80 0 -80 80 0 80 0 0 -165 0 -165 85 0 85 0 0 -405 0 -405
-85 0 -85 0 0 -160 0 -160 -80 0 -80 0 0 160 0 160 -80 0 -80 0 0 80 0 80 -80
0 -80 0 0 -80 0 -80 -85 0 -85 0 0 80 0 80 -80 0 -80 0 0 -160 0 -160 -80 0
-80 0 0 -165 0 -165 80 0 80 0 0 85 0 85 80 0 80 0 0 -85 0 -85 85 0 85 0 0
85 0 85 80 0 80 0 0 -85 0 -85 -80 0 -80 0 0 -80 0 -80 -410 0 -410 0 0 80 0
80 -160 0 -160 0 0 85 0 85 -80 0 -80 0 0 80 0 80 -85 0 -85 0 0 245 0 245 85
0 85 0 0 80 0 80 -85 0 -85 0 0 160 0 160 85 0 85 0 0 85 0 85 80 0 80 0 0 80
0 80 80 0 80 0 0 80 0 80 165 0 165 0 0 80 0 80 325 0 325 0 0 -80z"/>
<path d="M490 1380 l0 -240 80 0 80 0 0 -85 0 -85 80 0 80 0 0 85 0 85 -80 0
-80 0 0 160 0 160 165 0 165 0 0 -80 0 -80 80 0 80 0 0 80 0 80 -80 0 -80 0 0
80 0 80 -245 0 -245 0 0 -240z"/>
<path d="M1630 1380 l0 -240 80 0 80 0 0 240 0 240 -80 0 -80 0 0 -240z"/>
<path d="M1950 1380 l0 -240 80 0 80 0 0 240 0 240 -80 0 -80 0 0 -240z"/>
<path d="M1950 890 l0 -80 80 0 80 0 0 80 0 80 -80 0 -80 0 0 -80z"/>
</g>
</svg>
