<?xml version="1.0" standalone="no"?>
<!DOCTYPE svg PUBLIC "-//W3C//DTD SVG 20010904//EN"
 "http://www.w3.org/TR/2001/REC-SVG-20010904/DTD/svg10.dtd">
<svg version="1.0" xmlns="http://www.w3.org/2000/svg"
 width="240.000000pt" height="240.000000pt" viewBox="0 0 240.000000 240.000000"
 preserveAspectRatio="xMidYMid meet">
<metadata>
Created by potrace 1.14, written by Peter Selinger 2001-2017
</metadata>
<g transform="translate(0.000000,240.000000) scale(0.100000,-0.100000)"
fill="#000000" stroke="none">
<path d="M670 1695 c0 -195 -3 -355 -6 -355 -15 0 -120 78 -182 136 -39 35
-75 64 -80 64 -14 0 -216 -180 -220 -196 -5 -18 160 -167 251 -228 148 -98
317 -169 512 -213 114 -26 405 -25 525 1 268 58 502 181 693 364 37 36 67 70
66 76 -1 12 -168 163 -206 186 -20 13 -26 9 -87 -48 -59 -54 -176 -142 -190
-142 -4 0 -6 160 -6 355 l0 356 -157 -3 -158 -3 -3 -416 -2 -416 -38 -7 c-134
-23 -375 -13 -394 17 -4 6 -8 195 -8 420 l0 407 -155 0 -155 0 0 -355z"/>
<path d="M675 898 c-3 -7 -4 -144 -3 -303 l3 -290 153 -3 152 -3 -2 262 -3
261 -110 28 c-60 15 -127 35 -148 44 -30 13 -38 14 -42 4z"/>
<path d="M1655 884 c-33 -12 -94 -30 -135 -40 -41 -9 -81 -21 -88 -27 -9 -7
-12 -68 -10 -261 l3 -251 155 0 155 0 0 299 c0 192 -4 300 -10 301 -5 2 -37
-8 -70 -21z"/>
</g>
</svg>
