<?xml version="1.0" standalone="no"?>
<!DOCTYPE svg PUBLIC "-//W3C//DTD SVG 20010904//EN"
 "http://www.w3.org/TR/2001/REC-SVG-20010904/DTD/svg10.dtd">
<svg version="1.0" xmlns="http://www.w3.org/2000/svg"
 width="1024.000000pt" height="1024.000000pt" viewBox="0 0 1024.000000 1024.000000"
 preserveAspectRatio="xMidYMid meet">
<metadata>
Created by potrace 1.14, written by Peter Selinger 2001-2017
</metadata>
<g transform="translate(0.000000,1024.000000) scale(0.100000,-0.100000)"
fill="#000000" stroke="none">
<path d="M2537 9584 c-1 -1 -36 -5 -77 -8 -87 -9 -113 -12 -155 -19 -16 -3
-47 -8 -69 -11 -93 -14 -360 -91 -451 -131 -16 -7 -48 -20 -70 -28 -195 -73
-650 -345 -737 -441 -64 -70 -199 -507 -233 -756 -3 -25 -8 -52 -10 -60 -2 -8
-7 -41 -10 -73 -4 -32 -8 -67 -10 -79 -8 -38 -18 -232 -18 -338 -1 -216 16
-398 58 -623 28 -147 105 -404 164 -542 17 -41 141 -292 168 -340 112 -201
277 -415 488 -633 162 -168 200 -182 381 -137 100 25 352 103 399 124 11 5 56
23 100 41 386 153 771 380 1113 656 l53 43 189 -190 c105 -104 190 -192 190
-195 0 -3 -28 -37 -63 -77 -111 -128 -297 -374 -297 -394 0 -4 -8 -16 -19 -27
-46 -51 -224 -384 -319 -596 -43 -99 -123 -322 -161 -455 -84 -297 -90 -376
-32 -457 58 -81 148 -112 244 -84 85 25 145 97 161 196 12 73 18 98 46 206
101 382 288 773 526 1100 48 65 90 121 93 124 3 3 23 25 43 50 56 69 85 100
91 100 4 0 164 -158 357 -351 l350 -351 -26 -32 c-109 -135 -294 -394 -294
-411 0 -2 -14 -28 -31 -57 -97 -164 -220 -443 -285 -648 -74 -233 -131 -518
-120 -597 9 -67 55 -132 116 -163 139 -71 303 16 325 172 7 53 15 105 21 146
39 256 196 671 347 917 88 144 242 355 259 355 6 0 599 -589 627 -623 12 -15
10 -21 -11 -49 -80 -105 -199 -349 -251 -514 -55 -175 -81 -365 -57 -426 54
-137 216 -190 333 -109 62 42 84 83 102 187 22 124 30 158 63 254 32 93 126
293 147 310 10 8 73 -50 263 -240 l251 -251 -44 -70 c-25 -38 -45 -71 -45 -74
0 -2 -13 -26 -28 -52 -67 -116 -139 -342 -158 -498 -3 -27 -8 -61 -10 -75 -5
-32 -5 -255 0 -295 38 -312 129 -546 304 -785 72 -97 465 -495 517 -523 80
-42 201 -21 263 46 13 14 112 202 221 419 176 350 271 520 336 597 151 181
266 286 425 390 47 31 263 145 480 254 224 113 409 211 426 229 60 57 79 180
40 256 -13 25 -285 304 -407 417 -357 331 -872 476 -1349 381 -108 -22 -105
-21 -215 -59 -143 -49 -231 -93 -367 -185 l-78 -52 -261 261 -260 261 78 54
c146 102 351 191 551 239 127 30 192 97 200 204 6 77 -11 125 -62 176 -78 78
-154 82 -362 21 -240 -70 -452 -176 -647 -324 -37 -29 -70 -52 -73 -52 -2 0
-143 139 -313 309 l-308 309 81 60 c304 224 637 376 1046 477 133 33 155 41
191 78 113 113 82 295 -63 362 -56 26 -100 25 -222 -4 -387 -93 -748 -245
-1051 -441 -55 -36 -142 -98 -193 -137 -51 -40 -97 -73 -102 -73 -6 0 -166
155 -356 345 l-345 346 68 52 c415 319 927 532 1523 632 123 21 171 43 209 95
42 58 55 103 47 163 -13 91 -75 165 -160 188 -34 9 -110 7 -176 -6 -13 -2
-180 -35 -260 -51 -55 -11 -291 -78 -389 -111 -250 -83 -492 -193 -708 -321
-65 -38 -256 -163 -263 -171 -3 -3 -41 -33 -84 -66 -43 -33 -88 -67 -100 -76
-20 -15 -27 -10 -212 176 l-192 193 22 24 c119 133 141 160 217 258 71 93 71
92 162 230 189 284 335 587 454 940 95 283 110 367 81 445 -33 86 -306 356
-548 542 -394 302 -862 513 -1284 579 -21 3 -47 7 -58 9 -62 12 -440 28 -451
19z"/>
</g>
</svg>
