<?xml version="1.0" standalone="no"?>
<!DOCTYPE svg PUBLIC "-//W3C//DTD SVG 20010904//EN"
 "http://www.w3.org/TR/2001/REC-SVG-20010904/DTD/svg10.dtd">
<svg version="1.0" xmlns="http://www.w3.org/2000/svg"
 width="1024.000000pt" height="1024.000000pt" viewBox="0 0 1024.000000 1024.000000"
 preserveAspectRatio="xMidYMid meet">
<metadata>
Created by potrace 1.11, written by Peter Selinger 2001-2013
</metadata>
<g transform="translate(0.000000,1024.000000) scale(0.100000,-0.100000)"
fill="#000000" stroke="none">
<path d="M4919 10236 c-2 -2 -42 -7 -89 -10 -47 -4 -96 -8 -110 -10 -69 -11
-127 -20 -140 -21 -25 -3 -91 -16 -150 -30 -30 -8 -66 -16 -80 -19 -84 -16
-304 -87 -417 -134 -39 -17 -74 -28 -77 -24 -3 3 -6 0 -6 -6 0 -7 -7 -12 -16
-12 -9 0 -29 -9 -45 -21 -16 -11 -29 -18 -29 -15 0 7 -229 -112 -240 -125 -3
-3 -13 -9 -24 -12 -17 -7 -246 -156 -256 -167 -3 -4 -23 -19 -45 -35 -40 -30
-126 -100 -200 -165 -147 -129 -381 -392 -486 -545 -19 -27 -36 -52 -39 -55
-7 -7 -29 -43 -37 -60 -4 -8 -10 -17 -13 -20 -15 -11 -125 -208 -176 -316 -33
-67 -60 -113 -67 -111 -7 2 -22 0 -34 -4 -13 -5 -23 -5 -23 -1 0 4 -29 7 -65
7 -36 0 -65 -3 -65 -7 0 -4 -11 -3 -24 2 -13 5 -26 7 -27 5 -2 -2 -29 -6 -59
-10 -114 -14 -200 -77 -251 -185 -17 -35 -20 -48 -24 -107 -2 -29 -6 -57 -9
-62 -4 -5 -2 -12 3 -15 6 -4 6 -18 1 -36 -5 -17 -5 -30 0 -30 4 0 4 -16 0 -35
-4 -19 -4 -37 0 -40 5 -3 5 -19 0 -35 -5 -18 -5 -32 1 -36 5 -3 7 -10 3 -15
-8 -14 -10 -99 -2 -99 4 0 3 -13 -2 -30 -5 -16 -6 -30 -2 -30 8 0 7 -68 -1
-76 -3 -3 -2 -17 3 -30 6 -14 6 -24 0 -24 -5 0 -5 -12 0 -30 5 -17 5 -30 0
-30 -5 0 -5 -13 0 -30 5 -17 5 -30 0 -30 -5 0 -5 -13 0 -30 5 -17 5 -30 0 -30
-5 0 -5 -12 -1 -28 5 -15 5 -37 0 -49 -5 -13 -4 -25 1 -28 6 -4 7 -13 1 -24
-5 -9 -6 -23 -2 -29 4 -7 4 -35 1 -62 -4 -28 -3 -50 1 -50 4 0 4 -13 -1 -30
-5 -16 -6 -30 -2 -30 8 0 7 -68 -1 -76 -3 -3 -2 -17 3 -30 6 -14 6 -24 0 -24
-5 0 -5 -12 0 -30 5 -17 5 -30 0 -30 -5 0 -5 -13 0 -30 5 -17 5 -30 0 -30 -5
0 -5 -13 0 -30 5 -17 5 -30 0 -30 -5 0 -5 -12 -1 -28 5 -15 5 -37 0 -49 -5
-13 -4 -25 1 -28 6 -4 7 -13 1 -24 -5 -9 -6 -23 -2 -30 5 -7 5 -30 1 -51 -4
-21 -4 -44 1 -51 4 -7 4 -20 -1 -29 -4 -8 -4 -22 0 -31 5 -8 5 -21 0 -28 -4
-8 -4 -27 0 -42 5 -16 5 -29 0 -29 -5 0 -5 -13 0 -30 5 -19 5 -30 -1 -30 -6 0
-8 -4 -5 -9 3 -5 8 -37 10 -71 3 -35 10 -68 16 -74 5 -5 10 -18 10 -27 0 -9 7
-22 15 -29 9 -7 13 -15 10 -18 -9 -9 75 -82 124 -106 42 -22 138 -41 181 -38
36 4 103 1 111 -4 5 -3 9 0 9 6 0 6 4 9 9 6 5 -3 30 -7 56 -8 l46 -1 40 -85
c21 -46 39 -88 39 -92 0 -5 4 -10 8 -12 4 -1 23 -32 41 -68 18 -36 40 -72 47
-81 8 -8 14 -19 14 -23 0 -7 120 -192 143 -221 4 -5 28 -37 52 -70 25 -33 53
-69 63 -81 136 -163 279 -308 422 -428 118 -99 140 -117 162 -131 9 -5 52 -36
97 -67 44 -31 95 -65 113 -75 18 -10 35 -20 38 -23 11 -11 276 -154 298 -161
16 -5 118 -50 136 -60 10 -6 26 -12 35 -15 9 -2 68 -22 131 -45 63 -23 122
-42 130 -44 8 -1 22 -5 30 -8 45 -17 255 -67 305 -72 17 -2 42 -6 58 -9 63
-13 103 -19 242 -33 89 -9 479 -9 565 0 36 3 90 10 120 13 30 4 66 8 80 9 14
2 25 4 25 5 0 2 9 4 20 5 37 5 100 15 115 20 8 2 26 6 40 9 14 2 45 9 70 16
45 12 65 17 109 26 14 3 29 8 35 12 6 3 19 8 28 9 19 3 130 39 163 53 11 4 40
16 65 25 25 9 56 22 70 28 14 6 27 11 30 12 23 8 76 33 167 78 98 49 127 64
204 109 58 33 266 173 282 190 10 10 21 18 25 18 4 0 22 13 39 29 18 16 45 39
62 50 70 50 294 268 386 375 62 73 177 224 230 302 22 32 43 61 48 62 4 2 7 7
7 12 0 4 26 52 58 107 32 54 78 139 102 188 25 50 48 92 52 93 5 2 6 8 3 12
-3 5 3 18 13 28 16 16 27 18 66 12 26 -4 46 -3 46 2 0 5 4 7 8 4 22 -13 227
-4 257 11 11 6 33 17 49 24 44 21 109 89 133 140 19 40 39 141 34 177 0 6 -1
19 -1 27 0 8 0 22 0 30 0 8 0 22 0 30 0 8 0 22 0 30 0 8 0 22 0 30 0 8 0 22 0
30 0 8 0 22 0 30 0 8 0 22 0 30 0 8 0 22 0 30 0 8 0 22 0 30 0 8 0 22 0 30 0
8 0 22 0 30 0 8 0 22 0 30 0 8 0 22 0 30 0 8 0 22 0 30 0 8 0 22 0 30 0 8 0
22 0 30 0 8 0 21 0 28 0 6 -1 26 -3 42 -1 17 1 40 5 52 4 12 3 25 -2 28 -5 3
-5 18 0 35 5 17 5 30 0 30 -4 0 -4 16 0 35 4 19 4 37 0 40 -5 3 -5 19 0 35 5
17 5 32 0 35 -5 3 -6 13 -3 22 8 21 9 64 1 84 -3 9 -2 22 2 29 5 8 5 21 0 30
-5 9 -5 22 0 29 4 8 4 27 0 42 -5 16 -5 29 0 29 5 0 5 13 0 30 -5 17 -5 30 0
30 5 0 5 13 0 30 -5 17 -5 30 0 30 5 0 5 13 0 30 -5 17 -5 30 0 30 5 0 5 13 0
30 -5 17 -6 30 -2 30 4 0 7 16 7 35 0 19 -3 35 -7 35 -4 0 -3 14 2 30 5 17 5
30 1 30 -4 0 -5 22 -1 50 3 27 3 55 -1 62 -4 6 -4 19 1 28 4 8 4 22 0 31 -5 8
-5 21 0 28 4 8 4 27 0 42 -5 16 -5 29 0 29 5 0 5 13 0 30 -5 19 -5 30 1 30 6
0 8 4 5 9 -3 5 -8 36 -10 69 -3 33 -9 69 -14 79 -5 10 -16 31 -23 48 -34 73
-146 151 -228 159 -21 2 -44 7 -50 10 -6 4 -11 3 -11 -3 0 -7 -8 -7 -25 -1
-15 6 -27 6 -30 0 -3 -6 -15 -6 -30 0 -15 6 -27 6 -30 0 -4 -6 -13 -7 -24 -1
-10 6 -23 6 -31 1 -8 -5 -19 -6 -25 -2 -5 3 -22 5 -36 4 -24 -3 -30 4 -63 75
-20 43 -41 85 -46 93 -5 8 -25 47 -45 85 -20 39 -44 78 -53 88 -8 9 -12 17 -8
17 4 0 2 6 -4 13 -6 6 -34 48 -62 92 -29 44 -56 82 -60 83 -4 2 -8 8 -8 13 0
10 -75 114 -96 134 -5 6 -36 42 -67 81 -66 82 -266 287 -351 359 -122 104
-124 106 -181 145 -27 19 -54 40 -60 46 -12 13 -213 144 -221 144 -3 0 -25 13
-48 28 -50 34 -331 172 -349 172 -7 0 -17 4 -22 8 -6 5 -39 19 -75 32 -36 13
-70 27 -77 32 -7 6 -17 7 -23 3 -5 -3 -10 -1 -10 4 0 6 -3 10 -7 9 -5 -1 -40
8 -80 21 -39 12 -81 23 -92 24 -12 1 -21 5 -21 9 0 3 -8 7 -17 6 -10 0 -54 9
-98 20 -44 11 -96 22 -115 26 -19 3 -46 8 -60 11 -14 3 -45 8 -70 11 -25 3
-58 8 -75 10 -16 3 -50 7 -75 9 -58 6 -516 15 -521 11z m-1199 -1919 c0 -4 8
-4 17 2 10 5 26 5 39 1 12 -5 24 -6 27 -4 8 9 81 9 94 1 6 -4 14 -3 18 2 4 7
15 7 30 1 14 -5 25 -6 25 -2 0 8 52 8 66 -1 6 -3 16 -2 24 3 8 5 21 5 31 -1
11 -6 20 -5 24 1 4 6 15 6 31 0 14 -6 23 -7 21 -2 -3 4 8 7 24 7 16 0 29 -3
29 -7 0 -4 11 -3 25 2 15 6 26 6 30 -1 4 -6 13 -6 23 0 10 6 23 6 34 0 10 -6
19 -5 23 1 3 6 15 6 30 0 15 -6 27 -6 30 0 3 6 15 6 30 0 14 -5 25 -6 25 -2 0
4 13 7 29 7 16 0 27 -3 24 -7 -2 -5 7 -4 21 2 16 6 27 6 31 -1 4 -6 13 -6 23
0 10 6 23 6 34 0 10 -6 19 -5 23 1 4 6 15 6 30 0 14 -5 25 -6 25 -2 0 4 13 7
29 7 16 0 27 -3 24 -7 -2 -5 7 -4 21 2 16 6 27 6 31 -1 4 -6 13 -6 23 0 10 6
23 6 34 0 10 -6 19 -5 23 1 4 6 15 6 30 0 14 -5 25 -6 25 -2 0 8 203 7 225 -2
8 -3 15 -2 15 2 0 4 13 7 29 7 16 0 27 -3 24 -7 -2 -5 7 -4 21 2 16 6 27 6 31
-1 4 -6 13 -6 23 0 10 6 23 6 34 0 10 -6 19 -5 23 1 4 6 15 6 30 0 14 -5 25
-6 25 -2 0 4 13 7 29 7 16 0 27 -3 24 -7 -2 -5 7 -4 21 2 16 6 27 6 31 -1 4
-6 13 -6 23 0 10 6 23 6 34 0 10 -6 19 -5 23 1 4 6 15 6 30 0 14 -5 25 -6 25
-2 0 4 13 7 29 7 16 0 27 -3 24 -7 -2 -5 7 -4 21 2 16 6 27 6 31 -1 4 -5 11
-7 16 -3 15 9 79 11 79 2 0 -4 11 -3 25 2 15 6 26 6 30 -1 4 -6 13 -6 23 0 9
5 26 5 40 0 13 -5 21 -6 19 -1 -3 4 8 7 24 7 16 0 29 -3 29 -7 0 -4 11 -3 25
2 15 6 26 6 30 -1 4 -6 13 -6 23 0 10 6 23 6 34 0 10 -6 19 -5 23 1 4 6 15 6
31 0 14 -6 23 -7 21 -2 -3 4 8 7 24 7 16 0 29 -3 29 -7 0 -4 11 -3 25 2 13 5
27 5 30 1 3 -5 20 -6 38 -1 18 4 43 3 55 -1 12 -5 22 -5 22 -1 0 10 106 6 275
-13 17 -1 30 -4 30 -5 0 -1 14 -4 30 -6 86 -14 345 -123 345 -145 0 -5 6 -9
13 -9 15 -1 75 -50 139 -115 120 -122 198 -278 213 -430 6 -55 9 -248 4 -270
-1 -6 -1 -12 1 -15 4 -12 5 -80 0 -80 -3 0 -5 -16 -5 -35 0 -19 3 -35 7 -35 4
0 3 -13 -2 -30 -5 -19 -5 -30 1 -30 6 0 8 -4 5 -8 -2 -4 -7 -64 -10 -133 -3
-68 -12 -167 -21 -219 -19 -120 -21 -129 -34 -162 -6 -16 -8 -28 -5 -28 4 0 1
-6 -5 -13 -6 -8 -9 -16 -6 -19 12 -12 -149 -405 -176 -428 -3 -3 -14 -21 -25
-40 -10 -19 -21 -37 -24 -40 -3 -3 -25 -34 -49 -70 -124 -182 -308 -362 -501
-491 -116 -78 -119 -79 -233 -135 -51 -25 -100 -49 -109 -54 -10 -6 -25 -10
-34 -10 -8 0 -25 -5 -37 -12 -12 -7 -26 -13 -32 -14 -5 -1 -41 -11 -80 -24
-38 -12 -79 -23 -90 -26 -11 -2 -33 -7 -50 -11 -16 -4 -38 -8 -47 -9 -10 -1
-19 -3 -20 -4 -2 -1 -14 -3 -28 -4 -14 -2 -43 -6 -65 -10 -34 -6 -211 -18
-255 -17 -8 0 -62 0 -120 0 -58 0 -112 0 -120 0 -161 2 -373 0 -380 -4 -5 -3
-11 -1 -15 5 -4 6 -10 8 -14 6 -6 -4 -117 -7 -161 -5 -8 1 -49 0 -90 0 -122
-2 -288 9 -364 25 -12 2 -37 7 -56 10 -19 3 -60 12 -90 21 -75 20 -73 19 -90
26 -8 3 -44 15 -80 25 -36 11 -90 31 -120 45 -30 13 -65 28 -77 32 -13 3 -23
11 -23 16 0 5 -8 9 -18 9 -10 0 -22 4 -27 9 -6 5 -32 21 -60 36 -46 26 -204
131 -215 144 -3 3 -23 19 -45 35 -105 78 -395 404 -395 446 0 5 -4 10 -10 10
-5 0 -10 4 -10 9 0 4 -22 47 -50 95 -27 48 -50 89 -50 91 0 3 -14 35 -31 71
-41 90 -95 254 -113 346 -20 101 -25 130 -31 178 -3 30 -8 90 -10 133 -2 44
-6 81 -8 84 -3 2 -1 18 3 34 5 16 5 29 0 29 -5 0 -5 13 0 30 5 17 6 30 2 30
-7 0 -7 134 -1 227 2 23 0 45 -3 49 -4 3 -3 17 2 30 6 14 6 26 -1 29 -5 4 -7
10 -4 15 3 5 8 40 10 77 2 37 6 79 9 92 74 327 369 578 756 644 41 7 96 13
123 12 26 0 47 2 47 5 0 3 14 5 30 5 17 0 30 -4 30 -8z"/>
<path d="M4157 7984 c-6 -10 -37 -99 -42 -119 -1 -5 -5 -17 -8 -25 -9 -23 -59
-174 -62 -185 -1 -5 -5 -17 -8 -25 -8 -19 -69 -202 -72 -215 -1 -5 -7 -23 -13
-38 -7 -16 -12 -34 -12 -40 -2 -42 -29 -60 -156 -103 -71 -24 -140 -46 -153
-49 -13 -2 -27 -8 -30 -12 -3 -4 -11 -8 -17 -8 -17 0 -374 -119 -374 -125 0
-4 376 -131 403 -136 4 -1 8 -2 10 -4 1 -1 9 -3 17 -5 8 -3 52 -17 98 -33 45
-16 82 -27 82 -24 0 2 6 0 13 -6 6 -5 27 -13 44 -17 18 -3 36 -12 40 -18 4 -7
60 -169 125 -362 99 -299 118 -346 126 -325 14 35 83 242 88 260 2 8 34 107
72 219 73 215 77 222 145 237 29 7 39 10 57 17 8 4 139 48 290 98 151 50 279
94 284 97 5 2 -150 57 -343 122 -194 64 -355 121 -360 126 -4 5 -23 56 -41
114 -18 58 -38 111 -43 118 -5 6 -7 12 -4 12 3 0 -12 51 -34 113 -21 61 -40
114 -40 117 -3 11 -8 27 -29 89 -12 35 -23 68 -25 75 -1 6 -5 18 -8 26 -3 8
-7 22 -9 30 -3 8 -7 10 -11 4z"/>
<path d="M2967 3803 c-2 -1 -28 -5 -58 -9 -29 -3 -57 -8 -60 -10 -4 -2 -24 -6
-45 -9 -144 -22 -484 -133 -619 -203 -27 -14 -52 -26 -55 -27 -48 -9 -380
-219 -477 -302 -11 -10 -41 -34 -65 -53 -118 -94 -448 -454 -448 -488 0 -6 -3
-12 -7 -14 -31 -13 -201 -309 -272 -472 -39 -91 -89 -224 -97 -258 -1 -5 -3
-10 -4 -13 -1 -3 -4 -9 -5 -15 -1 -5 -4 -13 -5 -17 -2 -5 -4 -12 -5 -18 -2 -5
-4 -12 -5 -15 -2 -6 -5 -17 -20 -80 -22 -87 -27 -108 -34 -151 -3 -19 -8 -43
-10 -55 -4 -20 -12 -79 -23 -172 -3 -26 -7 -164 -9 -307 -3 -230 -1 -270 17
-345 10 -47 21 -95 24 -108 12 -50 98 -212 151 -280 49 -65 78 -95 158 -166
30 -26 94 -69 146 -98 54 -30 205 -89 240 -94 14 -1 48 -7 75 -13 56 -11 1737
-16 1748 -5 3 4 2 15 -3 25 -6 11 -6 20 -1 24 6 3 6 17 1 35 -5 17 -5 30 0 30
5 0 5 13 0 30 -5 18 -5 30 0 30 6 0 5 11 0 26 -6 14 -7 23 -2 21 9 -6 7 107
-2 121 -3 6 -2 13 3 17 6 3 7 15 2 28 -5 13 -5 30 0 39 6 11 5 19 -1 23 -7 4
-7 12 0 25 7 13 7 21 0 25 -6 4 -7 12 -1 22 5 9 5 29 1 45 -5 16 -5 28 0 28 6
0 6 10 0 25 -6 15 -6 26 0 30 7 4 6 13 0 26 -6 10 -7 19 -3 19 4 0 8 25 8 55
0 30 -3 55 -7 55 -4 0 -3 11 2 25 5 14 6 25 2 25 -4 0 -7 14 -7 30 0 17 2 30
5 30 7 0 4 59 -3 66 -3 4 -2 14 3 23 5 10 5 23 0 31 -5 8 -5 21 1 31 5 10 6
20 2 22 -6 4 -9 72 -3 72 1 0 2 15 3 33 1 17 -2 32 -6 32 -5 0 -6 4 -2 9 3 5
7 43 9 83 5 82 22 162 43 195 8 12 14 25 13 28 -2 10 53 105 62 105 4 0 8 6 8
13 0 16 100 114 145 142 17 11 32 22 35 25 9 11 125 58 170 70 25 7 74 14 109
16 36 2 67 6 69 9 3 2 13 0 23 -5 11 -6 20 -6 24 -1 3 5 17 6 33 2 15 -5 37
-4 50 0 13 5 22 4 22 -1 0 -6 9 -6 23 -1 13 5 30 5 39 0 11 -6 19 -5 23 1 4 7
12 7 25 0 11 -6 21 -6 25 -1 3 5 17 6 33 2 15 -5 37 -4 50 0 13 5 22 4 22 -1
0 -6 9 -6 23 -1 13 5 30 5 39 0 11 -6 19 -5 23 1 4 7 12 7 25 0 11 -6 21 -6
25 -1 3 5 17 6 33 2 15 -5 37 -4 50 0 13 5 22 4 22 -1 0 -6 9 -6 25 0 16 6 25
6 25 0 0 -6 9 -6 25 0 15 6 26 6 30 0 4 -7 13 -6 25 0 13 7 21 7 25 0 4 -7 12
-7 24 0 10 5 21 7 25 3 7 -8 112 -7 125 1 5 4 12 2 16 -4 4 -7 12 -7 25 0 13
7 21 7 25 0 4 -7 12 -7 24 0 10 5 21 7 25 3 7 -8 112 -7 125 1 5 4 12 2 15 -2
3 -5 26 -6 51 -2 25 4 48 3 51 -2 3 -5 11 -5 18 1 7 6 17 6 26 1 8 -5 18 -6
24 -3 14 9 67 9 73 0 2 -4 13 -3 23 3 13 7 21 7 25 0 4 -7 12 -7 24 0 10 5 21
7 25 3 7 -8 112 -7 125 1 5 4 12 2 16 -4 4 -7 12 -7 25 0 13 7 21 7 25 0 4 -6
12 -7 23 -1 9 5 26 5 39 0 13 -5 25 -4 28 1 4 7 13 6 25 0 11 -6 21 -6 25 -1
3 5 17 6 33 2 15 -5 37 -4 50 0 13 5 22 4 22 -1 0 -6 9 -6 23 -1 13 5 30 5 39
0 11 -6 19 -5 23 1 4 7 12 7 25 0 11 -6 21 -6 25 -1 3 5 17 6 33 2 15 -5 37
-4 50 0 13 5 22 4 22 -1 0 -6 9 -6 23 -1 13 5 30 5 39 0 11 -6 19 -5 23 1 4 7
12 7 25 0 11 -6 21 -6 25 -1 3 5 17 6 33 2 15 -5 37 -4 50 0 13 5 22 4 22 -1
0 -6 9 -6 24 0 13 5 26 6 29 3 3 -2 34 -6 69 -8 35 -1 89 -10 120 -20 32 -9
59 -15 62 -13 2 2 13 -6 25 -16 12 -11 21 -16 21 -13 0 18 113 -66 176 -129
51 -51 84 -96 112 -153 23 -45 41 -82 41 -84 -1 -1 4 -22 11 -47 7 -25 14 -76
15 -113 2 -38 6 -71 9 -74 3 -4 1 -12 -5 -19 -6 -8 -6 -14 0 -18 6 -4 6 -18 1
-36 -5 -18 -5 -30 0 -30 6 0 6 -10 0 -25 -6 -15 -6 -26 0 -30 6 -4 7 -13 1
-24 -6 -10 -6 -23 -1 -31 5 -8 5 -21 -1 -31 -6 -12 -5 -20 1 -24 7 -5 8 -11 1
-19 -6 -7 -6 -17 -1 -26 5 -8 6 -18 3 -24 -9 -14 -9 -66 -1 -66 4 0 3 -11 -2
-25 -6 -16 -6 -25 0 -25 6 0 6 -9 0 -25 -6 -17 -6 -25 1 -25 6 0 7 -4 4 -10
-9 -14 -10 -114 -2 -127 4 -7 3 -14 -2 -18 -6 -3 -7 -15 -2 -28 5 -13 5 -30 0
-39 -6 -11 -5 -19 1 -23 7 -4 7 -12 0 -25 -7 -13 -7 -21 0 -25 6 -4 7 -12 1
-22 -5 -9 -5 -29 -1 -45 5 -16 5 -28 0 -28 -6 0 -5 -11 0 -26 6 -14 7 -23 2
-21 -4 3 -7 -19 -7 -49 0 -30 3 -54 7 -54 4 0 4 -10 -1 -22 -5 -13 -5 -33 0
-45 5 -14 5 -23 -1 -23 -5 0 -5 -12 0 -30 5 -18 5 -32 -1 -35 -5 -4 -5 -13 1
-24 5 -10 6 -21 3 -25 -4 -3 375 -6 843 -6 859 1 862 1 1014 36 34 7 148 53
186 75 17 9 42 23 55 31 88 49 223 180 297 287 29 40 49 77 46 82 -3 5 -1 9 4
9 4 0 18 26 31 58 12 31 26 64 30 72 11 20 24 81 42 185 10 56 5 528 -6 615
-7 56 -14 103 -21 130 -3 14 -6 32 -6 40 0 8 -14 71 -30 140 -16 69 -31 130
-32 135 -3 12 -45 145 -53 165 -4 8 -5 18 -5 23 1 4 -3 7 -10 7 -6 0 -9 2 -6
6 7 6 -44 128 -97 234 -40 81 -142 260 -168 294 -4 6 -35 49 -69 96 -33 47
-84 112 -111 145 -60 72 -264 276 -325 325 -24 19 -49 40 -55 45 -61 53 -299
215 -316 215 -5 0 -11 3 -13 8 -5 12 -262 143 -308 157 -3 1 -23 9 -45 19 -22
9 -83 31 -135 48 -52 17 -102 33 -110 36 -8 3 -19 6 -25 7 -5 2 -39 11 -75 20
-36 9 -76 19 -90 21 -14 3 -47 9 -75 14 -189 36 -209 37 -255 6 -22 -14 -44
-26 -50 -26 -5 0 -10 -4 -10 -9 0 -5 -9 -12 -19 -16 -11 -3 -36 -17 -55 -30
-20 -13 -36 -22 -36 -19 0 3 -12 -3 -27 -14 -26 -17 -244 -129 -261 -133 -4
-1 -36 -15 -70 -31 -35 -15 -65 -28 -67 -28 -2 0 -16 -5 -32 -12 -15 -6 -30
-12 -33 -13 -3 -1 -12 -5 -20 -8 -81 -34 -347 -115 -465 -142 -38 -9 -88 -20
-110 -25 -22 -6 -56 -12 -75 -15 -19 -3 -48 -8 -65 -11 -56 -10 -80 -14 -119
-18 -22 -3 -60 -7 -85 -11 -72 -9 -148 -15 -253 -19 -53 -3 -103 -8 -109 -12
-7 -4 -10 -3 -7 2 4 5 -20 9 -53 9 -32 0 -59 -4 -59 -8 0 -5 -4 -5 -10 -2 -5
3 -61 8 -122 10 -141 5 -326 26 -463 51 -10 2 -37 6 -60 9 -22 3 -53 10 -70
15 -16 4 -48 12 -70 16 -51 9 -50 9 -120 28 -135 38 -163 46 -217 65 -32 11
-58 17 -58 14 0 -3 -6 -1 -13 5 -7 6 -35 18 -62 27 -28 9 -59 20 -70 25 -11 5
-69 30 -129 55 -131 56 -284 133 -383 192 -40 24 -77 43 -82 43 -5 0 -11 4
-13 8 -9 23 -79 53 -118 50 -22 -1 -42 -3 -43 -5z"/>
<path d="M4085 1270 c-130 -29 -237 -155 -239 -282 -1 -32 -4 -58 -8 -58 -4 0
-3 -13 2 -30 5 -17 5 -30 0 -30 -5 0 -5 -13 0 -30 5 -17 5 -30 0 -30 -5 0 -5
-13 0 -30 5 -17 5 -30 0 -30 -5 0 -5 -13 0 -30 5 -17 5 -30 0 -30 -5 0 -5 -13
0 -30 5 -17 5 -30 0 -30 -5 0 -5 -13 0 -30 5 -17 5 -30 0 -30 -5 0 -5 -13 0
-30 5 -17 5 -30 0 -30 -5 0 -5 -13 0 -30 5 -17 5 -30 0 -30 -5 0 -5 -13 0 -30
5 -17 5 -30 0 -30 -5 0 -5 -13 0 -30 5 -17 5 -30 0 -30 -5 0 -5 -13 0 -30 5
-17 5 -30 0 -30 -5 0 -5 -13 0 -30 5 -17 5 -30 0 -30 -5 0 -5 -12 -1 -28 5
-15 5 -37 0 -49 -5 -13 -4 -25 1 -28 6 -4 7 -13 1 -24 -5 -9 -6 -23 -2 -30 5
-7 6 -22 4 -32 -5 -18 6 -19 314 -19 249 0 320 3 320 13 1 6 2 24 2 39 1 16 1
40 2 55 0 16 0 35 0 43 -1 8 -1 26 0 40 0 14 0 32 0 40 -1 8 -1 26 0 40 0 14
0 32 0 40 -1 8 -1 26 0 40 0 14 0 32 0 40 -1 8 -1 26 0 40 0 14 0 32 0 40 -1
8 -1 26 0 40 0 14 0 32 0 40 -2 25 -1 54 2 74 2 11 1 37 -3 58 -4 21 -4 41 0
43 4 3 5 20 1 37 -4 18 -4 48 0 66 3 18 2 32 -3 32 -5 0 -7 4 -4 8 11 19 5
148 -9 187 -32 88 -90 155 -169 194 -50 25 -151 35 -211 21z"/>
<path d="M5973 1260 c-53 -19 -61 -24 -112 -70 -34 -30 -80 -101 -85 -132 -3
-13 -5 -24 -7 -25 -1 -2 -2 -6 -3 -10 -1 -5 -4 -13 -8 -19 -4 -6 -5 -14 -2
-17 3 -3 8 -31 10 -62 2 -32 13 -76 26 -102 26 -53 91 -122 131 -140 15 -7 39
-19 53 -25 33 -16 173 -17 205 -2 13 6 37 18 53 25 46 22 109 89 136 144 34
73 34 200 0 270 -40 80 -109 140 -195 170 -47 16 -150 14 -202 -5z"/>
</g>
</svg>
