<?xml version="1.0" standalone="no"?>
<!DOCTYPE svg PUBLIC "-//W3C//DTD SVG 20010904//EN"
 "http://www.w3.org/TR/2001/REC-SVG-20010904/DTD/svg10.dtd">
<svg version="1.0" xmlns="http://www.w3.org/2000/svg"
 width="752.000000pt" height="752.000000pt" viewBox="0 0 752.000000 752.000000"
 preserveAspectRatio="xMidYMid meet">
<metadata>
Created by potrace 1.14, written by Peter Selinger 2001-2017
</metadata>
<g transform="translate(0.000000,752.000000) scale(0.100000,-0.100000)"
fill="#000000" stroke="none">
<path d="M1330 7419 c0 -6 10 -21 23 -33 12 -12 58 -61 102 -110 44 -49 89
-98 100 -110 11 -12 58 -64 105 -116 47 -52 94 -104 105 -116 11 -11 52 -56
91 -100 40 -43 83 -91 95 -105 13 -14 62 -68 109 -119 47 -52 92 -101 100
-110 92 -97 165 -186 175 -217 9 -26 14 -92 14 -208 0 -152 2 -180 25 -265 15
-52 29 -105 31 -116 10 -42 73 -210 104 -275 17 -36 31 -69 31 -72 0 -4 23
-46 52 -94 92 -157 203 -291 308 -373 25 -19 47 -37 50 -40 6 -6 39 -25 105
-60 57 -31 153 -66 206 -75 25 -5 41 -15 53 -37 18 -29 18 -30 -5 -55 -75 -80
-255 -167 -389 -188 -68 -11 -162 -18 -225 -18 -71 -1 -255 12 -265 18 -3 1
-27 5 -55 9 -27 3 -61 8 -75 11 -14 3 -41 8 -60 11 -43 7 -273 58 -355 79 -33
9 -69 17 -80 20 -11 2 -107 26 -212 53 -106 27 -193 47 -193 45 0 -3 -7 0 -15
7 -8 7 -15 10 -15 7 0 -3 -17 -1 -37 5 -21 5 -48 11 -60 13 -11 1 -30 6 -41 9
-11 4 -35 9 -53 11 -19 3 -45 7 -59 10 -28 6 -68 13 -120 20 -75 11 -278 13
-339 4 -36 -5 -74 -16 -86 -23 -28 -19 -110 -186 -125 -257 -7 -32 -11 -91 -8
-135 7 -113 40 -178 140 -276 43 -43 84 -78 90 -78 6 0 19 -6 27 -14 37 -34
274 -136 350 -152 13 -3 32 -9 43 -15 10 -5 18 -8 18 -5 0 2 21 -2 48 -10 26
-8 63 -17 82 -20 19 -3 51 -9 70 -14 19 -5 53 -11 75 -15 23 -3 52 -8 65 -10
14 -3 45 -7 70 -10 25 -3 56 -7 70 -9 14 -3 54 -8 90 -11 36 -4 83 -8 105 -11
22 -2 150 -6 285 -9 135 -2 248 -4 253 -5 13 0 7 -28 -24 -101 -170 -403 -263
-620 -279 -652 -11 -22 -20 -43 -20 -48 0 -11 -54 -133 -77 -174 -10 -16 -16
-32 -15 -35 2 -4 -41 -110 -83 -205 -7 -16 -32 -75 -55 -130 -23 -55 -49 -116
-57 -135 -31 -70 -51 -117 -98 -227 l-47 -112 -225 -218 c-123 -120 -282 -275
-354 -344 l-129 -126 34 -27 c19 -14 38 -26 43 -26 4 0 26 16 48 36 22 19 54
47 70 62 17 14 68 60 115 102 47 41 100 89 119 105 18 17 43 39 56 50 12 11
57 52 101 90 43 39 89 80 102 92 12 13 25 23 28 23 15 0 82 86 98 127 11 26
34 80 52 118 17 39 44 99 59 135 15 36 34 81 43 100 9 19 17 37 17 40 1 3 13
30 27 60 14 30 58 129 98 220 40 91 83 189 96 218 13 29 24 54 24 57 0 2 13
32 29 67 16 35 63 141 105 236 42 94 109 247 150 340 40 92 84 191 96 220 13
29 25 51 27 48 3 -3 15 -1 28 4 13 5 40 11 62 15 21 3 50 8 63 10 35 7 145 23
210 30 124 14 320 67 358 97 20 17 15 -5 -17 -69 -16 -32 -59 -121 -94 -199
-93 -200 -135 -289 -170 -364 -17 -36 -31 -67 -32 -70 -1 -3 -15 -34 -32 -70
-17 -36 -50 -105 -73 -155 -23 -49 -51 -110 -63 -135 -11 -25 -20 -48 -19 -52
1 -5 -3 -8 -8 -8 -6 0 -10 -9 -10 -20 0 -11 -4 -20 -10 -20 -5 0 -10 -6 -10
-13 0 -8 -15 -45 -34 -84 -43 -87 -53 -125 -51 -188 3 -79 12 -122 55 -245 22
-63 42 -122 44 -130 10 -38 55 -216 61 -240 30 -123 100 -455 111 -525 3 -16
7 -41 9 -55 3 -14 7 -47 10 -74 3 -27 7 -52 9 -55 2 -3 7 -35 11 -70 4 -35 9
-82 11 -105 3 -23 7 -59 9 -81 6 -52 6 -371 1 -410 -5 -34 -15 -100 -21 -130
-6 -35 -35 -124 -55 -170 -19 -44 -19 -45 0 -55 10 -5 45 -10 78 -10 l60 0 16
73 c10 39 22 92 29 117 6 25 12 50 13 55 0 6 2 12 3 15 2 3 4 14 6 25 2 11 6
34 10 50 3 17 7 39 10 50 2 11 4 20 5 20 1 0 3 7 5 15 1 8 11 51 21 95 10 44
17 85 15 90 -5 15 -29 119 -35 146 -2 13 -7 31 -10 39 -3 8 -8 26 -10 40 -3
14 -12 50 -20 82 -8 31 -18 67 -20 80 -3 12 -10 43 -17 68 -6 25 -12 52 -14
60 -2 8 -4 15 -5 15 -2 0 -9 27 -15 65 -3 19 -10 46 -15 60 -5 14 -11 36 -14
50 -4 24 -25 119 -47 205 -5 22 -11 49 -14 60 -2 11 -11 54 -20 95 -9 41 -18
84 -21 95 -2 11 -6 31 -9 45 -3 14 -8 41 -11 60 -3 19 -7 46 -10 60 -8 39 -16
89 -34 215 -13 89 -13 248 1 297 6 24 12 50 14 58 13 61 157 437 221 576 19
41 34 76 34 78 0 11 135 283 152 309 11 15 16 27 13 27 -4 0 1 12 11 27 9 15
29 50 44 78 15 27 38 69 53 92 15 24 27 45 27 48 0 6 102 157 117 173 7 7 13
21 13 30 1 37 30 -53 36 -111 9 -87 4 -237 -11 -328 -3 -20 -8 -51 -10 -70 -2
-19 -6 -47 -9 -64 -3 -16 -8 -43 -11 -60 -3 -16 -7 -41 -10 -55 -3 -14 -7 -37
-10 -52 -2 -15 -6 -35 -9 -45 -3 -10 -8 -34 -11 -53 -3 -19 -15 -80 -25 -135
-11 -55 -23 -120 -27 -145 -9 -58 -9 -350 1 -415 4 -27 9 -63 11 -80 1 -16 4
-30 5 -30 1 0 3 -14 6 -32 2 -18 13 -76 25 -129 11 -53 22 -105 24 -116 2 -11
6 -27 9 -36 3 -9 7 -28 10 -42 3 -14 8 -36 11 -50 11 -48 26 -125 31 -155 2
-16 6 -40 8 -52 4 -20 15 -114 21 -188 2 -16 3 -33 4 -37 1 -4 25 1 54 11 50
18 53 18 86 0 19 -10 38 -16 42 -14 4 3 11 24 15 48 4 23 8 44 9 47 1 3 5 32
9 65 5 33 10 69 12 80 2 11 7 47 10 80 3 33 8 71 10 85 27 164 21 834 -11
1250 -3 36 -8 103 -10 150 -6 88 -13 199 -20 285 -14 184 -16 327 -4 323 7 -2
16 -11 21 -19 4 -8 25 -43 45 -79 21 -36 38 -67 38 -70 0 -3 19 -36 41 -75 41
-70 70 -121 127 -225 17 -30 40 -71 52 -90 11 -19 26 -46 33 -60 7 -14 23 -43
35 -65 13 -22 37 -65 53 -95 17 -30 52 -92 78 -138 25 -45 58 -104 73 -130 14
-26 45 -81 68 -122 23 -41 57 -102 75 -135 19 -33 44 -78 57 -100 12 -22 31
-56 40 -75 10 -19 20 -37 23 -40 3 -3 10 -16 16 -30 10 -24 10 -44 0 -105 -3
-16 -8 -50 -10 -75 -3 -25 -8 -56 -11 -70 -3 -14 -8 -41 -11 -60 -2 -19 -7
-51 -10 -70 -3 -19 -7 -46 -9 -60 -2 -14 -5 -38 -8 -55 -3 -16 -9 -50 -12 -75
-4 -25 -9 -52 -10 -61 -2 -9 -6 -40 -10 -69 -4 -29 -9 -62 -11 -74 -2 -12 -6
-32 -8 -46 -3 -14 -8 -45 -11 -70 -3 -25 -7 -56 -10 -70 -3 -14 -7 -43 -10
-65 -3 -22 -7 -51 -10 -65 -5 -25 -14 -82 -20 -130 -4 -30 -34 -225 -40 -260
-26 -143 -23 -235 9 -385 3 -11 25 -83 51 -160 25 -77 48 -151 50 -165 3 -14
7 -38 11 -55 7 -40 10 -42 77 -50 71 -9 73 -5 37 130 -18 66 -33 149 -45 235
-25 194 -26 651 0 855 2 17 6 55 10 85 7 61 15 112 21 144 2 11 7 41 10 66 3
25 8 49 11 53 2 4 7 24 9 45 3 20 7 45 10 54 3 10 7 28 10 40 2 13 13 55 25
93 61 204 82 308 82 405 0 48 -13 119 -23 125 -5 3 -16 20 -26 38 -20 39 -51
95 -67 122 -7 11 -33 57 -59 101 -27 44 -48 86 -48 92 0 7 -4 12 -10 12 -5 0
-12 11 -16 25 -3 14 -9 25 -13 25 -3 0 -22 31 -41 68 -19 37 -37 69 -40 72
-12 11 -100 170 -100 180 0 5 -3 10 -7 10 -5 0 -13 10 -19 23 -6 12 -52 94
-104 182 -288 496 -304 525 -288 525 14 0 106 -34 136 -49 53 -28 191 -86 227
-95 6 -2 21 -6 35 -9 47 -13 135 -15 194 -5 l59 9 34 -37 c19 -21 54 -65 79
-98 25 -34 50 -68 57 -77 7 -8 18 -26 26 -40 8 -13 41 -66 72 -116 32 -51 56
-93 53 -93 -3 0 3 -12 14 -28 18 -25 192 -375 192 -385 0 -3 18 -44 40 -91 22
-47 40 -88 40 -90 0 -3 16 -39 35 -80 19 -42 35 -78 35 -80 0 -12 181 -409
241 -529 81 -162 97 -188 193 -316 39 -53 93 -125 120 -161 26 -36 56 -76 66
-90 11 -14 44 -59 74 -100 30 -41 69 -90 86 -108 38 -38 43 -36 91 39 27 43
29 51 18 66 -8 10 -17 22 -21 28 -4 5 -18 24 -31 40 -21 26 -139 204 -222 335
-43 66 -125 203 -125 207 0 2 -11 20 -23 41 -13 20 -38 62 -54 92 -17 30 -54
97 -83 149 -28 52 -56 103 -61 115 -5 12 -21 41 -35 66 -14 25 -59 110 -101
190 -41 80 -90 172 -107 205 -18 33 -54 100 -80 150 -26 49 -52 95 -58 102 -6
7 -7 13 -2 13 5 0 5 4 -1 8 -5 4 -24 34 -42 67 -17 33 -47 89 -66 125 -18 36
-51 97 -72 135 -34 63 -83 155 -144 270 l-21 40 36 16 c36 16 136 19 194 4
106 -26 252 -39 425 -39 123 1 276 9 320 18 11 2 47 7 80 10 33 4 67 9 75 11
8 3 31 6 50 9 68 9 161 31 372 91 58 16 175 60 246 91 29 13 55 24 57 24 10 0
204 115 240 143 65 50 139 131 164 180 24 46 25 86 7 213 -3 18 -8 63 -11 100
-4 38 -11 76 -16 85 -16 30 -197 95 -319 115 -158 25 -607 25 -759 -1 -14 -2
-60 -7 -101 -10 -41 -4 -77 -8 -80 -10 -3 -2 -29 -6 -58 -10 -29 -3 -76 -10
-105 -16 -28 -5 -70 -12 -92 -15 -22 -3 -46 -7 -54 -10 -8 -3 -30 -7 -50 -10
-37 -5 -43 -7 -126 -25 -27 -5 -59 -12 -70 -14 -11 -2 -60 -13 -110 -24 -49
-12 -112 -26 -140 -32 -27 -6 -57 -13 -65 -16 -19 -8 -17 -7 -60 -17 -19 -5
-39 -11 -45 -14 -5 -4 -14 -7 -20 -8 -5 -1 -51 -18 -102 -37 -175 -68 -236
-82 -349 -81 -67 0 -87 4 -120 24 -21 13 -41 27 -44 30 -3 4 -10 9 -15 11 -40
16 -221 139 -237 162 -20 27 -20 29 -2 42 11 8 30 20 44 27 14 7 29 19 33 25
4 7 12 13 18 13 5 0 40 20 77 44 225 146 273 176 281 176 5 0 11 4 13 8 2 4
39 30 83 57 44 27 85 53 90 58 6 4 39 26 75 49 216 135 209 129 231 188 12 30
23 66 26 80 8 41 11 55 13 55 8 0 12 110 14 380 2 176 6 336 10 355 13 68 17
86 33 140 30 97 118 241 201 329 10 10 82 85 162 167 238 244 312 345 366 496
17 49 1 42 -49 -20 -20 -26 -52 -63 -70 -83 -17 -20 -52 -61 -77 -90 -25 -29
-52 -60 -60 -69 -8 -9 -49 -56 -90 -105 -41 -50 -79 -95 -85 -101 -9 -9 -35
-40 -116 -134 -11 -14 -37 -45 -57 -69 -21 -24 -44 -51 -52 -59 -35 -37 -149
-175 -148 -181 1 -3 -3 -29 -10 -58 -19 -84 -24 -183 -27 -483 -1 -157 -3
-285 -5 -285 -1 0 -3 -14 -5 -32 -5 -50 -34 -142 -62 -197 -56 -110 -207 -229
-433 -343 -41 -21 -78 -42 -81 -46 -3 -5 -8 -8 -10 -6 -2 1 -35 -13 -74 -30
-38 -18 -110 -51 -160 -73 -49 -22 -95 -45 -102 -50 -19 -15 -23 5 -22 124 0
62 -4 125 -9 138 -10 26 -54 70 -85 87 -15 8 -10 20 48 112 l66 103 -16 34
c-8 18 -52 68 -96 111 -44 43 -85 85 -90 95 -5 9 -11 72 -14 140 -4 67 -8 157
-11 198 -2 41 -6 127 -9 190 -12 235 -13 244 -39 234 -8 -3 -14 -25 -15 -57
-1 -29 -4 -68 -6 -87 -2 -19 -6 -75 -10 -125 -3 -49 -8 -106 -9 -125 -2 -19
-7 -80 -11 -135 -4 -55 -8 -113 -10 -130 -1 -16 -3 -49 -4 -73 -1 -38 -7 -49
-62 -105 -73 -73 -83 -88 -103 -145 l-16 -43 63 -62 c34 -34 70 -72 80 -85 19
-25 29 -19 -89 -63 -44 -17 -53 -24 -58 -52 -12 -60 -13 -132 -1 -182 10 -43
9 -53 -5 -68 -9 -9 -22 -17 -29 -17 -25 0 -210 101 -317 173 -149 100 -291
249 -360 377 -10 19 -21 37 -24 40 -11 11 -54 111 -110 255 -18 46 -59 213
-66 265 -3 25 -7 52 -9 60 -2 8 -7 42 -10 75 -3 33 -9 69 -12 80 -3 11 -7 31
-8 45 -3 30 -16 127 -21 155 -2 11 -6 39 -9 62 -10 85 -10 85 -230 307 -210
212 -387 377 -589 550 -26 22 -60 51 -75 64 -67 59 -181 142 -181 131z"/>
</g>
</svg>
