<?xml version="1.0" standalone="no"?>
<!DOCTYPE svg PUBLIC "-//W3C//DTD SVG 20010904//EN"
 "http://www.w3.org/TR/2001/REC-SVG-20010904/DTD/svg10.dtd">
<svg version="1.0" xmlns="http://www.w3.org/2000/svg"
 width="1008.000000pt" height="1008.000000pt" viewBox="0 0 1008.000000 1008.000000"
 preserveAspectRatio="xMidYMid meet">
<metadata>
Created by potrace 1.11, written by Peter Selinger 2001-2013
</metadata>
<g transform="translate(0.000000,1008.000000) scale(0.100000,-0.100000)"
fill="#000000" stroke="none">
<path d="M4778 9835 c-2 -2 -48 -6 -103 -9 -94 -6 -142 -11 -240 -22 -22 -2
-56 -6 -75 -8 -42 -5 -107 -15 -140 -21 -14 -3 -41 -7 -60 -10 -19 -3 -45 -7
-56 -9 -12 -2 -39 -7 -60 -10 -58 -9 -345 -77 -374 -88 -14 -5 -36 -12 -50
-14 -14 -3 -34 -8 -45 -11 -11 -4 -22 -7 -25 -8 -9 -1 -215 -66 -230 -72 -8
-4 -17 -7 -20 -8 -3 -1 -14 -5 -25 -10 -52 -21 -181 -69 -190 -71 -66 -14
-664 -312 -673 -336 -2 -4 -8 -8 -13 -8 -12 0 -112 -61 -121 -74 -4 -6 -8 -8
-8 -4 0 8 -233 -147 -300 -199 -8 -7 -42 -33 -75 -58 -33 -25 -78 -61 -100
-79 -22 -18 -71 -60 -110 -92 -160 -133 -438 -411 -552 -553 -16 -19 -46 -55
-67 -80 -22 -25 -64 -80 -95 -121 -31 -41 -58 -77 -61 -80 -3 -3 -14 -18 -26
-35 -11 -16 -41 -60 -67 -97 -26 -38 -47 -72 -47 -77 0 -5 -4 -11 -8 -13 -9
-4 -122 -187 -122 -198 0 -5 -3 -10 -7 -12 -9 -4 -21 -25 -114 -205 -37 -73
-65 -133 -61 -133 4 0 2 -4 -4 -8 -11 -7 -114 -243 -114 -261 0 -6 -4 -11 -10
-11 -5 0 -9 -3 -8 -7 2 -10 -13 -65 -21 -78 -4 -5 -13 -28 -20 -50 -7 -22 -16
-49 -21 -60 -5 -11 -20 -56 -33 -100 -14 -44 -33 -107 -43 -140 -10 -33 -18
-62 -19 -65 -5 -23 -19 -87 -21 -95 -26 -98 -33 -128 -40 -170 -4 -27 -8 -52
-9 -55 0 -3 -3 -9 -6 -15 -3 -5 -5 -22 -4 -37 0 -16 -2 -28 -5 -28 -4 0 -7 -6
-7 -12 0 -18 -12 -118 -18 -150 -9 -47 -14 -90 -20 -168 -4 -41 -10 -111 -14
-155 -9 -85 -5 -596 4 -680 3 -27 8 -70 10 -95 3 -25 8 -70 11 -100 4 -30 8
-65 8 -77 1 -13 4 -23 7 -23 3 0 5 -10 4 -23 -1 -12 2 -39 7 -60 4 -21 10 -52
12 -70 3 -18 5 -32 6 -32 2 0 10 -38 15 -75 5 -38 56 -245 81 -325 8 -27 17
-59 19 -70 3 -12 14 -48 25 -80 12 -33 22 -64 23 -70 1 -5 6 -16 10 -22 5 -7
6 -13 3 -13 -3 0 4 -21 15 -48 12 -26 22 -54 24 -62 2 -8 11 -33 21 -55 10
-22 18 -42 19 -45 1 -3 7 -18 13 -33 7 -16 12 -30 12 -32 0 -16 175 -374 225
-460 19 -33 44 -78 56 -100 12 -22 25 -42 28 -45 4 -3 13 -20 20 -37 8 -18 16
-33 20 -33 3 0 17 -20 31 -45 14 -25 28 -45 32 -45 5 0 8 -4 8 -10 0 -5 33
-56 72 -112 70 -99 81 -113 120 -160 10 -12 18 -24 18 -27 0 -3 13 -20 28 -37
15 -17 42 -49 60 -72 90 -110 186 -215 318 -346 130 -131 234 -226 340 -311
20 -16 48 -39 60 -51 13 -11 34 -28 46 -37 13 -10 64 -48 115 -86 51 -37 116
-83 145 -102 29 -18 55 -36 58 -39 3 -3 25 -19 50 -35 25 -16 48 -34 52 -40 4
-5 8 -7 8 -2 0 7 21 -5 120 -69 113 -72 471 -250 650 -322 176 -72 449 -167
537 -187 10 -2 52 -14 93 -26 78 -22 141 -38 175 -45 11 -2 34 -7 50 -10 17
-4 37 -8 45 -9 8 -1 26 -5 40 -9 14 -3 36 -8 50 -10 14 -3 25 -5 25 -6 0 -1
14 -3 30 -5 17 -1 30 -4 30 -5 0 -2 16 -4 35 -5 19 -2 35 -4 35 -5 0 -2 32 -8
80 -14 22 -3 59 -7 83 -10 99 -14 130 -17 187 -22 33 -2 96 -8 140 -11 167
-14 688 -7 860 12 22 2 65 6 95 10 30 3 66 7 80 10 14 2 48 6 75 10 28 3 61 8
75 11 14 3 41 7 60 9 19 2 35 4 35 5 0 2 22 6 70 14 64 10 344 76 386 91 22 8
39 12 39 9 0 -2 16 2 35 10 19 8 35 13 35 11 0 -2 15 2 34 10 18 8 36 11 40 8
3 -4 6 0 6 7 0 7 2 11 6 8 7 -8 166 44 304 99 8 4 17 7 20 8 3 1 22 9 44 18
21 9 40 17 41 17 1 0 20 8 41 17 22 9 41 17 44 18 66 20 528 256 541 276 3 6
9 10 13 9 9 -2 129 71 138 84 4 6 8 8 8 4 0 -8 220 139 230 153 3 4 11 9 19
11 7 2 25 13 40 25 14 12 89 72 166 133 172 137 254 210 410 366 154 155 225
231 225 245 0 5 5 7 10 4 6 -3 10 -1 10 4 0 6 8 19 18 29 22 24 93 109 112
136 8 12 25 32 37 46 13 14 23 28 23 32 0 3 6 13 13 20 26 27 107 139 107 147
0 5 3 11 8 13 10 4 72 97 72 107 0 5 4 11 8 13 9 4 122 187 122 198 0 5 3 10
8 12 7 3 73 123 101 186 8 17 19 32 23 32 4 0 8 6 8 13 0 6 18 48 40 92 22 44
40 86 40 93 0 6 4 12 8 12 4 0 8 9 9 21 1 11 8 27 15 36 6 8 13 20 14 27 1 7
11 32 21 56 23 51 73 184 77 203 2 6 8 26 15 42 15 38 22 59 22 62 0 2 6 21
14 43 8 22 12 40 9 40 -2 0 2 12 10 28 8 15 17 41 20 57 3 17 17 73 31 125 14
52 27 108 30 124 3 16 7 32 9 35 4 6 16 69 20 101 1 9 4 20 7 25 3 6 5 22 4
38 0 15 2 27 5 27 3 0 7 19 9 42 1 23 4 44 6 48 2 4 7 33 10 66 4 32 9 73 11
89 28 178 39 682 20 890 -5 50 -9 114 -10 142 0 29 -3 53 -7 53 -3 0 -6 17 -7
39 -2 21 -4 48 -7 59 -2 11 -6 42 -10 69 -8 55 -12 78 -20 113 -3 14 -7 40
-10 59 -2 18 -7 41 -9 50 -3 9 -7 27 -10 41 -12 58 -55 229 -72 285 -10 33
-19 65 -20 72 -3 14 -23 82 -31 103 -4 8 -7 18 -8 23 -2 4 -3 8 -5 10 -1 1 -3
9 -5 17 -4 17 -57 161 -76 205 -7 17 -13 33 -14 38 -2 4 -4 10 -5 15 -1 4 -2
10 -1 15 0 4 -4 7 -9 7 -5 0 -9 3 -8 8 1 4 -6 24 -15 46 -9 21 -17 41 -17 43
0 11 -154 319 -162 324 -6 3 -9 9 -9 13 1 6 -24 56 -46 91 -7 11 -18 32 -25
48 -7 15 -16 27 -20 27 -4 0 -8 7 -8 15 0 8 -3 15 -8 15 -4 0 -14 15 -21 32
-17 37 -71 119 -86 130 -5 4 -6 8 -2 8 5 0 2 7 -6 15 -8 8 -25 31 -38 52 -13
21 -28 41 -33 45 -6 4 -7 8 -2 8 6 0 3 6 -5 13 -9 6 -49 57 -90 112 -84 114
-98 131 -119 154 -8 10 -37 44 -65 76 -93 113 -354 379 -451 462 -27 23 -63
55 -80 70 -17 15 -50 44 -74 63 -24 19 -48 40 -54 45 -6 6 -27 22 -46 35 -19
14 -42 30 -50 37 -8 7 -33 26 -55 42 -22 17 -45 35 -51 40 -10 8 -81 56 -113
76 -9 6 -18 12 -21 15 -3 3 -12 10 -21 15 -9 6 -41 27 -72 48 -31 20 -59 36
-61 35 -2 -2 -12 4 -22 13 -77 66 -487 276 -749 384 -49 21 -94 38 -100 40
-11 2 -38 12 -70 25 -55 22 -85 32 -88 29 -2 -2 -10 1 -18 8 -8 6 -26 14 -39
16 -14 3 -45 13 -70 22 -25 9 -52 17 -60 19 -8 1 -22 5 -30 8 -14 6 -64 18
-75 19 -3 0 -22 6 -44 14 -39 14 -321 80 -376 89 -16 2 -30 5 -30 6 0 1 -13 3
-30 5 -16 2 -41 6 -55 9 -38 7 -102 18 -135 21 -16 2 -50 6 -75 10 -62 8 -125
15 -190 21 -30 2 -77 7 -105 9 -54 6 -642 14 -647 10z"/>
</g>
</svg>
