<?xml version="1.0" standalone="no"?>
<!DOCTYPE svg PUBLIC "-//W3C//DTD SVG 20010904//EN"
 "http://www.w3.org/TR/2001/REC-SVG-20010904/DTD/svg10.dtd">
<svg version="1.0" xmlns="http://www.w3.org/2000/svg"
 width="700.000000pt" height="700.000000pt" viewBox="0 0 700.000000 700.000000"
 preserveAspectRatio="xMidYMid meet">
<metadata>
Created by potrace 1.11, written by Peter Selinger 2001-2013
</metadata>
<g transform="translate(0.000000,700.000000) scale(0.100000,-0.100000)"
fill="#000000" stroke="none">
<path d="M5305 5009 c-403 -28 -750 -180 -1035 -456 -191 -185 -327 -411 -400
-667 l-18 -65 76 41 c42 23 111 60 152 83 78 44 200 111 235 128 11 6 40 39
64 74 25 36 83 104 130 152 308 311 725 434 1171 345 344 -69 671 -311 829
-614 54 -104 102 -238 115 -325 2 -16 8 -50 11 -74 9 -54 9 -192 0 -264 -39
-326 -225 -625 -513 -825 -51 -36 -210 -116 -277 -140 -318 -113 -677 -97
-982 45 -168 78 -383 258 -482 403 l-43 65 -230 125 c-127 69 -237 126 -244
128 -11 3 -12 -2 -5 -20 5 -13 21 -61 36 -108 122 -381 431 -721 819 -900 380
-176 813 -198 1231 -63 44 14 85 29 90 33 6 3 35 17 65 29 144 60 321 183 452
315 51 50 100 101 108 112 8 10 29 37 46 59 138 177 246 440 279 680 12 85 13
373 2 391 -3 5 -8 31 -11 58 -21 151 -109 379 -204 525 -279 427 -742 697
-1247 727 -49 3 -97 6 -105 7 -8 1 -60 -1 -115 -4z"/>
<path d="M1325 4990 c-348 -59 -638 -205 -876 -441 -102 -102 -133 -139 -206
-249 -228 -342 -298 -783 -190 -1185 145 -536 616 -968 1187 -1089 132 -27
142 -28 325 -31 295 -5 497 38 750 160 375 181 672 515 790 885 14 47 31 95
36 108 10 26 -5 30 -36 9 -11 -8 -60 -35 -110 -62 -49 -27 -108 -58 -130 -70
-22 -13 -74 -41 -115 -63 -63 -34 -84 -52 -135 -119 -161 -210 -366 -362 -603
-447 -77 -27 -78 -28 -217 -52 -253 -45 -543 -1 -780 119 -406 205 -663 616
-657 1047 2 131 32 295 68 379 83 191 159 307 283 428 173 172 426 300 666
338 22 4 54 9 70 11 17 3 84 5 150 5 337 2 651 -127 889 -365 50 -50 107 -116
127 -146 20 -30 45 -62 55 -71 11 -9 100 -60 199 -114 99 -53 204 -111 232
-127 31 -17 51 -24 49 -16 -3 7 -16 51 -31 98 -174 559 -658 962 -1279 1066
-17 3 -114 7 -216 9 -149 3 -206 0 -295 -15z"/>
<path d="M2325 3839 c1 -99 -2 -122 -15 -128 -8 -4 -299 -6 -647 -6 -435 1
-633 -2 -636 -9 -3 -10 -1 -382 2 -396 0 -3 288 -6 639 -5 350 0 642 -1 647
-2 6 -2 10 -49 10 -121 -1 -64 0 -121 3 -125 4 -8 41 11 395 207 76 42 140 76
142 76 2 0 30 15 62 34 54 31 167 93 221 122 l23 12 -33 20 c-51 30 -783 431
-799 437 -12 5 -15 -14 -14 -116z"/>
<path d="M4345 3783 c-346 -189 -457 -250 -493 -269 -23 -12 -22 -13 38 -48
33 -20 63 -36 65 -36 2 0 34 -17 72 -38 37 -22 93 -52 123 -69 30 -16 154 -84
275 -151 121 -66 227 -123 235 -127 13 -5 15 11 15 112 -1 65 0 123 2 128 2 7
227 10 648 10 440 -1 646 2 648 10 3 9 1 382 -2 395 0 3 -283 6 -628 5 -346 0
-637 1 -648 3 -19 3 -21 10 -20 124 0 66 -2 121 -5 123 -3 2 -150 -75 -325
-172z"/>
<path d="M4082 1275 c-163 -45 -244 -200 -211 -406 19 -112 119 -212 234 -234
44 -8 144 -6 187 4 54 13 122 55 157 98 96 116 88 355 -16 460 -82 83 -218
113 -351 78z m178 -123 c99 -53 120 -261 36 -358 -29 -34 -38 -38 -92 -42 -50
-3 -64 0 -93 20 -54 36 -75 88 -75 182 -1 67 3 89 24 130 41 80 123 108 200
68z"/>
<path d="M4837 1280 c-115 -29 -202 -120 -223 -234 -16 -83 -1 -203 32 -267
22 -44 82 -99 129 -120 117 -52 295 -33 380 39 74 63 110 163 103 287 -9 138
-66 229 -174 277 -51 22 -189 32 -247 18z m181 -137 c53 -39 67 -79 67 -183 0
-82 -3 -101 -24 -137 -47 -82 -165 -100 -231 -35 -83 83 -66 305 28 361 46 27
120 24 160 -6z"/>
<path d="M1190 1274 c0 -6 28 -50 162 -254 l75 -115 -1 -133 -1 -132 83 0 82
0 0 134 0 135 120 181 c66 99 120 182 120 184 0 2 -39 4 -88 4 l-88 1 -69
-109 c-39 -60 -73 -110 -77 -110 -6 0 -88 122 -97 145 -2 6 -15 24 -28 41 -22
30 -25 31 -108 32 -47 1 -85 -1 -85 -4z"/>
<path d="M1869 971 c-62 -168 -114 -312 -117 -319 -3 -10 14 -12 79 -10 l84 3
19 56 18 55 129 0 128 1 19 -56 19 -56 81 -3 c45 -2 82 1 82 5 0 6 -128 359
-165 453 -7 19 -26 67 -40 106 l-27 72 -98 -1 -98 0 -113 -306z m258 21 l40
-117 -78 0 c-42 0 -80 3 -84 7 -8 7 66 228 76 228 3 0 24 -53 46 -118z"/>
<path d="M2500 959 l0 -320 78 3 77 3 0 202 c0 111 2 204 5 206 5 5 67 -109
185 -335 l40 -78 93 0 92 0 0 319 0 320 -77 -2 -78 -2 0 -212 c0 -117 -1 -213
-2 -213 -3 0 -145 264 -210 392 -17 33 -28 36 -125 36 l-78 0 0 -319z"/>
<path d="M3230 959 l0 -321 193 4 c155 4 200 8 232 22 73 33 105 89 99 178 -3
55 -24 91 -72 123 -31 21 -32 24 -13 30 70 22 82 172 18 228 -49 42 -85 49
-274 53 l-183 3 0 -320z m298 197 c50 -17 47 -97 -3 -116 -31 -12 -125 -13
-126 -2 -1 10 -1 105 0 118 1 12 94 12 129 0z m39 -259 c29 -23 32 -84 5 -118
-16 -19 -31 -23 -98 -27 l-79 -4 2 78 c1 44 2 83 2 87 1 4 33 7 73 5 51 -2 78
-8 95 -21z"/>
<path d="M5387 1271 c-2 -3 -3 -145 -2 -316 l0 -310 83 -3 82 -3 0 126 0 127
128 -126 127 -126 98 0 c53 0 97 2 97 5 0 2 -74 78 -165 168 l-166 163 144
140 c79 76 146 144 150 150 4 7 -23 11 -86 11 l-92 1 -115 -114 -115 -113 -3
113 -3 114 -79 0 c-44 0 -82 -3 -83 -7z"/>
</g>
</svg>
