<?xml version="1.0" standalone="no"?>
<!DOCTYPE svg PUBLIC "-//W3C//DTD SVG 20010904//EN"
 "http://www.w3.org/TR/2001/REC-SVG-20010904/DTD/svg10.dtd">
<svg version="1.0" xmlns="http://www.w3.org/2000/svg"
 width="680.000000pt" height="680.000000pt" viewBox="0 0 680.000000 680.000000"
 preserveAspectRatio="xMidYMid meet">
<metadata>
Created by potrace 1.14, written by Peter Selinger 2001-2017
</metadata>
<g transform="translate(0.000000,680.000000) scale(0.100000,-0.100000)"
fill="#000000" stroke="none">
<path d="M1753 6376 c-13 -6 -23 -16 -23 -23 0 -7 -6 -16 -14 -20 -8 -4 -16
-15 -18 -23 -2 -8 -10 -21 -18 -28 -13 -12 -13 -13 0 -7 10 4 9 2 -2 -8 -10
-8 -18 -18 -18 -22 0 -4 -8 -14 -17 -22 -11 -9 -12 -11 -3 -7 11 6 10 2 -2
-13 -10 -11 -18 -25 -18 -32 0 -7 -4 -9 -10 -6 -5 3 -10 -3 -10 -14 0 -12 -4
-21 -10 -21 -5 0 -10 -5 -10 -12 0 -6 -8 -20 -17 -31 -13 -15 -14 -19 -3 -13
13 7 13 6 0 -6 -24 -21 -64 -82 -49 -74 8 4 6 1 -3 -7 -10 -8 -18 -19 -18 -26
0 -6 -4 -11 -10 -11 -5 0 -10 -7 -10 -16 0 -8 -6 -22 -12 -29 -27 -30 -38 -45
-38 -50 -1 -10 -14 -41 -24 -52 -30 -34 -34 -41 -29 -47 4 -3 1 -6 -6 -6 -7 0
-9 -4 -6 -10 3 -5 1 -10 -4 -10 -6 0 -11 -7 -11 -15 0 -8 -4 -15 -10 -15 -5 0
-10 -7 -10 -16 0 -9 -5 -12 -12 -8 -7 4 -8 3 -4 -5 7 -10 -26 -68 -47 -82 -5
-4 -6 -12 -3 -18 4 -6 3 -11 -1 -11 -5 0 -17 -16 -27 -35 -11 -19 -23 -35 -28
-35 -5 0 -7 -4 -3 -10 3 -5 -3 -18 -15 -30 -11 -11 -19 -21 -18 -22 4 -5 -37
-68 -44 -68 -4 0 -4 -7 -1 -17 4 -11 3 -14 -5 -9 -7 4 -13 2 -13 -3 -2 -12 -5
-26 -9 -38 -1 -5 -2 -11 -1 -15 0 -4 -7 -4 -17 -1 -9 3 -14 3 -10 -2 4 -4 -1
-22 -11 -39 -11 -17 -19 -35 -19 -39 0 -5 -4 -12 -8 -15 -4 -4 -4 -1 1 7 5 9
4 12 -3 7 -7 -4 -12 -12 -12 -18 0 -5 -9 -23 -21 -39 -11 -16 -17 -29 -12 -29
4 0 3 -4 -3 -8 -14 -10 -59 -85 -56 -95 1 -4 -5 -10 -13 -13 -8 -3 -12 -10 -9
-15 3 -5 0 -9 -6 -9 -6 0 -8 -4 -5 -10 3 -5 2 -10 -3 -10 -5 0 -19 -20 -32
-45 -13 -25 -27 -45 -32 -45 -5 0 -7 -4 -4 -9 3 -5 -1 -14 -9 -21 -8 -7 -15
-19 -15 -27 0 -8 -5 -11 -10 -8 -6 4 -9 3 -8 -2 4 -14 -13 -53 -23 -53 -5 0
-9 -7 -9 -15 0 -9 -6 -18 -14 -21 -9 -3 -12 -12 -9 -21 4 -11 2 -14 -5 -9 -8
5 -12 -2 -12 -19 0 -14 -4 -24 -9 -21 -5 3 -14 -8 -20 -24 -5 -17 -15 -30 -22
-30 -7 0 -9 -3 -6 -7 4 -3 -1 -12 -11 -20 -10 -9 -11 -11 -2 -7 12 7 13 5 3
-8 -7 -8 -9 -19 -5 -23 4 -5 2 -5 -4 -2 -10 6 -28 -20 -24 -32 1 -2 -5 -8 -14
-13 -9 -5 -16 -14 -16 -19 0 -6 -9 -24 -21 -40 -11 -16 -17 -29 -12 -29 4 0 0
-5 -10 -11 -9 -6 -15 -14 -12 -19 3 -4 -2 -10 -10 -14 -8 -3 -15 -15 -15 -26
0 -11 -4 -20 -10 -20 -5 0 -10 -7 -10 -15 0 -7 -8 -19 -18 -24 -9 -6 -13 -11
-9 -11 4 0 -6 -20 -23 -45 -17 -25 -27 -45 -23 -45 4 0 4 -4 -2 -8 -21 -15
-50 -56 -35 -48 8 4 6 0 -4 -8 -11 -9 -16 -16 -11 -16 5 0 -1 -10 -13 -23 -12
-13 -19 -27 -15 -30 3 -4 1 -7 -6 -7 -7 0 -10 -4 -7 -9 3 -5 -1 -12 -10 -15
-9 -4 -14 -9 -11 -12 3 -4 -3 -15 -14 -27 -10 -11 -19 -27 -19 -34 0 -7 -5
-13 -11 -13 -5 0 -8 -4 -5 -8 3 -5 -4 -19 -15 -30 -11 -12 -16 -22 -12 -22 4
0 3 -4 -2 -8 -6 -4 -19 -24 -30 -44 -11 -21 -23 -38 -28 -38 -4 0 -5 -5 -2
-10 3 -5 1 -10 -4 -10 -6 0 -11 -7 -11 -15 0 -8 -5 -15 -11 -15 -5 0 -7 -5 -4
-10 3 -5 1 -10 -5 -10 -6 0 -8 -5 -5 -10 3 -5 1 -10 -4 -10 -6 0 -11 -5 -11
-10 0 -6 -9 -20 -20 -32 -10 -12 -17 -25 -14 -30 3 -4 0 -8 -7 -8 -7 0 -10 -3
-6 -6 3 -3 -3 -15 -13 -27 -11 -11 -17 -24 -14 -29 3 -4 0 -8 -5 -8 -6 0 -11
-16 -11 -36 0 -19 4 -33 9 -30 4 3 8 -5 7 -17 -1 -25 15 -48 28 -39 5 3 7 -2
3 -11 -3 -9 0 -23 8 -31 8 -8 15 -20 15 -26 0 -6 6 -8 13 -4 6 4 9 4 5 -1 -4
-4 1 -22 12 -40 11 -18 17 -35 13 -38 -3 -4 1 -7 11 -7 9 0 15 -3 13 -7 -2 -5
4 -21 14 -38 10 -16 28 -49 40 -72 12 -24 25 -43 31 -43 5 0 6 -4 3 -10 -3 -5
-1 -10 5 -10 6 0 9 -4 6 -8 -3 -5 4 -15 15 -22 10 -8 19 -20 19 -27 0 -21 23
-63 31 -57 5 3 9 -4 9 -16 0 -11 6 -23 14 -26 8 -3 12 -12 9 -20 -3 -8 0 -14
6 -14 6 0 11 -7 11 -15 0 -8 5 -15 10 -15 6 0 10 -7 10 -15 0 -8 5 -15 11 -15
5 0 7 -5 4 -11 -4 -6 2 -19 14 -30 12 -12 18 -26 14 -36 -4 -10 -2 -14 4 -10
5 3 16 -6 24 -21 7 -15 21 -39 31 -54 10 -14 18 -34 18 -43 0 -9 4 -14 9 -11
5 3 14 -6 20 -22 12 -31 32 -64 44 -73 5 -3 9 -10 9 -15 1 -20 18 -54 28 -54
5 0 10 -9 10 -20 0 -11 5 -20 10 -20 6 0 10 -6 10 -14 0 -7 7 -19 15 -26 8 -6
13 -17 12 -23 -1 -7 5 -11 13 -9 8 2 12 0 8 -3 -10 -10 53 -126 64 -119 5 3 8
2 7 -3 -4 -22 3 -41 21 -61 12 -12 17 -22 13 -22 -4 0 1 -7 11 -15 11 -8 16
-15 10 -15 -5 0 0 -7 10 -15 13 -10 15 -15 6 -15 -8 0 -5 -7 9 -19 12 -10 24
-30 26 -43 3 -12 13 -30 23 -38 10 -9 17 -21 14 -28 -2 -6 1 -12 7 -12 6 0 11
-7 11 -16 0 -9 5 -12 12 -8 7 4 10 4 6 -1 -8 -8 16 -61 38 -83 8 -7 14 -20 14
-27 0 -8 8 -19 18 -24 12 -7 13 -10 3 -11 -10 0 -7 -6 7 -19 12 -10 22 -24 22
-30 0 -7 11 -27 25 -45 14 -18 22 -36 18 -39 -3 -4 -2 -7 4 -7 5 0 18 -18 28
-40 10 -22 22 -40 27 -40 5 0 6 -5 3 -10 -3 -6 -1 -10 4 -10 6 0 11 -7 11 -15
0 -8 5 -15 11 -15 5 0 8 -4 4 -9 -3 -5 2 -16 10 -24 8 -9 15 -20 15 -26 0 -6
5 -11 10 -11 6 0 10 -7 10 -15 0 -8 4 -15 10 -15 5 0 7 -7 4 -15 -4 -9 0 -15
10 -15 9 0 15 -3 14 -8 -4 -11 26 -72 34 -72 5 0 8 -9 8 -20 0 -11 7 -20 16
-20 8 0 12 -5 9 -11 -4 -6 1 -17 11 -25 11 -9 13 -13 4 -9 -10 4 -9 2 3 -8 9
-8 17 -18 17 -23 0 -5 11 -26 25 -45 13 -20 21 -39 18 -43 -4 -3 -1 -6 5 -6 7
0 12 -7 12 -15 0 -8 5 -15 10 -15 6 0 10 -8 10 -18 0 -10 13 -32 29 -50 17
-17 25 -32 18 -32 -7 0 -4 -5 6 -11 9 -6 15 -14 12 -20 -4 -5 -1 -9 4 -9 6 0
11 -7 11 -15 0 -8 4 -15 8 -15 5 0 14 -16 22 -35 8 -19 17 -35 22 -35 4 0 8
-6 8 -12 0 -7 9 -24 20 -38 11 -14 20 -33 20 -43 0 -10 4 -16 9 -13 11 7 23
-22 14 -36 -3 -7 -1 -8 5 -4 7 4 12 1 12 -8 0 -9 5 -16 10 -16 6 0 10 -6 10
-14 0 -7 9 -25 20 -39 11 -14 20 -33 20 -42 0 -9 4 -14 8 -11 5 3 14 -4 22
-14 8 -10 17 -17 22 -14 4 3 8 0 8 -5 0 -8 472 -11 1570 -11 1098 0 1570 3
1570 11 0 5 3 8 8 5 8 -5 42 18 45 31 1 4 5 7 9 6 5 -2 8 6 8 17 0 11 5 20 11
20 5 0 7 5 4 10 -3 6 -1 10 5 10 6 0 8 5 5 10 -3 6 -2 10 4 10 9 0 21 20 55
87 6 13 14 23 19 23 4 0 7 9 7 21 0 11 4 18 9 15 5 -3 12 5 15 19 4 14 11 25
17 25 6 0 7 4 4 10 -3 5 -1 10 4 10 6 0 11 7 11 15 0 8 5 15 10 15 6 0 10 6
10 14 0 8 7 22 16 30 8 9 16 25 17 35 0 11 6 19 11 18 6 -1 12 8 14 19 2 12
12 30 23 40 10 9 19 21 19 26 0 6 9 21 20 35 11 14 18 29 15 33 -3 4 2 10 10
14 8 3 15 12 15 21 0 8 5 15 10 15 6 0 10 7 10 15 0 8 10 24 23 36 12 12 15
19 7 15 -8 -4 -6 0 4 8 11 9 16 16 10 16 -5 0 -2 6 6 13 8 7 23 29 32 50 10
20 23 37 29 37 6 0 9 7 5 15 -3 8 -1 15 5 15 6 0 7 5 4 10 -3 6 1 10 9 10 9 0
15 3 15 8 -3 17 2 31 15 44 7 8 21 27 30 43 9 17 30 53 47 80 16 28 33 58 36
67 3 10 9 18 14 18 5 0 9 7 9 15 0 8 5 15 12 15 6 0 8 3 5 6 -4 4 1 14 11 23
9 9 17 23 17 31 0 8 7 14 15 12 8 -2 12 0 7 4 -4 4 0 18 8 31 9 13 12 23 8 23
-5 0 0 5 10 11 9 6 15 14 12 20 -4 5 -2 9 4 9 5 0 15 16 22 34 7 19 16 33 19
31 4 -2 13 11 20 30 8 19 17 35 21 35 4 0 12 13 18 30 5 16 15 30 22 30 6 0 9
7 5 15 -3 9 0 15 10 15 8 0 13 4 9 9 -3 5 2 17 11 25 8 9 13 16 9 16 -4 0 1 7
9 16 9 8 16 21 16 29 0 7 7 16 16 19 8 3 12 10 9 16 -3 5 -1 10 5 10 6 0 9 4
5 9 -3 5 5 20 17 33 13 13 24 30 26 38 2 8 9 18 15 22 7 4 8 8 2 8 -5 0 -2 5
8 11 9 6 15 14 12 19 -3 4 2 11 11 14 8 3 13 10 10 15 -3 5 1 14 9 21 8 7 12
16 9 21 -3 5 0 9 5 9 6 0 11 7 11 15 0 8 3 15 8 15 4 0 16 18 26 40 11 22 23
40 29 40 5 0 7 6 4 13 -5 14 17 39 27 30 3 -4 6 3 6 15 0 11 7 27 15 36 8 8
15 19 15 24 0 5 7 15 15 22 8 7 12 16 9 21 -3 5 2 12 10 15 9 3 16 15 16 25 0
10 5 19 10 19 6 0 10 7 10 16 0 9 5 12 12 8 6 -4 8 -3 4 4 -3 6 1 18 10 26 8
9 12 16 7 16 -4 0 -3 4 2 8 6 4 19 24 30 45 11 20 23 37 27 37 5 0 8 10 8 22
0 12 3 19 6 15 4 -3 14 8 24 26 48 90 64 117 72 117 5 0 6 5 3 10 -3 6 -1 10
5 10 6 0 8 5 5 10 -3 6 -1 10 4 10 6 0 11 7 11 15 0 8 5 15 11 15 5 0 7 5 4
10 -3 6 1 13 9 16 9 3 14 9 11 14 -2 4 5 17 16 29 11 12 17 26 14 31 -3 6 -1
10 5 10 5 0 18 17 28 38 9 20 25 46 35 56 16 19 21 31 18 49 0 4 4 7 9 7 6 0
15 12 22 28 12 31 17 72 8 72 -4 0 -12 16 -20 35 -8 19 -17 35 -21 35 -3 0
-12 14 -19 30 -7 17 -17 30 -22 30 -5 0 -6 5 -3 10 3 5 1 10 -5 10 -6 0 -15
11 -20 24 -5 14 -25 48 -44 75 -20 28 -37 56 -38 63 -3 12 -7 18 -35 52 -6 7
-9 17 -6 20 4 3 1 6 -5 6 -7 0 -12 10 -12 23 0 18 -2 19 -10 7 -8 -12 -10 -11
-10 8 0 12 -5 22 -12 22 -6 0 -9 3 -5 6 3 4 1 12 -6 20 -22 25 -32 40 -35 54
-2 8 -8 17 -13 18 -5 2 -9 10 -9 18 0 9 -4 12 -10 9 -5 -3 -10 3 -10 14 0 12
-4 21 -10 21 -5 0 -10 9 -10 21 0 13 -4 18 -12 13 -7 -5 -9 -2 -5 9 3 9 0 18
-9 21 -8 3 -14 12 -14 21 0 8 -3 15 -8 15 -4 0 -18 20 -31 45 -13 24 -28 42
-34 38 -5 -3 -7 -1 -4 4 4 6 -1 21 -11 34 -19 25 -36 62 -30 67 2 2 -8 10 -22
17 -14 8 -19 14 -12 15 7 0 4 8 -8 20 -11 11 -20 26 -20 34 0 8 -7 17 -16 20
-8 3 -12 10 -9 16 3 5 2 10 -3 10 -5 0 -15 14 -22 30 -7 17 -16 30 -21 30 -5
0 -9 6 -9 13 0 7 -9 23 -19 34 -11 12 -17 24 -14 27 4 3 1 6 -6 6 -7 0 -9 5
-6 10 3 6 -1 10 -9 10 -8 0 -13 6 -11 13 3 6 -6 25 -20 41 -13 16 -22 32 -20
36 3 4 -2 11 -11 14 -8 3 -13 10 -10 15 3 5 -1 12 -10 15 -8 3 -12 10 -9 16 3
5 1 10 -4 10 -6 0 -11 7 -11 15 0 8 -4 15 -10 15 -5 0 -10 7 -10 15 0 8 -4 15
-10 15 -5 0 -10 9 -10 21 0 11 -4 17 -10 14 -5 -3 -10 3 -10 15 0 12 -4 18
-10 15 -9 -5 -15 15 -11 37 0 4 -6 5 -15 1 -8 -3 -14 -2 -12 3 3 14 -13 54
-22 54 -9 0 -25 40 -22 53 1 5 -3 5 -9 1 -9 -5 -10 -2 -6 10 4 9 3 15 -2 12
-9 -6 -26 22 -23 37 1 4 -5 7 -13 7 -8 0 -15 9 -15 20 0 11 -4 20 -10 20 -5 0
-10 7 -10 15 0 9 -7 18 -15 21 -8 4 -12 10 -10 15 3 4 -3 17 -15 29 -11 11
-17 20 -14 20 3 0 -4 13 -15 29 -11 15 -17 32 -13 36 4 5 2 5 -5 1 -7 -3 -14
2 -18 14 -3 11 -12 26 -18 32 -7 7 -23 34 -36 61 -13 26 -28 47 -33 47 -4 0
-8 7 -8 15 0 8 -4 15 -10 15 -5 0 -10 6 -10 14 0 7 -7 19 -15 26 -8 7 -12 16
-9 21 3 5 0 9 -5 9 -6 0 -11 6 -11 13 0 8 -9 22 -20 32 -11 10 -20 24 -20 32
0 7 -5 13 -11 13 -6 0 -9 7 -5 15 3 9 0 15 -10 15 -8 0 -12 5 -9 10 3 6 3 10
-2 10 -4 0 -19 21 -33 48 -13 26 -30 51 -37 55 -7 4 -13 15 -13 22 0 8 -5 15
-11 15 -5 0 -7 5 -4 10 3 6 -1 13 -9 16 -9 3 -16 15 -16 25 0 10 -4 19 -10 19
-5 0 -10 7 -10 15 0 8 -4 15 -10 15 -5 0 -10 7 -10 15 0 8 -4 15 -9 15 -5 0
-11 8 -15 18 -8 24 -56 104 -73 120 -7 8 -10 18 -7 24 4 7 2 8 -4 4 -7 -4 -12
-1 -12 8 0 9 -5 16 -11 16 -5 0 -7 5 -4 10 3 6 2 10 -3 10 -4 0 -16 16 -25 35
-9 19 -21 35 -27 35 -5 0 -10 7 -10 15 0 8 -9 15 -21 15 -11 0 -17 5 -14 10 9
15 -3132 11 -3162 -4z"/>
</g>
</svg>
