<?xml version="1.0" standalone="no"?>
<!DOCTYPE svg PUBLIC "-//W3C//DTD SVG 20010904//EN"
 "http://www.w3.org/TR/2001/REC-SVG-20010904/DTD/svg10.dtd">
<svg version="1.0" xmlns="http://www.w3.org/2000/svg"
 width="1000.000000pt" height="1000.000000pt" viewBox="0 0 1000.000000 1000.000000"
 preserveAspectRatio="xMidYMid meet">
<metadata>
Created by potrace 1.11, written by Peter Selinger 2001-2013
</metadata>
<g transform="translate(0.000000,1000.000000) scale(0.100000,-0.100000)"
fill="#000000" stroke="none">
<path d="M4779 9056 c-2 -2 -33 -6 -69 -7 -36 -2 -71 -8 -79 -14 -12 -8 -13
-7 -6 5 7 12 6 13 -6 4 -8 -6 -29 -10 -46 -9 -18 1 -33 -3 -33 -9 0 -6 -5 -4
-10 4 -5 8 -10 10 -10 4 0 -6 -20 -10 -49 -10 -27 1 -47 -3 -43 -8 3 -5 -5 -7
-16 -4 -12 4 -24 3 -27 -2 -2 -4 -16 -6 -30 -5 -14 2 -25 0 -25 -4 0 -4 -18
-7 -40 -6 -22 1 -40 -2 -40 -6 0 -4 -8 -8 -17 -8 -10 1 -45 -6 -78 -14 -33 -9
-63 -13 -67 -11 -5 3 -8 1 -8 -3 0 -8 -19 -13 -62 -16 -10 -1 -18 -4 -18 -8 0
-4 -8 -6 -17 -4 -10 1 -24 -3 -32 -9 -8 -6 -16 -10 -18 -8 -1 1 -4 2 -5 1 -3
-1 -25 -6 -50 -12 -7 -2 -23 -9 -35 -15 -13 -7 -23 -10 -23 -8 0 3 -12 1 -27
-5 -16 -6 -41 -13 -58 -16 -16 -3 -33 -9 -36 -14 -3 -5 -14 -11 -25 -13 -11
-2 -36 -11 -56 -19 -20 -9 -39 -13 -42 -9 -3 3 -6 0 -6 -6 0 -7 -3 -11 -7 -10
-5 1 -24 -4 -43 -11 -19 -8 -38 -13 -42 -12 -5 0 -8 -4 -8 -9 0 -5 -3 -9 -7
-8 -5 1 -24 -5 -43 -14 -19 -9 -54 -24 -77 -34 -23 -9 -40 -21 -37 -26 3 -4
-1 -5 -9 -2 -8 3 -18 0 -22 -5 -3 -6 -11 -9 -16 -6 -5 4 -9 1 -9 -5 0 -6 -4
-9 -9 -6 -5 4 -11 3 -13 -1 -1 -5 -24 -18 -50 -30 -27 -13 -48 -28 -48 -33 0
-6 -4 -8 -10 -5 -5 3 -20 -1 -33 -10 -13 -8 -27 -12 -32 -8 -4 5 -5 2 -1 -4 6
-11 1 -15 -20 -12 -3 0 -13 -8 -22 -18 -9 -10 -23 -19 -31 -21 -8 -2 -20 -10
-26 -19 -7 -9 -17 -13 -22 -10 -6 4 -14 0 -17 -9 -4 -9 -9 -14 -12 -11 -4 3
-12 1 -20 -6 -33 -29 -44 -37 -53 -37 -6 0 -18 -9 -28 -19 -10 -11 -25 -21
-33 -23 -20 -4 -39 -22 -33 -31 2 -4 1 -7 -4 -5 -11 2 -73 -35 -73 -44 0 -5
-6 -8 -14 -8 -8 0 -17 -7 -20 -16 -4 -9 -9 -14 -12 -11 -3 3 -13 -2 -23 -11
-9 -9 -31 -28 -49 -42 -18 -14 -44 -35 -58 -48 -14 -12 -37 -30 -50 -38 -13
-9 -21 -21 -17 -27 3 -5 2 -7 -4 -4 -5 3 -40 -23 -77 -58 -37 -35 -70 -65 -74
-67 -4 -2 -6 -5 -5 -8 1 -3 -12 -15 -28 -25 -16 -11 -32 -28 -35 -37 -3 -10
-9 -18 -12 -18 -4 0 -22 -13 -40 -30 -18 -16 -30 -30 -27 -30 3 0 -14 -20 -39
-45 -25 -25 -46 -49 -46 -55 0 -5 -7 -10 -16 -10 -8 0 -12 -4 -9 -10 3 -5 1
-10 -5 -10 -6 0 -8 -4 -5 -10 3 -5 -1 -10 -9 -10 -9 0 -16 -4 -16 -8 0 -4 -17
-27 -39 -49 -21 -23 -36 -45 -33 -48 3 -3 0 -5 -6 -5 -7 0 -12 -6 -12 -12 0
-7 -12 -24 -25 -37 -14 -12 -22 -27 -19 -32 3 -5 1 -8 -6 -7 -6 2 -18 -10 -28
-27 -9 -16 -24 -35 -32 -42 -8 -7 -11 -13 -6 -13 5 0 -1 -9 -14 -20 -13 -11
-19 -20 -15 -20 4 0 -2 -9 -15 -20 -13 -11 -19 -20 -14 -20 5 0 2 -6 -7 -13
-9 -7 -19 -22 -23 -35 -4 -12 -12 -22 -17 -22 -6 0 -7 -4 -4 -10 3 -5 1 -10
-6 -10 -7 0 -9 -3 -6 -7 4 -3 -5 -17 -19 -30 -14 -12 -22 -23 -19 -23 7 0 -25
-59 -42 -78 -13 -13 -17 -28 -14 -45 1 -5 -3 -6 -8 -3 -8 5 -28 -33 -22 -42 1
-1 -5 -10 -14 -18 -8 -9 -15 -22 -15 -30 0 -8 -4 -14 -10 -14 -5 0 -10 -7 -10
-15 0 -8 -4 -15 -10 -15 -5 0 -9 -3 -8 -7 1 -5 -4 -21 -10 -36 -7 -16 -12 -32
-12 -37 0 -5 -8 -14 -17 -19 -10 -6 -14 -11 -10 -11 4 0 2 -10 -5 -22 -7 -13
-11 -26 -10 -30 1 -5 -3 -8 -9 -8 -5 0 -7 -4 -4 -10 3 -5 1 -10 -5 -10 -6 0
-9 -4 -5 -9 3 -5 0 -13 -6 -16 -5 -4 -8 -13 -5 -20 2 -7 -2 -16 -10 -19 -9 -3
-14 -12 -12 -18 3 -7 -1 -19 -9 -26 -7 -8 -11 -18 -8 -23 4 -5 1 -9 -4 -9 -6
0 -10 -3 -9 -7 3 -13 -25 -93 -32 -93 -4 0 -7 -6 -8 -12 -3 -33 -10 -52 -20
-56 -7 -2 -10 -8 -7 -12 3 -5 -1 -25 -9 -45 -8 -19 -12 -35 -9 -35 3 0 1 -6
-5 -12 -6 -7 -11 -17 -11 -23 -1 -5 -8 -31 -17 -57 -8 -26 -16 -56 -17 -67 -1
-12 -6 -21 -11 -21 -5 0 -6 -3 -3 -7 4 -3 2 -12 -4 -20 -9 -10 -8 -13 0 -13 8
0 7 -5 -3 -15 -8 -8 -13 -24 -11 -35 2 -11 0 -20 -5 -20 -4 0 -7 -8 -5 -17 1
-10 -2 -24 -8 -31 -5 -7 -7 -15 -4 -19 4 -3 2 -14 -3 -24 -6 -9 -13 -35 -16
-56 -3 -21 -8 -42 -11 -46 -5 -8 -15 -91 -17 -134 -1 -13 -4 -23 -7 -23 -3 0
-7 -21 -8 -46 0 -26 -4 -51 -8 -57 -4 -6 -8 -29 -10 -51 -7 -89 -11 -131 -13
-131 -8 0 -15 -181 -14 -370 0 -225 6 -374 16 -391 3 -5 5 -26 4 -46 -1 -21 1
-38 4 -38 3 0 7 -19 8 -42 1 -24 6 -65 11 -93 5 -27 7 -53 4 -57 -2 -5 0 -8 5
-8 6 0 9 -18 8 -39 -1 -24 2 -37 8 -34 5 4 7 -1 3 -10 -3 -9 -2 -19 3 -22 6
-4 6 -14 -1 -27 -9 -16 -8 -19 2 -13 9 6 11 4 6 -7 -3 -9 -3 -19 1 -22 3 -4 7
-12 8 -19 11 -63 17 -83 27 -96 10 -12 9 -13 -3 -6 -13 8 -13 6 -2 -8 8 -9 11
-21 7 -27 -3 -5 -1 -10 5 -10 7 0 10 -6 7 -14 -3 -8 -3 -17 1 -20 3 -4 8 -19
10 -34 2 -14 9 -33 15 -41 10 -12 9 -13 -3 -6 -13 8 -13 6 -2 -8 8 -9 11 -21
7 -27 -3 -5 -1 -10 4 -10 6 0 10 -3 9 -7 -1 -5 4 -21 11 -38 7 -16 15 -45 18
-63 3 -17 10 -32 15 -32 6 0 8 -9 5 -20 -3 -11 0 -20 6 -20 6 0 8 -3 4 -6 -3
-4 3 -24 14 -45 11 -22 17 -39 14 -39 -3 0 4 -18 15 -41 12 -23 19 -44 16 -47
-3 -3 0 -12 8 -21 8 -9 16 -20 17 -26 8 -35 12 -45 20 -45 5 0 6 -7 3 -15 -4
-8 -1 -15 5 -15 6 0 10 -3 9 -7 -2 -11 18 -58 52 -124 16 -31 26 -59 23 -63
-4 -3 -1 -6 5 -6 6 0 16 -16 23 -35 7 -19 16 -35 20 -35 6 0 31 -60 28 -69 0
-2 3 -7 8 -10 12 -9 73 -111 73 -122 0 -5 5 -9 11 -9 5 0 7 -4 4 -10 -3 -5 -1
-10 4 -10 6 0 17 -15 25 -32 7 -18 23 -43 35 -55 14 -15 17 -23 8 -26 -7 -3
-4 -6 6 -6 10 -1 16 -5 12 -10 -3 -5 3 -16 12 -23 17 -12 31 -33 58 -85 7 -13
15 -20 18 -16 4 3 7 -1 7 -10 0 -9 7 -17 16 -17 8 0 12 -5 9 -11 -4 -5 2 -18
13 -27 10 -9 24 -27 31 -40 7 -12 16 -20 22 -17 5 4 8 3 7 -2 -4 -13 21 -52
53 -82 16 -16 29 -32 29 -37 0 -5 9 -15 20 -22 11 -7 20 -20 20 -29 0 -9 3
-14 6 -10 7 6 34 -17 34 -28 0 -8 301 -305 350 -345 17 -14 41 -35 55 -47 13
-13 29 -23 35 -23 6 0 9 -4 5 -9 -3 -5 3 -12 13 -15 10 -4 35 -21 55 -40 41
-37 87 -70 87 -61 0 3 10 -5 23 -18 12 -13 39 -33 60 -46 20 -12 37 -27 37
-32 0 -6 4 -8 8 -5 5 3 18 -4 30 -14 12 -11 23 -20 26 -20 3 0 25 -13 49 -30
25 -16 50 -30 56 -30 6 0 11 -3 11 -8 0 -4 21 -18 48 -32 26 -13 49 -27 52
-30 3 -3 28 -17 55 -30 28 -14 52 -28 53 -32 2 -5 10 -8 17 -8 8 0 21 -8 31
-17 10 -10 18 -16 18 -14 1 2 11 1 24 -3 12 -4 20 -11 17 -16 -3 -4 4 -6 15
-3 12 3 20 0 20 -6 0 -7 5 -9 10 -6 6 3 10 1 10 -4 0 -6 7 -11 15 -11 8 0 23
-4 33 -9 9 -5 36 -18 59 -30 24 -12 47 -19 53 -16 5 3 10 2 10 -3 0 -9 45 -30
60 -29 3 0 16 -6 30 -13 14 -8 34 -15 44 -17 11 -2 25 -8 33 -14 7 -6 13 -9
13 -6 0 3 20 -3 45 -14 25 -11 49 -18 54 -14 5 3 11 1 13 -4 1 -5 14 -11 28
-13 14 -1 27 -6 30 -10 3 -4 19 -9 35 -12 17 -2 30 -5 30 -6 0 -1 7 -3 15 -5
8 -3 22 -6 30 -8 8 -2 22 -7 30 -10 30 -11 111 -27 148 -30 6 0 12 -3 12 -7 0
-3 8 -6 18 -7 17 -2 46 -7 92 -18 14 -3 37 -6 53 -7 15 -1 27 -5 27 -9 0 -4 9
-6 20 -4 11 2 22 -1 26 -7 4 -6 10 -5 15 3 6 9 12 10 17 4 4 -6 18 -11 32 -12
67 -6 139 -13 180 -19 25 -4 62 -7 82 -7 21 0 35 -3 33 -7 -2 -4 2 -7 10 -7 8
0 11 5 8 11 -4 6 0 5 9 -1 20 -17 469 -16 480 1 6 8 8 7 8 -1 0 -7 5 -13 11
-13 5 0 8 4 5 9 -3 5 21 8 55 7 33 -1 62 1 64 4 4 6 47 11 127 14 21 0 38 4
38 8 0 4 14 6 30 4 17 -2 30 0 30 4 0 4 12 6 28 5 15 -1 32 1 37 4 6 3 15 6
20 7 91 15 166 32 172 38 3 3 13 0 21 -7 13 -10 14 -9 7 2 -6 11 -3 13 13 9
12 -4 24 -3 27 2 2 4 19 11 37 15 18 4 40 9 48 11 8 3 23 5 33 6 9 1 17 6 17
11 0 5 6 7 14 4 7 -3 27 3 44 13 22 14 33 16 38 8 5 -8 10 -7 18 3 6 8 18 14
26 14 8 -1 34 7 57 16 22 10 44 15 47 12 3 -4 6 -2 6 4 0 5 6 10 13 11 19 2
139 46 167 62 14 8 30 14 35 15 6 0 20 6 33 13 12 7 27 10 32 7 5 -3 11 -1 15
4 8 14 197 106 212 105 7 -1 11 2 8 6 -3 4 7 11 20 14 16 4 23 11 19 18 -4 6
-3 8 4 4 6 -3 13 -2 17 4 4 6 11 8 16 5 5 -4 9 -1 9 5 0 6 4 9 9 6 5 -4 11 -2
13 3 1 5 10 11 18 13 8 2 23 11 34 20 11 10 26 18 33 18 7 0 13 5 13 11 0 5 5
7 10 4 6 -3 10 -1 10 5 0 6 5 8 10 5 6 -3 10 -1 10 4 0 6 7 11 15 11 8 0 14 5
13 11 -2 6 6 13 17 15 11 1 21 8 23 13 2 6 10 11 18 11 8 0 26 11 39 24 13 13
26 21 29 19 3 -3 8 2 12 11 3 9 9 14 13 12 4 -3 22 8 41 24 19 16 38 26 43 23
6 -3 7 -2 4 4 -4 6 5 15 18 21 14 7 25 16 25 22 0 6 4 9 8 6 5 -3 15 3 24 12
8 9 27 26 42 36 15 11 37 28 49 38 12 11 42 36 66 56 24 20 68 60 97 88 29 29
56 49 59 46 3 -3 8 4 12 16 3 12 12 22 19 22 8 0 19 10 24 23 5 12 9 18 9 13
1 -11 41 34 41 46 0 5 5 6 10 3 6 -3 14 4 19 17 6 13 10 19 10 14 1 -5 14 7
30 27 15 20 31 34 35 30 3 -3 6 -1 6 6 0 11 62 87 132 162 14 16 24 29 21 29
-3 0 6 11 21 25 14 13 26 28 26 33 0 4 15 26 34 47 19 21 33 42 30 47 -3 4 2
8 11 8 9 0 13 4 10 10 -3 5 -3 10 2 10 4 0 22 23 38 50 17 27 34 50 38 50 5 0
5 5 2 10 -3 6 -2 10 2 10 5 0 17 16 27 35 10 19 23 32 27 29 5 -3 7 1 4 8 -3
7 6 26 20 42 14 16 25 33 25 38 0 15 4 23 22 42 10 11 18 26 18 33 0 7 4 13 9
13 5 0 14 14 20 30 5 17 16 30 23 30 9 0 9 3 -2 10 -10 6 -11 10 -2 10 6 0 12
7 12 15 0 8 5 15 12 15 6 0 8 3 5 6 -4 4 3 20 14 35 11 16 18 33 15 38 -3 5 1
12 9 15 8 3 14 9 13 13 -1 4 15 42 35 83 19 41 37 82 39 90 2 8 6 17 10 20 4
3 9 15 11 27 1 12 9 28 16 36 6 9 13 25 14 36 1 12 5 21 10 21 4 0 5 5 2 10
-3 6 -2 10 4 10 6 0 8 7 5 15 -4 8 -2 15 3 15 5 0 9 10 10 22 1 11 7 24 13 28
7 4 11 9 9 11 -1 2 1 15 5 29 5 14 9 27 10 30 1 3 4 10 7 15 4 6 5 20 4 32 -1
13 2 23 7 23 4 0 8 9 8 20 0 11 4 20 9 20 5 0 8 11 6 25 -1 14 1 25 4 25 4 0
13 22 20 50 7 27 17 53 22 56 6 3 5 11 -2 20 -9 11 -9 14 0 14 7 0 10 4 7 9
-4 5 0 12 6 14 10 4 9 6 -1 6 -9 1 -10 5 -4 14 10 12 36 125 36 153 0 8 4 14
8 14 4 0 8 8 7 18 0 9 4 37 8 62 5 25 8 60 9 78 0 17 3 32 7 32 4 0 5 9 3 20
-2 11 0 22 4 24 4 3 7 23 6 45 -1 23 2 41 5 41 4 0 7 19 8 43 0 23 4 80 9 127
14 145 9 710 -7 710 -3 0 -6 19 -6 43 -1 42 -11 152 -14 152 -2 0 -9 36 -14
80 -2 22 -5 40 -6 40 -2 0 -8 40 -11 83 -2 17 -7 32 -12 32 -5 0 -7 6 -4 13 2
6 0 23 -5 36 -5 13 -11 40 -14 60 -3 20 -11 39 -18 43 -7 5 -6 8 4 8 9 0 11 3
5 8 -10 7 -18 39 -19 79 0 12 -4 19 -8 17 -4 -3 -8 5 -8 18 0 13 -5 29 -12 36
-7 7 -9 12 -6 12 4 0 -1 24 -12 54 -10 30 -16 57 -13 60 4 3 2 6 -3 6 -5 0
-11 8 -12 18 -5 42 -23 92 -34 92 -5 0 -7 4 -4 8 3 5 -1 20 -9 35 -7 14 -11
28 -7 31 3 3 -3 16 -14 28 -10 12 -14 18 -7 14 7 -4 4 9 -6 31 -11 21 -26 54
-34 73 -8 19 -25 58 -38 85 -12 28 -24 56 -25 64 -2 8 -6 17 -11 20 -13 10
-36 54 -23 46 6 -3 -3 15 -20 41 -16 26 -30 54 -30 61 0 7 -4 13 -10 13 -5 0
-10 9 -10 19 0 11 -4 21 -8 23 -5 2 -20 28 -35 57 -15 30 -27 51 -27 46 0 -5
-12 14 -26 43 -14 29 -30 52 -35 52 -6 0 -8 4 -5 9 3 4 -3 19 -14 31 -11 12
-17 28 -13 34 3 6 2 8 -2 3 -8 -7 -95 117 -95 135 0 4 -7 8 -16 8 -8 0 -12 5
-9 10 3 6 1 10 -4 10 -6 0 -11 7 -11 15 0 8 -4 15 -10 15 -5 0 -10 4 -10 10 0
10 -26 44 -62 82 -10 10 -18 22 -18 28 0 5 -9 15 -20 22 -11 7 -20 18 -20 24
0 7 -7 15 -16 18 -8 3 -12 10 -9 16 3 5 -2 10 -11 10 -10 0 -15 3 -12 6 10 10
-303 334 -322 334 -6 0 -8 5 -5 10 3 6 2 10 -2 10 -8 0 -78 59 -156 133 -17
15 -33 27 -37 27 -4 0 -20 12 -37 28 -16 15 -42 36 -58 47 -16 11 -34 26 -41
33 -7 6 -17 12 -23 12 -6 0 -11 5 -11 10 0 6 -7 10 -15 10 -8 0 -15 5 -15 11
0 5 -13 15 -30 20 -16 6 -28 14 -25 19 3 4 -9 13 -25 20 -17 7 -30 15 -30 19
0 3 -14 12 -32 20 -17 8 -39 22 -50 33 -10 10 -23 16 -28 13 -6 -4 -10 1 -10
9 0 9 -3 15 -7 15 -20 -3 -46 2 -40 8 4 3 -3 11 -16 18 -94 50 -142 77 -154
86 -7 6 -13 8 -13 3 0 -5 -4 -4 -8 1 -13 17 -92 56 -102 50 -6 -3 -10 -2 -10
3 0 5 -13 15 -30 22 -16 7 -30 17 -30 22 0 5 -5 6 -10 3 -6 -4 -17 -1 -25 5
-8 7 -15 10 -15 6 0 -4 -11 1 -25 10 -14 9 -25 13 -25 9 0 -3 -7 1 -16 9 -8 9
-20 14 -25 11 -5 -4 -9 -1 -9 4 0 6 -6 11 -14 11 -14 0 -157 54 -189 71 -10 5
-22 7 -27 4 -4 -3 -14 0 -22 7 -7 7 -26 14 -42 15 -16 1 -33 8 -38 15 -4 7 -8
10 -8 6 0 -3 -28 3 -62 14 -35 10 -79 22 -98 25 -19 3 -37 8 -40 12 -3 3 -14
7 -25 8 -34 2 -59 8 -72 16 -7 5 -13 5 -13 1 0 -3 -6 -2 -12 3 -7 5 -23 8 -35
7 -13 0 -23 2 -23 7 0 4 -9 6 -20 4 -11 -2 -20 0 -20 4 0 4 -13 6 -30 5 -16
-1 -30 1 -30 5 0 6 -46 11 -97 11 -13 0 -23 4 -23 8 0 4 -15 8 -33 8 -41 2
-142 12 -142 14 0 9 -608 24 -616 16z"/>
</g>
</svg>
