<?xml version="1.0" standalone="no"?>
<!DOCTYPE svg PUBLIC "-//W3C//DTD SVG 20010904//EN"
 "http://www.w3.org/TR/2001/REC-SVG-20010904/DTD/svg10.dtd">
<svg version="1.0" xmlns="http://www.w3.org/2000/svg"
 width="1600.000000pt" height="1600.000000pt" viewBox="0 0 1600.000000 1600.000000"
 preserveAspectRatio="xMidYMid meet">
<metadata>
Created by potrace 1.14, written by Peter Selinger 2001-2017
</metadata>
<g transform="translate(0.000000,1600.000000) scale(0.100000,-0.100000)"
fill="#000000" stroke="none">
<path d="M0 8000 l0 -8000 8000 0 8000 0 0 8000 0 8000 -8000 0 -8000 0 0
-8000z m5856 3526 c23 -24 16 -45 -39 -118 -26 -35 -32 -37 -66 -32 -37 6 -38
5 -54 -38 -9 -23 -19 -61 -22 -83 -7 -39 -83 -239 -129 -340 -13 -27 -32 -68
-41 -90 -83 -186 -163 -330 -209 -374 l-36 -35 0 34 c0 18 9 52 19 74 73 155
93 214 80 238 -8 14 13 64 100 237 61 120 122 236 136 257 14 21 28 49 32 63
3 14 16 49 28 76 13 28 25 58 29 68 3 11 16 17 35 17 18 0 40 11 61 30 36 33
54 37 76 16z m144 -203 c-1 -14 -27 -43 -38 -43 -34 0 -16 -33 220 -393 15
-23 31 -49 35 -57 3 -8 20 -35 37 -60 17 -25 42 -66 56 -92 14 -25 51 -89 82
-141 31 -52 68 -119 82 -149 14 -30 32 -61 41 -68 16 -14 55 -86 55 -103 0 -5
11 -22 25 -39 14 -16 25 -36 25 -44 0 -8 5 -14 10 -14 6 0 10 -7 10 -15 0 -8
11 -31 25 -51 14 -20 25 -45 25 -55 0 -11 4 -19 10 -19 14 0 50 -75 50 -105 0
-14 6 -25 13 -25 8 0 27 -26 44 -57 17 -32 51 -96 77 -142 25 -46 51 -100 58
-120 7 -20 17 -43 24 -51 12 -16 244 -485 289 -585 15 -33 42 -92 61 -130 19
-39 34 -75 34 -82 0 -6 4 -13 9 -15 9 -3 131 -239 131 -253 0 -5 14 -39 32
-75 17 -36 41 -87 54 -115 13 -27 55 -116 94 -196 38 -81 70 -154 70 -162 0
-9 5 -19 10 -22 11 -7 50 -83 50 -99 0 -5 11 -22 26 -37 22 -23 31 -48 33 -96
1 -7 7 -13 14 -13 8 0 21 -17 30 -37 42 -97 50 -118 49 -125 -1 -3 5 -12 13
-18 8 -7 15 -25 15 -40 0 -15 7 -33 15 -40 8 -7 15 -19 15 -27 0 -7 16 -45 35
-84 19 -39 35 -75 35 -80 0 -5 11 -33 25 -64 14 -30 28 -68 31 -85 4 -16 10
-30 13 -30 11 0 55 -112 54 -133 -1 -10 5 -21 13 -24 8 -3 14 -13 14 -22 1
-22 24 -51 41 -51 20 0 39 -34 32 -59 -5 -19 -15 -26 -36 -22 -7 1 -6 -37 2
-87 1 -2 6 0 11 3 6 3 10 2 10 -4 0 -5 3 -18 6 -28 4 -13 3 -15 -4 -4 -12 17
-26 -2 -18 -27 4 -10 -1 -27 -9 -38 -8 -10 -15 -28 -15 -39 0 -14 -7 -21 -21
-22 -29 -3 -34 -10 -19 -28 21 -25 4 -29 -28 -6 l-30 21 -5 -21 c-3 -12 -10
-18 -16 -14 -6 3 -11 1 -11 -4 0 -6 -7 -11 -16 -11 -9 0 -12 5 -8 12 5 8 2 9
-10 5 -10 -4 -22 -7 -26 -7 -5 0 -10 -19 -12 -42 -2 -36 -7 -44 -25 -46 -16
-2 -23 2 -23 12 0 9 5 15 11 13 6 -1 14 4 16 12 4 10 -2 12 -25 6 -33 -7 -46
3 -31 25 6 11 9 12 9 2 0 -7 5 -10 11 -6 14 8 -8 24 -36 24 -14 0 -26 13 -39
44 -20 45 -57 78 -64 57 -2 -6 -8 -9 -13 -5 -5 3 -9 -4 -9 -16 0 -12 -4 -19
-9 -16 -5 3 -8 21 -6 40 3 29 1 33 -16 29 -13 -4 -19 0 -19 11 0 27 -31 116
-40 116 -10 0 -25 40 -21 54 1 5 -2 12 -7 15 -12 8 -52 86 -52 102 0 6 -9 23
-20 39 -11 15 -17 30 -13 34 3 3 1 6 -5 6 -7 0 -12 5 -12 10 0 6 -9 30 -20 53
-12 23 -24 62 -27 87 -5 32 -8 39 -13 25 -6 -18 -8 -18 -23 6 -10 14 -18 44
-19 67 -1 25 -6 42 -13 42 -22 0 -39 31 -37 65 2 25 -3 36 -22 49 -15 9 -23
22 -20 30 3 8 1 17 -5 20 -6 4 -8 13 -4 21 6 17 -15 48 -27 40 -4 -3 -11 15
-14 40 -4 25 -11 45 -17 45 -5 0 -9 9 -9 20 0 11 -5 20 -11 20 -5 0 -8 4 -5 8
3 5 -2 21 -10 36 -7 16 -14 37 -14 47 0 11 -7 22 -15 25 -8 4 -15 16 -15 28 0
34 -12 66 -21 60 -5 -3 -9 1 -9 9 0 8 -9 26 -21 40 -11 15 -19 32 -17 39 3 17
-24 78 -36 78 -4 0 -6 7 -2 15 3 9 0 15 -9 15 -8 0 -15 5 -15 11 0 6 6 7 13 2
6 -4 4 5 -5 20 -10 14 -18 33 -18 40 0 8 -9 21 -20 28 -12 8 -22 30 -26 54 -3
22 -12 47 -19 55 -7 8 -16 30 -20 48 -4 18 -13 32 -21 32 -8 0 -14 8 -14 19 0
18 -30 52 -30 35 0 -5 -7 -1 -15 9 -20 27 -76 36 -185 32 -281 -12 -421 -16
-675 -21 -154 -3 -298 -7 -320 -9 -56 -4 -819 -5 -940 0 -55 2 -129 3 -165 3
-36 0 -120 1 -187 2 l-122 2 -17 -39 c-9 -21 -22 -49 -29 -63 -7 -14 -18 -41
-24 -61 -6 -20 -27 -62 -46 -94 -19 -32 -35 -65 -35 -74 -1 -9 -10 -32 -20
-51 -11 -19 -22 -43 -26 -52 -3 -10 -10 -18 -15 -18 -5 0 -9 -9 -9 -19 0 -11
-5 -23 -10 -26 -6 -4 -8 -11 -4 -16 3 -5 0 -8 -8 -7 -7 2 -12 -3 -11 -9 2 -7
-11 -38 -27 -68 -17 -31 -30 -62 -30 -71 0 -8 -15 -45 -34 -82 -18 -37 -46
-94 -60 -127 -15 -33 -32 -67 -37 -75 -5 -8 -13 -24 -18 -36 -5 -11 -15 -27
-23 -35 -20 -22 -38 -57 -38 -73 0 -23 -77 -184 -107 -223 -23 -29 -32 -34
-59 -31 -27 3 -38 -2 -61 -29 -32 -38 -43 -41 -43 -13 0 11 -7 20 -15 20 -9 0
-12 6 -9 15 3 8 -1 22 -10 30 -9 9 -16 14 -16 10 0 -3 -10 3 -22 14 -15 15
-25 18 -34 10 -19 -15 -23 23 -4 39 9 8 9 11 1 6 -10 -5 -11 0 -5 27 5 19 8
46 8 62 -1 15 3 27 9 27 6 0 6 4 -1 13 -5 6 -6 21 -2 32 4 11 5 26 3 33 -3 6
-1 12 4 12 5 0 8 13 5 28 -4 31 21 62 33 42 4 -7 15 3 26 24 23 43 24 60 4 53
-8 -4 -17 -2 -20 3 -3 5 4 11 15 15 15 5 19 12 15 26 -8 23 100 249 118 249 7
0 14 11 15 25 1 13 20 59 42 100 51 96 54 102 74 148 8 20 21 37 26 37 6 0 9
3 6 8 -2 4 2 18 10 32 l15 25 -6 -25 c-6 -24 -5 -24 19 5 26 30 34 65 16 65
-12 0 55 129 78 150 10 8 19 24 20 35 5 29 46 115 54 115 5 0 8 7 8 15 0 8 9
24 20 35 11 11 18 20 15 20 -7 0 79 164 88 168 4 2 7 12 7 22 0 10 3 20 8 22
4 2 22 33 40 71 18 37 37 67 42 67 5 0 11 13 15 30 4 16 11 32 16 36 5 3 16
20 25 37 44 94 92 169 103 162 5 -3 7 3 5 12 -2 10 14 43 35 73 22 30 56 85
76 122 21 37 48 79 60 92 13 14 32 40 42 58 36 66 157 230 179 244 32 22 68
15 72 -14 4 -25 -35 -170 -69 -262 -11 -30 -29 -77 -39 -105 -10 -27 -21 -59
-26 -70 -4 -11 -13 -38 -20 -60 -24 -78 -66 -190 -75 -199 -5 -6 -9 -17 -9
-26 0 -9 -6 -22 -12 -28 -7 -7 -13 -16 -14 -20 0 -4 -8 -24 -17 -44 -10 -21
-17 -42 -17 -48 0 -5 -16 -41 -35 -79 -19 -37 -35 -73 -35 -79 0 -6 -20 -53
-45 -105 -25 -53 -45 -99 -45 -102 0 -4 15 -4 33 -1 17 4 48 9 67 11 36 4 86
10 180 21 30 3 58 8 61 10 15 9 230 34 240 29 5 -4 15 -3 22 3 12 9 183 32
397 52 63 6 125 13 138 16 12 2 22 0 22 -4 0 -5 24 -3 53 5 28 8 65 12 80 10
15 -2 30 0 33 5 8 13 42 10 47 -4 4 -10 7 -10 14 -1 13 18 301 47 319 32 11
-9 18 -8 32 4 12 10 48 17 117 21 55 3 138 11 185 16 47 5 133 13 192 16 101
7 106 8 111 30 2 13 -2 32 -9 43 -8 11 -11 27 -7 37 5 12 3 15 -6 9 -10 -5
-11 -2 -6 14 5 18 2 24 -14 28 -12 3 -20 11 -19 17 4 18 -35 125 -44 120 -4
-3 -8 5 -7 18 1 35 -5 55 -24 76 -9 10 -17 28 -17 40 0 11 -6 27 -13 34 -23
23 -47 78 -34 78 7 1 2 9 -11 19 -15 13 -20 25 -15 37 4 11 3 15 -4 11 -12 -8
-29 37 -32 86 0 10 -5 15 -11 12 -5 -3 -10 -5 -10 -3 0 2 -13 36 -30 76 -16
40 -27 78 -24 86 3 7 -1 16 -9 19 -8 3 -22 30 -31 59 -10 29 -21 61 -27 71 -5
10 -7 23 -3 29 4 6 -1 17 -10 24 -19 14 -78 162 -70 176 3 4 1 8 -4 8 -12 0
-22 25 -28 70 -2 19 -8 37 -12 40 -14 10 -29 46 -42 100 -7 30 -18 65 -26 77
-8 12 -14 36 -14 52 0 23 -7 34 -26 44 -17 9 -23 17 -15 21 15 10 13 47 -4 70
-8 11 -15 27 -15 37 0 9 -6 22 -14 28 -8 7 -40 92 -72 189 -107 334 -114 357
-131 412 -8 30 -19 66 -24 80 -4 14 -13 44 -19 66 l-10 41 -70 -5 c-44 -3 -70
-1 -70 6 0 13 65 25 90 17 11 -3 30 0 42 7 13 7 37 13 53 13 40 1 85 15 85 26
0 5 5 9 10 9 6 0 10 -3 10 -7z m-1107 -248 c24 -18 18 -49 -11 -53 -19 -3 -22
1 -22 32 0 39 5 43 33 21z m-86 -267 c-3 -8 -6 -5 -6 6 -1 11 2 17 5 13 3 -3
4 -12 1 -19z m56 -100 c14 -27 22 -48 18 -48 -7 0 -51 84 -51 97 0 9 3 4 33
-49z m77 -147 c0 -22 -6 -44 -15 -51 -8 -7 -15 -21 -15 -32 0 -32 -29 -78 -45
-72 -20 8 -19 32 3 69 10 17 26 51 36 78 21 57 36 61 36 8z m584 -16 c-4 -8
-7 -15 -9 -15 -2 0 -5 7 -9 15 -3 9 0 15 9 15 9 0 12 -6 9 -15z m366 -47 c0
-13 -9 -38 -20 -56 -11 -18 -20 -39 -20 -48 0 -24 -35 -12 -38 14 -2 12 1 22
6 22 5 0 13 17 17 37 9 48 12 53 36 53 13 0 19 -7 19 -22z m-147 -35 c-6 -40
-46 -113 -63 -113 -22 0 -18 23 12 84 37 75 60 87 51 29z m-748 -23 c3 -5 1
-10 -4 -10 -6 0 -11 5 -11 10 0 6 2 10 4 10 3 0 8 -4 11 -10z m545 -30 c0 -17
-7 -45 -16 -61 -8 -17 -13 -37 -10 -45 3 -7 -4 -18 -15 -24 -11 -6 -17 -16
-13 -21 3 -6 2 -21 -4 -32 -51 -110 -59 -122 -83 -125 -37 -4 -54 20 -36 50 8
13 29 57 47 99 17 42 40 85 50 94 11 10 20 24 20 32 0 21 31 63 46 63 9 0 14
-11 14 -30z m-293 -76 c6 -14 10 -31 7 -38 -4 -10 10 -13 56 -12 33 1 60 0 60
-1 0 -1 -3 -8 -6 -17 -7 -19 -84 -22 -102 -4 -8 8 -13 5 -21 -13 -24 -63 -144
-305 -170 -342 -49 -71 -157 -177 -180 -177 -11 0 -21 5 -21 12 0 17 208 455
238 501 14 20 28 37 33 37 4 0 25 18 45 40 21 22 40 40 43 40 3 0 11 -12 18
-26z m317 -23 c3 -4 70 -6 148 -4 78 2 139 1 135 -3 -4 -4 -37 -8 -75 -10 -37
-1 -71 -3 -77 -4 -5 -1 -43 -2 -82 -1 -58 1 -73 4 -73 16 0 16 16 20 24 6z
m4245 -41 c59 0 72 -22 74 -122 1 -72 -2 -88 -23 -123 -26 -43 -50 -66 -62
-59 -4 2 -9 0 -13 -6 -3 -5 -14 -10 -24 -10 -11 0 -21 -9 -24 -22 -5 -18 -8
-19 -21 -8 -11 8 -16 9 -16 1 0 -21 -20 -11 -26 14 -3 14 -10 25 -15 25 -5 0
-8 3 -8 8 4 21 -3 32 -21 32 -10 0 -24 8 -29 18 -9 15 -12 15 -21 2 -6 -9 -10
-10 -10 -3 0 6 5 15 10 18 8 5 7 12 -2 22 -16 20 -22 63 -7 63 6 0 8 7 5 16
-4 9 -2 13 5 8 7 -4 9 0 6 12 -17 60 -18 84 -4 84 8 0 27 10 42 22 21 17 39
21 75 19 31 -1 51 2 56 11 7 10 9 9 12 -4 3 -13 13 -18 41 -18z m-4479 -90 c0
-16 -4 -30 -9 -30 -13 0 -21 27 -15 45 10 25 24 17 24 -15z m4230 -11 c-7 -11
-14 -18 -17 -15 -3 3 0 12 7 21 18 21 23 19 10 -6z m3445 -79 c3 -5 17 -10 31
-10 15 0 24 -6 24 -15 0 -8 7 -15 15 -15 8 0 15 5 15 11 0 16 110 4 121 -13
13 -20 11 -54 -5 -67 -10 -9 -13 -27 -9 -70 5 -50 2 -63 -21 -99 -14 -23 -31
-42 -37 -42 -12 0 -139 -129 -139 -142 0 -4 -5 -8 -11 -8 -12 0 -69 -57 -69
-69 0 -4 -34 -39 -75 -77 -41 -38 -75 -74 -75 -80 0 -6 -24 -30 -52 -53 -64
-52 -229 -203 -314 -288 -35 -35 -67 -63 -73 -63 -5 0 -12 -8 -16 -19 -3 -10
-27 -39 -53 -64 -113 -111 -209 -244 -297 -414 l-46 -88 -10 -150 c-5 -82 -14
-177 -19 -209 -5 -32 -7 -62 -4 -67 2 -4 -2 -25 -10 -46 -8 -21 -17 -56 -21
-78 -4 -22 -15 -65 -25 -95 -10 -30 -22 -75 -25 -99 -5 -26 -17 -54 -31 -68
-13 -13 -24 -29 -24 -36 -1 -43 -82 -84 -138 -68 -24 7 -32 6 -32 -3 0 -14
-41 -66 -53 -66 -4 0 -7 8 -7 18 0 10 -4 22 -9 28 -5 5 -11 20 -13 34 -4 29
-48 56 -60 37 -5 -7 -8 -1 -8 15 0 23 -5 28 -35 34 -46 8 -57 24 -59 89 -2 34
-9 62 -19 73 -13 14 -14 21 -5 30 8 8 8 15 -2 27 -9 11 -10 18 -1 29 12 14 5
66 -8 66 -10 0 -1 69 10 76 15 9 10 21 -11 27 -35 9 -23 77 14 77 21 0 41 40
50 100 2 13 9 26 15 28 6 2 11 21 11 41 0 44 18 101 31 101 5 0 9 9 9 19 0 11
5 23 10 26 6 4 8 10 5 14 -5 10 23 101 36 116 13 13 11 37 -2 29 -8 -4 -8 -1
-2 12 14 28 36 181 29 200 -3 9 -2 22 4 29 7 9 7 40 0 101 -14 115 -16 195 -7
215 5 10 2 22 -8 32 -8 9 -15 29 -14 44 1 15 -5 56 -14 91 -8 34 -13 62 -10
62 3 0 1 6 -5 13 -5 6 -13 34 -17 61 -4 27 -24 88 -45 135 -20 48 -35 92 -32
99 2 6 -1 12 -7 12 -17 0 -32 71 -19 88 14 16 96 12 107 -5 3 -6 18 -13 32
-16 15 -4 61 -42 104 -84 58 -59 85 -96 111 -151 19 -41 34 -77 34 -82 0 -4 6
-10 14 -13 14 -5 67 -159 82 -236 4 -17 10 -34 14 -36 9 -5 110 84 173 152 22
23 42 42 46 41 3 -1 33 25 67 58 125 123 305 289 317 293 6 2 18 13 26 23 7
11 19 17 25 15 7 -3 19 3 27 14 7 10 19 19 26 19 7 0 13 5 13 10 0 6 12 16 27
23 38 17 73 51 73 71 0 9 7 16 15 16 8 0 15 4 15 10 0 5 6 7 14 4 7 -3 23 6
34 20 11 15 30 26 43 26 19 0 21 2 9 10 -29 18 153 167 207 170 6 0 15 -4 18
-10z m-3305 -392 c8 0 20 -5 26 -10 12 -8 24 -92 30 -198 2 -30 8 -111 14
-180 5 -69 12 -169 15 -223 3 -55 7 -102 9 -105 2 -4 7 -72 10 -152 3 -80 9
-192 12 -250 3 -58 7 -159 9 -225 2 -66 6 -167 9 -225 6 -147 9 -303 6 -315
-2 -5 0 -26 3 -45 4 -19 9 -143 12 -275 3 -132 6 -280 8 -330 2 -53 -2 -105
-9 -127 -13 -37 -13 -55 -3 -73 15 -25 -8 -186 -23 -163 -5 8 -6 3 -2 -14 3
-15 1 -35 -5 -45 -6 -10 -11 -12 -11 -5 0 17 -20 15 -20 -3 0 -22 -44 -82 -58
-77 -7 2 -12 -3 -12 -11 0 -13 -21 -23 -67 -33 -7 -1 -15 6 -18 17 -7 23 -25
25 -25 4 0 -8 -9 -15 -20 -15 -14 0 -22 -11 -31 -40 -16 -52 -44 -55 -53 -5
-5 26 -12 35 -26 35 -12 0 -20 7 -20 16 0 10 -6 14 -15 10 -11 -4 -15 1 -15
17 -1 27 -24 60 -35 49 -5 -4 -5 1 -2 10 4 12 0 21 -13 28 -16 9 -22 6 -34
-17 l-15 -28 -1 43 c0 26 -4 41 -10 37 -6 -3 -8 -17 -6 -31 3 -13 1 -24 -4
-24 -11 0 -24 39 -16 47 3 4 -1 15 -11 25 -14 15 -14 24 -5 54 11 36 7 64 -9
64 -5 0 -9 8 -9 19 0 11 -9 21 -21 24 -17 5 -20 11 -15 31 3 13 2 26 -3 28 -4
2 -10 24 -13 50 -4 34 -2 48 9 52 9 4 12 15 8 33 -3 16 -2 22 1 16 9 -20 24
-15 24 8 0 13 -4 18 -11 13 -8 -5 -10 1 -5 19 3 14 1 29 -4 32 -6 4 -7 12 -3
18 5 7 17 36 27 65 15 43 16 55 5 68 -10 12 -10 15 1 12 8 -2 16 5 18 15 2 11
-2 16 -10 15 -15 -3 -14 58 2 77 6 7 9 38 8 71 -2 73 10 156 24 165 7 4 6 9
-1 14 -7 4 -9 16 -5 28 4 12 8 38 10 57 2 19 6 54 10 76 5 36 9 41 28 36 20
-5 20 -4 4 14 -9 10 -17 24 -17 29 -1 6 -4 18 -7 28 -3 10 -1 24 5 30 5 7 8
22 7 32 -2 11 -1 25 3 30 3 6 6 19 7 30 4 58 15 134 24 160 5 17 11 43 12 58
2 20 9 29 26 34 16 4 21 10 17 22 -9 22 -15 50 -19 89 -4 28 -2 32 15 27 10
-4 19 -2 19 3 0 5 -9 12 -20 15 -14 3 -18 10 -14 22 4 10 13 14 23 10 13 -5
14 -4 4 6 -16 16 -16 39 -1 76 6 15 10 36 9 47 -2 10 2 22 8 26 8 4 8 15 0 37
-8 24 -7 37 2 55 7 13 14 41 16 63 5 77 14 145 22 149 4 3 8 22 9 42 2 21 6
43 11 49 4 5 6 21 5 35 -1 14 1 29 4 35 6 10 12 39 13 65 1 34 23 106 35 113
9 5 11 18 7 37 -3 20 -1 30 6 30 7 0 9 5 5 12 -19 31 12 195 44 231 11 12 23
16 37 12 11 -4 27 -7 35 -7z m1748 -1204 c-5 -28 -28 -29 -28 -1 0 13 3 27 7
31 10 10 25 -10 21 -30z m-61 -130 c-3 -3 -12 -4 -19 -1 -8 3 -5 6 6 6 11 1
17 -2 13 -5z m-7935 -1194 c-15 -35 -32 -40 -18 -5 3 9 5 18 5 21 -1 6 21 23
28 24 1 0 -6 -18 -15 -40z"/>
<path d="M3686 7613 c-6 -14 -5 -15 5 -6 7 7 10 15 7 18 -3 3 -9 -2 -12 -12z"/>
<path d="M11310 8029 c0 -5 5 -7 10 -4 6 3 10 8 10 11 0 2 -4 4 -10 4 -5 0
-10 -5 -10 -11z"/>
<path d="M9461 8788 c-1 -16 4 -28 9 -28 12 0 12 8 0 35 -8 18 -9 17 -9 -7z"/>
<path d="M9329 7728 c0 -7 -2 -23 -5 -36 -2 -13 0 -21 5 -18 12 8 20 55 10 62
-5 3 -9 -1 -10 -8z"/>
</g>
</svg>
