<?xml version="1.0" standalone="no"?>
<!DOCTYPE svg PUBLIC "-//W3C//DTD SVG 20010904//EN"
 "http://www.w3.org/TR/2001/REC-SVG-20010904/DTD/svg10.dtd">
<svg version="1.0" xmlns="http://www.w3.org/2000/svg"
 width="992.000000pt" height="992.000000pt" viewBox="0 0 992.000000 992.000000"
 preserveAspectRatio="xMidYMid meet">
<metadata>
Created by potrace 1.11, written by Peter Selinger 2001-2013
</metadata>
<g transform="translate(0.000000,992.000000) scale(0.100000,-0.100000)"
fill="#000000" stroke="none">
<path d="M1995 9837 c-13 -41 -54 -261 -49 -268 3 -5 1 -9 -4 -9 -5 0 -12 -17
-15 -37 -3 -21 -9 -51 -12 -68 -15 -80 -25 -132 -29 -155 -2 -14 -7 -32 -10
-40 -3 -8 -7 -28 -10 -45 -3 -16 -8 -43 -11 -60 -4 -16 -8 -39 -10 -50 -4 -23
-16 -83 -20 -105 -2 -8 -4 -15 -5 -15 -1 0 -3 -11 -5 -25 -3 -25 -9 -52 -20
-100 -3 -14 -8 -41 -11 -60 -3 -19 -10 -55 -16 -80 -5 -25 -11 -54 -13 -65 -4
-22 -4 -19 -39 -190 -14 -67 -27 -132 -30 -145 -16 -82 -27 -139 -32 -165 -7
-37 -12 -58 -14 -65 -1 -3 -2 -8 -2 -11 0 -3 -4 -23 -9 -45 -5 -21 -12 -52
-14 -69 -3 -16 -7 -41 -10 -55 -4 -14 -8 -36 -11 -50 -3 -14 -7 -32 -9 -40 -3
-8 -7 -33 -11 -55 -3 -22 -7 -44 -9 -50 -1 -5 -5 -28 -10 -50 -13 -65 -15 -78
-25 -125 -5 -25 -12 -56 -15 -70 -3 -14 -8 -36 -10 -50 -2 -14 -9 -47 -15 -75
-5 -27 -13 -61 -15 -75 -3 -14 -8 -36 -11 -50 -8 -32 -15 -69 -19 -95 -6 -42
-37 -191 -42 -205 -3 -8 -7 -24 -8 -35 -1 -11 -5 -33 -8 -50 -4 -16 -9 -41
-12 -55 -2 -14 -7 -36 -10 -50 -6 -26 -7 -35 -21 -110 -9 -50 -10 -58 -14 -65
-1 -3 -4 -9 -5 -15 -1 -5 -3 -11 -5 -12 -1 -2 -3 -16 -4 -33 -2 -32 -24 -140
-33 -165 -3 -8 -7 -28 -9 -45 -6 -44 -9 -63 -48 -250 -20 -93 -38 -181 -41
-195 -3 -14 -7 -36 -10 -50 -4 -14 -8 -34 -9 -45 -4 -21 -17 -90 -22 -115 -2
-8 -13 -62 -24 -120 -12 -58 -24 -114 -26 -125 -3 -11 -6 -29 -8 -40 -3 -18
-15 -78 -32 -155 -3 -14 -7 -34 -8 -45 -2 -11 -11 -54 -19 -95 -9 -41 -18 -86
-21 -100 -2 -14 -14 -72 -26 -130 -12 -58 -24 -116 -26 -130 -3 -14 -7 -34 -9
-45 -2 -11 -6 -27 -9 -35 -3 -8 -7 -31 -10 -50 -6 -36 -8 -48 -27 -140 -6 -30
-12 -59 -13 -65 -16 -91 -72 -361 -76 -365 -3 -3 -5 -16 -5 -30 0 -14 -4 -31
-9 -38 -4 -6 -6 -12 -3 -12 3 0 0 -19 -5 -42 -5 -24 -12 -52 -14 -63 -15 -76
-26 -134 -30 -159 -2 -16 -8 -45 -13 -65 -6 -20 -13 -49 -16 -66 -6 -30 -28
-145 -39 -200 -4 -16 -9 -41 -13 -55 -3 -14 -7 -34 -8 -45 -2 -11 -6 -33 -9
-50 -4 -16 -9 -43 -12 -59 -3 -16 -12 -59 -20 -95 -8 -36 -17 -82 -20 -101 -2
-19 -9 -51 -14 -70 -5 -19 -11 -51 -14 -70 -3 -19 -12 -64 -20 -100 -8 -36
-17 -78 -20 -95 -3 -16 -10 -52 -16 -80 -6 -27 -13 -61 -15 -75 -2 -14 -11
-59 -20 -100 -9 -41 -19 -88 -21 -105 -7 -42 -12 -70 -14 -70 -2 0 -6 -18 -13
-60 -3 -16 -10 -52 -16 -78 -6 -27 -9 -53 -6 -58 4 -5 1 -9 -6 -9 -7 0 -10 -2
-7 -5 3 -3 -1 -34 -9 -68 -7 -34 -15 -71 -17 -82 -5 -26 -18 -95 -22 -118 -8
-36 -14 -63 -21 -92 -3 -16 -7 -37 -9 -45 -7 -52 -17 -100 -26 -135 -7 -22
-11 -43 -10 -46 1 -4 -17 -92 -39 -195 -22 -104 -41 -198 -43 -209 -8 -44 -20
-109 -31 -158 -3 -12 -8 -38 -11 -57 -4 -19 -9 -44 -11 -55 -5 -23 -10 -48
-18 -87 -3 -16 -7 -39 -10 -53 -3 -14 -7 -36 -10 -50 -5 -26 -11 -53 -20 -95
-6 -27 -9 -42 -20 -105 -3 -22 -10 -53 -15 -70 -8 -27 -22 -104 -22 -122 0 -5
-4 -16 -9 -26 -9 -16 -2 -17 78 -17 1108 -3 9797 1 9800 4 4 4 -2 41 -23 136
-3 14 -7 39 -9 55 -3 17 -10 50 -16 75 -6 25 -13 56 -15 70 -5 33 -12 70 -19
100 -3 14 -7 36 -10 50 -3 14 -7 36 -10 50 -3 14 -8 39 -10 56 -3 17 -9 43
-14 57 -5 14 -7 27 -4 30 3 3 1 12 -3 19 -5 7 -9 20 -9 28 -1 8 -4 29 -8 45
-4 17 -9 44 -12 60 -5 34 -9 51 -24 115 -5 25 -13 61 -16 80 -13 67 -14 75
-24 120 -6 25 -13 63 -17 85 -3 22 -9 54 -14 70 -5 17 -11 46 -13 65 -3 19 -7
42 -10 50 -3 8 -9 31 -12 50 -3 19 -14 78 -25 130 -11 52 -22 111 -25 130 -3
19 -10 51 -15 70 -5 19 -10 50 -12 68 -1 17 -5 32 -8 32 -3 0 -7 11 -8 25 -2
27 -69 365 -77 387 -2 7 -6 27 -9 43 -2 17 -16 89 -31 160 -33 162 -34 170
-39 199 -2 14 -7 37 -10 53 -13 60 -17 79 -22 103 -8 44 -10 54 -23 112 -7 32
-14 70 -16 85 -2 16 -4 28 -5 28 -2 0 -8 26 -15 70 -3 22 -10 56 -15 75 -5 19
-12 50 -15 68 -3 18 -12 65 -21 105 -8 39 -17 83 -19 97 -2 14 -11 59 -20 100
-9 41 -19 86 -21 100 -4 21 -15 76 -40 195 -2 11 -7 36 -10 55 -4 19 -9 44
-11 55 -3 11 -6 31 -8 45 -2 14 -4 27 -6 30 -1 3 -3 10 -4 15 -2 6 -4 12 -5
15 -1 3 -3 16 -6 30 -5 30 -32 165 -40 200 -3 14 -7 36 -9 50 -2 14 -6 36 -10
50 -3 14 -8 36 -11 50 -7 37 -23 121 -30 150 -4 23 -29 145 -40 195 -2 11 -8
43 -14 70 -11 54 -14 71 -24 125 -4 19 -11 53 -16 75 -5 22 -12 56 -15 75 -3
19 -11 55 -17 80 -5 25 -12 56 -13 70 -2 14 -6 36 -10 50 -3 14 -8 34 -10 45
-9 47 -16 82 -21 105 -3 14 -8 43 -11 65 -2 21 -7 44 -11 50 -4 5 -7 17 -9 25
-2 14 -14 91 -19 115 -2 9 -3 14 -9 40 -1 6 -3 12 -4 15 -2 3 -5 19 -7 35 -3
17 -21 109 -41 205 -20 96 -37 184 -38 196 -1 11 -5 26 -9 33 -4 7 -6 15 -3
18 3 3 2 16 -4 30 -5 13 -11 39 -13 56 -2 18 -9 50 -15 72 -9 37 -20 97 -24
138 -1 9 -4 17 -7 17 -3 0 -6 8 -6 18 -1 9 -4 33 -8 52 -4 19 -8 47 -10 61 -2
14 -9 36 -16 48 -6 13 -7 21 -2 17 6 -3 5 12 -3 37 -7 23 -15 61 -19 85 -3 24
-8 47 -10 51 -3 4 -8 30 -12 57 -3 27 -9 54 -13 59 -3 6 -7 21 -7 35 -1 14
-14 81 -28 150 -15 69 -29 135 -32 148 -2 12 -6 32 -8 45 -3 12 -14 69 -26
127 -12 58 -23 116 -25 130 -2 14 -4 26 -6 28 -1 1 -3 11 -4 22 -1 11 -3 21
-4 23 -2 1 -4 11 -6 22 -3 11 -21 101 -40 200 -20 99 -39 194 -42 210 -3 17
-6 35 -8 40 -1 6 -6 29 -10 53 -4 23 -12 45 -16 48 -5 3 -7 9 -4 14 3 5 -6 62
-19 127 -25 116 -32 153 -42 203 -2 14 -7 36 -10 50 -3 14 -8 36 -10 50 -7 39
-12 61 -24 115 -6 28 -13 64 -15 80 -6 36 -13 70 -15 70 -1 0 -3 11 -6 25 -5
28 -11 64 -20 113 -3 17 -11 38 -16 45 -7 8 -7 12 1 12 8 0 9 6 3 18 -5 9 -12
35 -16 57 -12 67 -14 78 -30 150 -8 39 -17 81 -20 95 -3 14 -7 34 -9 45 -3 11
-8 39 -12 62 -3 23 -13 44 -21 47 -8 3 -14 2 -14 -2 0 -4 -17 -6 -37 -5 -21 1
-49 2 -63 2 -14 0 -41 1 -60 2 -19 1 -47 1 -62 0 -16 0 -50 -1 -78 -1 -27 0
-57 0 -65 0 -8 0 -22 0 -30 0 -8 0 -37 0 -65 0 -27 -1 -60 -1 -72 -1 -13 -1
-34 -1 -48 0 -14 0 -41 1 -60 2 -19 1 -47 1 -62 0 -16 0 -50 -1 -78 -1 -27 0
-57 0 -65 0 -8 0 -22 0 -30 0 -8 0 -37 0 -65 0 -27 -1 -60 -1 -72 -1 -13 -1
-34 -1 -48 0 -14 0 -41 1 -60 2 -19 1 -47 1 -62 0 -16 0 -50 -1 -78 -1 -27 0
-57 0 -65 0 -8 0 -22 0 -30 0 -8 0 -37 0 -65 0 -27 -1 -60 -1 -72 -1 -13 -1
-34 -1 -48 0 -14 0 -41 1 -60 2 -19 1 -47 1 -62 0 -16 0 -50 -1 -78 -1 -27 0
-57 0 -65 0 -8 0 -22 0 -30 0 -8 0 -37 0 -65 0 -27 -1 -60 -1 -72 -1 -13 -1
-34 -1 -48 0 -14 0 -41 1 -60 2 -19 1 -47 1 -62 0 -16 0 -50 -1 -78 -1 -27 0
-57 0 -65 0 -8 0 -22 0 -30 0 -8 0 -37 0 -65 0 -27 -1 -60 -1 -72 -1 -13 -1
-34 -1 -48 0 -14 0 -41 1 -60 2 -19 1 -47 1 -62 0 -16 0 -50 -1 -78 -1 -27 0
-57 0 -65 0 -8 0 -22 0 -30 0 -8 0 -37 0 -65 0 -27 -1 -60 -1 -72 -1 -13 -1
-34 -1 -48 0 -14 0 -41 1 -60 2 -19 1 -47 1 -62 0 -16 0 -50 -1 -78 -1 -27 0
-57 0 -65 0 -8 0 -22 0 -30 0 -8 0 -37 0 -65 0 -27 -1 -60 -1 -72 -1 -13 -1
-34 -1 -48 0 -14 0 -41 1 -60 2 -19 1 -47 1 -62 0 -16 0 -50 -1 -78 -1 -27 0
-57 0 -65 0 -8 0 -22 0 -30 0 -8 0 -37 0 -65 0 -27 -1 -60 -1 -72 -1 -13 -1
-34 -1 -48 0 -14 0 -41 1 -60 2 -19 1 -47 1 -62 0 -16 0 -50 -1 -78 -1 -27 0
-57 0 -65 0 -8 0 -22 0 -30 0 -8 0 -37 0 -65 0 -27 -1 -60 -1 -72 -1 -13 -1
-34 -1 -48 0 -14 0 -41 1 -60 2 -19 1 -47 1 -62 0 -16 0 -50 -1 -78 -1 -27 0
-57 0 -65 0 -8 0 -22 0 -30 0 -8 0 -37 0 -65 0 -27 -1 -60 -1 -72 -1 -13 -1
-34 -1 -48 0 -14 0 -41 1 -60 2 -19 1 -47 1 -62 0 -16 0 -50 -1 -78 -1 -27 0
-57 0 -65 0 -8 0 -22 0 -30 0 -8 0 -37 0 -65 0 -27 -1 -60 -1 -72 -1 -13 -1
-34 -1 -48 0 -14 0 -41 1 -60 2 -19 1 -47 1 -62 0 -16 0 -50 -1 -78 -1 -27 0
-57 0 -65 0 -8 0 -22 0 -30 0 -8 0 -36 0 -62 0 -27 0 -59 -1 -73 -3 -14 -1
-40 0 -58 4 -22 5 -35 3 -37 -4z"/>
</g>
</svg>
