<?xml version="1.0" standalone="no"?>
<!DOCTYPE svg PUBLIC "-//W3C//DTD SVG 20010904//EN"
 "http://www.w3.org/TR/2001/REC-SVG-20010904/DTD/svg10.dtd">
<svg version="1.0" xmlns="http://www.w3.org/2000/svg"
 width="500.000000pt" height="500.000000pt" viewBox="0 0 500.000000 500.000000"
 preserveAspectRatio="xMidYMid meet">
<metadata>
Created by potrace 1.14, written by Peter Selinger 2001-2017
</metadata>
<g transform="translate(0.000000,500.000000) scale(0.100000,-0.100000)"
fill="#000000" stroke="none">
<path d="M4307 4748 c-28 -45 -54 -145 -56 -215 -1 -39 -13 -42 -31 -8 -7 14
-20 25 -27 25 -7 0 -16 7 -19 15 -4 8 -10 12 -15 9 -5 -3 -9 -1 -9 4 0 5 -14
15 -31 23 -18 7 -44 23 -59 36 -23 19 -29 20 -33 8 -12 -28 -20 -167 -11 -174
5 -3 21 -24 36 -46 14 -22 38 -52 52 -67 14 -15 26 -29 26 -31 0 -4 45 -57
112 -131 l46 -51 -156 -3 c-86 -1 -160 -6 -164 -10 -4 -4 -11 -40 -14 -79 l-6
-71 46 -27 c25 -15 46 -34 47 -43 1 -10 2 -188 3 -397 1 -419 5 -390 -64 -428
l-33 -18 6 -70 c3 -39 9 -74 12 -77 4 -4 25 -7 48 -8 30 -1 41 -5 39 -15 -1
-9 3 -7 12 4 9 12 16 14 21 8 3 -7 13 -8 23 -3 9 4 74 7 143 6 l127 -2 6 30
c3 17 6 41 6 53 0 13 6 26 13 28 9 4 9 6 -1 6 -7 1 -10 6 -7 12 9 14 -29 54
-65 69 l-28 12 0 403 -1 404 41 21 c47 24 72 47 60 54 -4 2 -9 21 -10 41 -2
28 0 35 10 29 10 -6 10 -4 0 9 -12 14 -11 16 8 12 13 -2 20 -2 17 2 -10 9 17
29 58 43 22 7 52 19 67 27 15 7 30 13 33 13 3 0 14 9 26 21 43 43 43 166 1
262 -29 65 -58 80 -96 48 -14 -12 -16 -9 -16 27 0 35 -7 48 -52 97 -29 31 -62
73 -74 93 -25 45 -48 51 -67 20z"/>
<path d="M486 4503 c-17 -19 -46 -44 -64 -55 -37 -23 -56 -58 -38 -71 6 -5 -2
-6 -19 -2 -16 4 -34 7 -40 8 -14 3 -15 -192 -1 -201 6 -3 16 -7 21 -8 6 -1 28
-7 50 -13 48 -13 124 -23 183 -25 l43 -1 -6 -51 c-3 -29 -8 -62 -10 -74 -3
-17 6 -28 45 -52 l50 -31 0 -404 c0 -375 -1 -404 -17 -410 -10 -3 -32 -16 -49
-29 -31 -23 -31 -23 -22 -86 4 -35 10 -68 12 -74 3 -7 71 -10 211 -10 114 1
209 -2 212 -7 2 -4 9 -4 15 0 7 3 37 7 67 9 31 1 56 3 56 4 0 1 16 3 35 6 42
5 143 41 183 65 33 19 150 129 139 129 -4 0 2 7 12 15 11 8 17 15 13 15 -3 0
5 25 19 55 13 31 24 64 24 75 0 10 4 21 9 25 6 3 9 13 9 23 0 9 2 49 6 87 11
100 12 135 6 135 -3 0 -5 15 -5 33 1 17 -6 68 -16 112 -9 44 -15 82 -13 84 1
2 -4 10 -12 18 -8 8 -12 19 -9 24 4 5 2 9 -3 9 -5 0 -17 18 -27 41 -44 97
-195 208 -330 243 -79 20 -130 24 -317 25 -98 1 -158 5 -158 11 0 6 9 10 20
10 11 0 20 4 20 9 0 5 16 15 36 21 19 7 38 18 40 24 3 7 10 13 17 13 15 0 196
104 255 146 23 17 42 35 43 41 0 6 2 25 3 43 2 20 -1 34 -10 37 -8 3 -14 1
-14 -5 0 -6 -3 -8 -7 -6 -5 3 -19 0 -33 -6 -14 -5 -31 -11 -38 -13 -8 -1 -21
-6 -30 -10 -9 -4 -21 -8 -27 -8 -10 -1 -76 -22 -105 -33 -8 -3 -20 -7 -27 -9
-6 -1 -22 -11 -34 -23 -16 -15 -27 -18 -39 -11 -18 10 -63 5 -89 -9 -17 -10
-29 0 -51 43 -22 44 -107 123 -137 129 -21 4 -33 -2 -57 -30z m543 -568 c10
-6 12 -4 6 5 -5 9 -2 10 11 6 11 -3 41 -8 67 -12 163 -19 252 -166 256 -424 4
-205 -40 -318 -144 -373 -34 -18 -57 -22 -154 -22 l-114 0 -1 68 c-1 37 3 67
7 67 4 0 3 9 -3 20 -8 14 -8 20 0 20 8 0 8 6 0 20 -8 14 -8 20 0 20 8 0 8 6 0
20 -6 11 -7 20 -2 20 8 0 8 58 -1 66 -3 3 -1 21 3 40 5 21 4 34 -2 34 -7 0 -7
4 0 13 6 7 7 19 3 26 -5 7 -5 28 -1 47 5 21 4 34 -2 34 -7 0 -6 5 1 13 6 8 8
17 5 20 -5 5 -9 220 -5 273 1 12 50 12 70 -1z"/>
<path d="M975 3929 c-4 -6 -5 -12 -2 -15 2 -3 7 2 10 11 7 17 1 20 -8 4z"/>
<path d="M970 3859 c0 -5 5 -7 10 -4 6 3 10 8 10 11 0 2 -4 4 -10 4 -5 0 -10
-5 -10 -11z"/>
<path d="M970 3820 c0 -5 5 -10 11 -10 5 0 7 5 4 10 -3 6 -8 10 -11 10 -2 0
-4 -4 -4 -10z"/>
<path d="M970 3779 c0 -5 5 -7 10 -4 6 3 10 8 10 11 0 2 -4 4 -10 4 -5 0 -10
-5 -10 -11z"/>
<path d="M970 3739 c0 -5 5 -7 10 -4 6 3 10 8 10 11 0 2 -4 4 -10 4 -5 0 -10
-5 -10 -11z"/>
<path d="M975 3220 c-3 -5 -1 -10 4 -10 6 0 11 5 11 10 0 6 -2 10 -4 10 -3 0
-8 -4 -11 -10z"/>
<path d="M2598 4518 c-15 -5 -30 -18 -33 -29 -6 -19 -31 -26 -37 -10 -1 5 -31
1 -66 -8 -60 -15 -65 -19 -91 -67 -26 -47 -27 -51 -12 -70 32 -38 149 -114
177 -114 8 0 31 -9 51 -20 21 -11 47 -20 58 -21 11 0 14 -3 8 -6 -18 -7 -16
-16 7 -30 17 -11 18 -10 13 5 -5 13 -1 12 18 -5 68 -63 106 -93 131 -104 15
-6 28 -20 30 -32 2 -13 22 -35 49 -53 l46 -31 1 -399 1 -399 -50 -28 -50 -27
7 -53 c4 -28 7 -62 7 -74 1 -27 -3 -26 105 -28 60 -1 86 -5 93 -16 7 -12 9
-12 9 1 0 13 22 15 137 15 l138 0 6 30 c4 17 7 24 8 16 0 -8 4 -12 7 -8 3 3 2
13 -4 23 -5 9 -6 32 -2 50 6 25 4 36 -9 46 -24 20 -99 53 -113 50 -5 -1 -8 3
-8 9 0 5 -4 7 -10 4 -11 -7 -11 -8 -14 58 -1 27 3 47 9 47 7 0 7 3 0 8 -16 11
-12 111 5 124 13 8 12 9 -2 5 -11 -4 -15 -1 -13 11 2 9 4 19 4 22 1 3 28 5 62
4 51 0 64 -5 83 -26 13 -13 68 -119 121 -234 54 -115 103 -216 109 -225 9 -13
35 -16 168 -15 111 0 154 3 148 11 -11 13 -9 56 2 49 4 -3 5 9 1 27 -5 24 -3
30 6 24 10 -6 11 -3 2 13 -12 23 -57 57 -93 71 -23 8 -65 75 -60 94 1 4 -2 7
-7 7 -9 0 -29 45 -20 45 2 0 -6 11 -19 25 -12 13 -20 31 -17 39 3 9 3 12 -1 8
-4 -4 -17 10 -29 30 -11 21 -42 52 -69 70 -42 27 -45 32 -27 38 11 3 26 3 32
-1 7 -4 9 -3 5 4 -4 6 7 17 26 27 18 8 54 35 80 59 26 24 50 41 54 38 4 -4 4
-2 0 5 -6 12 27 87 35 79 4 -5 6 15 9 109 5 159 -79 278 -225 320 -89 25 -106
27 -335 31 -124 3 -231 6 -239 7 -8 1 -15 15 -17 30 -1 16 -9 34 -16 40 -7 7
-11 11 -9 10 6 -4 36 40 35 52 -1 21 -27 61 -50 78 -28 21 -72 29 -80 15 -3
-4 -10 -6 -15 -3 -5 4 -9 1 -9 -4 0 -6 -4 -11 -10 -11 -10 0 -38 -21 -76 -58
-13 -13 -24 -22 -24 -20 0 2 9 32 20 66 25 80 25 104 0 122 -11 8 -20 20 -20
28 0 7 -4 10 -10 7 -5 -3 -23 1 -40 10 -16 8 -30 13 -30 10 0 -3 -8 -2 -17 3
-11 6 -29 6 -45 0z m641 -580 c8 -7 11 -8 8 -3 -3 6 3 11 13 11 10 0 16 -5 12
-11 -3 -6 0 -5 9 1 15 12 49 15 49 5 0 -3 24 -6 54 -7 98 -1 157 -62 158 -163
0 -111 -58 -152 -224 -159 -76 -3 -108 -1 -109 7 -1 6 -2 17 -3 24 -1 6 5 21
13 32 15 18 15 19 0 7 -15 -11 -16 -6 -15 50 0 35 6 66 11 70 6 5 6 8 -1 8
-13 0 -12 38 0 59 6 9 5 12 -2 7 -9 -6 -10 6 -3 67 1 11 15 9 30 -5z"/>
<path d="M3226 3758 c3 -5 10 -6 15 -3 13 9 11 12 -6 12 -8 0 -12 -4 -9 -9z"/>
<path d="M3219 3713 c-13 -16 -12 -17 4 -4 9 7 17 15 17 17 0 8 -8 3 -21 -13z"/>
<path d="M2257 4154 c-1 -1 -29 -3 -62 -5 -208 -8 -367 -133 -432 -339 -45
-140 -51 -379 -14 -542 17 -74 49 -152 81 -196 28 -39 26 -62 -7 -62 -7 0 -25
-25 -39 -55 -15 -30 -31 -55 -36 -55 -5 0 -6 -4 -3 -10 3 -5 2 -10 -3 -10 -10
0 -25 -37 -23 -53 1 -5 -14 -23 -34 -40 -28 -25 -36 -40 -37 -70 -1 -20 2 -40
5 -43 3 -4 28 6 54 21 49 29 55 33 110 85 41 39 61 39 33 0 -12 -16 -18 -30
-15 -30 4 0 0 -7 -9 -15 -8 -9 -13 -22 -10 -30 4 -8 2 -15 -3 -15 -5 0 -10 -6
-11 -12 0 -7 -3 -25 -5 -40 -3 -22 3 -33 36 -59 39 -32 44 -33 152 -37 107 -4
113 -3 128 18 8 12 13 30 9 39 -5 13 -3 14 9 4 22 -18 68 -23 108 -13 89 22
120 29 171 34 71 9 89 25 69 63 -22 42 -90 106 -137 128 -23 11 -42 24 -42 28
0 5 -4 6 -9 2 -5 -3 -12 -1 -16 5 -5 8 -40 21 -97 36 -24 6 -16 8 47 13 40 4
76 2 84 -4 11 -7 13 -7 7 3 -5 8 1 12 18 13 14 1 32 2 39 3 6 1 18 -2 25 -7 9
-7 11 -5 6 8 -5 12 -4 16 4 11 6 -3 13 -2 16 3 3 5 18 12 32 15 67 17 182 122
216 199 12 26 25 47 30 47 4 0 7 3 6 8 -1 4 8 50 21 102 19 81 25 126 30 243
1 11 6 16 14 12 6 -4 5 0 -4 7 -12 9 -14 20 -8 36 5 12 5 22 0 22 -10 0 -8 31
4 49 5 9 4 12 -2 8 -10 -6 -22 54 -26 135 -1 20 -5 34 -9 31 -5 -2 -8 1 -8 8
0 25 -61 136 -92 169 -46 47 -114 88 -175 106 -46 13 -190 34 -196 28z m55
-215 c43 -11 107 -70 131 -121 42 -88 59 -314 36 -463 -19 -120 -77 -207 -159
-242 -40 -17 -144 -8 -182 15 -44 28 -81 71 -74 88 3 8 0 13 -7 11 -7 -1 -11
4 -9 11 1 6 -2 12 -7 12 -5 0 -12 15 -16 33 -4 17 -9 37 -11 42 -22 73 -28
290 -10 380 8 40 14 69 16 75 1 3 2 8 1 13 0 4 4 7 10 7 5 0 8 4 4 9 -3 5 1
16 9 24 8 8 12 17 9 21 -4 3 0 6 7 6 7 0 11 3 7 6 -10 10 22 36 34 28 7 -4 9
-3 6 3 -9 14 19 37 34 27 7 -4 9 -3 5 4 -12 20 102 27 166 11z"/>
<path d="M2130 3899 c0 -5 5 -7 10 -4 6 3 10 8 10 11 0 2 -4 4 -10 4 -5 0 -10
-5 -10 -11z"/>
<path d="M2010 3441 c0 -6 4 -13 10 -16 6 -3 7 1 4 9 -7 18 -14 21 -14 7z"/>
<path d="M1655 3571 c-3 -5 -2 -12 3 -15 5 -3 9 1 9 9 0 17 -3 19 -12 6z"/>
<path d="M2770 3460 c0 -5 5 -10 11 -10 5 0 7 5 4 10 -3 6 -8 10 -11 10 -2 0
-4 -4 -4 -10z"/>
<path d="M1650 3420 c0 -5 5 -10 11 -10 5 0 7 5 4 10 -3 6 -8 10 -11 10 -2 0
-4 -4 -4 -10z"/>
<path d="M2766 3422 c-3 -5 1 -9 9 -9 8 0 12 4 9 9 -3 4 -7 8 -9 8 -2 0 -6 -4
-9 -8z"/>
<path d="M2770 3379 c0 -5 5 -7 10 -4 6 3 10 8 10 11 0 2 -4 4 -10 4 -5 0 -10
-5 -10 -11z"/>
<path d="M4314 3360 c0 -13 4 -16 10 -10 7 7 7 13 0 20 -6 6 -10 3 -10 -10z"/>
<path d="M2756 3322 c-3 -5 1 -9 9 -9 8 0 12 4 9 9 -3 4 -7 8 -9 8 -2 0 -6 -4
-9 -8z"/>
<path d="M2751 3287 c2 -1 13 -9 24 -17 19 -14 19 -14 6 3 -7 9 -18 17 -24 17
-6 0 -8 -1 -6 -3z"/>
<path d="M3230 3200 c0 -5 5 -10 11 -10 5 0 7 5 4 10 -3 6 -8 10 -11 10 -2 0
-4 -4 -4 -10z"/>
<path d="M1435 2960 c-3 -5 -1 -10 4 -10 6 0 11 5 11 10 0 6 -2 10 -4 10 -3 0
-8 -4 -11 -10z"/>
<path d="M1276 2907 c3 -10 9 -15 12 -12 3 3 0 11 -7 18 -10 9 -11 8 -5 -6z"/>
<path d="M1116 2887 c3 -10 9 -15 12 -12 3 3 0 11 -7 18 -10 9 -11 8 -5 -6z"/>
<path d="M2270 2881 c0 -6 4 -13 10 -16 6 -3 7 1 4 9 -7 18 -14 21 -14 7z"/>
<path d="M430 2528 c-13 -18 -62 -70 -107 -116 -46 -45 -83 -87 -83 -92 0 -6
-5 -10 -10 -10 -6 0 -8 -11 -6 -24 6 -31 -2 -38 -25 -26 -13 7 -28 5 -53 -7
-20 -9 -36 -20 -36 -24 0 -4 -10 -20 -23 -36 -13 -15 -29 -48 -37 -73 -7 -25
-17 -50 -22 -56 -4 -6 -6 -31 -4 -55 3 -24 5 -47 5 -52 2 -17 60 -28 136 -27
44 0 88 1 98 1 10 0 36 7 59 15 22 8 44 14 48 14 3 0 5 -22 2 -49 l-4 -48 50
-31 50 -31 1 -406 0 -405 -38 -19 c-64 -33 -65 -36 -47 -154 3 -23 23 -36 48
-32 16 4 23 -6 19 -28 -1 -5 3 -6 8 -2 6 3 8 11 5 19 -3 7 2 13 11 13 8 0 15
-4 15 -8 0 -5 12 -4 26 1 33 13 37 13 28 -2 -5 -7 -3 -8 6 -3 17 10 110 13
104 3 -3 -4 0 -8 5 -8 6 0 11 4 11 9 0 6 10 8 22 6 46 -9 53 1 56 74 2 66 1
70 -29 95 -17 14 -37 26 -45 26 -8 0 -14 10 -15 23 -1 12 -2 31 -3 42 0 11 3
28 7 39 5 10 5 16 0 13 -9 -6 -8 67 2 83 3 6 2 10 -3 10 -9 0 -8 93 2 109 4 6
3 11 -1 11 -5 0 -8 19 -8 43 0 24 5 42 12 42 6 0 15 4 20 8 4 5 4 8 -2 7 -26
-6 -31 3 -30 53 1 30 6 60 10 67 5 8 4 11 -1 7 -6 -3 -11 18 -12 51 -1 31 -4
74 -6 95 -7 51 10 47 20 -5 9 -50 9 -48 18 -70 5 -10 9 -29 10 -43 0 -14 4
-25 7 -25 3 0 24 -53 47 -117 24 -65 85 -235 136 -378 l93 -260 71 0 c40 0 68
-4 65 -9 -4 -5 0 -6 8 0 8 5 32 9 54 9 l39 0 46 135 c25 74 50 144 55 155 4
11 7 26 6 33 -1 6 3 12 9 12 5 0 9 3 9 8 -4 21 2 42 10 38 5 -4 7 4 3 16 -3
14 -1 19 6 14 8 -5 10 -2 6 9 -4 9 1 22 12 31 11 9 13 13 7 9 -8 -4 -13 0 -13
9 0 9 5 16 10 16 6 0 10 8 10 18 0 15 21 83 37 122 3 8 7 17 8 20 1 3 6 20 10
37 4 19 12 30 18 26 6 -4 8 0 4 9 -6 18 12 89 22 84 3 -2 7 8 7 22 2 40 23
112 34 112 7 0 7 -21 0 -40 -1 -3 -1 -15 0 -28 1 -13 -4 -29 -10 -37 -6 -7 -7
-16 -2 -19 4 -3 7 -24 6 -48 -1 -24 -3 -159 -3 -300 -1 -248 -2 -257 -21 -263
-35 -11 -81 -56 -76 -74 3 -9 8 -38 11 -65 3 -27 7 -52 10 -56 2 -4 38 -7 79
-6 46 1 72 -2 69 -8 -4 -5 -1 -6 7 -1 18 11 100 13 94 3 -3 -4 0 -8 5 -8 6 0
11 4 11 8 0 4 14 8 30 7 16 0 30 -3 30 -7 0 -4 12 -3 26 2 33 13 37 13 28 -3
-5 -8 -2 -8 9 2 10 8 17 28 17 47 0 18 4 35 8 38 5 3 8 15 6 28 -1 13 -3 30
-3 38 -1 17 -63 60 -88 61 -10 0 -13 3 -6 5 7 3 9 12 6 19 -2 8 -6 37 -7 65
-1 39 2 50 14 50 12 0 12 2 2 9 -10 6 -14 41 -15 135 -1 69 2 126 6 126 5 0 5
5 1 11 -9 15 -8 360 1 388 3 12 10 19 15 16 4 -3 13 2 20 10 6 7 19 11 28 8 9
-3 14 -2 9 2 -4 5 0 17 10 27 9 10 12 18 8 18 -4 0 0 9 9 19 13 14 14 21 5 27
-7 4 -10 3 -5 -4 3 -6 2 -13 -4 -17 -6 -3 -10 4 -10 18 0 14 -3 39 -6 56 l-6
31 -198 0 -198 0 -25 -72 c-14 -40 -66 -192 -117 -338 -114 -329 -151 -439
-156 -465 -2 -11 -7 -35 -10 -52 -3 -18 -10 -33 -16 -33 -5 0 -7 4 -4 9 4 5 1
11 -4 13 -6 2 -12 26 -13 55 -1 28 -5 49 -8 47 -4 -2 -10 3 -13 12 -4 10 -2
13 7 8 7 -5 6 -1 -2 10 -21 25 -52 117 -44 130 3 6 2 8 -2 3 -10 -9 -37 63
-30 81 3 7 0 10 -5 7 -9 -6 -19 21 -23 62 0 12 -4 20 -7 18 -4 -2 -21 37 -39
88 -47 134 -46 131 -31 122 9 -5 11 -4 6 4 -4 6 -12 9 -17 6 -8 -5 -11 8 -8
31 0 4 -3 10 -9 13 -13 9 -43 102 -35 114 3 6 1 7 -5 3 -7 -4 -12 -3 -12 3 0
6 -9 35 -21 66 l-20 55 -165 0 c-90 0 -164 2 -164 4 0 2 20 48 45 101 51 108
77 205 69 250 -3 17 -14 48 -24 70 -10 22 -20 47 -22 55 -2 8 -5 17 -8 20 -3
3 -10 14 -16 25 -18 32 -46 29 -74 -7z"/>
<path d="M3899 2458 c-19 -18 -44 -46 -56 -63 -21 -31 -71 -141 -76 -172 -2
-10 -12 -44 -21 -77 -19 -60 -24 -82 -25 -103 -1 -13 -72 10 -182 59 -30 13
-70 30 -89 37 -19 8 -49 20 -67 27 -43 19 -93 28 -93 18 0 -5 43 -32 95 -58
53 -27 98 -53 100 -57 3 -4 17 -10 32 -14 14 -3 38 -15 51 -26 25 -19 24 -19
-222 -19 -227 0 -246 -1 -247 -17 0 -10 -2 -27 -4 -37 -4 -22 -8 -75 -6 -93 1
-7 21 -24 46 -39 39 -22 45 -30 45 -60 1 -47 1 -498 0 -646 l0 -123 -40 -21
-39 -22 5 47 c6 60 14 102 20 113 3 4 7 23 8 42 3 26 -1 35 -14 39 -24 6 -99
-20 -136 -49 l-32 -23 13 52 c8 28 16 70 20 92 8 53 7 293 -1 307 -5 7 0 9 14
6 12 -4 20 -2 16 3 -3 5 -11 9 -18 9 -8 0 -16 9 -19 20 -3 11 -1 17 4 14 5 -3
5 5 -1 18 -14 33 -34 111 -33 126 0 6 -3 12 -8 12 -5 0 -9 5 -9 10 0 19 -76
115 -113 143 -125 95 -371 120 -545 55 -134 -49 -221 -144 -270 -293 -18 -53
-25 -86 -38 -175 -6 -41 -5 -232 2 -280 21 -160 71 -279 147 -352 27 -27 53
-48 59 -48 5 0 6 -5 2 -12 -4 -6 -3 -8 4 -5 5 4 32 -3 59 -14 47 -21 72 -29
103 -30 26 -1 90 -31 84 -40 -3 -5 2 -9 10 -9 9 0 16 -4 16 -10 0 -5 5 -10 11
-10 6 0 22 -9 36 -20 15 -11 35 -18 48 -16 18 3 22 1 18 -15 -7 -25 20 -65 55
-83 15 -8 54 -21 86 -30 52 -13 64 -13 93 -1 19 8 32 19 28 25 -3 5 -2 10 2
10 9 0 8 76 -1 125 -5 27 -1 24 50 -33 39 -43 63 -62 79 -62 27 0 95 62 95 85
0 8 4 15 9 15 11 0 31 54 32 89 2 23 2 23 6 4 3 -14 9 -20 19 -16 8 3 20 0 28
-6 7 -6 16 -7 20 -3 12 11 65 8 59 -3 -3 -5 0 -5 7 2 11 10 16 9 27 -5 11 -14
12 -14 8 -1 -4 10 0 16 10 16 8 0 15 -4 15 -8 0 -5 12 -4 26 1 33 13 37 13 28
-2 -5 -7 -3 -8 6 -3 17 10 110 13 104 3 -3 -4 0 -8 5 -8 6 0 11 4 11 8 0 4 25
7 55 7 53 -1 60 3 56 33 -1 6 2 12 8 12 5 0 7 9 4 20 -3 11 0 26 6 34 9 10 9
16 1 21 -6 4 -9 14 -6 22 4 10 -10 21 -47 37 -72 33 -91 39 -99 38 -5 -1 -8 6
-9 16 -2 25 1 153 4 182 1 14 -2 28 -8 32 -6 5 -5 8 3 8 10 0 10 5 2 20 -6 11
-7 20 -3 21 4 0 18 2 31 5 16 3 21 0 16 -8 -5 -7 -3 -8 7 -3 20 13 49 13 49 1
0 -6 4 -5 9 2 17 28 64 -45 156 -243 132 -282 106 -251 208 -250 56 0 83 -3
79 -10 -3 -6 0 -6 9 1 8 6 38 10 67 9 29 0 55 1 57 4 1 4 6 36 9 72 l7 66 -38
25 c-21 14 -47 28 -59 32 -17 5 -66 87 -73 121 -2 6 -9 18 -18 27 -8 9 -12 22
-7 30 4 7 4 10 -1 6 -4 -4 -19 14 -33 40 -21 40 -73 100 -87 101 -3 1 -9 1
-15 1 -5 0 -10 7 -10 16 0 8 3 13 8 10 4 -2 36 15 71 39 36 24 68 42 72 39 4
-2 11 1 15 7 4 8 3 9 -4 5 -16 -10 -15 2 2 19 7 8 17 11 21 7 5 -4 5 -2 2 4
-3 6 1 20 11 30 9 11 18 26 20 34 2 8 7 16 12 18 5 2 6 10 3 18 -3 8 -1 20 4
27 6 6 9 33 7 60 -1 28 1 45 7 41 5 -3 7 -9 4 -14 -3 -5 -1 -11 4 -14 12 -8 8
18 -6 35 -6 8 -14 34 -18 59 -8 54 -44 119 -87 159 l-31 29 30 6 c17 4 36 17
43 31 7 14 17 25 22 25 5 0 6 5 3 11 -4 5 -2 23 5 39 16 37 19 121 6 143 -6 9
-22 17 -35 17 -20 0 -21 2 -11 15 15 18 7 93 -18 167 -4 13 -7 35 -6 51 2 46
-19 51 -57 15z m-1332 -658 c109 -48 158 -175 156 -405 -1 -135 -6 -175 -22
-185 -9 -5 -11 -10 -4 -10 25 0 -20 -115 -66 -163 -67 -73 -191 -84 -276 -26
-32 22 -72 76 -67 92 1 4 -2 7 -7 7 -8 0 -26 55 -36 108 -2 12 -7 27 -10 32
-3 6 0 10 7 10 10 0 10 2 1 8 -14 9 -22 189 -10 209 4 6 2 15 -4 19 -9 5 -7
11 6 21 11 7 13 13 7 13 -17 0 -15 32 5 59 9 14 11 21 4 16 -10 -5 -12 -2 -8
11 4 11 9 31 13 47 3 15 13 27 23 28 9 0 11 3 4 5 -9 4 -7 13 6 34 23 38 68
73 82 64 7 -4 9 -3 5 4 -16 26 131 29 191 2z m926 -2 c6 -10 8 -9 4 3 -5 14 4
16 70 13 42 -2 79 -7 82 -12 3 -4 17 -9 30 -9 36 -3 88 -65 95 -116 12 -85
-17 -144 -84 -174 -44 -20 -250 -28 -251 -10 -1 22 -1 112 1 117 4 14 4 100 0
100 -4 0 -5 70 -1 102 1 11 44 0 54 -14z m-401 -932 l4 -35 -21 22 c-18 19
-18 23 -5 34 8 7 16 13 16 13 1 0 4 -15 6 -34z"/>
<path d="M2415 1780 c-3 -5 -1 -10 4 -10 6 0 11 5 11 10 0 6 -2 10 -4 10 -3 0
-8 -4 -11 -10z"/>
<path d="M3450 1739 c0 -5 5 -7 10 -4 6 3 10 8 10 11 0 2 -4 4 -10 4 -5 0 -10
-5 -10 -11z"/>
<path d="M3295 2419 c-11 -16 -1 -19 13 -3 7 8 8 14 3 14 -5 0 -13 -5 -16 -11z"/>
<path d="M4195 1978 c-3 -18 -6 -53 -8 -77 -2 -41 1 -46 33 -68 19 -12 40 -27
46 -32 8 -7 12 -127 12 -408 l0 -399 -46 -24 c-43 -23 -47 -28 -46 -60 4 -109
10 -126 47 -129 33 -2 42 -2 70 2 15 2 27 0 27 -4 0 -5 12 -4 26 1 33 13 37
13 28 -2 -5 -7 -3 -8 6 -3 20 12 119 12 113 0 -3 -5 0 -5 7 2 11 10 16 9 27
-5 11 -14 12 -14 8 -1 -4 10 0 16 10 16 8 0 15 -3 15 -6 0 -14 46 -5 47 9 0 8
4 44 8 79 7 62 7 64 -21 87 -16 13 -34 23 -41 24 -7 0 -17 9 -23 19 -13 25
-13 41 0 21 5 -8 10 -10 10 -4 0 6 -3 14 -7 18 -11 11 -10 40 2 48 6 5 5 8 -4
8 -11 0 -11 3 0 17 8 9 9 14 4 11 -7 -4 -11 8 -11 32 0 21 2 37 6 35 3 -2 6 5
6 15 0 10 -3 17 -6 15 -3 -2 -5 45 -5 105 0 60 2 107 5 105 3 -2 6 5 6 15 0
10 -4 16 -8 14 -10 -6 -11 10 -1 20 11 10 12 37 2 30 -13 -8 -11 10 2 23 6 6
8 17 3 24 -9 16 -14 120 -5 114 4 -2 7 5 7 15 0 10 -4 17 -8 14 -4 -2 -6 5 -5
16 1 11 5 20 9 20 4 0 8 5 8 11 0 5 -4 7 -10 4 -5 -3 -10 -2 -10 4 0 5 5 13
10 16 6 3 10 12 10 18 0 7 -4 6 -10 -3 -6 -9 -10 -10 -10 -3 0 17 30 44 41 38
5 -4 9 -1 9 6 0 8 4 8 15 -1 13 -11 14 -10 9 4 -4 10 0 18 11 22 14 6 16 17
12 68 -9 104 9 96 -223 96 l-203 0 -6 -32z"/>
<path d="M830 1936 c0 -2 8 -10 18 -17 15 -13 16 -12 3 4 -13 16 -21 21 -21
13z"/>
<path d="M1830 1786 c0 -2 7 -7 16 -10 8 -3 12 -2 9 4 -6 10 -25 14 -25 6z"/>
<path d="M4570 1780 c0 -5 5 -10 11 -10 5 0 7 5 4 10 -3 6 -8 10 -11 10 -2 0
-4 -4 -4 -10z"/>
<path d="M1790 1766 c0 -2 7 -7 16 -10 8 -3 12 -2 9 4 -6 10 -25 14 -25 6z"/>
<path d="M4550 1620 c0 -5 5 -10 11 -10 5 0 7 5 4 10 -3 6 -8 10 -11 10 -2 0
-4 -4 -4 -10z"/>
<path d="M975 1561 c-3 -5 -2 -12 3 -15 5 -3 9 1 9 9 0 17 -3 19 -12 6z"/>
<path d="M1486 1498 c3 -5 10 -6 15 -3 13 9 11 12 -6 12 -8 0 -12 -4 -9 -9z"/>
<path d="M676 1433 c-6 -14 -5 -15 5 -6 7 7 10 15 7 18 -3 3 -9 -2 -12 -12z"/>
<path d="M3013 1429 c-2 -23 3 -25 10 -4 4 8 3 16 -1 19 -4 3 -9 -4 -9 -15z"/>
<path d="M1439 1373 c-12 -16 -12 -17 2 -6 9 7 20 9 24 5 5 -4 5 -1 1 6 -9 16
-11 15 -27 -5z"/>
<path d="M3913 1365 c0 -8 4 -12 9 -9 5 3 6 10 3 15 -9 13 -12 11 -12 -6z"/>
<path d="M670 1360 c0 -5 5 -10 11 -10 5 0 7 5 4 10 -3 6 -8 10 -11 10 -2 0
-4 -4 -4 -10z"/>
<path d="M4559 1313 c-13 -16 -12 -17 4 -4 9 7 17 15 17 17 0 8 -8 3 -21 -13z"/>
<path d="M3470 1256 c0 -2 8 -10 18 -17 15 -13 16 -12 3 4 -13 16 -21 21 -21
13z"/>
<path d="M3549 1243 c-13 -16 -12 -17 4 -4 16 13 21 21 13 21 -2 0 -10 -8 -17
-17z"/>
<path d="M670 1240 c0 -5 5 -10 10 -10 6 0 10 5 10 10 0 6 -4 10 -10 10 -5 0
-10 -4 -10 -10z"/>
<path d="M1396 1202 c-3 -5 1 -9 9 -9 8 0 12 4 9 9 -3 4 -7 8 -9 8 -2 0 -6 -4
-9 -8z"/>
<path d="M1376 1155 c-9 -26 -7 -32 5 -12 6 10 9 21 6 23 -2 3 -7 -2 -11 -11z"/>
<path d="M4550 1146 c0 -2 7 -7 16 -10 8 -3 12 -2 9 4 -6 10 -25 14 -25 6z"/>
<path d="M1310 986 c0 -2 7 -7 16 -10 8 -3 12 -2 9 4 -6 10 -25 14 -25 6z"/>
<path d="M4150 839 c0 -5 5 -7 10 -4 6 3 10 8 10 11 0 2 -4 4 -10 4 -5 0 -10
-5 -10 -11z"/>
<path d="M1250 820 c0 -5 5 -10 11 -10 5 0 7 5 4 10 -3 6 -8 10 -11 10 -2 0
-4 -4 -4 -10z"/>
<path d="M3615 809 c-4 -6 -5 -12 -2 -15 2 -3 7 2 10 11 7 17 1 20 -8 4z"/>
<path d="M4155 800 c-3 -5 -1 -10 4 -10 6 0 11 5 11 10 0 6 -2 10 -4 10 -3 0
-8 -4 -11 -10z"/>
<path d="M1855 780 c-3 -5 -1 -10 4 -10 6 0 11 5 11 10 0 6 -2 10 -4 10 -3 0
-8 -4 -11 -10z"/>
<path d="M1235 771 c-3 -5 -2 -12 3 -15 5 -3 9 1 9 9 0 17 -3 19 -12 6z"/>
<path d="M579 753 c-13 -16 -12 -17 4 -4 9 7 17 15 17 17 0 8 -8 3 -21 -13z"/>
<path d="M4419 753 c-13 -16 -12 -17 4 -4 9 7 17 15 17 17 0 8 -8 3 -21 -13z"/>
</g>
</svg>
