<?xml version="1.0" standalone="no"?>
<!DOCTYPE svg PUBLIC "-//W3C//DTD SVG 20010904//EN"
 "http://www.w3.org/TR/2001/REC-SVG-20010904/DTD/svg10.dtd">
<svg version="1.0" xmlns="http://www.w3.org/2000/svg"
 width="1200.000000pt" height="1200.000000pt" viewBox="0 0 1200.000000 1200.000000"
 preserveAspectRatio="xMidYMid meet">
<metadata>
Created by potrace 1.14, written by Peter Selinger 2001-2017
</metadata>
<g transform="translate(0.000000,1200.000000) scale(0.100000,-0.100000)"
fill="#000000" stroke="none">
<path d="M5007 11390 c-13 -25 -36 -67 -52 -95 -80 -143 -422 -768 -449 -820
-17 -33 -34 -62 -37 -65 -3 -3 -29 -50 -59 -105 -29 -55 -62 -116 -73 -135
-11 -19 -34 -60 -50 -90 -17 -30 -115 -209 -219 -398 -103 -189 -188 -347
-188 -353 0 -5 -4 -9 -10 -9 -5 0 -10 -5 -10 -10 0 -6 -20 -45 -43 -88 -24
-42 -59 -104 -77 -137 -18 -33 -56 -103 -85 -155 -28 -52 -68 -124 -87 -160
-19 -36 -44 -81 -55 -100 -11 -19 -33 -60 -50 -90 -57 -104 -256 -465 -283
-515 -195 -354 -417 -758 -455 -830 -26 -49 -51 -94 -55 -100 -4 -5 -74 -131
-155 -280 -81 -148 -159 -290 -173 -315 -13 -25 -37 -67 -52 -95 -34 -62 -182
-332 -220 -400 -58 -105 -128 -233 -164 -298 -20 -37 -46 -84 -58 -105 -11
-20 -34 -62 -50 -92 -17 -30 -40 -73 -53 -95 -12 -22 -40 -71 -60 -110 -21
-38 -196 -358 -390 -710 -194 -352 -369 -671 -390 -710 -21 -38 -84 -153 -140
-255 -56 -102 -118 -214 -137 -250 -20 -36 -63 -114 -97 -174 -34 -60 -61
-111 -61 -114 0 -2 -17 -34 -39 -70 -21 -37 -54 -96 -73 -132 -20 -36 -73
-132 -118 -215 -46 -82 -118 -215 -161 -293 l-78 -144 26 -51 c14 -29 65 -122
113 -207 48 -85 104 -186 125 -225 21 -38 41 -74 45 -80 4 -5 21 -36 39 -67
67 -123 306 -555 351 -633 12 -22 41 -73 63 -114 22 -40 68 -123 102 -184 l62
-111 509 -2 c280 -1 1105 -5 1834 -9 729 -3 1737 -8 2240 -10 503 -2 1448 -7
2100 -10 652 -3 1709 -8 2350 -10 l1166 -6 46 88 c25 48 87 169 138 268 51 99
118 230 150 290 54 103 109 211 325 630 48 94 116 225 151 293 35 67 64 131
64 142 0 21 -10 40 -155 300 -54 96 -108 193 -120 215 -55 101 -142 257 -255
460 -67 121 -157 283 -200 360 -42 77 -89 161 -104 187 -14 27 -38 69 -52 95
-15 27 -138 248 -274 493 -136 245 -260 470 -277 500 -16 30 -73 132 -125 225
-52 94 -110 197 -128 230 -18 33 -63 114 -100 180 -37 66 -81 145 -97 175 -16
30 -61 111 -100 180 -38 69 -84 150 -100 180 -17 30 -66 118 -108 195 -43 77
-91 165 -108 195 -17 30 -39 71 -50 90 -10 19 -27 49 -37 65 -16 27 -30 53
-105 190 -12 22 -57 103 -100 180 -42 77 -91 165 -108 195 -17 30 -39 70 -49
88 -45 79 -57 102 -98 177 -24 44 -56 102 -72 128 -15 26 -28 50 -28 52 0 2
-15 30 -34 62 -35 61 -68 120 -119 213 -80 145 -208 377 -217 390 -6 8 -13 22
-17 30 -4 8 -36 67 -72 130 -35 63 -74 133 -86 155 -71 131 -91 166 -125 225
-21 36 -52 92 -69 125 -18 33 -36 67 -42 75 -9 15 -114 204 -169 305 -15 28
-39 70 -53 95 -28 50 -361 650 -399 720 -14 25 -40 72 -58 105 -18 33 -44 77
-57 97 -12 21 -23 40 -23 43 0 3 -20 40 -44 83 -24 42 -57 102 -74 132 -26 47
-70 128 -202 365 -15 28 -82 147 -148 265 l-120 215 -946 0 -946 0 -23 -45z
m1200 -5270 c94 -173 183 -337 197 -365 15 -27 31 -57 36 -65 14 -24 104 -188
148 -270 34 -64 85 -159 312 -575 15 -27 49 -90 75 -140 27 -49 61 -112 77
-138 15 -26 28 -50 28 -52 0 -4 42 -82 200 -370 18 -33 55 -102 82 -152 l49
-93 -1411 0 -1411 0 12 22 c7 13 40 73 74 133 34 61 74 131 88 157 15 26 48
85 73 130 26 46 57 101 69 123 12 22 92 164 177 315 85 151 164 291 175 310
11 19 37 66 59 105 21 38 44 79 51 90 7 11 16 27 20 35 4 8 41 76 83 150 42
74 102 180 132 235 31 55 95 170 143 255 48 85 99 175 113 200 27 48 100 178
139 248 14 24 28 40 32 35 5 -4 85 -150 178 -323z"/>
</g>
</svg>
