<?xml version="1.0" standalone="no"?>
<!DOCTYPE svg PUBLIC "-//W3C//DTD SVG 20010904//EN"
 "http://www.w3.org/TR/2001/REC-SVG-20010904/DTD/svg10.dtd">
<svg version="1.0" xmlns="http://www.w3.org/2000/svg"
 width="640.000000pt" height="640.000000pt" viewBox="0 0 640.000000 640.000000"
 preserveAspectRatio="xMidYMid meet">
<metadata>
Created by potrace 1.14, written by Peter Selinger 2001-2017
</metadata>
<g transform="translate(0.000000,640.000000) scale(0.100000,-0.100000)"
fill="#000000" stroke="none">
<path d="M3528 5133 c-7 -10 -30 -27 -50 -38 -21 -11 -38 -23 -38 -28 0 -19
-67 -67 -121 -87 -44 -15 -59 -26 -59 -40 0 -10 -4 -21 -9 -24 -9 -6 -21 -57
-26 -121 -2 -22 -9 -41 -15 -43 -5 -2 -10 -10 -10 -18 0 -8 -6 -14 -14 -14 -8
0 -18 -9 -21 -21 -4 -11 -20 -26 -37 -33 -16 -7 -29 -16 -29 -19 2 -21 0 -27
-13 -27 -8 0 -18 -5 -22 -12 -5 -8 0 -9 14 -6 12 4 24 2 27 -2 3 -5 -3 -11
-12 -13 -10 -3 5 -6 32 -7 84 -4 92 -6 141 -36 61 -38 73 -57 55 -86 -46 -74
-62 -118 -53 -150 6 -23 15 -34 30 -36 13 -2 22 -10 21 -20 -1 -37 -26 -158
-37 -178 -9 -18 -21 -94 -36 -229 -2 -22 -14 -78 -26 -125 -20 -77 -22 -101
-17 -265 3 -99 9 -191 15 -205 22 -57 33 -132 36 -263 l4 -138 -26 -10 c-30
-12 -79 -63 -88 -93 -4 -12 -14 -29 -23 -39 -9 -11 -28 -42 -42 -70 -14 -29
-30 -52 -36 -52 -11 0 -114 86 -139 115 -83 98 -224 281 -224 291 0 4 20 31
45 60 25 29 45 56 45 60 0 7 46 38 98 67 35 20 37 40 7 68 -24 22 -27 30 -21
62 26 144 14 331 -26 424 -17 40 -63 91 -125 138 -6 5 -14 28 -17 52 -4 24
-14 73 -23 111 -17 66 -16 69 6 137 24 77 22 97 -15 147 -30 40 -30 47 1 87
14 18 25 37 25 43 0 20 51 53 83 53 40 0 81 20 85 42 2 9 -4 40 -13 70 -13 45
-20 56 -47 66 -26 9 -36 9 -52 -2 -30 -19 -103 -11 -163 19 -29 14 -55 25 -58
25 -17 0 -51 52 -73 113 -14 40 -35 80 -45 89 -11 10 -21 28 -22 40 -6 53 -29
108 -60 141 -31 34 -37 36 -89 35 -31 -1 -56 -5 -56 -9 0 -5 -6 -6 -12 -4 -16
6 -53 -49 -63 -95 -5 -19 -9 -80 -10 -135 -1 -88 -4 -106 -28 -152 -30 -59
-33 -86 -12 -123 41 -71 7 -130 -109 -188 -91 -45 -146 -95 -201 -181 -30 -47
-32 -59 -22 -201 2 -28 -3 -37 -21 -45 -14 -6 -27 -25 -34 -49 -12 -37 -11
-40 22 -69 27 -24 34 -38 34 -66 0 -35 22 -65 39 -54 5 3 23 -8 40 -24 52 -48
98 -70 138 -65 23 2 40 -1 44 -9 15 -24 6 -104 -19 -175 -18 -50 -26 -92 -26
-140 0 -65 -2 -71 -34 -104 -18 -20 -41 -49 -50 -65 -30 -54 -41 -69 -88 -122
-25 -29 -54 -74 -64 -100 -10 -27 -28 -65 -41 -86 -35 -56 -109 -255 -133
-355 -11 -48 -45 -159 -74 -247 -80 -236 -159 -554 -221 -880 -28 -149 -46
-226 -73 -313 l-26 -84 -55 7 c-31 4 -60 11 -65 16 -6 5 -23 9 -38 9 -18 0
-28 5 -28 15 0 8 -3 15 -7 16 -5 0 -17 3 -28 6 -11 3 -40 6 -65 8 l-45 3 45
-6 c65 -10 26 -22 -46 -15 -47 5 -56 4 -52 -8 7 -19 -92 -20 -108 -1 -10 14
-19 14 -202 0 -35 -2 -42 0 -42 15 0 9 -4 17 -10 17 -5 0 -10 -10 -10 -22 0
-17 -5 -13 -19 18 l-18 40 -120 -1 c-66 -1 -128 -7 -140 -14 -12 -6 -33 -11
-47 -11 l-26 0 0 -545 0 -545 3200 0 3200 0 0 634 0 633 -61 7 c-96 10 -99 9
-99 -19 0 -22 -4 -25 -40 -25 -29 0 -40 -4 -40 -15 0 -10 -10 -15 -34 -15 -34
0 -35 1 -39 43 l-4 42 -1 -42 -2 -43 -40 0 -40 0 0 -40 0 -40 -40 0 -40 0 0
-40 0 -40 42 0 c23 0 39 -3 36 -6 -4 -3 -58 -5 -122 -5 -97 1 -116 -2 -116
-14 0 -11 -11 -15 -40 -15 -28 0 -40 -4 -40 -15 0 -11 -18 -15 -82 -18 l-83
-3 83 -2 c45 -1 82 -5 82 -9 0 -5 -36 -7 -80 -5 -68 3 -80 1 -80 -12 0 -13
-14 -16 -80 -16 -60 0 -80 -3 -80 -13 0 -11 -30 -16 -122 -21 -68 -3 -124 -11
-126 -16 -2 -6 -22 -10 -44 -10 -39 0 -40 -1 -36 -29 4 -28 2 -30 -58 -46 -34
-9 -71 -15 -81 -12 -12 3 -9 5 10 6 56 2 95 51 69 86 -4 6 -41 10 -82 10 -41
0 -168 1 -282 3 l-208 2 -1 213 -1 212 -15 -180 c-17 -205 -33 -253 -33 -96 0
102 -5 149 -37 352 -15 99 -15 110 0 167 26 96 45 168 72 277 91 369 117 455
155 497 6 7 21 33 33 57 21 42 28 48 125 89 77 34 102 49 102 63 0 11 -23 81
-51 156 -107 287 -169 477 -194 593 -7 36 -19 78 -25 94 -17 44 -49 200 -70
337 -23 152 -55 265 -108 384 -22 50 -43 101 -47 115 -15 52 -142 252 -204
322 -79 89 -207 171 -322 208 -15 4 -51 24 -80 44 -30 20 -58 36 -64 36 -5 1
-20 9 -32 19 -24 20 -32 74 -12 86 13 8 5 85 -17 162 -16 60 -27 71 -46 46z
m-1298 -652 c25 -7 25 -7 -21 -54 -26 -26 -51 -47 -58 -47 -14 0 -15 65 -1 91
11 20 36 23 80 10z m-460 -234 c0 -7 -7 -22 -15 -33 -13 -17 -14 -16 -4 14 11
33 19 41 19 19z m78 -512 c-3 -3 -9 2 -12 12 -6 14 -5 15 5 6 7 -7 10 -15 7
-18z m819 -1060 c48 -55 96 -135 87 -145 -10 -10 -153 155 -154 178 0 34 15
27 67 -33z m-71 -358 c17 -53 47 -115 74 -154 21 -29 92 -39 147 -20 36 12 44
12 54 1 16 -19 48 -18 56 2 3 9 -4 36 -15 60 -24 49 -13 59 29 24 12 -12 32
-20 44 -19 11 1 27 0 35 -3 94 -32 112 -31 131 3 6 13 18 18 33 15 13 -2 29 0
37 4 9 6 20 3 32 -8 27 -24 49 -5 67 59 26 92 44 104 54 35 9 -58 78 -199 107
-220 13 -9 45 -19 71 -22 30 -4 49 -12 53 -23 4 -9 11 -77 15 -151 12 -187 40
-449 51 -486 6 -21 6 -48 -1 -77 -13 -59 -14 -319 -2 -381 l10 -49 -281 6
c-478 12 -590 18 -615 34 -18 11 -27 12 -37 3 -9 -7 -63 -11 -160 -9 -121 1
-148 5 -153 17 -3 8 0 54 6 101 13 95 33 327 57 671 8 124 19 252 24 285 5 33
18 128 27 212 10 83 22 149 25 147 4 -2 15 -28 25 -57z m-2351 -1221 c28 -28
-6 -37 -121 -33 l-109 3 113 2 c73 1 112 6 112 13 0 7 -16 10 -44 8 -32 -3
-42 -1 -39 9 7 16 71 15 88 -2z m60 -36 c-3 -5 -10 -10 -16 -10 -5 0 -9 5 -9
10 0 6 7 10 16 10 8 0 12 -4 9 -10z m5439 -115 c-4 -8 -8 -15 -10 -15 -2 0 -4
7 -4 15 0 8 4 15 10 15 5 0 7 -7 4 -15z m-391 -72 c-7 -2 -19 -2 -25 0 -7 3
-2 5 12 5 14 0 19 -2 13 -5z m70 -20 c-13 -2 -33 -2 -45 0 -13 2 -3 4 22 4 25
0 35 -2 23 -4z m-66 -19 c-3 -3 -12 -4 -19 -1 -8 3 -5 6 6 6 11 1 17 -2 13 -5z
m-292 -43 c3 -5 1 -12 -5 -16 -5 -3 -10 1 -10 9 0 18 6 21 15 7z m45 -1 c0 -5
-4 -10 -10 -10 -5 0 -10 5 -10 10 0 6 5 10 10 10 6 0 10 -4 10 -10z m-215 -50
c-3 -5 -10 -10 -16 -10 -5 0 -9 5 -9 10 0 6 7 10 16 10 8 0 12 -4 9 -10z m58
-17 c-7 -2 -21 -2 -30 0 -10 3 -4 5 12 5 17 0 24 -2 18 -5z m91 -43 c4 -25 3
-31 -4 -20 -5 8 -10 26 -10 39 0 32 6 24 14 -19z m-34 20 c0 -5 -4 -10 -10
-10 -5 0 -10 5 -10 10 0 6 5 10 10 10 6 0 10 -4 10 -10z m30 -80 c0 -5 -5 -10
-11 -10 -5 0 -7 5 -4 10 3 6 8 10 11 10 2 0 4 -4 4 -10z"/>
<path d="M6320 1600 l0 -80 -40 0 -40 0 0 -40 0 -40 80 0 80 0 0 120 0 120
-40 0 -40 0 0 -80z"/>
<path d="M13 1103 c9 -2 23 -2 30 0 6 3 -1 5 -18 5 -17 0 -22 -2 -12 -5z"/>
<path d="M5858 1043 c12 -2 30 -2 40 0 9 3 -1 5 -23 4 -22 0 -30 -2 -17 -4z"/>
<path d="M4996 821 c-4 -7 -5 -15 -2 -18 9 -9 19 4 14 18 -4 11 -6 11 -12 0z"/>
</g>
</svg>
