<svg xmlns="http://www.w3.org/2000/svg"
        xmlns:xlink="http://www.w3.org/1999/xlink" x="0" y="0" width="662" height="302" style="
        width:662px;
        height:302px;
        background: none;
        fill: none;
        color: #FFFFF
">
        <svg xmlns="http://www.w3.org/2000/svg">
                <g>
                        <defs>
                                <pattern id=".9552923643026965" width="10" height="10" patternUnits="userSpaceOnUse">
                                        <path d="M 10 0 L 0 0 0 10" fill="none" stroke="lightgray" stroke-width="0.5"/>
                                </pattern>
                        </defs>
                        <rect width="100%" height="100%" fill="url(#.9552923643026965)" stroke="lightgray" stroke-width="0.5"/>
                </g>
        </svg>

        <svg xmlns="http://www.w3.org/2000/svg" class="role-diagram-draw-area">
                <g class="shapes-region" style="stroke: black; fill: none;">
                        <g class="grouped-shape">
                                <g class="composite-shape">
                                        <path class="real" d=" M105,94.67 C105,80.86 116.19,69.67 130,69.67 C143.81,69.67 155,80.86 155,94.67 C155,108.47 143.81,119.67 130,119.67 C116.19,119.67 105,108.47 105,94.67 Z" style="stroke-width: 1; stroke: rgb(0, 0, 0); fill: none; fill-opacity: 1;"/>
                                </g>
                        </g>
                        <g class="arrow-line">
                                <path class="connection real" stroke-dasharray="" d="  M39,94 L101.67,94" style="stroke: rgb(0, 0, 0); stroke-width: 1; fill: none; fill-opacity: 1;"/>
                                <g stroke="#000" transform="matrix(-1,1.2246467991473532e-16,-1.2246467991473532e-16,-1,103.66666666666664,94.00000000000001)" style="stroke: rgb(0, 0, 0); stroke-width: 1;">
                                        <path d=" M10.93,-3.29 Q4.96,-0.45 0,0 Q4.96,0.45 10.93,3.29"/>
                                </g>
                        </g>
                        <g class="grouped-shape">
                                <g class="composite-shape">
                                        <path class="real" d=" M215.93,68.47 L256,68.47 L256,123.33 L215.93,123.33 Z" style="stroke-width: 1; stroke: rgb(0, 0, 0); fill: none; fill-opacity: 1;"/>
                                </g>
                        </g>
                        <g class="arrow-line">
                                <path class="connection real" stroke-dasharray="" d="  M155,94.67 L213.93,94.67" style="stroke: rgb(0, 0, 0); stroke-width: 1; fill: none; fill-opacity: 1;"/>
                                <g stroke="#000" transform="matrix(-1,1.2246467991473532e-16,-1.2246467991473532e-16,-1,215.9333292643229,94.66666666666666)" style="stroke: rgb(0, 0, 0); stroke-width: 1;">
                                        <path d=" M10.93,-3.29 Q4.96,-0.45 0,0 Q4.96,0.45 10.93,3.29"/>
                                </g>
                        </g>
                        <g class="grouped-shape">
                                <g class="composite-shape">
                                        <path class="real" d=" M317.93,67.13 L358,67.13 L358,122 L317.93,122 Z" style="stroke-width: 1; stroke: rgb(0, 0, 0); fill: none; fill-opacity: 1;"/>
                                </g>
                        </g>
                        <g class="arrow-line">
                                <path class="connection real" stroke-dasharray="" d="  M257,93.33 L315.93,93.33" style="stroke: rgb(0, 0, 0); stroke-width: 1; fill: none; fill-opacity: 1;"/>
                                <g stroke="#000" transform="matrix(-1,1.2246467991473532e-16,-1.2246467991473532e-16,-1,317.9333292643229,93.33333333333333)" style="stroke: rgb(0, 0, 0); stroke-width: 1;">
                                        <path d=" M10.93,-3.29 Q4.96,-0.45 0,0 Q4.96,0.45 10.93,3.29"/>
                                </g>
                        </g>
                        <g class="grouped-shape">
                                <g class="composite-shape">
                                        <path class="real" d=" M425.67,94.67 C425.67,80.86 436.86,69.67 450.67,69.67 C464.47,69.67 475.67,80.86 475.67,94.67 C475.67,108.47 464.47,119.67 450.67,119.67 C436.86,119.67 425.67,108.47 425.67,94.67 Z" style="stroke-width: 1; stroke: rgb(0, 0, 0); fill: none; fill-opacity: 1;"/>
                                </g>
                        </g>
                        <g class="arrow-line">
                                <path class="connection real" stroke-dasharray="" d="  M359.67,94 L422.33,94" style="stroke: rgb(0, 0, 0); stroke-width: 1; fill: none; fill-opacity: 1;"/>
                                <g stroke="#000" transform="matrix(-1,1.2246467991473532e-16,-1.2246467991473532e-16,-1,424.33333333333337,94)" style="stroke: rgb(0, 0, 0); stroke-width: 1;">
                                        <path d=" M10.93,-3.29 Q4.96,-0.45 0,0 Q4.96,0.45 10.93,3.29"/>
                                </g>
                        </g>
                        <g class="arrow-line">
                                <path class="connection real" stroke-dasharray="" d="  M475,94 L537.67,94" style="stroke: rgb(0, 0, 0); stroke-width: 1; fill: none; fill-opacity: 1;"/>
                                <g stroke="#000" transform="matrix(-1,1.2246467991473532e-16,-1.2246467991473532e-16,-1,539.6666666666666,94.00000000000001)" style="stroke: rgb(0, 0, 0); stroke-width: 1;">
                                        <path d=" M10.93,-3.29 Q4.96,-0.45 0,0 Q4.96,0.45 10.93,3.29"/>
                                </g>
                        </g>
                        <g class="arrow-line">
                                <path class="connection real" stroke-dasharray="" d="  M287.47,93.33 L287.47,152.73" style="stroke: rgb(0, 0, 0); stroke-width: 1; fill: none; fill-opacity: 1;"/>
                        </g>
                        <g class="arrow-line">
                                <path class="connection real" stroke-dasharray="" d="  M187.27,152.73 L287.47,152.73" style="stroke: rgb(0, 0, 0); stroke-width: 1; fill: none; fill-opacity: 1;"/>
                        </g>
                        <g class="arrow-line">
                                <path class="connection real" stroke-dasharray="" d="  M187.27,152.73 L146.11,116.98" style="stroke: rgb(0, 0, 0); stroke-width: 1; fill: none; fill-opacity: 1;"/>
                                <g stroke="#000" transform="matrix(0.7549385420414509,0.6557955456850317,-0.6557955456850317,0.7549385420414509,144.59999593098956,115.66666666666666)" style="stroke: rgb(0, 0, 0); stroke-width: 1;">
                                        <path d=" M10.93,-3.29 Q4.96,-0.45 0,0 Q4.96,0.45 10.93,3.29"/>
                                </g>
                        </g>
                        <g class="arrow-line">
                                <path class="connection real" stroke-dasharray="" d="  M384.13,94 L384.13,180.73" style="stroke: rgb(0, 0, 0); stroke-width: 1; fill: none; fill-opacity: 1;"/>
                        </g>
                        <g class="arrow-line">
                                <path class="connection real" stroke-dasharray="" d="  M130,180.73 L384.13,180.73" style="stroke: rgb(0, 0, 0); stroke-width: 1; fill: none; fill-opacity: 1;"/>
                        </g>
                        <g class="arrow-line">
                                <path class="connection real" stroke-dasharray="" d="  M130,180.73 L130,121.67" style="stroke: rgb(0, 0, 0); stroke-width: 1; fill: none; fill-opacity: 1;"/>
                                <g stroke="#000" transform="matrix(3.061616997868383e-16,1,-1,3.061616997868383e-16,130,119.66666666666666)" style="stroke: rgb(0, 0, 0); stroke-width: 1;">
                                        <path d=" M10.93,-3.29 Q4.96,-0.45 0,0 Q4.96,0.45 10.93,3.29"/>
                                </g>
                        </g>
                        <g class="arrow-line">
                                <path class="connection real" stroke-dasharray="" d="  M287.47,93.33 L287.47,38.07" style="stroke: rgb(0, 0, 0); stroke-width: 1; fill: none; fill-opacity: 1;"/>
                        </g>
                        <g class="arrow-line">
                                <path class="connection real" stroke-dasharray="" d="  M451.33,38.07 L287.47,38.07" style="stroke: rgb(0, 0, 0); stroke-width: 1; fill: none; fill-opacity: 1;"/>
                        </g>
                        <g class="arrow-line">
                                <path class="connection real" stroke-dasharray="" d="  M450.67,38.07 L450.67,67.67" style="stroke: rgb(0, 0, 0); stroke-width: 1; fill: none; fill-opacity: 1;"/>
                                <g stroke="#000" transform="matrix(-1.8369701987210297e-16,-1,1,-1.8369701987210297e-16,450.66666666666674,69.66666666666663)" style="stroke: rgb(0, 0, 0); stroke-width: 1;">
                                        <path d=" M10.93,-3.29 Q4.96,-0.45 0,0 Q4.96,0.45 10.93,3.29"/>
                                </g>
                        </g>
                        <g/>
                </g>
                <g/>
                <g/>
                <g/>
        </svg>
        <svg xmlns="http://www.w3.org/2000/svg"
                xmlns:xlink="http://www.w3.org/1999/xlink" width="660" height="300" style="width:660px;height:300px;font-family:Asana-Math, Asana;background:#FFF;">
                <g>
                        <g>
                                <g>
                                        <g transform="matrix(1,0,0,1,54.80000813802084,86.7999979654948)">
                                                <path transform="matrix(0.017,0,0,-0.017,0,0)" d="M345 437L329 437L350 549C366 635 394 673 440 673C470 673 497 658 512 634L522 638C527 654 537 685 545 705L550 720C534 727 503 733 480 733C469 733 453 730 445 726C421 715 339 654 316 630C294 608 282 578 271 521L256 442C215 422 195 414 170 405L165 383L246 383L237 327C207 132 170 -54 148 -123C130 -182 100 -213 64 -213C41 -213 30 -206 12 -184L-2 -188C-6 -211 -20 -259 -25 -268C-16 -273 -1 -276 10 -276C51 -276 105 -245 144 -198C215 -114 235 -18 319 383L423 383C427 402 434 425 440 439L436 446C407 439 408 437 345 437Z" stroke="rgb(0,0,0)" stroke-opacity="1" stroke-width="8" fill="rgb(0,0,0)" fill-opacity="1"></path>
                                        </g>
                                </g>
                                <g>
                                        <g transform="matrix(1,0,0,1,64.15000406901042,86.7999979654948)">
                                                <path transform="matrix(0.017,0,0,-0.017,0,0)" d="M146 266C146 526 243 632 301 700L282 726C225 675 60 542 60 266C60 159 85 58 133 -32C168 -99 200 -138 282 -215L301 -194C255 -137 146 -15 146 266Z" stroke="rgb(0,0,0)" stroke-opacity="1" stroke-width="8" fill="rgb(0,0,0)" fill-opacity="1"></path>
                                        </g>
                                </g>
                                <g>
                                        <g transform="matrix(1,0,0,1,69.80000813802084,86.7999979654948)">
                                                <path transform="matrix(0.017,0,0,-0.017,0,0)" d="M125 390L69 107C68 99 56 61 56 31C56 6 67 -9 86 -9C121 -9 156 11 234 74L265 99L255 117L210 86C181 66 161 56 150 56C141 56 136 64 136 76C136 102 150 183 179 328L192 390L299 390L310 440C272 436 238 434 200 434C216 528 227 577 245 631L234 646C214 634 187 622 156 610L131 440C87 419 61 408 43 403L41 390Z" stroke="rgb(0,0,0)" stroke-opacity="1" stroke-width="8" fill="rgb(0,0,0)" fill-opacity="1"></path>
                                        </g>
                                </g>
                                <g>
                                        <g transform="matrix(1,0,0,1,75.45001220703125,86.7999979654948)">
                                                <path transform="matrix(0.017,0,0,-0.017,0,0)" d="M51 726L32 700C87 636 187 526 187 266C187 -10 83 -131 32 -194L51 -215C104 -165 273 -23 273 265C273 542 108 675 51 726Z" stroke="rgb(0,0,0)" stroke-opacity="1" stroke-width="8" fill="rgb(0,0,0)" fill-opacity="1"></path>
                                        </g>
                                </g>
                        </g>
                </g>
                <g>
                        <g>
                                <g>
                                        <g>
                                                <g transform="matrix(1,0,0,1,118.80000813802083,99.7000020345052)">
                                                        <path transform="matrix(0.0255,0,0,-0.0255,0,0)" d="M788 13L772 -310L62 -310L420 133L66 620L754 620L768 346L732 346C718 428 694 486 662 522C626 559 572 578 498 578L246 578L524 194L214 -205L512 -205C592 -205 648 -190 680 -162C714 -132 734 -74 746 13Z" stroke="rgb(0,0,0)" stroke-opacity="1" stroke-width="8" fill="rgb(0,0,0)" fill-opacity="1"></path>
                                                </g>
                                        </g>
                                </g>
                        </g>
                </g>
                <g>
                        <g>
                                <g>
                                        <g>
                                                <g transform="matrix(1,0,0,1,226.12502034505206,102.3624979654948)">
                                                        <path transform="matrix(0.0255,0,0,-0.0255,0,0)" d="M694 802C694 860 621 885 573 885C368 885 344 579 334 430C323 251 309 72 304 -108C301 -191 312 -410 184 -410C173 -410 159 -407 151 -397C153 -392 155 -384 155 -378C155 -347 114 -315 83 -315C59 -315 54 -340 54 -359C54 -418 125 -442 173 -442C348 -442 380 -190 395 -59C413 104 421 269 433 433C439 521 422 853 562 853C574 853 587 850 596 841C593 834 592 828 592 821C592 789 633 759 663 759C687 759 694 782 694 802Z" stroke="rgb(0,0,0)" stroke-opacity="1" stroke-width="8" fill="rgb(0,0,0)" fill-opacity="1"></path>
                                                </g>
                                        </g>
                                </g>
                        </g>
                </g>
                <g>
                        <g>
                                <g>
                                        <g>
                                                <g transform="matrix(1,0,0,1,328.1250203450521,101.02500406901042)">
                                                        <path transform="matrix(0.0255,0,0,-0.0255,0,0)" d="M694 802C694 860 621 885 573 885C368 885 344 579 334 430C323 251 309 72 304 -108C301 -191 312 -410 184 -410C173 -410 159 -407 151 -397C153 -392 155 -384 155 -378C155 -347 114 -315 83 -315C59 -315 54 -340 54 -359C54 -418 125 -442 173 -442C348 -442 380 -190 395 -59C413 104 421 269 433 433C439 521 422 853 562 853C574 853 587 850 596 841C593 834 592 828 592 821C592 789 633 759 663 759C687 759 694 782 694 802Z" stroke="rgb(0,0,0)" stroke-opacity="1" stroke-width="8" fill="rgb(0,0,0)" fill-opacity="1"></path>
                                                </g>
                                        </g>
                                </g>
                        </g>
                </g>
                <g>
                        <g>
                                <g>
                                        <g>
                                                <g transform="matrix(1,0,0,1,439.46250406901044,99.7000020345052)">
                                                        <path transform="matrix(0.0255,0,0,-0.0255,0,0)" d="M788 13L772 -310L62 -310L420 133L66 620L754 620L768 346L732 346C718 428 694 486 662 522C626 559 572 578 498 578L246 578L524 194L214 -205L512 -205C592 -205 648 -190 680 -162C714 -132 734 -74 746 13Z" stroke="rgb(0,0,0)" stroke-opacity="1" stroke-width="8" fill="rgb(0,0,0)" fill-opacity="1"></path>
                                                </g>
                                        </g>
                                </g>
                        </g>
                </g>
                <g>
                        <g>
                                <g>
                                        <g transform="matrix(1,0,0,1,490.80002848307294,86.7999979654948)">
                                                <path transform="matrix(0.017,0,0,-0.017,0,0)" d="M-7 -180C-8 -187 -8 -193 -8 -198C-8 -241 29 -276 74 -276C180 -276 290 -152 349 33L490 473L479 482C450 471 427 465 405 463L370 331C358 284 323 211 290 162C255 111 206 67 184 67C172 67 163 90 164 115L180 322C182 353 184 391 184 419C184 464 177 482 160 482C147 482 133 475 85 442L3 386L14 368L64 398C69 401 80 410 89 410C103 410 111 391 111 358C111 357 111 351 110 343L93 100L92 60C92 18 110 -11 135 -11C172 -11 256 74 331 187L282 16C231 -161 181 -234 111 -234C76 -234 49 -207 49 -172C49 -167 50 -159 51 -150L41 -146Z" stroke="rgb(0,0,0)" stroke-opacity="1" stroke-width="8" fill="rgb(0,0,0)" fill-opacity="1"></path>
                                        </g>
                                </g>
                                <g>
                                        <g transform="matrix(1,0,0,1,499.28749593098956,86.7999979654948)">
                                                <path transform="matrix(0.017,0,0,-0.017,0,0)" d="M146 266C146 526 243 632 301 700L282 726C225 675 60 542 60 266C60 159 85 58 133 -32C168 -99 200 -138 282 -215L301 -194C255 -137 146 -15 146 266Z" stroke="rgb(0,0,0)" stroke-opacity="1" stroke-width="8" fill="rgb(0,0,0)" fill-opacity="1"></path>
                                        </g>
                                </g>
                                <g>
                                        <g transform="matrix(1,0,0,1,504.93752034505206,86.7999979654948)">
                                                <path transform="matrix(0.017,0,0,-0.017,0,0)" d="M125 390L69 107C68 99 56 61 56 31C56 6 67 -9 86 -9C121 -9 156 11 234 74L265 99L255 117L210 86C181 66 161 56 150 56C141 56 136 64 136 76C136 102 150 183 179 328L192 390L299 390L310 440C272 436 238 434 200 434C216 528 227 577 245 631L234 646C214 634 187 622 156 610L131 440C87 419 61 408 43 403L41 390Z" stroke="rgb(0,0,0)" stroke-opacity="1" stroke-width="8" fill="rgb(0,0,0)" fill-opacity="1"></path>
                                        </g>
                                </g>
                                <g>
                                        <g transform="matrix(1,0,0,1,510.58750406901044,86.7999979654948)">
                                                <path transform="matrix(0.017,0,0,-0.017,0,0)" d="M51 726L32 700C87 636 187 526 187 266C187 -10 83 -131 32 -194L51 -215C104 -165 273 -23 273 265C273 542 108 675 51 726Z" stroke="rgb(0,0,0)" stroke-opacity="1" stroke-width="8" fill="rgb(0,0,0)" fill-opacity="1"></path>
                                        </g>
                                </g>
                        </g>
                </g>
                <g>
                        <g>
                                <g>
                                        <text x="152.80000813802081" y="106.0625" style="white-space:pre;stroke:none;fill:rgb(0,0,0);fill-opacity:1;font-size:15px;font-family:Arial, Helvetica, sans-serif;font-weight:400;font-style:normal;dominant-baseline:text-before-edge;text-decoration:none solid rgb(0, 0, 0);">-</text>
                                </g>
                        </g>
                </g>
                <g>
                        <g>
                                <g>
                                        <text x="225.4625040690104" y="134.7249959309896" style="white-space:pre;stroke:none;fill:rgb(0,0,0);fill-opacity:1;font-size:15px;font-family:Arial, Helvetica, sans-serif;font-weight:400;font-style:normal;dominant-baseline:text-before-edge;text-decoration:none solid rgb(0, 0, 0);">3</text>
                                </g>
                        </g>
                </g>
                <g>
                        <g>
                                <g>
                                        <text x="114.80000813802083" y="114.0625" style="white-space:pre;stroke:none;fill:rgb(0,0,0);fill-opacity:1;font-size:15px;font-family:Arial, Helvetica, sans-serif;font-weight:400;font-style:normal;dominant-baseline:text-before-edge;text-decoration:none solid rgb(0, 0, 0);">-</text>
                                </g>
                        </g>
                </g>
                <g>
                        <g>
                                <g>
                                        <text x="249.4625040690104" y="159.4000040690104" style="white-space:pre;stroke:none;fill:rgb(0,0,0);fill-opacity:1;font-size:15px;font-family:Arial, Helvetica, sans-serif;font-weight:400;font-style:normal;dominant-baseline:text-before-edge;text-decoration:none solid rgb(0, 0, 0);">2</text>
                                </g>
                        </g>
                </g>
                <g>
                        <g>
                                <g>
                                        <text x="414.1250203450521" y="94.72499593098959" style="white-space:pre;stroke:none;fill:rgb(0,0,0);fill-opacity:1;font-size:15px;font-family:Arial, Helvetica, sans-serif;font-weight:400;font-style:normal;dominant-baseline:text-before-edge;text-decoration:none solid rgb(0, 0, 0);">+</text>
                                </g>
                        </g>
                </g>
                <g>
                        <g>
                                <g>
                                        <text x="456.80002848307294" y="52.0625" style="white-space:pre;stroke:none;fill:rgb(0,0,0);fill-opacity:1;font-size:15px;font-family:Arial, Helvetica, sans-serif;font-weight:400;font-style:normal;dominant-baseline:text-before-edge;text-decoration:none solid rgb(0, 0, 0);">-</text>
                                </g>
                        </g>
                </g>
                <g>
                        <g>
                                <g>
                                        <text x="404.1250203450521" y="75.40000406901042" style="white-space:pre;stroke:none;fill:rgb(0,0,0);fill-opacity:1;font-size:15px;font-family:Arial, Helvetica, sans-serif;font-weight:400;font-style:normal;dominant-baseline:text-before-edge;text-decoration:none solid rgb(0, 0, 0);">2</text>
                                </g>
                        </g>
                </g>
                <g>
                        <g>
                                <g>
                                        <text x="372.80002848307294" y="18.0625" style="white-space:pre;stroke:none;fill:rgb(0,0,0);fill-opacity:1;font-size:15px;font-family:Arial, Helvetica, sans-serif;font-weight:400;font-style:normal;dominant-baseline:text-before-edge;text-decoration:none solid rgb(0, 0, 0);">1</text>
                                </g>
                        </g>
                </g>
        </svg>
</svg>
