<?xml version="1.0" standalone="no"?>
<!DOCTYPE svg PUBLIC "-//W3C//DTD SVG 20010904//EN"
 "http://www.w3.org/TR/2001/REC-SVG-20010904/DTD/svg10.dtd">
<svg version="1.0" xmlns="http://www.w3.org/2000/svg"
 width="1018.000000pt" height="1014.000000pt" viewBox="0 0 1018.000000 1014.000000"
 preserveAspectRatio="xMidYMid meet">
<metadata>
Created by potrace 1.16, written by Peter Selinger 2001-2019
</metadata>
<g transform="translate(0.000000,1014.000000) scale(0.100000,-0.100000)"
fill="#000000" stroke="none">
<path d="M5760 9479 c-266 -17 -377 -30 -485 -58 -107 -28 -377 -124 -402
-144 -30 -22 1 -67 45 -67 15 0 83 19 152 41 249 82 287 88 600 104 390 19
592 18 885 -5 563 -45 767 -90 1090 -241 319 -150 481 -256 635 -416 296 -306
447 -528 546 -799 106 -292 130 -441 121 -749 -8 -247 -34 -388 -113 -605 -40
-109 -243 -519 -344 -695 -100 -173 -220 -411 -220 -434 0 -31 43 -71 78 -71
39 0 52 17 115 146 30 60 83 161 119 224 86 150 286 552 337 675 63 150 111
320 138 492 22 131 24 512 4 638 -38 246 -161 577 -284 764 -98 150 -282 376
-417 512 -143 143 -312 260 -562 384 -356 178 -594 239 -1118 286 -255 23
-707 32 -920 18z"/>
<path d="M3145 9418 c-95 -19 -331 -78 -396 -99 -117 -38 -449 -213 -635 -336
-115 -75 -388 -315 -594 -522 -130 -130 -214 -226 -321 -366 -176 -230 -185
-244 -286 -420 -199 -348 -211 -373 -271 -600 -59 -222 -66 -276 -67 -505 0
-211 18 -364 61 -510 41 -143 267 -494 417 -649 94 -97 315 -298 362 -331 53
-36 92 -41 111 -15 31 42 -50 160 -195 283 -206 175 -372 376 -491 592 -66
120 -74 142 -103 273 -31 138 -32 149 -31 372 1 249 6 280 76 525 40 138 66
194 211 448 227 400 500 728 900 1085 198 176 267 228 437 326 362 209 443
242 750 307 148 31 370 32 695 4 353 -30 476 -54 589 -113 55 -29 58 -32 34
-35 -20 -2 -28 -9 -28 -23 0 -27 62 -26 106 2 45 27 46 65 2 114 -57 66 -146
99 -408 154 -166 35 -808 62 -925 39z"/>
<path d="M4443 8034 c-31 -19 -45 -35 -52 -61 -5 -19 -25 -53 -44 -76 -52 -64
-121 -174 -156 -251 -74 -161 -97 -314 -88 -600 6 -203 29 -383 63 -496 59
-198 229 -373 304 -312 33 27 19 69 -56 168 -110 145 -146 236 -181 464 -12
82 -17 174 -17 320 0 236 14 314 82 461 36 80 41 85 80 95 32 9 44 8 54 -3 12
-11 24 1 78 74 82 109 89 122 90 156 0 38 -49 87 -87 87 -15 -1 -47 -12 -70
-26z"/>
<path d="M5322 7908 c-6 -7 -18 -42 -29 -78 -15 -55 -18 -104 -18 -325 0 -287
9 -359 67 -555 64 -215 131 -324 338 -553 310 -342 513 -514 825 -702 72 -43
155 -95 185 -115 30 -20 92 -58 138 -84 70 -41 88 -47 117 -42 19 4 41 17 50
29 18 26 19 76 2 98 -13 17 -119 84 -407 257 -198 119 -275 173 -422 300 -123
106 -444 432 -511 519 -166 216 -232 474 -257 1003 -6 124 -13 233 -16 243 -6
20 -47 23 -62 5z"/>
<path d="M3405 7551 c-128 -59 -360 -291 -459 -460 -30 -52 -103 -231 -140
-344 -71 -216 -104 -604 -72 -842 17 -122 36 -191 88 -315 52 -122 74 -153
145 -206 91 -68 117 -80 147 -66 43 20 35 60 -35 164 -78 115 -134 236 -167
358 -25 91 -26 107 -26 350 0 238 2 264 27 381 30 144 91 327 148 444 63 131
232 309 402 421 49 33 67 51 67 67 0 28 -9 41 -37 56 -29 15 -41 14 -88 -8z"/>
<path d="M8680 5400 c-30 -4 -80 -15 -110 -23 -38 -10 -64 -11 -88 -5 -49 14
-79 -20 -54 -60 7 -10 16 -9 47 3 43 19 76 14 106 -16 18 -18 25 -19 95 -9
107 14 222 12 282 -5 111 -33 140 -133 158 -540 7 -174 -4 -257 -61 -454 -56
-191 -76 -225 -209 -346 -70 -63 -89 -75 -100 -66 -24 20 -77 9 -97 -19 -15
-20 -17 -34 -11 -75 4 -28 3 -66 -2 -87 -8 -29 -6 -41 7 -62 44 -66 63 -438
31 -594 -29 -144 -155 -421 -262 -580 -140 -204 -523 -577 -807 -784 -298
-217 -434 -286 -930 -468 -27 -10 -70 -26 -95 -35 -150 -57 -388 -126 -662
-194 -221 -54 -335 -75 -568 -105 -374 -48 -435 -51 -905 -50 -451 1 -575 7
-875 44 -85 10 -186 21 -225 25 -164 16 -397 76 -544 140 -198 87 -564 300
-686 398 -109 88 -346 332 -428 442 -115 153 -236 429 -268 610 -7 42 -10 146
-7 293 5 243 19 340 88 607 42 163 59 203 179 403 133 221 139 247 98 377 -57
178 -83 359 -92 650 -6 204 -20 269 -58 273 -35 4 -50 -22 -73 -128 -39 -179
-15 -597 47 -820 26 -92 41 -122 75 -149 l26 -21 -40 -47 c-109 -132 -204
-306 -255 -473 -96 -308 -119 -443 -124 -725 -5 -220 -4 -235 21 -340 47 -203
153 -438 266 -590 142 -191 397 -442 560 -554 169 -116 559 -325 711 -381 101
-38 323 -96 399 -104 30 -4 170 -20 310 -36 367 -43 583 -53 1022 -47 393 5
527 15 888 66 352 50 801 165 1191 306 393 142 581 223 733 314 204 124 476
330 676 512 132 121 359 366 442 477 124 167 270 483 303 655 21 111 20 417
-1 567 l-17 115 84 75 c243 216 268 258 364 615 36 131 28 517 -15 724 -10 50
-30 112 -45 139 -35 65 -99 125 -154 146 -52 20 -253 30 -341 16z"/>
<path d="M6900 5114 c-285 -27 -399 -52 -567 -129 -87 -40 -151 -83 -221 -149
-85 -80 -105 -141 -59 -184 32 -30 57 -28 110 11 25 17 77 55 117 84 79 57
241 126 350 148 36 8 157 21 270 30 220 18 242 24 268 78 26 54 -37 131 -105
126 -10 -1 -83 -8 -163 -15z"/>
<path d="M3003 4929 c-59 -14 -203 -107 -226 -147 -16 -28 -18 -38 -8 -59 10
-22 16 -24 43 -19 17 3 68 27 112 53 75 44 86 48 146 47 71 -2 253 -34 505
-90 189 -42 319 -50 372 -21 55 29 69 81 33 117 -17 17 -33 20 -110 20 -63 0
-142 10 -263 35 -172 34 -470 76 -530 74 -18 -1 -51 -5 -74 -10z"/>
<path d="M6633 4306 c-61 -15 -91 -33 -147 -90 -115 -114 -116 -272 -2 -337
34 -20 55 -24 121 -24 102 1 150 16 204 62 79 67 113 190 77 276 -18 45 -91
105 -135 113 -20 3 -43 7 -51 9 -8 2 -38 -3 -67 -9z"/>
<path d="M3312 3969 c-50 -25 -81 -63 -118 -143 -22 -47 -27 -73 -26 -135 0
-112 26 -162 102 -201 76 -38 123 -35 254 19 72 29 129 140 130 256 1 79 -24
120 -109 175 -55 36 -74 43 -127 46 -50 3 -72 0 -106 -17z"/>
<path d="M5646 3189 c-10 -6 -33 -43 -51 -83 -29 -63 -38 -75 -83 -99 -63 -34
-595 -217 -632 -217 -39 0 -80 -35 -80 -69 0 -63 62 -97 159 -88 60 6 148 32
410 122 184 63 263 100 316 146 41 36 105 164 105 209 0 65 -86 112 -144 79z"/>
</g>
</svg>
