<?xml version="1.0" standalone="no"?>
<!DOCTYPE svg PUBLIC "-//W3C//DTD SVG 20010904//EN"
 "http://www.w3.org/TR/2001/REC-SVG-20010904/DTD/svg10.dtd">
<svg version="1.0" xmlns="http://www.w3.org/2000/svg"
 width="300.000000pt" height="303.000000pt" viewBox="0 0 300.000000 303.000000"
 preserveAspectRatio="xMidYMid meet">
<metadata>
Created by potrace 1.10, written by Peter Selinger 2001-2011
</metadata>
<g transform="translate(0.000000,303.000000) scale(0.050000,-0.050000)"
fill="#000000" stroke="none">
<path d="M2384 5836 c-54 -54 -12 -136 70 -136 34 0 65 -29 116 -109 80 -125
95 -206 31 -172 -121 65 -671 73 -866 12 -428 -133 -891 -544 -1171 -1041
-291 -515 -202 -1033 250 -1462 l107 -102 8 -169 c4 -93 25 -219 46 -282 l38
-112 -77 -158 c-309 -638 -132 -1208 492 -1583 293 -175 492 -207 1152 -182
1140 44 1816 288 2330 844 252 271 310 412 310 751 l0 193 88 81 c119 110 173
283 178 575 6 314 -45 374 -295 348 l-129 -13 40 142 c21 78 66 195 98 260
360 712 116 1467 -582 1807 -407 197 -1163 246 -1606 102 -86 -28 -161 -47
-166 -43 -29 30 43 179 116 237 86 69 100 142 35 183 -27 17 -55 2 -144 -73
-132 -113 -116 -112 -182 -12 -74 112 -228 173 -287 114z m1746 -527 c392 -83
821 -394 961 -697 112 -241 111 -451 -2 -822 -77 -254 -189 -666 -189 -696 0
-16 -47 -60 -105 -99 -58 -39 -168 -125 -245 -191 -119 -103 -146 -117 -186
-102 -26 10 -106 18 -179 18 -166 0 -154 13 36 40 209 29 219 34 219 99 0 79
-33 85 -265 50 -368 -55 -635 -158 -635 -245 0 -76 -164 -131 -273 -93 -123
44 -322 45 -481 2 -123 -33 -123 -33 -218 17 -51 27 -106 50 -121 50 -18 0
-14 13 13 40 52 52 24 115 -56 130 -30 6 -139 30 -244 55 -289 68 -423 50
-537 -71 -48 -52 -46 -133 3 -135 13 -1 -16 -22 -66 -47 l-90 -45 -195 101
c-185 97 -194 105 -195 167 0 54 -16 76 -100 139 -115 85 -290 312 -373 480
-304 619 515 1725 1381 1866 233 38 606 -21 668 -105 34 -45 87 -44 180 3 245
125 912 172 1294 91z m1214 -2354 c29 -207 -58 -573 -154 -647 -86 -65 -104
-126 -117 -402 -13 -285 -39 -343 -262 -581 -368 -392 -834 -606 -1711 -788
-246 -51 -1027 -75 -1209 -37 -191 40 -497 208 -665 368 -340 320 -389 695
-158 1184 106 223 105 212 51 371 -59 175 -51 175 189 -3 l218 -161 64 -197
c106 -327 224 -423 520 -428 300 -6 480 216 559 690 19 116 306 172 532 103
60 -18 123 -32 141 -32 26 2 35 -26 44 -131 32 -388 256 -604 625 -604 178 0
236 25 338 144 160 187 269 558 212 721 -22 63 -19 68 73 151 302 270 390 318
590 322 103 2 114 -2 120 -43z m-3264 -232 l110 -35 -200 -1 c-110 -1 -221 -8
-248 -16 -69 -22 -33 26 45 60 83 36 159 34 293 -8z m2293 -193 c171 -112 -87
-698 -319 -725 -297 -33 -491 157 -526 517 l-13 131 110 45 c216 88 635 106
748 32z m-2113 -10 c289 -55 290 -56 229 -291 -102 -395 -244 -507 -526 -416
-139 45 -151 62 -253 377 -99 302 -99 299 30 321 39 7 79 15 90 19 45 15 332
9 430 -10z"/>
<path d="M2166 4731 c-373 -162 -625 -586 -625 -1051 -1 -233 107 -432 205
-377 45 25 43 61 -8 161 -170 333 106 968 497 1140 102 45 128 90 74 129 -45
33 -62 33 -143 -2z"/>
<path d="M2560 4555 c-152 -318 -156 -798 -9 -936 98 -92 164 -2 94 127 -63
115 -49 529 23 694 84 193 92 280 23 280 -47 0 -62 -20 -131 -165z"/>
<path d="M3161 4621 c-70 -130 12 -679 128 -853 248 -374 1097 -864 1191 -688
24 45 -34 120 -95 120 -138 0 -468 185 -725 407 -300 257 -324 308 -360 759
-23 279 -75 375 -139 255z"/>
<path d="M1193 3507 c-79 -80 108 -467 225 -467 101 0 102 72 3 192 -44 52
-85 123 -92 157 -21 97 -93 160 -136 118z"/>
<path d="M3337 1771 c-24 -52 -45 -63 -287 -142 -193 -64 -191 -63 -177 -100
46 -121 567 101 567 242 0 67 -73 67 -103 0z"/>
<path d="M3830 2358 c-174 -167 -167 -238 26 -238 44 0 117 -13 163 -30 96
-33 161 -14 161 48 0 48 -31 72 -135 103 -97 29 -101 38 -44 90 49 45 46 136
-6 145 -22 4 -85 -41 -165 -118z"/>
<path d="M1969 2251 c-66 -66 -69 -195 -5 -240 120 -83 256 8 256 172 0 109
-165 154 -251 68z"/>
</g>
</svg>
